<?xml version="1.0" encoding="utf-8"?>
<!-- Generator: Adobe Illustrator 16.0.0, SVG Export Plug-In . SVG Version: 6.00 Build 0)  -->
<!DOCTYPE svg PUBLIC "-//W3C//DTD SVG 1.1//EN" "http://www.w3.org/Graphics/SVG/1.1/DTD/svg11.dtd">
<svg version="1.1" id="レイヤー_1" xmlns="http://www.w3.org/2000/svg" xmlns:xlink="http://www.w3.org/1999/xlink" x="0px"
	 y="0px" width="26px" height="33px" viewBox="0 0 26 33" enable-background="new 0 0 26 33" xml:space="preserve">
<g>
	<path fill="#4C4B4B" d="M25.452,12.35L25.452,12.35l0.006-0.006l-8.975-8.571L15.119,5.22L3.889,16.845l-3.315,11.35
		c-0.154,0.528,0.289,1.041,0.806,1.033c0.075-0.001,0.154-0.018,0.234-0.043l11.271-3.75l12.565-13.083L25.452,12.35z
		 M13.547,22.178c-0.084-0.57-0.352-1.101-0.771-1.501c-0.039-0.038-0.082-0.07-0.12-0.105l8.895-9.208l1.275,1.218l-5.751,5.95
		L13.547,22.178z M8.788,16.876c-0.039-0.035-0.071-0.078-0.11-0.116c-0.368-0.348-0.827-0.572-1.316-0.667
		c-0.076-0.016-0.153-0.036-0.232-0.046l9.275-9.6l1.28,1.22L8.788,16.876z M5.702,17.524l1.067-0.074
		c0.346-0.026,0.673,0.093,0.921,0.332c0.25,0.238,0.379,0.552,0.367,0.899c-0.023,0.74,0.274,1.453,0.806,1.959
		c0.536,0.513,1.266,0.779,2.007,0.727c0.341-0.029,0.668,0.091,0.918,0.328c0.249,0.238,0.383,0.557,0.367,0.9l-0.03,1.061
		l-0.226,0.231l-7.064,2.355l-1.434-1.371l2.075-7.116L5.702,17.524z M20.905,10.745l-8.969,9.283c0,0-0.7-0.103-1.169-0.069
		c-0.342,0.02-0.674-0.096-0.923-0.334c-0.248-0.236-0.374-0.557-0.365-0.896c0.011-0.379-0.127-1.159-0.127-1.159l8.975-9.288
		l2.565,2.451L20.905,10.745z"/>
</g>
</svg>
