<!--?xml version="1.0" encoding="utf-8"?-->
<!-- Generator: Adobe Illustrator 15.1.0, SVG Export Plug-In . SVG Version: 6.00 Build 0)  -->

<svg version="1.1" id="_x32_" xmlns="http://www.w3.org/2000/svg" xmlns:xlink="http://www.w3.org/1999/xlink" x="0px" y="0px" width="512px" height="512px" viewBox="0 0 512 512" style="width: 48px; height: 48px; opacity: 1;" xml:space="preserve">
<style type="text/css">

	.st0{fill:#4B4B4B;}

</style>
<g>
	<path class="st0" d="M510.054,352.369c-1.188-4.516-2.594-9-3.891-13.469c-7.625-26.547-15.266-53.109-22.922-79.656
		c-8.359-29.047-16.719-58.109-25.078-87.156c-2.203-7.625-4.391-15.266-6.594-22.891c-4.531-15.75-16.797-25.781-31.422-32.313
		c-23.813-10.656-54.047-14.875-79.891-15.484c-27.594-0.641-55.797,3.672-81.906,12.641c-5.078,1.75-13.406-2.875-18.609-4.281
		c-6.125-1.656-12.328-3.047-18.563-4.219c-13.766-2.547-27.719-3.938-41.703-4.156c-26.734-0.406-54.047,4.703-79.578,12.391
		c-5.625,2.109-1.609,0.625-0.359,0.141c-15.938,6.031-33.406,15.875-38.422,33.344c-1.266,4.375-2.516,8.75-3.781,13.109
		c-6.359,22.109-12.719,44.203-19.078,66.313c-8.703,30.219-17.391,60.438-26.094,90.656C7.101,334.916-2.931,357.51,0.819,376.01
		c4.594,22.891,27,33.438,48.641,29.016c7.594-1.547,14.594-5.063,21.844-7.672c12.141-4.344,24.563-8.016,37.188-10.641
		c30.438-6.313,61.328-2.969,91.234,4.75c6.672,1.719,31.703,6.031,32.422,13.516c0.672,6.953,8.688,5.063,13.719,5.063
		c5,0,10.016,0,15.016,0c4.594,0,12.266,1.594,16.625-0.328c4.375-1.891,1-6.672,5.109-8.453c5.609-2.422,11.406-4.438,17.25-6.25
		c13.625-4.234,27.609-7.406,41.734-9.469c30.203-4.406,58.75-1.219,87.766,7.938c16.984,5.344,33.453,15.234,51.875,11.938
		C506.366,400.963,516.647,375.291,510.054,352.369z M242.616,195.447c-0.984,53.063-1.969,106.125-2.953,159.188
		c-0.063,3.547-1.031,5.75-5,5.656c-21.484-12.781-47-20.156-71.656-23.266c-28.984-3.672-57.359,0.281-85.141,8.906
		c-8.609,2.672-18.266,8.516-27.391,8.516c-10.469,0-16.547-9.313-14.094-19.031c6.391-25.125,12.75-50.25,19.141-75.375
		c7.5-29.547,14.984-59.094,22.5-88.641c1.859-7.359,3.734-14.719,5.594-22.078c4.578-18,30.047-21.422,45.25-24.578
		c28.422-5.875,57.203-5.844,85.5,0.813c4.891,1.156,29.453,4.938,29.328,11.938C243.335,156.807,242.976,176.135,242.616,195.447z
		 M455.569,353.494c-23.391-9.719-49.172-16.547-74.5-17.844c-28.781-1.5-58.25,4.406-84.781,15.453
		c-3,1.25-23.031,15.656-23.828,5.422c-0.438-23.891-0.875-47.797-1.328-71.688c-0.906-49.359-1.813-98.719-2.734-148.094
		c-0.047-2.844,6.766-4.266,8.188-4.797c11.172-4.234,22.875-7.141,34.656-9.063c28.703-4.656,56.953-2.266,85.031,4.859
		c13.828,3.516,28.813,8.094,32.688,23.391c2.188,8.609,4.375,17.219,6.563,25.828c13.234,52.125,26.453,104.25,39.688,156.375
		C478.522,346.369,469.851,357.932,455.569,353.494z" style="fill: rgb(75, 75, 75);"></path>
</g>
</svg>
