<?xml version="1.0" encoding="utf-8"?>
<!-- Generator: Adobe Illustrator 16.0.0, SVG Export Plug-In . SVG Version: 6.00 Build 0)  -->
<!DOCTYPE svg PUBLIC "-//W3C//DTD SVG 1.1//EN" "http://www.w3.org/Graphics/SVG/1.1/DTD/svg11.dtd">
<svg version="1.1" id="レイヤー_1" xmlns="http://www.w3.org/2000/svg" xmlns:xlink="http://www.w3.org/1999/xlink" x="0px"
	 y="0px" width="54px" height="92px" viewBox="88 129 54 92" enable-background="new 88 129 54 92" xml:space="preserve">
<g>
	<g>
		<path fill="#F39A18" d="M140.439,209.355c-0.447-0.447-2.42-1.008-6.833-2.194c-0.622,0.624-1.935,2.012-4.541,4.041
			c2.897,0.56,9.621,0.821,10.726,0.382C141.268,210.99,140.824,209.741,140.439,209.355z"/>
		<path fill="#F39A18" d="M91.579,136.102c-0.94,0.148-2.868,1.138-2.288,1.961c0.375,0.537,5.168,0.981,9.457,2.494
			c1.018-1.416,2.2-2.341,2.789-2.779C95.676,135.954,92.301,135.989,91.579,136.102z"/>
		<path fill="#F39A18" d="M127.272,152.803c-2.618-6.681-10.466-10.5-18.786-12.717c-0.85,0.557-2.297,2.178-2.78,3.355
			c9.367,3.861,13.734,7.729,15.263,11.615c2.371,6.041-4.834,15.873-9.178,21.202c-4.949,6.066-9.72,12.321-7.963,18.574
			c2.045,7.272,11.53,13.272,16.444,14.199c0.743,0.141,4.356-3.66,4.356-3.8c-6.639-2.67-14.385-7.5-14.785-14.324
			c-0.291-4.942,4.447-11.311,8.063-15.67C123.85,168.081,130.412,160.805,127.272,152.803z"/>
	</g>
	<g>
		<path fill="#F39A18" d="M116.147,130.455c-2.956-0.865-29.392,14.372-23.117,33.35c2.095,6.336,11.868,10.037,17.276,12.127
			l2.468-2.768c-6.224-2.191-10.272-4.839-12.747-10.152c-6.936-14.91,14.035-29.682,16.12-31.103
			C117.176,131.211,116.687,130.615,116.147,130.455z"/>
		<path fill="#F39A18" d="M139.758,190.165c-3.027-9.058-12.554-12.401-20.056-14.838c0,0-1.639,1.226-2.456,2.743
			c7.122,2.546,12.473,4.865,14.822,11.806c1.755,5.183-1.729,13.875-11.191,20.502c-4.176,2.919-6.849,4.547-8.16,5.472
			c-1.811,1.271-3.168,4.138-0.246,3.684c0,0,7.662-3.164,14.506-8.549C128.633,209.68,142.85,199.406,139.758,190.165z"/>
	</g>
</g>
</svg>

