<?xml version="1.0" encoding="utf-8"?>
<!-- Generator: Adobe Illustrator 16.0.0, SVG Export Plug-In . SVG Version: 6.00 Build 0)  -->
<!DOCTYPE svg PUBLIC "-//W3C//DTD SVG 1.1//EN" "http://www.w3.org/Graphics/SVG/1.1/DTD/svg11.dtd">
<svg version="1.1" id="レイヤー_1" xmlns="http://www.w3.org/2000/svg" xmlns:xlink="http://www.w3.org/1999/xlink" x="0px"
	 y="0px" width="130px" height="40px" viewBox="0 0 130 40" enable-background="new 0 0 130 40" xml:space="preserve">
<g>
	<path fill="#4D4B4B" d="M31.724,38.176h-8.789L8.921,12.834v25.341h-8.35V1.824h11.206l11.597,20.825V1.824h8.35V38.176z"/>
	<path fill="#4D4B4B" d="M50.327,38.836c-2.783,0-5.229-0.27-7.337-0.807s-4.064-1.203-5.871-2.002v-8.643h0.83
		c1.822,1.547,3.833,2.734,6.03,3.564s4.329,1.246,6.396,1.246c0.521,0,1.208-0.057,2.063-0.172
		c0.854-0.113,1.542-0.293,2.063-0.537c0.635-0.275,1.172-0.662,1.611-1.16c0.439-0.496,0.659-1.15,0.659-1.965
		c0-0.91-0.358-1.65-1.074-2.221c-0.717-0.57-1.571-0.984-2.563-1.246c-1.237-0.324-2.56-0.635-3.968-0.928s-2.722-0.65-3.942-1.074
		c-2.816-0.992-4.834-2.327-6.055-4.003c-1.221-1.676-1.831-3.776-1.831-6.299c0-3.401,1.44-6.156,4.321-8.264
		c2.881-2.107,6.478-3.162,10.791-3.162c2.164,0,4.316,0.22,6.458,0.659c2.14,0.439,4.056,1.034,5.749,1.782v8.301h-0.806
		c-1.352-1.155-2.999-2.132-4.943-2.93c-1.946-0.797-3.943-1.196-5.994-1.196c-0.798,0-1.514,0.057-2.148,0.171
		c-0.635,0.114-1.303,0.334-2.002,0.659c-0.57,0.261-1.063,0.647-1.478,1.16s-0.622,1.086-0.622,1.721
		c0,0.928,0.329,1.665,0.988,2.209c0.659,0.545,1.933,1.038,3.821,1.477c1.221,0.277,2.396,0.545,3.527,0.806
		c1.131,0.261,2.34,0.619,3.626,1.074c2.522,0.912,4.398,2.136,5.627,3.674c1.229,1.537,1.844,3.568,1.844,6.092
		c0,3.613-1.42,6.518-4.26,8.715C58.998,37.736,55.161,38.836,50.327,38.836z"/>
	<path fill="#4D4B4B" d="M81.992,38.836c-2.783,0-5.229-0.27-7.336-0.807c-2.108-0.537-4.065-1.203-5.872-2.002v-8.643h0.83
		c1.822,1.547,3.833,2.734,6.03,3.564s4.329,1.246,6.396,1.246c0.521,0,1.209-0.057,2.063-0.172
		c0.855-0.113,1.542-0.293,2.063-0.537c0.635-0.275,1.172-0.662,1.611-1.16c0.439-0.496,0.659-1.15,0.659-1.965
		c0-0.91-0.358-1.65-1.074-2.221c-0.717-0.57-1.571-0.984-2.563-1.246c-1.237-0.324-2.56-0.635-3.968-0.928
		c-1.407-0.293-2.722-0.65-3.942-1.074c-2.816-0.992-4.834-2.327-6.055-4.003c-1.221-1.676-1.831-3.776-1.831-6.299
		c0-3.401,1.44-6.156,4.321-8.264c2.881-2.107,6.478-3.162,10.791-3.162c2.164,0,4.317,0.22,6.458,0.659
		c2.14,0.439,4.056,1.034,5.749,1.782v8.301h-0.806c-1.352-1.155-2.999-2.132-4.943-2.93c-1.945-0.797-3.943-1.196-5.994-1.196
		c-0.798,0-1.514,0.057-2.148,0.171c-0.635,0.114-1.303,0.334-2.002,0.659c-0.57,0.261-1.063,0.647-1.477,1.16
		c-0.416,0.513-0.623,1.086-0.623,1.721c0,0.928,0.33,1.665,0.988,2.209c0.66,0.545,1.933,1.038,3.821,1.477
		c1.221,0.277,2.396,0.545,3.528,0.806c1.131,0.261,2.339,0.619,3.625,1.074c2.522,0.912,4.398,2.136,5.627,3.674
		c1.229,1.537,1.844,3.568,1.844,6.092c0,3.613-1.42,6.518-4.26,8.715C90.663,37.736,86.826,38.836,81.992,38.836z"/>
	<path fill="#4D4B4B" d="M113.657,38.836c-2.783,0-5.229-0.27-7.336-0.807c-2.108-0.537-4.065-1.203-5.872-2.002v-8.643h0.83
		c1.822,1.547,3.833,2.734,6.03,3.564s4.329,1.246,6.396,1.246c0.521,0,1.209-0.057,2.063-0.172
		c0.855-0.113,1.542-0.293,2.063-0.537c0.635-0.275,1.172-0.662,1.611-1.16c0.439-0.496,0.659-1.15,0.659-1.965
		c0-0.91-0.358-1.65-1.074-2.221c-0.717-0.57-1.571-0.984-2.563-1.246c-1.237-0.324-2.56-0.635-3.968-0.928
		c-1.407-0.293-2.722-0.65-3.942-1.074c-2.816-0.992-4.834-2.327-6.055-4.003c-1.221-1.676-1.831-3.776-1.831-6.299
		c0-3.401,1.44-6.156,4.321-8.264c2.881-2.107,6.478-3.162,10.791-3.162c2.164,0,4.317,0.22,6.458,0.659
		c2.14,0.439,4.056,1.034,5.749,1.782v8.301h-0.806c-1.352-1.155-2.999-2.132-4.943-2.93c-1.945-0.797-3.943-1.196-5.994-1.196
		c-0.798,0-1.514,0.057-2.148,0.171c-0.635,0.114-1.303,0.334-2.002,0.659c-0.57,0.261-1.063,0.647-1.477,1.16
		c-0.416,0.513-0.623,1.086-0.623,1.721c0,0.928,0.33,1.665,0.988,2.209c0.66,0.545,1.933,1.038,3.821,1.477
		c1.221,0.277,2.396,0.545,3.528,0.806c1.131,0.261,2.339,0.619,3.625,1.074c2.522,0.912,4.398,2.136,5.627,3.674
		c1.229,1.537,1.844,3.568,1.844,6.092c0,3.613-1.42,6.518-4.26,8.715C122.328,37.736,118.491,38.836,113.657,38.836z"/>
</g>
</svg>
