<?xml version="1.0" encoding="utf-8"?>
<!-- Generator: Adobe Illustrator 16.0.0, SVG Export Plug-In . SVG Version: 6.00 Build 0)  -->
<!DOCTYPE svg PUBLIC "-//W3C//DTD SVG 1.1//EN" "http://www.w3.org/Graphics/SVG/1.1/DTD/svg11.dtd">
<svg version="1.1" id="レイヤー_1" xmlns="http://www.w3.org/2000/svg" xmlns:xlink="http://www.w3.org/1999/xlink" x="0px"
	 y="0px" width="50px" height="63px" viewBox="0 0 50 63" enable-background="new 0 0 50 63" xml:space="preserve">
<g>
	<g>
		<path fill="#4C4A4B" d="M39.768,28.868c0.145-0.28,0.313-0.549,0.51-0.805c0.829-1.084,1.893-1.626,3.189-1.626
			c0.68,0,1.331,0.209,1.956,0.628c0.397,0.268,0.815,0.655,1.255,1.162c0.363,0.419,0.572,0.628,0.628,0.628
			c0.075,0,0.358-0.269,0.849-0.808c0.491-0.538,0.736-0.855,0.736-0.952c0-0.068-0.045-0.168-0.134-0.298
			c-0.583-0.864-1.364-1.546-2.342-2.043s-1.994-0.746-3.051-0.746c-2.059,0-3.729,0.755-5.012,2.264
			c-0.688,0.809-1.181,1.725-1.479,2.749C37.907,28.915,38.877,28.862,39.768,28.868z"/>
		<path fill="#4C4A4B" d="M49.601,38.097c-0.131-1.688-0.195-3.025-0.195-4.013c0-0.24,0.008-0.603,0.025-1.086
			c0.017-0.483,0.025-0.846,0.025-1.086c0-0.22-0.071-0.329-0.216-0.329c-0.131,0-0.329,0.007-0.597,0.021s-0.467,0.021-0.597,0.021
			c-0.131,0-0.326-0.009-0.587-0.025c-0.261-0.018-0.456-0.026-0.587-0.026c-0.15,0-0.226,0.059-0.226,0.176
			c0,0.5,0.04,1.148,0.123,1.944c0.103,1.118,0.161,1.771,0.175,1.956c-1.05,0.686-2.202,1.028-3.458,1.028
			c-1.275,0-2.336-0.545-3.18-1.636c-0.775-1.009-1.163-2.168-1.163-3.479c0-0.142,0.007-0.279,0.016-0.416
			c-0.796-0.098-1.671-0.149-2.612-0.156c-0.01,0.188-0.017,0.379-0.017,0.572c0,2.052,0.617,3.791,1.853,5.218
			c1.303,1.509,2.963,2.264,4.98,2.264c1.729,0,3.225-0.429,4.486-1.286c0.11,0.082,0.362,0.221,0.757,0.416
			s0.644,0.294,0.746,0.294c0.186,0,0.271-0.076,0.257-0.227L49.601,38.097z"/>
	</g>
	<g>
		<path fill="#4C4A4B" d="M3.525,43.058c0,0.15-0.027,0.289-0.083,0.416c-0.056,0.126-0.143,0.235-0.26,0.327
			c-0.117,0.091-0.266,0.162-0.445,0.213c-0.181,0.051-0.394,0.076-0.641,0.076c-0.435,0-0.771-0.078-1.01-0.234
			c-0.238-0.155-0.392-0.381-0.459-0.677l0.538-0.106c0.021,0.087,0.053,0.167,0.097,0.238c0.044,0.072,0.104,0.135,0.178,0.188
			c0.076,0.052,0.168,0.093,0.277,0.12c0.11,0.028,0.242,0.043,0.396,0.043c0.131,0,0.25-0.012,0.356-0.034s0.197-0.058,0.273-0.104
			c0.076-0.046,0.135-0.106,0.176-0.179c0.041-0.073,0.062-0.16,0.062-0.262c0-0.113-0.028-0.205-0.086-0.276
			s-0.133-0.13-0.228-0.176s-0.202-0.084-0.322-0.113c-0.12-0.03-0.243-0.061-0.367-0.091c-0.096-0.023-0.19-0.047-0.286-0.07
			c-0.095-0.024-0.187-0.054-0.274-0.089c-0.089-0.034-0.17-0.075-0.246-0.122s-0.142-0.104-0.197-0.172
			c-0.056-0.068-0.101-0.147-0.132-0.237c-0.033-0.091-0.049-0.196-0.049-0.317c0-0.168,0.033-0.312,0.099-0.432
			c0.066-0.119,0.159-0.218,0.277-0.294c0.117-0.077,0.257-0.133,0.417-0.169c0.161-0.035,0.335-0.053,0.522-0.053
			c0.215,0,0.398,0.017,0.55,0.052c0.152,0.035,0.279,0.087,0.383,0.156s0.187,0.155,0.25,0.259
			c0.063,0.104,0.112,0.224,0.149,0.361l-0.545,0.082c-0.02-0.084-0.049-0.157-0.09-0.219c-0.04-0.063-0.092-0.114-0.156-0.156
			c-0.063-0.042-0.141-0.073-0.232-0.095c-0.091-0.021-0.198-0.031-0.32-0.031c-0.145,0-0.265,0.014-0.361,0.04
			S1.56,40.983,1.5,41.03c-0.059,0.047-0.101,0.101-0.126,0.163c-0.024,0.063-0.037,0.129-0.037,0.2c0,0.099,0.023,0.18,0.07,0.243
			c0.047,0.064,0.11,0.117,0.191,0.16s0.176,0.079,0.283,0.109c0.108,0.029,0.225,0.06,0.35,0.091
			c0.103,0.024,0.207,0.049,0.312,0.074c0.105,0.026,0.206,0.057,0.301,0.091c0.096,0.035,0.185,0.077,0.268,0.125
			c0.083,0.049,0.155,0.108,0.217,0.18s0.109,0.154,0.145,0.251C3.507,42.813,3.525,42.927,3.525,43.058z"/>
		<path fill="#4C4A4B" d="M7.312,43.322c-0.077,0.174-0.183,0.318-0.317,0.432c-0.136,0.114-0.295,0.199-0.479,0.254
			c-0.185,0.055-0.384,0.082-0.599,0.082c-0.207,0-0.397-0.025-0.572-0.077c-0.174-0.052-0.325-0.133-0.454-0.241
			c-0.128-0.109-0.229-0.248-0.3-0.417c-0.072-0.169-0.108-0.369-0.108-0.602v-2.234h0.563v2.183c0,0.167,0.022,0.31,0.067,0.43
			c0.045,0.119,0.108,0.217,0.188,0.293c0.08,0.076,0.175,0.132,0.284,0.168c0.108,0.037,0.227,0.055,0.353,0.055
			s0.245-0.019,0.358-0.057s0.212-0.098,0.298-0.177c0.086-0.08,0.153-0.182,0.203-0.305c0.051-0.123,0.075-0.268,0.075-0.436
			v-2.154h0.555v2.183C7.426,42.94,7.388,43.147,7.312,43.322z"/>
		<path fill="#4C4A4B" d="M11.195,41.587c0,0.149-0.025,0.29-0.075,0.424c-0.05,0.135-0.126,0.252-0.228,0.353
			c-0.102,0.102-0.23,0.182-0.385,0.24c-0.155,0.059-0.338,0.089-0.548,0.089H9.14v1.349H8.579v-3.522h1.35
			c0.215,0,0.401,0.026,0.56,0.078s0.29,0.124,0.395,0.217c0.105,0.093,0.184,0.205,0.235,0.337
			C11.169,41.281,11.195,41.428,11.195,41.587z M10.628,41.592c0-0.21-0.064-0.373-0.191-0.489c-0.128-0.116-0.32-0.174-0.577-0.174
			H9.14v1.358h0.744c0.129,0,0.24-0.018,0.334-0.052c0.094-0.035,0.171-0.083,0.231-0.145s0.105-0.134,0.135-0.219
			S10.628,41.694,10.628,41.592z"/>
		<path fill="#4C4A4B" d="M14.697,44.041h-2.556v-3.522h2.449v0.438h-1.888v1.071h1.737v0.429h-1.737v1.15h1.994V44.041z"/>
		<path fill="#4C4A4B" d="M18.247,41.544c0,0.112-0.017,0.223-0.05,0.328c-0.032,0.105-0.083,0.202-0.152,0.29
			c-0.068,0.089-0.155,0.165-0.261,0.229c-0.104,0.064-0.229,0.112-0.373,0.143l0.984,1.507H17.76l-0.89-1.448h-0.679v1.448H15.63
			v-3.522h1.345c0.207,0,0.39,0.024,0.548,0.071c0.158,0.048,0.291,0.116,0.398,0.204s0.188,0.195,0.243,0.322
			S18.247,41.386,18.247,41.544z M17.68,41.549c0-0.202-0.066-0.356-0.199-0.462c-0.132-0.105-0.316-0.158-0.555-0.158h-0.734v1.26
			h0.754c0.128,0,0.238-0.017,0.331-0.05s0.169-0.078,0.229-0.136s0.104-0.125,0.132-0.202C17.666,41.723,17.68,41.639,17.68,41.549
			z"/>
		<path fill="#4C4A4B" d="M20.763,44.09c-0.286,0-0.535-0.045-0.747-0.136c-0.211-0.091-0.387-0.217-0.525-0.379
			s-0.242-0.355-0.31-0.578c-0.068-0.223-0.103-0.468-0.103-0.734c0-0.274,0.034-0.522,0.103-0.743
			c0.067-0.222,0.17-0.409,0.306-0.564c0.137-0.155,0.309-0.275,0.516-0.358c0.206-0.084,0.448-0.126,0.727-0.126
			c0.213,0,0.398,0.024,0.555,0.073c0.156,0.05,0.291,0.115,0.404,0.196c0.113,0.082,0.209,0.176,0.286,0.281
			s0.143,0.216,0.196,0.331l-0.499,0.182c-0.034-0.074-0.077-0.148-0.129-0.224c-0.052-0.073-0.114-0.141-0.188-0.199
			c-0.074-0.06-0.162-0.106-0.265-0.144c-0.102-0.036-0.219-0.054-0.351-0.054c-0.192,0-0.357,0.032-0.496,0.097
			c-0.138,0.064-0.251,0.155-0.339,0.272s-0.153,0.259-0.195,0.425c-0.042,0.167-0.063,0.352-0.063,0.555
			c0,0.202,0.022,0.389,0.069,0.558c0.046,0.17,0.115,0.315,0.208,0.438s0.209,0.218,0.349,0.286
			c0.14,0.067,0.304,0.102,0.491,0.102c0.135,0,0.256-0.021,0.36-0.065c0.105-0.044,0.197-0.1,0.276-0.167s0.146-0.144,0.202-0.227
			s0.102-0.165,0.137-0.246l0.492,0.203c-0.059,0.118-0.127,0.233-0.207,0.347s-0.178,0.214-0.293,0.303
			c-0.116,0.089-0.253,0.161-0.411,0.215S20.976,44.09,20.763,44.09z"/>
		<path fill="#4C4A4B" d="M26.415,42.263c0,0.276-0.039,0.526-0.117,0.752c-0.078,0.225-0.191,0.416-0.338,0.576
			c-0.148,0.16-0.329,0.283-0.543,0.369c-0.214,0.087-0.456,0.13-0.726,0.13c-0.286,0-0.537-0.045-0.752-0.136
			c-0.216-0.091-0.396-0.217-0.539-0.379s-0.252-0.355-0.324-0.578c-0.071-0.223-0.107-0.468-0.107-0.734
			c0-0.274,0.038-0.522,0.114-0.743c0.075-0.222,0.187-0.409,0.334-0.564c0.146-0.155,0.328-0.275,0.543-0.358
			c0.215-0.084,0.46-0.126,0.736-0.126s0.521,0.042,0.735,0.127s0.394,0.205,0.539,0.361c0.145,0.155,0.255,0.344,0.332,0.564
			C26.378,41.743,26.415,41.99,26.415,42.263z M25.849,42.263c0-0.203-0.025-0.388-0.075-0.555c-0.05-0.166-0.124-0.308-0.221-0.425
			s-0.217-0.208-0.36-0.272c-0.145-0.064-0.31-0.097-0.497-0.097c-0.194,0-0.363,0.032-0.508,0.097s-0.266,0.155-0.362,0.272
			s-0.169,0.259-0.218,0.425c-0.049,0.167-0.072,0.352-0.072,0.555c0,0.202,0.024,0.389,0.074,0.558
			c0.051,0.17,0.124,0.315,0.221,0.438s0.218,0.218,0.361,0.286c0.144,0.067,0.31,0.102,0.499,0.102
			c0.202,0,0.376-0.035,0.522-0.104c0.146-0.069,0.266-0.165,0.36-0.288c0.095-0.122,0.164-0.269,0.208-0.438
			C25.827,42.648,25.849,42.463,25.849,42.263z"/>
		<path fill="#4C4A4B" d="M27.412,40.519h0.746l1.013,2.436c0.053,0.12,0.105,0.266,0.157,0.434
			c0.059-0.175,0.114-0.326,0.167-0.456l0.986-2.413h0.739v3.522h-0.499v-2.294c0-0.2,0.005-0.432,0.015-0.695
			c-0.073,0.203-0.162,0.439-0.267,0.708l-0.929,2.281h-0.429l-0.995-2.408c-0.069-0.171-0.143-0.364-0.219-0.581
			c0.01,0.282,0.015,0.513,0.015,0.69v2.299h-0.501V40.519z"/>
		<path fill="#4C4A4B" d="M35.008,41.587c0,0.149-0.024,0.29-0.075,0.424c-0.05,0.135-0.126,0.252-0.228,0.353
			c-0.102,0.102-0.23,0.182-0.385,0.24c-0.155,0.059-0.338,0.089-0.548,0.089h-0.818v1.349h-0.563v-3.522h1.35
			c0.215,0,0.401,0.026,0.56,0.078s0.29,0.124,0.395,0.217c0.105,0.093,0.184,0.205,0.235,0.337
			C34.982,41.281,35.008,41.428,35.008,41.587z M34.441,41.592c0-0.21-0.064-0.373-0.191-0.489c-0.128-0.116-0.32-0.174-0.577-0.174
			h-0.719v1.358h0.743c0.13,0,0.241-0.018,0.335-0.052c0.093-0.035,0.17-0.083,0.231-0.145c0.06-0.062,0.104-0.134,0.134-0.219
			S34.441,41.694,34.441,41.592z"/>
		<path fill="#4C4A4B" d="M38.758,43.322c-0.076,0.174-0.182,0.318-0.317,0.432c-0.135,0.114-0.294,0.199-0.479,0.254
			c-0.184,0.055-0.383,0.082-0.598,0.082c-0.207,0-0.397-0.025-0.572-0.077c-0.174-0.052-0.325-0.133-0.454-0.241
			c-0.129-0.109-0.229-0.248-0.301-0.417c-0.071-0.169-0.107-0.369-0.107-0.602v-2.234h0.562v2.183c0,0.167,0.023,0.31,0.068,0.43
			c0.045,0.119,0.107,0.217,0.188,0.293s0.175,0.132,0.284,0.168c0.108,0.037,0.226,0.055,0.352,0.055
			c0.127,0,0.246-0.019,0.359-0.057c0.112-0.038,0.212-0.098,0.298-0.177c0.085-0.08,0.153-0.182,0.203-0.305
			c0.051-0.123,0.075-0.268,0.075-0.436v-2.154h0.555v2.183C38.873,42.94,38.835,43.147,38.758,43.322z"/>
		<path fill="#4C4A4B" d="M42.566,40.519v0.448h-1.207v3.074h-0.557v-3.074h-1.17v-0.448H42.566z"/>
		<path fill="#4C4A4B" d="M45.887,44.041H43.33v-3.522h2.45v0.438h-1.888v1.071h1.737v0.429h-1.737v1.15h1.994V44.041z"/>
		<path fill="#4C4A4B" d="M49.437,41.544c0,0.112-0.017,0.223-0.05,0.328s-0.084,0.202-0.152,0.29
			c-0.068,0.089-0.155,0.165-0.261,0.229c-0.104,0.064-0.229,0.112-0.373,0.143l0.984,1.507H48.95l-0.89-1.448h-0.679v1.448H46.82
			v-3.522h1.345c0.206,0,0.389,0.024,0.547,0.071c0.158,0.048,0.292,0.116,0.398,0.204c0.107,0.088,0.189,0.195,0.244,0.322
			S49.437,41.386,49.437,41.544z M48.87,41.549c0-0.202-0.066-0.356-0.199-0.462c-0.132-0.105-0.317-0.158-0.555-0.158h-0.734v1.26
			h0.754c0.128,0,0.238-0.017,0.331-0.05s0.169-0.078,0.229-0.136s0.104-0.125,0.132-0.202C48.855,41.723,48.87,41.639,48.87,41.549
			z"/>
	</g>
	<polygon fill="#4C4A4B" points="1.224,27.866 1.224,28.208 4.926,26.081 4.926,25.703 	"/>
	<polygon fill="#4C4A4B" points="1.224,32.262 1.224,32.572 4.926,31.294 4.926,30.931 	"/>
	<g>
		<polygon fill="#4C4A4B" points="1.605,37.858 1.605,24.415 4.926,21.444 4.939,20.086 0.388,24.22 0.388,38.807 4.956,38.807 
			4.956,37.858 		"/>
		<polygon fill="#4C4A4B" points="7.051,19.489 6.435,18.91 5.819,19.498 5.819,38.807 7.051,38.807 		"/>
		<polygon fill="#4C4A4B" points="9.684,38.807 9.684,20.911 7.937,19.889 7.937,20.832 8.581,21.26 8.581,37.848 8.104,37.849 
			8.104,38.807 		"/>
		<polygon fill="#4C4A4B" points="12.205,38.807 12.205,22.204 10.46,21.258 10.46,22.31 11.155,22.784 11.155,37.849 
			10.684,37.849 10.696,38.807 		"/>
		<polygon fill="#4C4A4B" points="13.153,22.719 13.153,23.795 14.235,24.449 14.235,37.858 13.155,37.858 13.151,38.807 
			15.319,38.807 15.319,23.934 		"/>
	</g>
	<circle fill="#4C4A4B" cx="33.438" cy="22.143" r="1.58"/>
	<g>
		<path fill="#4C4A4B" d="M17.02,27.22c0.062,2.161,0.092,3.656,0.092,4.486c0,0.758-0.035,1.891-0.106,3.396
			c0.741-0.361,1.506-0.72,2.3-1.07c0.06-0.026,0.119-0.052,0.179-0.077c-0.001-0.103-0.003-0.204-0.005-0.309
			c-0.034-2.116-0.051-3.703-0.051-4.76c0-0.281,0.034-0.422,0.103-0.422c0.075,0.068,0.347,0.405,0.813,1.009
			c0.861,1.131,1.656,2.179,2.393,3.149c0.771-0.293,1.539-0.571,2.304-0.833c-2.354-3.112-4.167-5.543-5.437-7.287
			c-0.151-0.199-0.258-0.299-0.319-0.299c-0.13,0-0.309,0.021-0.535,0.062c-0.268,0.049-0.449,0.076-0.545,0.083
			c-0.255,0.021-0.604,0.034-1.05,0.041c-0.172,0.007-0.254,0.062-0.247,0.165l0.01,0.133C16.971,25.813,17.006,26.657,17.02,27.22z
			"/>
		<path fill="#4C4A4B" d="M27.298,31.059c0.81-0.246,1.608-0.472,2.396-0.678c0.014-0.638,0.035-1.394,0.066-2.276
			c0.055-1.592,0.082-2.782,0.082-3.571c0-0.15-0.072-0.227-0.216-0.227c-0.131,0-0.326,0.011-0.587,0.031s-0.456,0.031-0.587,0.031
			c-0.123,0-0.311-0.011-0.561-0.031s-0.438-0.031-0.561-0.031c-0.138,0-0.206,0.114-0.206,0.34c0,0.886,0.032,2.22,0.098,4.004
			C27.257,29.573,27.281,30.374,27.298,31.059z"/>
		<path fill="#4C4A4B" d="M17,35.228c-0.068,1.469-0.104,2.574-0.104,3.312c0,0.138,0.086,0.206,0.258,0.206
			c0.123,0,0.307-0.01,0.551-0.03c0.243-0.021,0.427-0.031,0.55-0.031c0.117,0,0.295,0.011,0.535,0.031s0.419,0.03,0.535,0.03
			c0.138,0,0.206-0.112,0.206-0.339c0-0.949-0.014-2.328-0.042-4.133C18.626,34.582,17.795,34.901,17,35.228z"/>
		<path fill="#4C4A4B" d="M29.678,31.686c0-0.028,0-0.063,0-0.092c-0.771,0.128-1.561,0.278-2.362,0.449
			c0.003,0.225,0.005,0.435,0.005,0.62c0,1.029-0.024,1.688-0.072,1.977c-0.123-0.131-0.257-0.285-0.401-0.464
			c-0.453-0.596-0.887-1.17-1.308-1.726c-0.805,0.197-1.618,0.415-2.439,0.653c1.668,2.203,2.997,3.972,3.985,5.303
			c0.171,0.227,0.318,0.339,0.442,0.339c0.109,0,0.277-0.01,0.504-0.03s0.395-0.031,0.505-0.031c0.103,0,0.257,0.011,0.463,0.031
			s0.36,0.03,0.463,0.03c0.172,0,0.257-0.112,0.257-0.339c0-0.748-0.007-1.868-0.021-3.36S29.678,32.434,29.678,31.686z"/>
	</g>
	<g>
		<path fill="#4C4A4B" d="M32.205,29.779c0.862-0.186,1.701-0.343,2.513-0.473c0.012-0.409,0.025-0.851,0.043-1.336
			c0.055-1.537,0.082-2.689,0.082-3.458c0-0.137-0.089-0.206-0.268-0.206c-0.123,0-0.309,0.011-0.556,0.031
			c-0.246,0.021-0.432,0.031-0.556,0.031c-0.137,0-0.339-0.011-0.606-0.031s-0.467-0.031-0.598-0.031
			c-0.157,0-0.236,0.086-0.236,0.258c0,0.762,0.036,1.905,0.108,3.432C32.163,28.666,32.188,29.257,32.205,29.779z"/>
		<path fill="#4C4A4B" d="M34.679,31.429c0-0.121,0.001-0.256,0.002-0.396c-0.782,0.04-1.598,0.107-2.442,0.202
			c0.001,0.065,0.001,0.133,0.001,0.193c0,0.789-0.036,1.971-0.107,3.545c-0.072,1.574-0.108,2.753-0.108,3.535
			c0,0.158,0.086,0.236,0.257,0.236c0.124,0,0.313-0.01,0.566-0.03s0.446-0.031,0.576-0.031c0.124,0,0.313,0.011,0.566,0.031
			s0.442,0.03,0.565,0.03c0.199,0,0.299-0.072,0.299-0.216c0-0.789-0.029-1.973-0.088-3.55
			C34.708,33.401,34.679,32.218,34.679,31.429z"/>
	</g>
</g>
</svg>
