<?xml version="1.0" encoding="utf-8"?>
<!-- Generator: Adobe Illustrator 16.0.0, SVG Export Plug-In . SVG Version: 6.00 Build 0)  -->
<!DOCTYPE svg PUBLIC "-//W3C//DTD SVG 1.1//EN" "http://www.w3.org/Graphics/SVG/1.1/DTD/svg11.dtd">
<svg version="1.1" id="レイヤー_1" xmlns="http://www.w3.org/2000/svg" xmlns:xlink="http://www.w3.org/1999/xlink" x="0px"
	 y="0px" width="50px" height="63px" viewBox="0 -11.5 50 63" enable-background="new 0 -11.5 50 63" xml:space="preserve">
<g>
	<g>
		<path fill="#4C4A4B" d="M39.73,19.892c0.146-0.279,0.313-0.547,0.508-0.804c0.828-1.08,1.891-1.622,3.185-1.622
			c0.677,0,1.327,0.209,1.951,0.626c0.396,0.268,0.813,0.655,1.252,1.161c0.36,0.417,0.569,0.626,0.626,0.626
			c0.076,0,0.357-0.269,0.848-0.805c0.488-0.537,0.732-0.854,0.732-0.95c0-0.069-0.045-0.169-0.133-0.297
			c-0.581-0.862-1.36-1.542-2.336-2.038c-0.975-0.497-1.989-0.745-3.045-0.745c-2.053,0-3.719,0.753-4.998,2.259
			c-0.687,0.806-1.178,1.72-1.475,2.742C37.877,19.938,38.844,19.887,39.73,19.892z"/>
		<path fill="#4C4A4B" d="M49.541,29.098c-0.13-1.684-0.195-3.018-0.195-4.004c0-0.238,0.01-0.6,0.026-1.082
			s0.024-0.845,0.024-1.084c0-0.218-0.07-0.328-0.217-0.328c-0.127,0-0.326,0.008-0.594,0.021c-0.27,0.014-0.466,0.021-0.596,0.021
			c-0.131,0-0.326-0.009-0.586-0.025c-0.26-0.018-0.455-0.025-0.584-0.025c-0.152,0-0.229,0.059-0.229,0.176
			c0,0.498,0.041,1.145,0.124,1.939c0.104,1.113,0.16,1.766,0.175,1.949c-1.047,0.686-2.197,1.027-3.449,1.027
			c-1.272,0-2.33-0.545-3.172-1.634c-0.773-1.006-1.16-2.161-1.16-3.47c0-0.143,0.007-0.277,0.016-0.414
			c-0.794-0.1-1.667-0.15-2.605-0.156c-0.011,0.188-0.017,0.377-0.017,0.57c0,2.046,0.616,3.781,1.849,5.205
			c1.299,1.506,2.955,2.259,4.967,2.259c1.727,0,3.218-0.428,4.478-1.282c0.108,0.082,0.361,0.221,0.755,0.414
			c0.395,0.195,0.643,0.293,0.744,0.293c0.186,0,0.271-0.074,0.256-0.227L49.541,29.098z"/>
	</g>
	<polygon fill="#4C4A4B" points="1.283,18.892 1.283,19.232 4.976,17.111 4.976,16.734 	"/>
	<polygon fill="#4C4A4B" points="1.283,23.277 1.283,23.588 4.976,22.313 4.976,21.949 	"/>
	<g>
		<polygon fill="#4C4A4B" points="1.663,28.859 1.663,15.449 4.976,12.486 4.987,11.13 0.447,15.254 0.447,29.807 5.004,29.807 
			5.004,28.859 		"/>
		<polygon fill="#4C4A4B" points="7.096,10.536 6.48,9.957 5.866,10.544 5.866,29.807 7.096,29.807 		"/>
		<polygon fill="#4C4A4B" points="9.723,29.807 9.723,11.953 7.979,10.934 7.979,11.875 8.622,12.301 8.622,28.85 8.146,28.85 
			8.146,29.807 		"/>
		<polygon fill="#4C4A4B" points="12.235,29.807 12.235,13.243 10.497,12.299 10.497,13.349 11.188,13.822 11.188,28.85 
			10.72,28.85 10.729,29.807 		"/>
		<polygon fill="#4C4A4B" points="13.182,13.757 13.182,14.83 14.262,15.482 14.262,28.859 13.185,28.859 13.18,29.807 
			15.343,29.807 15.343,14.969 		"/>
	</g>
	<circle fill="#4C4A4B" cx="33.418" cy="13.183" r="1.576"/>
	<g>
		<path fill="#4C4A4B" d="M17.04,18.247c0.061,2.156,0.092,3.649,0.092,4.478c0,0.754-0.036,1.885-0.107,3.387
			c0.74-0.36,1.502-0.719,2.295-1.067c0.059-0.026,0.119-0.052,0.178-0.077c-0.001-0.102-0.003-0.203-0.004-0.309
			c-0.035-2.111-0.052-3.693-0.052-4.748c0-0.279,0.034-0.42,0.103-0.42c0.075,0.069,0.345,0.404,0.812,1.006
			c0.858,1.127,1.652,2.174,2.386,3.143c0.769-0.293,1.536-0.57,2.298-0.832c-2.349-3.105-4.157-5.53-5.424-7.27
			c-0.15-0.199-0.256-0.298-0.318-0.298c-0.13,0-0.308,0.021-0.534,0.063c-0.267,0.047-0.448,0.075-0.544,0.082
			c-0.253,0.021-0.602,0.035-1.047,0.041c-0.171,0.007-0.253,0.062-0.247,0.165l0.011,0.133
			C16.992,16.844,17.025,17.686,17.04,18.247z"/>
		<path fill="#4C4A4B" d="M27.292,22.076c0.808-0.245,1.604-0.471,2.392-0.676c0.012-0.637,0.034-1.39,0.064-2.271
			c0.055-1.587,0.083-2.775,0.083-3.563c0-0.15-0.073-0.226-0.218-0.226c-0.129,0-0.323,0.011-0.584,0.031
			c-0.26,0.021-0.455,0.031-0.586,0.031c-0.123,0-0.31-0.01-0.56-0.031c-0.249-0.02-0.437-0.031-0.56-0.031
			c-0.139,0-0.205,0.114-0.205,0.338c0,0.883,0.031,2.214,0.097,3.995C27.251,20.596,27.275,21.393,27.292,22.076z"/>
		<path fill="#4C4A4B" d="M17.021,26.236c-0.069,1.465-0.104,2.566-0.104,3.303c0,0.139,0.085,0.206,0.256,0.206
			c0.124,0,0.306-0.011,0.549-0.031c0.243-0.021,0.426-0.03,0.549-0.03c0.117,0,0.294,0.01,0.534,0.03
			c0.239,0.021,0.417,0.031,0.533,0.031c0.137,0,0.206-0.113,0.206-0.339c0-0.947-0.014-2.322-0.042-4.123
			C18.643,25.592,17.813,25.909,17.021,26.236z"/>
		<path fill="#4C4A4B" d="M29.666,22.702c0-0.028,0.001-0.062,0.001-0.093c-0.771,0.129-1.558,0.277-2.356,0.447
			c0.004,0.225,0.006,0.435,0.006,0.621c0,1.026-0.025,1.682-0.072,1.971c-0.123-0.131-0.258-0.285-0.4-0.461
			c-0.451-0.597-0.886-1.168-1.305-1.724c-0.803,0.197-1.614,0.414-2.434,0.651c1.664,2.197,2.99,3.963,3.975,5.289
			c0.171,0.227,0.318,0.34,0.441,0.34c0.108,0,0.276-0.01,0.502-0.031c0.227-0.021,0.395-0.031,0.504-0.031
			c0.103,0,0.257,0.012,0.461,0.031c0.205,0.021,0.359,0.031,0.463,0.031c0.171,0,0.257-0.113,0.257-0.34
			c0-0.745-0.007-1.862-0.021-3.352C29.673,24.566,29.666,23.449,29.666,22.702z"/>
	</g>
	<g>
		<path fill="#4C4A4B" d="M32.188,20.801c0.861-0.185,1.697-0.343,2.508-0.472c0.012-0.408,0.025-0.849,0.043-1.333
			c0.055-1.532,0.082-2.682,0.082-3.449c0-0.136-0.09-0.205-0.268-0.205c-0.123,0-0.309,0.011-0.555,0.031
			c-0.246,0.021-0.432,0.031-0.555,0.031c-0.137,0-0.34-0.01-0.605-0.031c-0.268-0.02-0.465-0.031-0.596-0.031
			c-0.157,0-0.236,0.086-0.236,0.256c0,0.761,0.036,1.902,0.107,3.425C32.146,19.689,32.17,20.279,32.188,20.801z"/>
		<path fill="#4C4A4B" d="M34.654,22.445c0-0.121,0.003-0.254,0.003-0.396c-0.779,0.04-1.595,0.106-2.437,0.202
			c0,0.064,0.002,0.132,0.002,0.193c0,0.787-0.037,1.966-0.109,3.535c-0.071,1.57-0.107,2.746-0.107,3.526
			c0,0.157,0.086,0.236,0.258,0.236c0.123,0,0.312-0.011,0.564-0.031s0.443-0.03,0.574-0.03c0.123,0,0.312,0.01,0.563,0.03
			c0.255,0.021,0.442,0.031,0.565,0.031c0.197,0,0.298-0.072,0.298-0.216c0-0.787-0.029-1.969-0.087-3.543
			C34.686,24.413,34.654,23.232,34.654,22.445z"/>
	</g>
</g>
</svg>
