<?xml version="1.0" encoding="utf-8"?>
<!-- Generator: Adobe Illustrator 16.0.0, SVG Export Plug-In . SVG Version: 6.00 Build 0)  -->
<!DOCTYPE svg PUBLIC "-//W3C//DTD SVG 1.1//EN" "http://www.w3.org/Graphics/SVG/1.1/DTD/svg11.dtd">
<svg version="1.1" id="レイヤー_1" xmlns="http://www.w3.org/2000/svg" xmlns:xlink="http://www.w3.org/1999/xlink" x="0px"
	 y="0px" width="26px" height="28px" viewBox="0 2.5 26 28" enable-background="new 0 2.5 26 28" xml:space="preserve">
<g>
	
		<polygon fill="#4C4A4B" stroke="#4C4A4B" stroke-width="0.6" stroke-linecap="round" stroke-linejoin="round" stroke-miterlimit="10" points="
		3.906,15.139 3.906,15.607 8.984,12.689 8.984,12.171 	"/>
	
		<polygon fill="#4C4A4B" stroke="#4C4A4B" stroke-width="0.6" stroke-linecap="round" stroke-linejoin="round" stroke-miterlimit="10" points="
		3.906,21.167 3.906,21.593 8.984,19.841 8.984,19.343 	"/>
	<g>
		
			<polygon fill="#4C4A4B" stroke="#4C4A4B" stroke-width="0.6" stroke-linecap="round" stroke-linejoin="round" stroke-miterlimit="10" points="
			4.428,28.845 4.428,10.405 8.984,6.329 9.003,4.465 2.759,10.137 2.759,30.146 9.026,30.146 9.026,28.845 		"/>
		
			<polygon fill="#4C4A4B" stroke="#4C4A4B" stroke-width="0.6" stroke-linecap="round" stroke-linejoin="round" stroke-miterlimit="10" points="
			11.898,3.648 11.056,2.854 10.21,3.66 10.21,30.146 11.898,30.146 		"/>
		
			<polygon fill="#4C4A4B" stroke="#4C4A4B" stroke-width="0.6" stroke-linecap="round" stroke-linejoin="round" stroke-miterlimit="10" points="
			15.511,30.146 15.511,5.599 13.116,4.195 13.116,5.49 13.999,6.077 13.999,28.831 13.344,28.831 13.344,30.146 		"/>
		
			<polygon fill="#4C4A4B" stroke="#4C4A4B" stroke-width="0.6" stroke-linecap="round" stroke-linejoin="round" stroke-miterlimit="10" points="
			18.968,30.146 18.968,7.371 16.575,6.073 16.575,7.518 17.528,8.167 17.528,28.831 16.884,28.831 16.898,30.146 		"/>
		
			<polygon fill="#4C4A4B" stroke="#4C4A4B" stroke-width="0.6" stroke-linecap="round" stroke-linejoin="round" stroke-miterlimit="10" points="
			20.27,8.077 20.27,9.553 21.755,10.451 21.755,28.845 20.271,28.845 20.266,30.146 23.241,30.146 23.241,9.744 		"/>
	</g>
</g>
</svg>
