<!--?xml version="1.0" encoding="utf-8"?-->
<!-- Generator: Adobe Illustrator 18.0.0, SVG Export Plug-In . SVG Version: 6.00 Build 0)  -->

<svg version="1.1" id="_x32_" xmlns="http://www.w3.org/2000/svg" xmlns:xlink="http://www.w3.org/1999/xlink" x="0px" y="0px" viewBox="0 0 512 512" style="width: 32px; height: 32px; opacity: 1;" xml:space="preserve">
<style type="text/css">
	.st0{fill:#4B4B4B;}
</style>
<g>
	<path class="st0" d="M379.379,306.344c17.691-30.174,27.857-65.291,27.857-102.725s-10.166-72.551-27.857-102.725
		c-17.692-30.144-42.893-55.346-73.037-73.037C276.168,10.166,241.052,0,203.618,0c-37.433,0-72.55,10.166-102.724,27.858
		C70.75,45.549,45.549,70.75,27.857,100.895C10.166,131.069,0,166.186,0,203.62s10.166,72.55,27.857,102.725
		c17.692,30.144,42.893,55.346,73.037,73.037c30.174,17.691,65.291,27.858,102.724,27.858c37.434,0,72.55-10.166,102.724-27.858
		C336.486,361.69,361.688,336.489,379.379,306.344z M227.934,300.973c-7.791,1.948-15.936,2.981-24.316,2.981
		c-8.38,0-16.525-1.033-24.316-2.981c-35.825-8.942-64.095-37.212-73.037-73.037c-1.948-7.791-2.981-15.936-2.981-24.316
		s1.033-16.526,2.981-24.316c8.942-35.825,37.212-64.096,73.037-73.038c7.791-1.948,15.936-2.98,24.316-2.98
		c8.381,0,16.526,1.033,24.316,2.98c35.825,8.942,64.095,37.212,73.037,73.038c1.948,7.791,2.98,15.936,2.98,24.316
		s-1.033,16.526-2.98,24.316C292.03,263.761,263.759,292.032,227.934,300.973z" style="fill: rgb(75, 75, 75);"></path>
	<path class="st0" d="M496.872,423.839l-85.357-85.358c-18.96,29.141-43.896,54.078-73.037,73.038l85.358,85.358
		C433.913,506.954,447.134,512,460.354,512s26.441-5.046,36.518-15.124C517.042,476.706,517.042,444.009,496.872,423.839z" style="fill: rgb(75, 75, 75);"></path>
</g>
</svg>
