<?xml version="1.0" encoding="utf-8"?>
<!-- Generator: Adobe Illustrator 16.0.0, SVG Export Plug-In . SVG Version: 6.00 Build 0)  -->
<!DOCTYPE svg PUBLIC "-//W3C//DTD SVG 1.1//EN" "http://www.w3.org/Graphics/SVG/1.1/DTD/svg11.dtd">
<svg version="1.1" id="レイヤー_1" xmlns="http://www.w3.org/2000/svg" xmlns:xlink="http://www.w3.org/1999/xlink" x="0px"
	 y="0px" width="26px" height="33px" viewBox="0 0 26 33" enable-background="new 0 0 26 33" xml:space="preserve">
<g>
	<g>
		<path fill="#4C4B4B" d="M24.156,5.602H1.841c-0.944,0-1.709,0.766-1.709,1.71v14.273c0,0.945,0.765,1.711,1.709,1.711h9.348v0.379
			c0,0.945-0.766,1.711-1.71,1.711H6.966v2.012h3.681h4.707h3.678v-2.012H16.52c-0.943,0-1.711-0.766-1.711-1.711v-0.379h9.348
			c0.943,0,1.713-0.766,1.713-1.711V7.313C25.869,6.368,25.1,5.602,24.156,5.602z M23.455,19.51c0,0.314-0.256,0.57-0.57,0.57H3.114
			c-0.314,0-0.57-0.256-0.57-0.57V8.585c0-0.314,0.256-0.57,0.57-0.57h19.771c0.314,0,0.57,0.256,0.57,0.57V19.51z"/>
	</g>
	<polygon fill="#4C4B4B" points="6.081,16.813 5.575,16.188 9.704,12.84 13,15.28 16.527,11.021 20.375,13.271 19.969,13.965 
		16.711,12.06 13.133,16.38 9.727,13.858 	"/>
	<g>
		<circle fill="#4C4B4B" cx="5.828" cy="16.667" r="1.039"/>
		<path fill="#4C4B4B" d="M5.829,18.109c-0.795,0-1.442-0.646-1.442-1.442c0-0.794,0.647-1.441,1.442-1.441
			c0.793,0,1.439,0.646,1.439,1.441C7.268,17.463,6.622,18.109,5.829,18.109z M5.829,16.031c-0.352,0-0.637,0.286-0.637,0.637
			c0,0.35,0.286,0.637,0.637,0.637c0.351,0,0.637-0.287,0.637-0.637C6.466,16.316,6.179,16.031,5.829,16.031z"/>
	</g>
	<g>
		<circle fill="#4C4B4B" cx="9.48" cy="13.656" r="1.038"/>
		<path fill="#4C4B4B" d="M9.479,15.098c-0.794,0-1.439-0.646-1.439-1.441s0.645-1.441,1.439-1.441c0.796,0,1.441,0.646,1.441,1.441
			S10.275,15.098,9.479,15.098z M9.479,13.019c-0.35,0-0.636,0.287-0.636,0.637c0,0.352,0.287,0.636,0.636,0.636
			c0.351,0,0.636-0.285,0.636-0.636C10.115,13.306,9.83,13.019,9.479,13.019z"/>
	</g>
	<g>
		<circle fill="#4C4B4B" cx="13" cy="15.869" r="1.038"/>
		<path fill="#4C4B4B" d="M13,17.309c-0.795,0-1.44-0.646-1.44-1.439c0-0.795,0.645-1.441,1.44-1.441
			c0.794,0,1.439,0.646,1.439,1.441C14.439,16.663,13.794,17.309,13,17.309z M13,15.232c-0.352,0-0.637,0.286-0.637,0.637
			s0.286,0.636,0.637,0.636s0.635-0.285,0.635-0.636S13.352,15.232,13,15.232z"/>
	</g>
	<g>
		<path fill="#4C4B4B" d="M17.727,11.686c0,0.574-0.463,1.039-1.039,1.039c-0.572,0-1.037-0.465-1.037-1.039
			s0.465-1.039,1.037-1.039C17.264,10.647,17.727,11.112,17.727,11.686z"/>
		<path fill="#4C4B4B" d="M16.688,13.127c-0.797,0-1.439-0.647-1.439-1.441s0.643-1.441,1.439-1.441
			c0.795,0,1.441,0.647,1.441,1.441S17.482,13.127,16.688,13.127z M16.688,11.049c-0.35,0-0.637,0.286-0.637,0.637
			s0.287,0.637,0.637,0.637c0.352,0,0.637-0.286,0.637-0.637S17.039,11.049,16.688,11.049z"/>
	</g>
	<g>
		<circle fill="#4C4B4B" cx="20.17" cy="13.764" r="1.039"/>
		<path fill="#4C4B4B" d="M20.17,15.205c-0.793,0-1.438-0.646-1.438-1.441c0-0.795,0.645-1.441,1.438-1.441
			c0.797,0,1.439,0.646,1.439,1.441C21.609,14.559,20.967,15.205,20.17,15.205z M20.17,13.127c-0.352,0-0.637,0.286-0.637,0.637
			S19.818,14.4,20.17,14.4s0.639-0.286,0.639-0.637S20.521,13.127,20.17,13.127z"/>
	</g>
	<rect x="3.762" y="9.358" fill="#4C4B4B" width="4.131" height="1.334"/>
	<rect x="18.568" y="17.393" fill="#4C4B4B" width="4.133" height="1.336"/>
</g>
</svg>
