<?xml version="1.0" encoding="utf-8"?>
<!-- Generator: Adobe Illustrator 16.0.0, SVG Export Plug-In . SVG Version: 6.00 Build 0)  -->
<!DOCTYPE svg PUBLIC "-//W3C//DTD SVG 1.1//EN" "http://www.w3.org/Graphics/SVG/1.1/DTD/svg11.dtd">
<svg version="1.1" id="レイヤー_1" xmlns="http://www.w3.org/2000/svg" xmlns:xlink="http://www.w3.org/1999/xlink" x="0px"
	 y="0px" width="26px" height="33px" viewBox="0 0 26 33" enable-background="new 0 0 26 33" xml:space="preserve">
<g>
	<path fill="#4C4B4B" stroke="#4C4B4B" stroke-width="0.3" stroke-miterlimit="10" d="M25.579,8.613
		c-0.264-0.608-0.721-1.132-1.299-1.582c-0.87-0.677-2.031-1.204-3.389-1.574c-1.358-0.37-2.914-0.578-4.571-0.578
		c-2.525,0.002-4.815,0.479-6.53,1.288C8.933,6.574,8.216,7.063,7.688,7.651C7.425,7.946,7.211,8.267,7.06,8.613
		C6.911,8.96,6.826,9.334,6.827,9.716v1.506l1.31,0.993v-0.218c0.757,0.693,1.82,1.246,3.092,1.654
		c1.466,0.469,3.213,0.737,5.091,0.737c2.503-0.001,4.772-0.476,6.459-1.271c0.678-0.322,1.258-0.697,1.724-1.126v2.945
		c-0.093,0.199-0.227,0.399-0.405,0.602c-0.58,0.653-1.631,1.271-2.985,1.7c-1.354,0.434-3.009,0.691-4.792,0.691
		c-0.465,0-0.916-0.021-1.36-0.057l-1.146,0.869c0.799,0.109,1.637,0.17,2.506,0.17c2.503-0.002,4.772-0.477,6.459-1.273
		c0.678-0.32,1.258-0.697,1.724-1.125v2.945c-0.093,0.201-0.227,0.4-0.405,0.604c-0.58,0.652-1.631,1.268-2.985,1.699
		c-1.354,0.434-3.009,0.691-4.792,0.689c-2.313,0.002-4.408-0.438-5.913-1.121L9.53,21.996c0.51,0.268,1.079,0.502,1.699,0.701
		c1.466,0.469,3.213,0.736,5.091,0.736c2.503,0,4.772-0.475,6.459-1.271c0.678-0.322,1.258-0.697,1.724-1.125v2.246
		c0,0.195-0.04,0.385-0.125,0.584c-0.148,0.344-0.448,0.715-0.902,1.068c-0.679,0.531-1.695,1.01-2.93,1.344
		c-1.231,0.336-2.679,0.533-4.226,0.531c-2.356,0.004-4.485-0.457-5.969-1.162c-0.742-0.35-1.32-0.76-1.687-1.174
		c-0.184-0.205-0.317-0.41-0.402-0.607c-0.085-0.199-0.125-0.389-0.125-0.584v-0.23l-1.215,0.922
		c0.037,0.141,0.082,0.279,0.139,0.412c0.263,0.607,0.72,1.131,1.298,1.582c0.87,0.676,2.032,1.203,3.39,1.574
		c1.357,0.369,2.915,0.578,4.571,0.578c2.524-0.002,4.814-0.479,6.529-1.289c0.857-0.406,1.574-0.896,2.102-1.484
		c0.263-0.293,0.478-0.615,0.628-0.961s0.234-0.721,0.233-1.104V9.716C25.813,9.334,25.729,8.96,25.579,8.613z M24.503,10.414
		c-0.093,0.2-0.227,0.4-0.405,0.603c-0.58,0.653-1.631,1.269-2.985,1.7c-1.354,0.434-3.009,0.691-4.792,0.69
		c-2.378,0.002-4.527-0.46-6.04-1.178c-0.757-0.357-1.352-0.778-1.739-1.213c-0.179-0.202-0.313-0.402-0.405-0.603V9.716
		c0-0.195,0.04-0.385,0.125-0.582c0.148-0.346,0.447-0.716,0.902-1.07c0.679-0.531,1.696-1.01,2.929-1.344
		c1.232-0.336,2.681-0.532,4.228-0.531c2.355-0.003,4.485,0.458,5.969,1.161c0.742,0.351,1.319,0.763,1.686,1.176
		c0.185,0.205,0.318,0.409,0.403,0.608c0.084,0.197,0.125,0.387,0.125,0.582V10.414L24.503,10.414z"/>
	<polygon fill="#4C4B4B" points="12.128,17.635 4.604,11.923 4.604,14.908 0.188,14.908 0.188,20.359 4.604,20.359 4.604,23.344 	
		"/>
</g>
</svg>
