<?xml version="1.0" encoding="utf-8"?>
<!-- Generator: Adobe Illustrator 16.0.0, SVG Export Plug-In . SVG Version: 6.00 Build 0)  -->
<!DOCTYPE svg PUBLIC "-//W3C//DTD SVG 1.1//EN" "http://www.w3.org/Graphics/SVG/1.1/DTD/svg11.dtd">
<svg version="1.1" id="レイヤー_1" xmlns="http://www.w3.org/2000/svg" xmlns:xlink="http://www.w3.org/1999/xlink" x="0px"
	 y="0px" width="50px" height="63px" viewBox="0 0 50 63" enable-background="new 0 0 50 63" xml:space="preserve">
<g>
	<path fill="#4C4B4B" d="M38.042,30.243l0.376,6.627c0.057,0.963-0.514,1.854-1.721,2.682c-1.2,0.823-2.842,1.482-4.928,1.964
		c-2.08,0.479-4.338,0.724-6.771,0.724s-4.688-0.242-6.772-0.724c-2.081-0.479-3.725-1.141-4.927-1.964
		c-1.201-0.825-1.774-1.719-1.72-2.682l0.377-6.627l12.036,3.795c0.308,0.098,0.645,0.147,1.006,0.147
		c0.36,0,0.699-0.053,1.008-0.147L38.042,30.243z M49.154,23.45c0,0.32-0.154,0.538-0.463,0.648l-23.482,7.381
		C25.152,31.495,25.085,31.5,25,31.5s-0.152-0.005-0.208-0.021L11.119,27.16c-0.602,0.478-1.099,1.255-1.487,2.339
		c-0.392,1.084-0.629,2.332-0.714,3.737c0.882,0.508,1.319,1.271,1.319,2.289c0,0.968-0.403,1.715-1.217,2.246l1.217,9.076
		c0.028,0.196-0.026,0.372-0.167,0.524c-0.127,0.151-0.294,0.229-0.505,0.229H5.544c-0.211,0-0.379-0.078-0.505-0.229
		c-0.142-0.152-0.195-0.328-0.167-0.524l1.217-9.076c-0.813-0.531-1.217-1.278-1.217-2.246c0-1.02,0.454-1.799,1.359-2.33
		C6.388,30.305,7.074,28,8.289,26.279l-6.98-2.181c-0.31-0.11-0.463-0.328-0.463-0.648c0-0.322,0.153-0.538,0.463-0.65l23.483-7.38
		c0.056-0.016,0.123-0.021,0.208-0.021s0.152,0.007,0.209,0.021l23.482,7.38C49,22.912,49.154,23.128,49.154,23.45z"/>
</g>
</svg>
