<svg id="レイヤー_1" data-name="レイヤー 1" xmlns="http://www.w3.org/2000/svg" viewBox="0 0 40 40"><defs><style>.cls-1{fill-rule:evenodd;}</style></defs><title>icon-Github</title><path class="cls-1" d="M20,6.77a12.89,12.89,0,0,0-4.07,25.11c.64.12.88-.28.88-.62s0-1.32,0-2.4c-3.58.78-4.34-1.52-4.34-1.52A3.46,3.46,0,0,0,11,25.45c-1.17-.8.09-.78.09-.78a2.7,2.7,0,0,1,2,1.33,2.74,2.74,0,0,0,3.75,1.07,2.75,2.75,0,0,1,.82-1.72C14.79,25,11.78,23.92,11.78,19a5,5,0,0,1,1.33-3.46,4.58,4.58,0,0,1,.12-3.41s1.08-.34,3.55,1.32A12.32,12.32,0,0,1,20,13a12.45,12.45,0,0,1,3.23.43c2.46-1.66,3.54-1.32,3.54-1.32a4.58,4.58,0,0,1,.12,3.41A5,5,0,0,1,28.22,19c0,4.95-3,6-5.88,6.36a3.08,3.08,0,0,1,.87,2.38c0,1.73,0,3.11,0,3.54s.23.74.88.62A12.89,12.89,0,0,0,20,6.77Z"/><path d="M12,25.27a.17.17,0,0,1-.22,0c-.1,0-.15-.13-.12-.2a.17.17,0,0,1,.22,0c.1.05.15.13.12.2Z"/><path d="M12.52,25.85c-.06.06-.18,0-.27-.06s-.1-.21,0-.27a.2.2,0,0,1,.26.06.2.2,0,0,1,0,.27Z"/><path d="M13,26.59c-.08.06-.21,0-.29-.11a.23.23,0,0,1,0-.31c.08-.05.21,0,.29.11s.08.26,0,.31Z"/><path d="M13.72,27.31c-.07.08-.22.06-.33,0a.25.25,0,0,1-.07-.33c.07-.08.22-.06.33.05s.15.25.07.33Z"/><path d="M14.68,27.72c0,.11-.17.15-.32.11s-.24-.16-.21-.27.17-.15.32-.1.24.16.21.26Z"/><path d="M15.74,27.8c0,.11-.12.2-.28.2s-.28-.08-.28-.19.12-.19.28-.2.28.09.28.19Z"/><path d="M16.72,27.63c0,.11-.09.21-.24.24s-.29,0-.31-.14.09-.21.24-.24.29,0,.31.14Z"/></svg>