<svg id="レイヤー_1" data-name="レイヤー 1" xmlns="http://www.w3.org/2000/svg" viewBox="0 0 40 40"><defs><style>.cls-1{fill:#cf2200;}</style></defs><title>icon-YouTube</title><path class="cls-1" d="M34,19.89a36.59,36.59,0,0,1-.59,6.78,3.45,3.45,0,0,1-2.47,2.44C28.75,29.7,20,29.7,20,29.7s-8.75,0-10.93-.59A3.45,3.45,0,0,1,6.6,26.67,36.59,36.59,0,0,1,6,19.89a36.59,36.59,0,0,1,.59-6.78,3.5,3.5,0,0,1,2.47-2.48C11.25,10,20,10,20,10s8.75,0,10.93.59a3.5,3.5,0,0,1,2.47,2.48A36.59,36.59,0,0,1,34,19.89Zm-9.54,0-7.31-4.16v8.32Z"/></svg>