<svg xmlns="http://www.w3.org/2000/svg" viewBox="0 0 40 40"><defs><style>.cls-1{fill:#00abf1;}</style></defs><path class="cls-1" d="M30.86,15.3a14.94,14.94,0,0,1-15,15A14.89,14.89,0,0,1,7.7,28a10.8,10.8,0,0,0,7.84-2.19,5.31,5.31,0,0,1-4.95-3.67,6.63,6.63,0,0,0,1,.08A5.3,5.3,0,0,0,13,22a5.27,5.27,0,0,1-4.23-5.18v-.07a5.3,5.3,0,0,0,2.39.67A5.29,5.29,0,0,1,9.5,10.36a15,15,0,0,0,10.9,5.53,6.06,6.06,0,0,1-.13-1.21,5.3,5.3,0,0,1,9.15-3.62,10.29,10.29,0,0,0,3.35-1.27,5.25,5.25,0,0,1-2.32,2.91,10.44,10.44,0,0,0,3-.82,11.49,11.49,0,0,1-2.65,2.74C30.86,14.84,30.86,15.08,30.86,15.3Z"/></svg>