<svg id="レイヤー_1" data-name="レイヤー 1" xmlns="http://www.w3.org/2000/svg" viewBox="0 0 144 32"><defs><style>.cls-1{fill:#fff;}.cls-2{fill:#424d99;}.cls-3{fill:#9f9d6c;}</style></defs><title>logo-NIC</title><path d="M36.31,14.29H46.72V25.93H36.31Zm9.35,1h-8.3v9.59h8.3ZM41.9,19.4h2.81v.91H41.9v2.57h3.23v1H37.89v-1h3V20.31H38.35V19.4h2.54V17.29H38.13v-.94H45v.94H41.89V19.4Zm1.59,3.25a8.23,8.23,0,0,0-1-1.76l.9-.42a8.19,8.19,0,0,1,1,1.73Z"/><path d="M60.69,24.56v1.11H49.39V24.56h6.32a35.41,35.41,0,0,0,1.8-7.1l1.18.22a36.86,36.86,0,0,1-1.85,6.88Zm-.44-8.91v1.11H49.86V15.65h4.59v-2h1.14v2Zm-7.59,8.12a25.55,25.55,0,0,0-1.16-5.86l1-.28a27.27,27.27,0,0,1,1.3,6Z"/><path d="M74.63,24.88l-.2,1.06H68.37a3.47,3.47,0,0,1-3.08-1.46,14.93,14.93,0,0,1-1.68,1.8l-.48-1.21a13.17,13.17,0,0,0,1.41-1.24V20H63.26V18.94h2.3v4.2a2,2,0,0,0,1.3,1.47l-.35-.7a6.31,6.31,0,0,0,2-.75H66.79V18.5h6.92v4.66H72.29a5,5,0,0,0,1.95.86l-.42.85a6.57,6.57,0,0,1-2.27-1.19l.35-.52h-3l.37.48a6.73,6.73,0,0,1-2.07,1.08,5,5,0,0,0,1.24.16Zm-9.47-8a10.22,10.22,0,0,0-1.76-2.33l.71-.7A10.89,10.89,0,0,1,66,16.13Zm5.54.26h3.81v.77H66v-.77h3.76v-.65h-3v-2.2h3v-.62h.94v.62h3v2.2h-3ZM69.76,15H67.71v.77h2.05Zm3,4.23h-5v.63h5Zm0,1.2h-5v.68h5Zm-5,1.29v.69h5v-.69Zm5.06-6V15H70.7v.77Z"/><path d="M79.4,26.27H78.32V19.32a8.68,8.68,0,0,1-.94,1.26l-.49-1.19a12.21,12.21,0,0,0,2.34-5.75l1.09.21a17,17,0,0,1-.92,3.3Zm6.95-5.67a21.72,21.72,0,0,1,2,5.31l-1.11.38c-.08-.4-.12-.62-.28-1.3a52.13,52.13,0,0,1-6.64.83l-.16-1.09,1.11-.06a53.44,53.44,0,0,0,1.5-5.3H80.29v-1h8.06v1H83.9c-.44,1.75-1,3.48-1.53,5.22,1.47-.13,3.18-.34,4.27-.56a19.61,19.61,0,0,0-1.24-3ZM88,14.41v1.07H80.7V14.41Z"/><path d="M92.8,19.14v-1h7.39v.92a13.61,13.61,0,0,1-3.09,2.15v.33h5.1v1H97.1v2.61a1,1,0,0,1-1,1.09H93.84l-.21-1.17,2,0c.36,0,.37-.14.37-.41V22.58H90.83v-1H96V20.43h.56a9.75,9.75,0,0,0,2.06-1.29ZM99,15.93a16.69,16.69,0,0,0,.89-2.23l1.11.39a12.72,12.72,0,0,1-.87,1.84h1.78v3h-1V17H92.16v2h-1v-3H92.9a11.51,11.51,0,0,0-.84-1.77l1-.41A8.32,8.32,0,0,1,94,15.67l-.63.26Zm-2.7,0A10.74,10.74,0,0,0,95.4,14l1-.4a10.16,10.16,0,0,1,.93,2Z"/><path d="M108.74,18.11v7.51h-3.2V20.7a5.71,5.71,0,0,1-.62.85l-.48-1.23a8.74,8.74,0,0,0,1.61-5.07h-1.41v-1h4.27v1h-1.85a14.85,14.85,0,0,1-.45,2.86ZM106.5,24.6h1.32V19.12H106.5Zm8.06-5.88H116v1h-1.39v6.49H113.5V19.76h-1.93v.83c0,3-.84,4.8-1.67,5.66l-.93-.8a6.94,6.94,0,0,0,1.55-4.93v-.76h-1.28v-1h1.28V15.25h-1.09v-1h6.35v1h-1.22Zm-3-3.47v3.47h1.93V15.25Z"/><path d="M123.82,18.77a12.11,12.11,0,0,1-.12,1.51h3.43v4.37c0,.31,0,.37.34.37h.7a.35.35,0,0,0,.41-.3c0-.3.08-1.3.08-1.64l1,.25c-.07,2.37-.08,2.75-1.07,2.75h-1.49c-.92,0-1-.53-1-1.13V21.33H123.5c-.23,1.05-.83,3.7-4.69,5l-.51-1.11c3.38-.75,3.87-2.73,4.17-3.88H119v-1h3.69c0-.41.09-.76.12-1.51Zm5.5-3.94v2.44h-.44c-.12,1.52-.38,1.69-1.1,1.69h-2.09c-1,0-1-.46-1-1V15.85H123a5,5,0,0,1-3.77,3.67l-.36-1A3.74,3.74,0,0,0,122,15.85h-2.27V17.5h-1V14.84h4.81V13.67h1v1.17h4.83Zm-3.75,2.78c0,.26,0,.38.37.38h1.47c.44,0,.45-.09.52-1l.41.1V15.85h-2.77Z"/><path d="M133.73,21.55c0,.61-.07,3.21-1,4.66l-.92-.77a9.4,9.4,0,0,0,.88-4.28V16.62h4.35v4.93Zm3.79-7.42v1h-5.43v-1ZM136,17.64h-2.3V20.5H136Zm3,1.65c0,4.47-1.29,6.17-1.83,6.89l-.95-.75c1.61-1.75,1.72-4.66,1.72-5.86v-5a11.94,11.94,0,0,0,4.47-1l.62,1a14,14,0,0,1-4,.95v2.29h4.24v1.05h-1.44v7.33h-1V18.92h-1.75v.37Z"/><path d="M40.93,11.16a4.05,4.05,0,0,1-2.17-2.7,4.11,4.11,0,0,1-2.22,2.69l-.29-.47a3.76,3.76,0,0,0,2.18-2.95h-2.1V7.25h2.13V5.83H39V7.25h2.19v.48H39a3.59,3.59,0,0,0,2.2,2.94Z"/><path d="M42.36,8.15V7.73h3.15v.39A6,6,0,0,1,44.19,9v.14h2.18v.44H44.19v1.12a.41.41,0,0,1-.45.46H42.8l-.08-.5h.84c.16,0,.17-.06.17-.18V9.62H41.52V9.18h2.21V8.7H44a3.5,3.5,0,0,0,.88-.55ZM45,6.78a5.77,5.77,0,0,0,.39-1l.47.17a7.45,7.45,0,0,1-.37.79h.76V8.06h-.45V7.22H42.08v.84h-.44V6.79h.76A4.22,4.22,0,0,0,42,6l.41-.17a3.23,3.23,0,0,1,.4.82l-.27.11H45Zm-1.15,0A4.42,4.42,0,0,0,43.47,6l.42-.18a4.3,4.3,0,0,1,.39.84Z"/><path d="M48,5.83h.47v1h1.42v-1h.47v1h1.07v.47H50.31V8.85h1.25v.46H46.7V8.85H48V7.33H46.88V6.86H48Zm-1.2,5a3.65,3.65,0,0,0,1.41-1.24l.42.25a4.94,4.94,0,0,1-1.48,1.39Zm1.67-3.48V8.85h1.42V7.33Zm2.74,3.88a6,6,0,0,1-1.43-1.37l.38-.27a5.12,5.12,0,0,0,1.41,1.22Z"/><path d="M52.13,6h4.43v4.64c0,.4-.17.52-.54.52h-.74l-.08-.49h.71c.14,0,.19,0,.19-.2v-4H52.59v4.71h-.46V6Zm3.66,1v.42H52.9V7Zm-2.65,3.1V8h2.39v2.14Zm2-1.71H53.57v1.3h1.52Z"/><path d="M59.33,9.5a4.66,4.66,0,0,1-.62-1v2.68h-.45V8.6a5.75,5.75,0,0,1-1,1.54l-.22-.52a5.53,5.53,0,0,0,1.14-1.8H57.13V7.36h1.13V6.53c-.49.06-.68.07-1,.09l-.1-.44a8.12,8.12,0,0,0,2.28-.38l.19.42a5.18,5.18,0,0,1-.94.24v.9h.92v.46h-.92a5.22,5.22,0,0,0,.86,1.26Zm1.12.5H60V6.25h.47Zm1.36.69a.44.44,0,0,1-.49.5H60.5l-.1-.51.74,0c.17,0,.2,0,.2-.19V5.82h.47v4.87Z"/><path d="M65,11.15H64.6V9.41H63.28a3.32,3.32,0,0,1-.62,1.76l-.37-.39a3.14,3.14,0,0,0,.59-2V6.07h4v4.65c0,.45-.28.48-.44.48h-.68l-.06-.48h.56c.12,0,.15,0,.15-.16V9.41H65ZM64.6,8H63.32V9H64.6Zm0-1.43H63.32v1H64.6Zm1.81,1v-1H65v1Zm0,1.47V8H65V9Z"/><path d="M72.11,9.36a3.06,3.06,0,0,1-.72,1c.24.41.4.41.43.41s.27-.51.32-.72l.35.29c-.18.75-.37.88-.66.88s-.54-.18-.76-.59a3.29,3.29,0,0,1-1.07.55l-.18-.4a3,3,0,0,0,1.06-.53A5.85,5.85,0,0,1,70.55,9h-1c0,.13,0,.18,0,.37a3.48,3.48,0,0,1,.87.58l-.24.37a2.66,2.66,0,0,0-.66-.55,2.59,2.59,0,0,1-.46,1.42l-.32-.34A2.87,2.87,0,0,0,69.19,9H69V8.66L68.79,9a3.09,3.09,0,0,1-.24-.61v2.82h-.4V8.66a5.5,5.5,0,0,1-.41,1.21l-.22-.56a5.83,5.83,0,0,0,.61-1.92h-.54V6.94h.56V5.83h.4V6.94H69v.45h-.4v.26a3.62,3.62,0,0,0,.47.94h1.46a25.64,25.64,0,0,1-.14-2.76h.42a24.32,24.32,0,0,0,.15,2.76h.78a5,5,0,0,0-.45-.3L71.42,8l-.53,0,0-.35H71l.41-.51a2.69,2.69,0,0,0-.56-.61L71,6.32l.11.09a4.71,4.71,0,0,0,.34-.6l.32.14a5.05,5.05,0,0,1-.44.7,2.35,2.35,0,0,1,.22.26c.15-.22.25-.37.38-.6l.28.18a14.57,14.57,0,0,1-.87,1.21l.62,0a2.34,2.34,0,0,0-.11-.3l.3-.13a5,5,0,0,1,.27.86l-.31.15c0-.14,0-.16-.07-.28a3.58,3.58,0,0,1-.57.07,4.88,4.88,0,0,1,.46.32l-.19.26h.66V9H71a7.93,7.93,0,0,0,.23.91,3,3,0,0,0,.53-.74ZM70.27,6.52c-.31.48-.71,1-.93,1.29.27,0,.29,0,.54,0a1.85,1.85,0,0,0-.11-.31l.3-.13a4.49,4.49,0,0,1,.27.88L70,8.33a1.94,1.94,0,0,0,0-.24c-.33.05-.59.06-1.11.1l0-.37H69c.13-.16.19-.23.44-.58a4.75,4.75,0,0,0-.58-.63L69,6.32l.13.11a3.18,3.18,0,0,0,.38-.62l.32.14a3.68,3.68,0,0,1-.47.7,2.33,2.33,0,0,1,.21.27c.16-.23.24-.35.38-.59Z"/><path d="M73.56,7.88v3.3h-.43V6h2V7.88Zm1.1-1.11V6.36h-1.1v.41Zm-1.1.31v.45h1.1V7.08ZM76.81,9.4v.36H75.67a2.07,2.07,0,0,0,.93.75l-.2.39a2.13,2.13,0,0,1-1.06-1A2.16,2.16,0,0,1,74.1,11l-.23-.4A1.5,1.5,0,0,0,75,9.75H73.88V9.4h1.19a3.45,3.45,0,0,0,.06-.47H74V8.58h.57a4.62,4.62,0,0,0-.2-.48L74.81,8a4.27,4.27,0,0,1,.18.54h.7c.06-.17.1-.32.16-.53l.42.05a3.82,3.82,0,0,1-.16.48h.58v.36H75.53a2.31,2.31,0,0,1,0,.46h1.33ZM75.6,7.88V6h2v4.73c0,.38-.2.44-.4.44h-.53l-.13-.46H77c.11,0,.14,0,.14-.2V7.88Zm1.53-1.11V6.36H76v.41ZM76,7.53h1.11V7.08H76Z"/><path d="M78.12,10.7a7.28,7.28,0,0,0,1-1.88l.36.29a8,8,0,0,1-1,2ZM79,8.4a3.87,3.87,0,0,0-.86-.6l.23-.41a4.78,4.78,0,0,1,.91.6Zm.24-1.51a4.47,4.47,0,0,0-.88-.64l.25-.39a5.64,5.64,0,0,1,.92.6ZM82,9.17A6.65,6.65,0,0,1,83,11l-.44.23c-.07-.15-.1-.23-.22-.48a21,21,0,0,1-2.84.26l-.07-.46h.38a9.94,9.94,0,0,0,.74-1.86h-1V8.22H81V7.14H79.74V6.7H81V5.82h.45V6.7h1.35v.44H81.48V8.22H83v.44H81.1a10.23,10.23,0,0,1-.78,1.84c.48,0,1.22-.07,1.85-.15a7.61,7.61,0,0,0-.58-.94Z"/><path d="M86.07,6.45a4.5,4.5,0,0,0,2.21,4.26l-.31.47A4.54,4.54,0,0,1,85.81,8a4.34,4.34,0,0,1-2.19,3.11l-.31-.46A3.68,3.68,0,0,0,85,9a5.64,5.64,0,0,0,.56-2.46V5.84h.51Z"/><path d="M90.44,8.43A5.17,5.17,0,0,0,90.63,7H91a6.6,6.6,0,0,1-.19,1.62Zm1.18,2.76h-.45V5.82h.45Zm.26-3.55a7.3,7.3,0,0,0-.23-.72L92,6.79a4.39,4.39,0,0,1,.25.69Zm1.63-1.82h.43v.36h1.32v.38H93.94V7h1.21v.34H93.94v.39h1.41v.38H92.09V7.68h1.42V7.29H92.33V7h1.18V6.56h-1.3V6.18h1.3V5.82Zm-.73,4.34v1h-.42V8.37h2.75v2.29c0,.44-.09.53-.5.53h-.55L94,10.76h.56c.15,0,.15-.07.15-.2v-.41Zm1.9-1.43h-1.9v.36h1.9Zm0,.71h-1.9v.37h1.9Z"/><path d="M96.74,5.83h.42v.5h.89v.42h-.89v.61h1v.42h-.33a5,5,0,0,1-.18.81h.46V9h-1V9.7h.88v.42h-.88v1.07h-.43V10.12h-.89V9.7h.89V9h-1V8.59h.48a6,6,0,0,0-.2-.81h-.33V7.36h1V6.75h-.89V6.33h.89Zm-.26,2c.11.46.12.54.17.81h.64c0-.13.09-.41.14-.81Zm3.91.71a4.76,4.76,0,0,1-.46,1.57,3.55,3.55,0,0,0,.66.69l-.25.44a6.36,6.36,0,0,1-.66-.72,3.13,3.13,0,0,1-.58.7l-.27-.38a2.38,2.38,0,0,0,.59-.69,5.91,5.91,0,0,1-.56-1.29l.38-.13a6.37,6.37,0,0,0,.41,1A4.94,4.94,0,0,0,100,8.5H98.75v2.69h-.42V6h2a8,8,0,0,1-.12,1.4.43.43,0,0,1-.47.35h-.58l-.07-.44h.5c.26,0,.27-.11.32-.88H98.75V8.07h1.64v.42Z"/><path d="M102.48,8.51a.6.6,0,1,1-.59-.6A.6.6,0,0,1,102.48,8.51Z"/><path d="M104.9,8.67a5.24,5.24,0,0,0-1.49-.7l.18-.45a5.65,5.65,0,0,1,1.52.67Zm2.79-1.39c-.71,2.46-1.84,3.2-3.92,3.54l-.1-.57c1.76-.21,2.94-.8,3.61-3.28Zm-2.36,0a5.83,5.83,0,0,0-1.53-.68l.19-.44a5.76,5.76,0,0,1,1.55.64Z"/><path d="M112.16,10.89a17.24,17.24,0,0,0-1.66-1.77,6.49,6.49,0,0,1-2.14,1.79l-.28-.44a5.91,5.91,0,0,0,3.08-3.65h-2.81V6.33h3.45a6.61,6.61,0,0,1-1,2.41,16.47,16.47,0,0,1,1.77,1.74Z"/><path d="M115.58,8.37A2.34,2.34,0,0,1,113.5,11l-.2-.47a1.85,1.85,0,0,0,1.78-2.1V8.21H113V7.72h4.29v.49h-1.72Zm1.31-2.14v.48h-3.44V6.23Z"/><path d="M120.63,8.1A11.39,11.39,0,0,1,122,10.69l-.5.23a4.75,4.75,0,0,0-.18-.53,35.59,35.59,0,0,1-3.71.34l0-.55H118a38.4,38.4,0,0,0,1.15-4.09l.54.1a31.87,31.87,0,0,1-1.2,4,23.06,23.06,0,0,0,2.62-.2,12.89,12.89,0,0,0-.89-1.64Z"/><path d="M124.12,7.71v3.21h-1.37V8.82a2.62,2.62,0,0,1-.26.36l-.21-.52A3.75,3.75,0,0,0,123,6.5h-.6V6.05h1.82V6.5h-.79a5.8,5.8,0,0,1-.19,1.21Zm-1,2.77h.56V8.14h-.56ZM126.6,8h.6v.45h-.6v2.77h-.45V8.42h-.82v.35a3.47,3.47,0,0,1-.71,2.42l-.4-.34a3,3,0,0,0,.66-2.11V8.42h-.55V8h.55V6.5h-.47V6.05h2.71V6.5h-.52ZM125.33,6.5V8h.82V6.5Z"/><path d="M129.92,8c0,.3,0,.45,0,.64h1.46v1.87c0,.13,0,.15.14.15h.3c.07,0,.15,0,.18-.12s0-.56,0-.7l.43.1c0,1,0,1.17-.46,1.17h-.64c-.39,0-.42-.22-.42-.48V9.09h-1.11a2.7,2.7,0,0,1-2,2.13l-.22-.48a2,2,0,0,0,1.78-1.65h-1.49V8.64h1.57a5.83,5.83,0,0,0,.06-.64Zm2.35-1.68v1h-.19c-.06.64-.17.72-.47.72h-.89c-.43,0-.45-.2-.45-.42V6.75h-.72a2.12,2.12,0,0,1-1.61,1.57l-.15-.45a1.6,1.6,0,0,0,1.33-1.12h-1v.7h-.45V6.32h2v-.5h.44v.5Zm-1.6,1.18c0,.11,0,.16.15.16h.63c.19,0,.19,0,.22-.42l.17,0V6.75h-1.17V7.5Z"/><path d="M137.31,9.36a3.22,3.22,0,0,1-.72,1c.23.41.39.41.42.41s.28-.51.33-.72l.34.29c-.18.75-.36.88-.65.88s-.55-.18-.77-.59a3.21,3.21,0,0,1-1.06.55l-.18-.4a3.08,3.08,0,0,0,1.06-.53A5.29,5.29,0,0,1,135.74,9h-1v.37a3.26,3.26,0,0,1,.86.58l-.23.37a3.14,3.14,0,0,0-.66-.55,2.59,2.59,0,0,1-.47,1.42l-.32-.34A2.93,2.93,0,0,0,134.39,9h-.22V8.66L134,9a3.85,3.85,0,0,1-.24-.61v2.82h-.4V8.66a5.13,5.13,0,0,1-.4,1.21l-.23-.56a5.6,5.6,0,0,0,.61-1.92h-.53V6.94h.55V5.83h.4V6.94h.41v.45h-.41v.26a3.74,3.74,0,0,0,.48.94h1.46a22.85,22.85,0,0,1-.15-2.76H136a22.13,22.13,0,0,0,.15,2.76h.77a3.89,3.89,0,0,0-.45-.3l.18-.26-.53,0,0-.35h.1l.41-.51A3,3,0,0,0,136,6.6l.22-.28.1.09a3.11,3.11,0,0,0,.34-.6L137,6a4.7,4.7,0,0,1-.43.7c.1.11.13.16.21.26a5.48,5.48,0,0,0,.38-.6l.29.18a13.82,13.82,0,0,1-.88,1.21l.62,0a2.08,2.08,0,0,0-.1-.3l.29-.13a4.38,4.38,0,0,1,.28.86l-.32.15c0-.14,0-.16-.06-.28a3.58,3.58,0,0,1-.57.07,3.79,3.79,0,0,1,.45.32L137,8.6h.66V9h-1.43a6,6,0,0,0,.23.91,3,3,0,0,0,.53-.74Zm-1.84-2.84c-.32.48-.71,1-.93,1.29l.53,0a1.85,1.85,0,0,0-.11-.31l.3-.13a4.49,4.49,0,0,1,.27.88l-.32.12c0-.13,0-.17-.05-.24-.33.05-.59.06-1.11.1L134,7.82h.14c.14-.16.19-.23.45-.58a4.86,4.86,0,0,0-.59-.63l.23-.29a.88.88,0,0,1,.13.11,2.73,2.73,0,0,0,.38-.62l.33.14a4.12,4.12,0,0,1-.48.7l.22.27c.15-.23.23-.35.37-.59Z"/><path d="M139.62,9.14a4.77,4.77,0,0,1-.41-.85v2.89h-.42V8.32a5.61,5.61,0,0,1-.58,1.57l-.19-.6a4.73,4.73,0,0,0,.74-1.9h-.64V7h.67V5.82h.42V7h.53v.43h-.53v.2a3.71,3.71,0,0,0,.64,1.13Zm1.88-.78h1.15V9.89h.3v.35h-.3v.52c0,.27-.07.42-.44.42h-.6l0-.43h.52c.15,0,.16-.05.16-.19v-.32h-1.86v.94H140v-.94h-.37V9.89H140V8.36h1.14V8h-1.44V7.65h.8V7.22H140V6.9h.53V6.52h-.67V6.17h.67V5.82h.41v.35h.85V5.82h.41v.35h.67v.35h-.67V6.9h.5v.32h-.5v.43H143V8H141.5v.36Zm-.38.34h-.73v.41h.73Zm0,.73h-.73v.46h.73Zm-.23-2.91V6.9h.86V6.52Zm0,.7v.43h.86V7.22Zm1.36,1.89V8.7h-.75v.41Zm0,.78V9.43h-.75v.46Z"/><path class="cls-1" d="M15.72-.39C7.29-.39.45,7,.45,16.05S7.29,32.49,15.72,32.49,31,25.13,31,16.05,24.15-.39,15.72-.39Z"/><path d="M15.72-.39C7.29-.39.45,7,.45,16.05S7.29,32.49,15.72,32.49,31,25.13,31,16.05,24.15-.39,15.72-.39Zm0,29.5C9,29.11,3.59,23.27,3.59,16.05S9,3,15.72,3,27.85,8.84,27.85,16.05,22.42,29.11,15.72,29.11Z"/><path class="cls-1" d="M7.44,28c-.19-.14-.23-.08-.26-.14s.3-.36.31-.36l.32.24c.22.16.25.09.27.14s-.31.36-.32.36Z"/><path class="cls-1" d="M11.25,28.93c-.09.23-.22.1-.24.08s-.1.08-.13.14l-.49,1.09c-.17.36-.57.37-.93.21-.52-.24-.44-.59-.41-.7.16-.47.84-.22.53.21-.1.15-.14.18,0,.24s.35-.17.35-.18l.49-1.09c0-.05.07-.13,0-.16s-.25,0-.12-.25S11.3,28.81,11.25,28.93Z"/><path class="cls-1" d="M12.41,30.62s0,0,0-.07l.22-.32c0-.05.08-.1.09,0s.07.43.07.43S12.65,30.67,12.41,30.62Zm-1,.57c0,.1,0,.08.33.15s.48.13.51,0,0-.2-.09-.22-.06-.11-.05-.12l.1-.15a.08.08,0,0,1,.09,0c.4.09.55.09.57.19a.44.44,0,0,1,0,.09c0,.28-.16,0-.19.31,0,.12,0,.09.56.21.3.06.38.1.41,0,.07-.27-.18-.18-.2-.25-.14-.91-.16-1-.16-1-.18-1-.2-1-.42-1.08s-.24.07-.25.22,0,.16,0,.23L11.79,31a.17.17,0,0,1-.15.07S11.38,31,11.38,31.19Z"/><path class="cls-1" d="M15.85,30.07c.16,0,.28.05.28.34s-.08.43-.28.42Zm.06,1.59c-.06,0-.06-.05-.06-.12V31s.94.06.92-.59a.61.61,0,0,0-.65-.6c-.41,0-.57,0-.69,0s-.39,0-.4.06c0,.28.15.16.21.18s0,.12,0,.17v1.29c0,.11,0,.12,0,.13s-.27-.05-.19.22c0,.06,1.06.09,1.07,0S16,31.69,15.91,31.66Z"/><path class="cls-1" d="M18.21,30.88a0,0,0,0,1,0-.06l0-.38c0-.06,0-.12.08,0l.24.35C18.58,30.81,18.43,30.83,18.21,30.88Zm-.68.95c0,.09,0,.07.36,0s.48-.09.47-.17-.1-.18-.17-.16a.08.08,0,0,1-.1-.09l0-.17a.09.09,0,0,1,.07-.07c.39-.09.53-.15.58-.07a.31.31,0,0,1,0,.07c.16.24-.14.07,0,.36,0,.11,0,.08.58,0,.29-.07.38-.07.36-.17,0-.28-.24-.09-.28-.15l-.55-.81c-.6-.86-.6-.82-.84-.8s-.17.17-.12.3.1.13.08.22l-.2,1.39c0,.07-.07.12-.1.14S17.44,31.62,17.53,31.83Z"/><path class="cls-1" d="M22.43,29.92c.08.15.19.32.12.37a.41.41,0,0,1-.15,0l-1.64-.62s-.1-.05,0,0,.07.15.46.88c0,.07.16-.21.3.09,0,.08-.55.45-.63.31s0-.19.12-.28-.07-.12-.71-1.32a.33.33,0,0,0-.18-.16s-.1.15-.22-.1.26-.25.3-.27.17,0,1.81.71c0,0,0,0-.57-1.06a.18.18,0,0,1-.29-.08c-.05-.1.53-.39.58-.31.12.23-.07.27-.07.27C22.42,29.89,22.43,29.92,22.43,29.92Z"/><path class="cls-1" d="M24.24,28c-.2.12-.17.19-.23.19s-.23-.42-.22-.42l.33-.21c.24-.14.19-.2.24-.2s.22.43.22.43Z"/><path class="cls-1" d="M5,23.87c.13-.09.28-.22.34-.14a.47.47,0,0,1,0,.16l-.28,1.79s0,.11,0,.05L6,25.19c.06,0-.24-.17,0-.33.08,0,.57.57.44.66s-.2,0-.3-.11L5,26.23a.33.33,0,0,0-.12.2s.17.11,0,.24-.3-.27-.33-.31,0-.18.33-2L3.86,25a.2.2,0,0,1,0,.32c-.09.06-.5-.56-.42-.61a.17.17,0,0,1,.28.06Z"/><path class="cls-1" d="M3.86,23s0,0,0,.05H3.42c-.08,0-.14,0-.07-.07l.31-.32S3.76,22.77,3.86,23ZM5,23.52c.08-.06.06-.06-.08-.37s-.19-.48-.28-.45-.15.13-.12.21,0,.12-.07.12H4.24A.08.08,0,0,1,4.15,23c-.17-.39-.25-.52-.19-.59L4,22.32c.21-.21.1.13.38,0,.1-.06.06-.07-.17-.59-.13-.29-.14-.38-.24-.34-.27.1,0,.26-.1.31l-.71.73c-.76.78-.72.78-.65,1s.2.15.33.07.11-.13.21-.13l1.46,0c.07,0,.13.05.16.07S4.77,23.66,5,23.52Z"/><path class="cls-1" d="M1.79,21.51l-.3-1.09a2.67,2.67,0,0,0-.12-.24c-.06-.05.41-.31.56-.35s.12.23.1.24c-.31.24-.26.35-.2.53t.09,0l1.37-.36s.12,0,.13-.1-.11-.11.13-.23.39,1,.26,1-.18-.09-.23-.15-.1,0-.15,0l-1.37.37c-.07,0-.08,0-.07.06s.05.29.44.34c.1,0,.12.23,0,.25s-.69.06-.66,0S1.8,21.55,1.79,21.51Z"/><path class="cls-1" d="M1.14,18.58c.25,0,.2.12.22.19s.07,0,.15,0l1.33-.19c.09,0,.19,0,.2-.07s-.09-.24.17-.24.27,1.07.15,1.09-.21-.17-.23-.2-.08,0-.2,0l-1.35.18c-.05,0-.13,0-.14,0s.13.25-.15.27S1,18.6,1.14,18.58Z"/><path class="cls-1" d="M1.1,17.23c-.2-.67,1.49-1.16,1.69-.52S1.29,17.88,1.1,17.23Zm2-.26A1.14,1.14,0,0,0,.81,17,1.14,1.14,0,0,0,3.08,17Z"/><path class="cls-1" d="M2.86,13.6c.16,0,.35,0,.35.12a.5.5,0,0,1-.08.15L1.75,15.05s-.1.06,0,.06.15,0,.94.11c.07,0-.08-.29.23-.23.09,0,0,.8-.1.78s-.13-.16-.15-.28l-1.43-.15a.3.3,0,0,0-.22.07s.06.2-.2.15,0-.4,0-.45S.9,15,2.34,13.83L1.2,13.71s0,.27-.22.23,0-.75.07-.74.18.23.18.23Z"/><path class="cls-1" d="M2.69,12.16s0,0-.08,0l-.29-.26c0-.05-.09-.1,0-.09l.45,0C2.84,11.79,2.77,11.92,2.69,12.16Zm.42,1.14c.11,0,.09,0,.21-.32s.2-.47.11-.51-.2,0-.23.06-.12,0-.14,0l-.13-.12a.08.08,0,0,1,0-.1c.15-.4.18-.55.28-.56h.09c.3,0,0,.17.3.24.11,0,.09,0,.29-.54.11-.3.17-.37.07-.42-.27-.11-.21.16-.29.17h-1c-1.09,0-1.06.06-1.18.28s.05.25.19.28.17,0,.24.06l1.07,1A.22.22,0,0,1,3,13S2.87,13.26,3.11,13.3Z"/><path class="cls-1" d="M2.67,8.76c.23.11.05.24.06.29s.09.08.09.08l1.24.56c.07,0,.19.07.2,0,.22-.47.18-.39.16-.46-.1-.31-.31-.41-.27-.52s.73.34.7.43-.11.16-.14.24L4.22,10.5c0,.05-.07.11-.13.09-.24-.06-.13-.17-.1-.26s-.1-.12-.18-.15l-1.2-.54s-.1-.05-.14,0,0,.29-.25.15S2.55,8.71,2.67,8.76Z"/><path class="cls-1" d="M5,5.16c.21.15.06.23,0,.3s0,.07.09.11l1.08.81c.07,0,.15.11.19.08s.1-.23.3,0-.56,1-.67.89S6,7,6,7s0-.08-.13-.15L4.75,6s-.1-.09-.13-.07-.08.27-.29.09S4.88,5.09,5,5.16Z"/><path class="cls-1" d="M8.16,4.39c.11.11.25.23.19.3a.45.45,0,0,1-.14.07l-1.72,0s-.11,0,0,.05l.64.66c0,.05.12-.26.31,0,0,.06-.44.64-.54.53s0-.2,0-.3l-1-1a.31.31,0,0,0-.21-.09s-.07.18-.23,0,.2-.33.23-.37.17,0,1.91,0l-.77-.79s-.15.21-.3,0S7,2.91,7.06,3a.18.18,0,0,1,0,.29Z"/><path class="cls-1" d="M9.38,4c.13-.06.14-.19.09-.32S9.21,3.43,9,3.51a.64.64,0,0,1-.88-.36.66.66,0,0,1,.27-.88.58.58,0,0,1,.27-.1.85.85,0,0,0,.21-.11c.15-.07.59.26.48.38a.52.52,0,0,1-.49,0c-.19-.09-.23,0-.32,0s-.07.15,0,.3.37.18.54.1a.59.59,0,0,1,.82.18.72.72,0,0,1-.26,1.1c-.44.29-.57.22-.62.19s-.5-.45-.41-.52S8.87,4.2,9.38,4Z"/><path class="cls-1" d="M10,1.46,11,1a2.39,2.39,0,0,0,.22-.16c.05-.07.37.36.44.5s-.2.16-.22.14c-.29-.27-.38-.21-.55-.12s0,0,0,.09l.59,1.29s.05.12.11.11.09-.12.25.1-.89.54-1,.42.06-.2.11-.25S11,3,11,3l-.58-1.3c0-.06,0-.07-.07-.06s-.28.1-.27.5c0,.09-.2.15-.24.07s-.17-.67-.09-.66A1.76,1.76,0,0,0,10,1.46Z"/><path class="cls-1" d="M13,.53c.08.24-.09.22-.16.25s0,.07,0,.15l.38,1.29c0,.08.06.18.1.18s.22-.13.27.13-1,.43-1.06.32.13-.24.16-.26,0-.09,0-.2l-.4-1.31c0-.05,0-.12-.06-.13S12,1.12,12,.84C11.94.72,13,.41,13,.53Z"/><path class="cls-1" d="M13.86.44,15,.24a1.63,1.63,0,0,0,.25-.1c.06-.05.27.45.3.6s-.23.1-.25.08c-.21-.33-.32-.3-.5-.26,0,0,0,0,0,.1L15,2.05s0,.13.09.14.12-.1.21.15-1,.3-1,.17.11-.18.17-.22,0-.1,0-.15L14.21.74c0-.06,0-.08-.05-.07-.19,0-.3,0-.39.41,0,.09-.23.1-.25,0s0-.69.08-.66Z"/><path class="cls-1" d="M16.48,1.67c-.06.38.19.47.47.51.45.07.55-.07.59-.34L17.73.69c-.09,0-.35,0-.28-.23s.84,0,.84.13-.08.18-.29.15L17.82,1.9c-.06.33-.28.79-1.07.66s-.89-.56-.82-1c0,0,.18-1.12.18-1.15s-.31,0-.19-.22c.05-.11,1,0,1,.16-.08.27-.25.11-.26.14S16.48,1.67,16.48,1.67Z"/><path class="cls-1" d="M19.19.7l1,.41.27,0c.08,0,0,.52-.05.66s-.25,0-.25-.06c0-.39-.12-.41-.3-.48,0,0,0,0-.06.08l-.51,1.31s-.05.13,0,.17.15,0,.1.24c0,.11-1-.26-1-.38s.18-.1.26-.1.07-.08.09-.12l.51-1.33c0-.06,0-.08,0-.09s-.27-.13-.54.15c-.06.08-.25,0-.22-.12s.36-.59.4-.53S19.16.69,19.19.7Z"/><path class="cls-1" d="M20.44,3.19s.11-.11.13-.16c.21-.41.26-.48.54-1,.05-.09.13-.22.08-.25s-.22,0-.08-.26c.05-.08.19,0,1.17.53.15.08.2,0,.29.09s-.09.57-.21.54,0-.3-.17-.37L21.74,2s0,0-.31.53l.27.14c.11,0,.15-.33.28-.25s.08.32,0,.53-.24.46-.42.35.14-.32,0-.38l-.27-.14L21,3.46l.32.17c.44.25.5-.32.71-.14s-.4.63-.45.62-.08-.08-.24-.17c-1-.5-1.18-.56-1.13-.65C20.32,3,20.33,3.2,20.44,3.19Z"/><path class="cls-1" d="M25.11,4.26c.62.34-.25,1.88-.84,1.55S24.53,3.93,25.11,4.26ZM23.88,5.83a1.14,1.14,0,0,0,1.62-1.6A1.14,1.14,0,0,0,23.88,5.83Z"/><path class="cls-1" d="M25.18,6.73s.13-.05.19-.1l.91-.75a1.16,1.16,0,0,0,.18-.2s-.21-.14,0-.28c.07,0,0,0,.87,1,.06.07.14.07.2.15s0,.21-.16.35-.27.21-.32.18c-.21-.12.22-.32,0-.62l-.18-.23s-.15,0-.22.08l-.36.3.17.2c.08-.06.26-.26.37-.1s-.15.31-.26.4-.39.33-.5.23.1-.26.18-.35l-.18-.2-.41.34a.31.31,0,0,0-.1.12s.18.12,0,.3-.77-.72-.67-.82S25.12,6.7,25.18,6.73Z"/><path class="cls-1" d="M27.63,8.83a1,1,0,0,1,1.43.53.76.76,0,0,1,.09.48.56.56,0,0,0,.07.13c.06.11-.41.61-.67.32-.12-.13-.14-.24,0-.31s.29-.24.2-.45a.55.55,0,0,0-.84-.17.72.72,0,0,0-.42.82c.06.09.09.17.19.13s.11-.06.15-.12-.12-.17,0-.26.32.19.41.39.12.51,0,.56-.13-.17-.25-.12a.88.88,0,0,1-.41.07c-.14,0-.45-.24-.59-.61A1.06,1.06,0,0,1,27.63,8.83Z"/><path class="cls-1" d="M27.93,11.76s.15,0,.21,0c.44-.1.53-.11,1.14-.27.09,0,.24-.05.23-.11s-.13-.17.15-.23c.1,0,.1.17.37,1.24,0,.16.12.15.12.27s-.48.31-.54.2.2-.23.17-.38L29.66,12s0,0-.6.11a2.51,2.51,0,0,0,.07.3c0,.11.34-.11.38,0s-.19.28-.42.33-.51.13-.54-.07.33-.11.3-.23-.07-.3-.07-.3l-.71.18s.06.23.08.35c.1.49.57.16.57.44s-.73.11-.76.06,0-.11,0-.28c-.26-1.07-.35-1.27-.25-1.29C28,11.53,27.85,11.67,27.93,11.76Z"/><path class="cls-1" d="M28.63,15.91c-.16,0-.35,0-.37-.06a1,1,0,0,1,0-.16l1.15-1.4s.08-.08,0-.06-.15,0-1,.07c-.07,0,.13.26-.18.26-.09,0-.2-.78,0-.79s.15.14.2.25l1.42-.11a.28.28,0,0,0,.21-.11s-.09-.18.17-.18.12.39.12.44-.08.16-1.29,1.53l1.14-.08s-.07-.26.18-.27.14.73.06.74a.18.18,0,0,1-.22-.2Z"/><path class="cls-1" d="M28.56,16.59s.15.05.21.06l1.16.09c.1,0,.25,0,.26,0s-.07-.21.21-.18c.1,0,0,.19,0,1.29,0,.17.06.18,0,.29s-.56.15-.58,0,.26-.14.27-.3,0-.34.05-.5,0,0-.6-.08a2.38,2.38,0,0,0,0,.3c0,.12.35,0,.34.16s-.27.2-.5.18-.52,0-.49-.24.35,0,.36-.12,0-.3,0-.3l-.73-.06s0,.24,0,.36c-.07.5.49.33.4.6s-.73-.13-.74-.18,0-.1.06-.28c.09-1.09.06-1.31.16-1.3C28.7,16.4,28.52,16.49,28.56,16.59Z"/><path class="cls-1" d="M30.14,19.34l-.25,1.1s0,.25,0,.27-.51.08-.66,0,0-.25,0-.25c.39-.07.4-.18.44-.37,0,0,0,0-.09-.05l-1.37-.32s-.13,0-.16,0,0,.14-.23.13c-.11,0,.11-1,.25-1s.12.17.13.25.09.06.14.07l1.38.32c.06,0,.08,0,.09,0,.05-.19.09-.29-.23-.52-.08-.05,0-.25.09-.23s.64.27.58.32S30.15,19.31,30.14,19.34Z"/><path class="cls-1" d="M29.19,22.41c-.25-.08-.12-.2-.11-.28s0-.05-.12-.08l-1.26-.47c-.09,0-.19-.07-.21,0s0,.25-.27.14c-.09-.05.27-1.08.39-1s.11.25.11.29.06.06.17.1l1.28.48s.11.05.14,0,0-.28.26-.16C29.68,21.43,29.3,22.45,29.19,22.41Z"/><path class="cls-1" d="M28.09,22.44a1,1,0,0,1,.5,1.43c-.21.39-.25.32-.32.39a.58.58,0,0,0-.05.14c0,.06-.31.1-.56,0a.22.22,0,0,1-.12-.21c0-.24.09-.32.27-.27a.35.35,0,0,0,.44-.2c.11-.3-.08-.56-.43-.69s-.8-.05-.9.19a.6.6,0,0,0-.05.41c.08.21.09.22,0,.33s-.47-.28-.44-.34a.15.15,0,0,0,0-.16,1.2,1.2,0,0,1,.14-.59A1.07,1.07,0,0,1,28.09,22.44Z"/><path class="cls-1" d="M25.83,24.62a.22.22,0,0,0,0,.33c.15.18.32.13.53,0a.65.65,0,0,1,1,0,.67.67,0,0,1,0,.92.63.63,0,0,1-.23.19.89.89,0,0,0-.15.17c-.12.12-.65,0-.58-.19a.47.47,0,0,1,.44-.2c.21,0,.24-.05.3-.13s0-.16-.09-.29-.42,0-.54.1a.59.59,0,0,1-.84.11.73.73,0,0,1-.13-1.13c.32-.41.46-.39.51-.39s.64.26.57.35S26.23,24.23,25.83,24.62Z"/><path class="cls-2" d="M12,12.2S12.08,11,11.1,11,10.29,12,10.29,12s.13,6.21,0,6.18A2.83,2.83,0,0,1,9.66,17a2.76,2.76,0,0,0,.23-.76c0-.27-.38-.43-.38-.43a.51.51,0,0,0,.12-.35c0-.23-.4-.38-.6-.38s-.56-.3-.76-.6-1.36-2.58-1.69-3a.7.7,0,0,0-1.16-.15C5,11.67,5,12.94,5,12.94v8s.15.78.77.78c.87,0,.92-.93.92-.93V14.15c.25-.05.78,1.19.76,1.41s-.36.51-.31.79.48.42.48.42a.48.48,0,0,0-.12.44c.07.22.5.32.68.32a1.15,1.15,0,0,1,.66.48,38.61,38.61,0,0,0,1.92,3.46.59.59,0,0,0,.95,0,3,3,0,0,0,.36-1.26ZM9,16.4A1.88,1.88,0,0,0,8.9,17s-.45-.26-.6-.33a1.36,1.36,0,0,0-.41-.1s.15-.28.2-.41a3.65,3.65,0,0,0,.1-.55l.46.25a1.65,1.65,0,0,0,.53.13Z"/><path class="cls-2" d="M17.76,16.35a1,1,0,0,0,.28-.66c0-.38-.4-.51-.68-.51a.8.8,0,0,1-.73-.58c-.05-.32-.15-2.29-.13-2.6s-.25-1.39-.83-1.39c-.4,0-.88.84-.88,1.29a16.91,16.91,0,0,1-.13,2.86c-.15.2-.25.42-.53.45s-.83-.05-.88.48.22.58.22.58a1.62,1.62,0,0,0-.2.68c0,.33.38.46.56.48s.6,0,.75.23a2.79,2.79,0,0,1,.23,1.49A9.33,9.33,0,0,0,15,21.39c.18.33.56.69.73.69s.59-.36.74-.86A31.68,31.68,0,0,0,16.58,18a.56.56,0,0,1,.48-.53c.35-.1.87-.05,1-.66A.49.49,0,0,0,17.76,16.35ZM16,16.77a1.92,1.92,0,0,0-.36.59,6.25,6.25,0,0,0-.48-.71,1.6,1.6,0,0,0-.42-.33s.27-.23.53-.43a1.59,1.59,0,0,0,.37-.73l.38.68a1.92,1.92,0,0,0,.53.48Z"/><path class="cls-2" d="M26.28,16.07a11.81,11.81,0,0,0-1.62.07.71.71,0,0,0-.61.74c.05.63.86.45,1,.65a1.81,1.81,0,0,1-.12,1.8,1.58,1.58,0,0,1-2.35.4,1.71,1.71,0,0,1-.53-2c.2-.33.5-.3.78-.33a.59.59,0,0,0,.56-.5c0-.28-.31-.56-.31-.56a.87.87,0,0,0,.36-.68c0-.33-.56-.48-.71-.48a.65.65,0,0,1-.66-.55,1.68,1.68,0,0,1,.56-1.77,1.56,1.56,0,0,1,2.12.2c.66.78.43,1.57.58,1.74a.84.84,0,0,0,.94.35.92.92,0,0,0,.65-1.11,3.65,3.65,0,0,0-2-2.93,3.52,3.52,0,0,0-4.17,1.24,4.52,4.52,0,0,0-.55,2.38c-.15.22-.23.48-.73.48s-.71.27-.74.55a.84.84,0,0,0,.33.61.93.93,0,0,0-.25.6c0,.36.33.43.53.43s.63-.05.81.36a12.71,12.71,0,0,1,.25,1.56,3.62,3.62,0,0,0,1.77,2.07,3.78,3.78,0,0,0,2.85,0,3.67,3.67,0,0,0,1.92-2.78C27,17.21,27,16.15,26.28,16.07Zm-4.88.76a2.1,2.1,0,0,0-.28.55s-.35-.55-.48-.71a4,4,0,0,0-.37-.37s.25-.23.45-.38a2,2,0,0,0,.4-.66s.21.43.33.63a2,2,0,0,0,.53.43A5.23,5.23,0,0,0,21.4,16.83Z"/><path class="cls-3" d="M23.7,20.08h0l.15,0a12.7,12.7,0,0,0,.66-2.7h0l-.13,0h0A11.83,11.83,0,0,1,23.7,20.08Z"/><path class="cls-3" d="M24.23,12.69h0l-.15,0h0a12,12,0,0,1,.39,3.12c0,.15,0,.3,0,.45h0l.07,0h0l.06,0v-.4A12.6,12.6,0,0,0,24.23,12.69Z"/><path class="cls-3" d="M20.94,15.64h0a1.56,1.56,0,0,1-.13.19h0c0,.35,0,.69,0,1h0l0,.07v0a.22.22,0,0,1,.05.08c0-.41.05-.83.05-1.27Z"/><path class="cls-3" d="M15.51,15.53v1.62l.13.21h0V15.16h0A2,2,0,0,1,15.51,15.53Z"/><path class="cls-3" d="M8.59,15.81l-.13-.08v0q0,.51,0,1l.14.08C8.61,16.5,8.59,16.16,8.59,15.81Z"/><path class="cls-3" d="M10.32,13.88a18.73,18.73,0,0,0-.1,1.88c0,.67,0,1.3.1,1.91C10.35,16.83,10.34,15.18,10.32,13.88Z"/><path class="cls-3" d="M20.84,25.78a14.22,14.22,0,0,1-3.54,1.49.42.42,0,0,0-.18-.17,15.48,15.48,0,0,0,3-1.9,12.51,12.51,0,0,0,3-3.53l-.14,0h0A12.16,12.16,0,0,1,20,25.09,15,15,0,0,1,17,27L16.86,27a13.94,13.94,0,0,0,2.3-2,13.27,13.27,0,0,0,2.49-3.85L21.54,21a13.13,13.13,0,0,1-2.48,3.84,13,13,0,0,1-2.35,2l-.12,0a14.17,14.17,0,0,0,1.69-2.07,15.57,15.57,0,0,0,2.22-5.16.25.25,0,0,1,0-.07h0l0-.05h0l0,0h0l0,0a15.31,15.31,0,0,1-2.23,5.3,14.17,14.17,0,0,1-1.74,2.1l-.19-.05a21.92,21.92,0,0,0,2.93-9.36l-.13,0a21.75,21.75,0,0,1-2.94,9.37l-.16,0a42.52,42.52,0,0,0,1.66-9.34l-.13,0a42.18,42.18,0,0,1-1.67,9.29h-.17V22.07L15.51,22v4.7h-.17a43.15,43.15,0,0,1-1.66-9.32l-.14-.05a42.62,42.62,0,0,0,1.67,9.38l-.17,0a21.74,21.74,0,0,1-3-11A19,19,0,0,1,15,5.27l.17,0a35.71,35.71,0,0,0-1.71,10l.13,0a35.8,35.8,0,0,1,1.71-9.94h.17v5.34a.24.24,0,0,1,.13,0V5.31h.17a35.8,35.8,0,0,1,1.71,9.88l.13,0A36,36,0,0,0,16,5.3l.17,0a19.11,19.11,0,0,1,3,10h0l.06,0h0l.07,0h0a19.17,19.17,0,0,0-3-10l.2,0A12.3,12.3,0,0,1,18.18,7.1a13.77,13.77,0,0,1,2.36,5.65c0-.07.07-.13.1-.19h0A13.7,13.7,0,0,0,18.28,7a11.59,11.59,0,0,0-1.67-1.86l.12-.05a12.29,12.29,0,0,1,2.34,1.83,11.73,11.73,0,0,1,2.78,4.43L22,11.3a11.94,11.94,0,0,0-2.81-4.47A12.79,12.79,0,0,0,16.88,5L17,5a14,14,0,0,1,3,1.73,11,11,0,0,1,3.42,4.16h.15A11.34,11.34,0,0,0,20.1,6.61a14,14,0,0,0-3-1.7.45.45,0,0,0,.17-.17A13,13,0,0,1,20.84,6a9.57,9.57,0,0,1,4.57,5.38l.18.13A9.89,9.89,0,0,0,20.9,5.91a13.35,13.35,0,0,0-4.3-1.44,3.28,3.28,0,0,1-1-.42,3.27,3.27,0,0,1-1,.42,13.38,13.38,0,0,0-4.29,1.44,9.81,9.81,0,0,0-4.53,5.18l.15,0a9.53,9.53,0,0,1,.83-1.66A9.75,9.75,0,0,1,10.32,6a13,13,0,0,1,3.53-1.29.45.45,0,0,0,.17.17,14,14,0,0,0-3,1.7,11.07,11.07,0,0,0-4,5.64,1.4,1.4,0,0,0,.1.16,10.79,10.79,0,0,1,4-5.69,14,14,0,0,1,3-1.73l.11,0A12.79,12.79,0,0,0,12,6.83a12.16,12.16,0,0,0-3.51,7.92l.13.11a12,12,0,0,1,3.47-7.93A12.29,12.29,0,0,1,14.43,5.1l.12.05A11.13,11.13,0,0,0,12.88,7a13.55,13.55,0,0,0-2,4l.15,0A13.29,13.29,0,0,1,13,7.1,12.3,12.3,0,0,1,14.7,5.19l.2,0A19,19,0,0,0,12,14.09L12,18a22,22,0,0,0,2.88,8.8l-.19.05A13.25,13.25,0,0,1,13,24.71a15.46,15.46,0,0,1-1.57-3,.28.28,0,0,1-.13,0,14.67,14.67,0,0,0,1.6,3.09,13.64,13.64,0,0,0,1.69,2.07l-.13.05a14.22,14.22,0,0,1-2.34-2,13,13,0,0,1-3.35-7l-.15-.16A13.18,13.18,0,0,0,12,25a14.44,14.44,0,0,0,2.3,2l-.12.05a15.47,15.47,0,0,1-3-1.93,11.78,11.78,0,0,1-4.45-9.34,11.3,11.3,0,0,1,.1-1.57.19.19,0,0,0-.11,0v3.4a11.94,11.94,0,0,0,4.38,7.65,15.59,15.59,0,0,0,3,1.91.36.36,0,0,0-.18.16,13.85,13.85,0,0,1-3.54-1.49,10.66,10.66,0,0,1-4-4.22l-.1.08a10.66,10.66,0,0,0,4,4.26,14,14,0,0,0,4.61,1.74,3,3,0,0,1,.71.33,2.8,2.8,0,0,1,.71-.33,14,14,0,0,0,4.61-1.74A10.74,10.74,0,0,0,25,21.44l-.19.08A10.61,10.61,0,0,1,20.84,25.78Z"/><path class="cls-3" d="M4.94,15.76c0,.43,0,.83,0,1.23V14.53C5,14.93,4.94,15.33,4.94,15.76Z"/><path class="cls-3" d="M22.44,13.05l-.05.07-.06.06a13.56,13.56,0,0,1,.23,2h0l.13,0h0a13.06,13.06,0,0,0-.25-2.16Z"/><path class="cls-3" d="M22.47,17.47h0a12.66,12.66,0,0,1-.32,1.73.41.41,0,0,0,.07.11.13.13,0,0,0,0,.05h0a13.51,13.51,0,0,0,.35-1.91Z"/><path class="cls-3" d="M26.13,15.21h-.05c0,.18,0,.37,0,.55s0,.2,0,.3h.14v-.3c0-.19,0-.38,0-.56h-.08Z"/></svg>