<svg id="レイヤー_1" data-name="レイヤー 1" xmlns="http://www.w3.org/2000/svg" xmlns:xlink="http://www.w3.org/1999/xlink" viewBox="0 0 97 33"><defs><style>.cls-1{fill:none;}.cls-2{clip-path:url(#clip-path);}.cls-3{fill:#1a5fbd;}</style><clipPath id="clip-path"><rect class="cls-1" x="0.4" y="-0.09" width="96.88" height="32.29"/></clipPath></defs><title>logo-NBDC</title><g class="cls-2"><path class="cls-3" d="M84.45,13.17c1.29,1,3,2.56,2.8,4.39a4.38,4.38,0,0,1-2.38,2.92c-5.33,3.45-19.47,5.93-36.09,5.93S18,23.93,12.69,20.48c-1.07-.67-2.22-1.57-2.37-2.92-.21-1.83,1.5-3.37,2.79-4.39C5.22,15.19.4,17.88.4,20.84c0,4.24,9.9,7.94,24.58,9.89a184.1,184.1,0,0,0,23.8,1.47,182.61,182.61,0,0,0,23.81-1.47c14.67-1.95,24.57-5.65,24.57-9.89,0-3-4.82-5.65-12.71-7.67"/></g><g class="cls-2"><polygon class="cls-3" points="20.28 17.25 20.28 -0.09 32.07 11.26 32.07 1 34.56 1 34.56 17.25 22.77 5.9 22.77 17.25 20.28 17.25"/></g><g class="cls-2"><path class="cls-3" d="M40.18,1c2.1,0,3.41.27,4.48,1.27A4.16,4.16,0,0,1,46,5.48a3.56,3.56,0,0,1-.49,1.93,2.71,2.71,0,0,1-1.22,1.12A4.41,4.41,0,0,1,46.34,9.7a4.2,4.2,0,0,1,1.08,3,4,4,0,0,1-1.08,2.93,6.3,6.3,0,0,1-4.55,1.58H37.72V1Zm0,7H41a2.84,2.84,0,0,0,2-.63,2.48,2.48,0,0,0,.64-1.85A2,2,0,0,0,43,4a2.68,2.68,0,0,0-2-.61h-.85Zm0,6.92h1.51a4.3,4.3,0,0,0,2.46-.63,2.31,2.31,0,0,0,.8-1.8,2.45,2.45,0,0,0-.65-1.71A3.55,3.55,0,0,0,41.77,10H40.21v4.87Z"/></g><g class="cls-2"><path class="cls-3" d="M53.21,1a9.55,9.55,0,0,1,6,1.58,8.06,8.06,0,0,1,3.11,6.56,7.75,7.75,0,0,1-3.26,6.55,9.32,9.32,0,0,1-5.94,1.56H49.81V1Zm-.92,13.91h1.07a7.07,7.07,0,0,0,4.31-1.14,5.76,5.76,0,0,0,2.22-4.63,5.78,5.78,0,0,0-2.2-4.68,7.28,7.28,0,0,0-4.33-1.12H52.29V14.91Z"/></g><g class="cls-2"><path class="cls-3" d="M77.28,4.8A6.36,6.36,0,0,0,72.87,3C69.34,3,67,5.61,67,9.19a5.87,5.87,0,0,0,5.94,6.09,6.46,6.46,0,0,0,4.39-1.88v3a8.92,8.92,0,0,1-4.46,1.22,8.14,8.14,0,0,1-5.75-2.24,8,8,0,0,1-2.61-6.14,8.51,8.51,0,0,1,2.61-6.36A8.06,8.06,0,0,1,72.94.71a7.75,7.75,0,0,1,4.34,1.17V4.8Z"/></g></svg>