<svg id="レイヤー_1" data-name="レイヤー 1" xmlns="http://www.w3.org/2000/svg" viewBox="0 0 87 38"><defs><style>.cls-1{fill:#004098;}.cls-2{fill:#97bdc0;}</style></defs><title>logo-DBCLS</title><path class="cls-1" d="M28.07,6.79h3.66c5.29,0,7.38,3.05,7.38,7.36,0,5.35-3.57,7.4-8.46,7.4H28.07Zm1.46,13.49h1.21c4.18,0,6.91-1.69,6.91-6.21s-2.68-6-6-6H29.53V20.28Z"/><path class="cls-1" d="M42.18,6.79h3.51c2.41,0,4.67.81,4.67,3.64a3,3,0,0,1-2.68,3.36v0a3.47,3.47,0,0,1,3.13,3.52c0,3.21-2.62,4.2-5.69,4.2H42.18V6.79Zm1.46,13.49h1.52c2,0,4.19-.52,4.19-2.87,0-2.62-2.26-2.9-4.42-2.9H43.64v5.77Zm0-7h1.63c1.55,0,3.59-.4,3.59-2.75,0-2.13-2-2.43-3.21-2.43h-2Z"/><path class="cls-1" d="M64.2,8.44a7.77,7.77,0,0,0-3.3-.63c-3.83,0-6,2.7-6,6.36s2.1,6.37,6,6.37a7.29,7.29,0,0,0,3.3-.64l.08,1.27a7.9,7.9,0,0,1-3.38.64c-4.65,0-7.45-3.07-7.45-7.64s2.88-7.63,7.45-7.63a9.55,9.55,0,0,1,3.38.55Z"/><path class="cls-1" d="M68.05,6.79h1.46V20.28h5.92v1.27H68.05V6.79Z"/><path class="cls-1" d="M77.17,19.67a5.78,5.78,0,0,0,3.25.87c1.82,0,3.32-.93,3.32-3,0-2.89-6.77-3.25-6.77-7.12C77,8,79.05,6.54,81.65,6.54a8.83,8.83,0,0,1,2.9.48l-.24,1.34a6,6,0,0,0-2.68-.55c-1.53,0-3.2.63-3.2,2.54,0,3,6.77,3,6.77,7.29,0,3-2.56,4.17-4.84,4.17A8.36,8.36,0,0,1,77,21.17Z"/><path class="cls-1" d="M28.57,23.92h1.11c1.23,0,2.32.42,2.32,2s-1.09,2-2.32,2H28.57Zm.81,3.39h.45a1.38,1.38,0,0,0,0-2.75h-.45v2.75Z"/><path class="cls-1" d="M32.8,25.13a2.66,2.66,0,0,1,1-.22c.9,0,1.28.37,1.28,1.25v.38c0,.3,0,.52,0,.74s0,.43,0,.67h-.68a2.65,2.65,0,0,1,0-.45h0a1.06,1.06,0,0,1-.92.51,1,1,0,0,1-1-.88.89.89,0,0,1,.51-.85,2.4,2.4,0,0,1,1-.17h.43c0-.48-.22-.64-.67-.64a1.54,1.54,0,0,0-.92.33Zm.91,2.32a.63.63,0,0,0,.54-.27.93.93,0,0,0,.16-.61h-.33c-.35,0-.86.06-.86.52C33.22,27.34,33.43,27.45,33.71,27.45Z"/><path class="cls-1" d="M36.14,25.54h-.58V25h.58v-.6l.77-.25V25h.68v.56h-.68v1.39c0,.25.07.49.36.49a.61.61,0,0,0,.35-.09l0,.62a2.4,2.4,0,0,1-.58.06.87.87,0,0,1-.94-1V25.54Z"/><path class="cls-1" d="M38.26,25.13a2.61,2.61,0,0,1,1-.22c.91,0,1.28.37,1.28,1.25v.38c0,.3,0,.52,0,.74s0,.43,0,.67h-.68c0-.16,0-.36,0-.45h0A1,1,0,0,1,39,28a.94.94,0,0,1-1-.88.89.89,0,0,1,.5-.85,2.45,2.45,0,0,1,1-.17h.43c0-.48-.21-.64-.67-.64a1.54,1.54,0,0,0-.92.33Zm.9,2.32a.65.65,0,0,0,.55-.27,1,1,0,0,0,.16-.61h-.34c-.34,0-.86.06-.86.52C38.67,27.34,38.89,27.45,39.16,27.45Z"/><path class="cls-1" d="M41.33,23.62h.78v1.74h0a1,1,0,0,1,.89-.45c.91,0,1.24.72,1.24,1.54S43.92,28,43,28a1.08,1.08,0,0,1-.91-.44h0V28h-.74V23.62Zm1.46,3.8c.51,0,.66-.56.66-1s-.14-.94-.64-.94-.7.53-.7.94S42.28,27.42,42.79,27.42Z"/><path class="cls-1" d="M45,25.13a2.66,2.66,0,0,1,1-.22c.9,0,1.28.37,1.28,1.25v.38c0,.3,0,.52,0,.74s0,.43,0,.67h-.68c0-.16,0-.36,0-.45h0a1.06,1.06,0,0,1-.92.51,1,1,0,0,1-1-.88.88.88,0,0,1,.51-.85,2.4,2.4,0,0,1,1-.17h.42c0-.48-.21-.64-.66-.64a1.54,1.54,0,0,0-.92.33Zm.91,2.32a.63.63,0,0,0,.54-.27.93.93,0,0,0,.16-.61h-.33c-.35,0-.86.06-.86.52C45.41,27.34,45.62,27.45,45.9,27.45Z"/><path class="cls-1" d="M49.84,25.6a1.94,1.94,0,0,0-.7-.13c-.2,0-.45.08-.45.33,0,.47,1.34.18,1.34,1.25,0,.69-.62,1-1.24,1a3.67,3.67,0,0,1-.88-.13l.05-.64a1.69,1.69,0,0,0,.76.2c.19,0,.5-.08.5-.36,0-.58-1.34-.19-1.34-1.26,0-.64.56-.92,1.16-.92a3.67,3.67,0,0,1,.85.11Z"/><path class="cls-1" d="M53,27.78A2,2,0,0,1,52,28a1.41,1.41,0,0,1-1.55-1.54,1.39,1.39,0,0,1,1.38-1.57c1.1,0,1.41.75,1.41,1.79h-2a.77.77,0,0,0,.85.75,2,2,0,0,0,1-.3v.63Zm-.51-1.61c0-.38-.2-.7-.63-.7a.68.68,0,0,0-.69.7Z"/><path class="cls-1" d="M58.45,27.89a4.15,4.15,0,0,1-.92.12c-1.31,0-2.21-.65-2.21-2a2,2,0,0,1,2.21-2.15,2.6,2.6,0,0,1,.91.17l-.06.68a1.67,1.67,0,0,0-.87-.21A1.34,1.34,0,0,0,56.16,26a1.33,1.33,0,0,0,1.37,1.43,2.22,2.22,0,0,0,.88-.17Z"/><path class="cls-1" d="M61.35,27.78a2,2,0,0,1-1,.24,1.41,1.41,0,0,1-1.55-1.54,1.39,1.39,0,0,1,1.38-1.57c1.1,0,1.41.75,1.41,1.79h-2a.77.77,0,0,0,.85.75,2,2,0,0,0,1-.3v.63Zm-.51-1.61c0-.38-.2-.7-.63-.7a.67.67,0,0,0-.69.7Z"/><path class="cls-1" d="M62.18,25h.73v.4h0a1.1,1.1,0,0,1,1-.47c.7,0,1,.49,1,1.16V28h-.77V26.36c0-.36,0-.86-.5-.86s-.68.61-.68,1V28h-.78V25Z"/><path class="cls-1" d="M66,25.54h-.57V25H66v-.6l.77-.25V25h.69v.56h-.69v1.39c0,.25.07.49.37.49a.61.61,0,0,0,.35-.09l0,.62a2.32,2.32,0,0,1-.57.06.87.87,0,0,1-.94-1V25.54Z"/><path class="cls-1" d="M70.33,27.78a2,2,0,0,1-1,.24,1.42,1.42,0,0,1-1.56-1.54,1.39,1.39,0,0,1,1.38-1.57c1.1,0,1.41.75,1.41,1.79h-2a.77.77,0,0,0,.85.75,2,2,0,0,0,1-.3v.63Zm-.51-1.61c0-.38-.2-.7-.63-.7a.68.68,0,0,0-.69.7Z"/><path class="cls-1" d="M71.18,25h.69v.67h0a.9.9,0,0,1,.81-.74,1,1,0,0,1,.24,0v.78a.8.8,0,0,0-.35-.07c-.63,0-.63.79-.63,1.22V28h-.77V25Z"/><path class="cls-1" d="M28.79,31.53h-.57V31h.57v-.42a.91.91,0,0,1,.94-1,2.4,2.4,0,0,1,.57.07l-.06.64a.61.61,0,0,0-.34-.11c-.26,0-.34.23-.34.46V31h.68v.56h-.68v2.41h-.77V31.53Z"/><path class="cls-1" d="M32.11,30.9a1.49,1.49,0,0,1,1.56,1.58,1.56,1.56,0,0,1-3.11,0A1.49,1.49,0,0,1,32.11,30.9Zm0,2.51c.6,0,.75-.53.75-1a.76.76,0,1,0-1.49,0C31.37,32.88,31.52,33.41,32.11,33.41Z"/><path class="cls-1" d="M34.29,31H35v.67h0a.92.92,0,0,1,.81-.74,1,1,0,0,1,.24,0v.78a.8.8,0,0,0-.34-.06c-.63,0-.63.78-.63,1.21v1.09h-.78V31Z"/><path class="cls-1" d="M38.2,29.91H39V33.3h1.57v.64H38.2v-4Z"/><path class="cls-1" d="M41,29.69h.77v.74H41ZM41,31h.77v3H41Z"/><path class="cls-1" d="M42.9,31.53h-.57V31h.57v-.42a.91.91,0,0,1,1-1,2.38,2.38,0,0,1,.56.07l-.06.64a.61.61,0,0,0-.34-.11c-.26,0-.34.23-.34.46V31h.68v.56h-.68v2.41H42.9V31.53Z"/><path class="cls-1" d="M47.24,33.77a2,2,0,0,1-1,.24,1.41,1.41,0,0,1-1.55-1.54,1.39,1.39,0,0,1,1.38-1.57c1.1,0,1.41.76,1.41,1.8H45.41a.77.77,0,0,0,.85.74,2,2,0,0,0,1-.3v.63Zm-.52-1.61c0-.37-.19-.69-.62-.69a.66.66,0,0,0-.69.69Z"/><path class="cls-1" d="M51.91,30.65a2.08,2.08,0,0,0-.82-.17.56.56,0,0,0-.64.56c0,.7,1.77.4,1.77,1.75,0,.88-.7,1.22-1.51,1.22a3.42,3.42,0,0,1-1-.16l.07-.72a1.93,1.93,0,0,0,.91.24c.31,0,.72-.15.72-.52,0-.76-1.77-.44-1.77-1.78,0-.9.7-1.23,1.41-1.23A2.93,2.93,0,0,1,52,30Z"/><path class="cls-1" d="M54.81,31.61a1.22,1.22,0,0,0-.52-.11c-.48,0-.79.38-.79.94s.26,1,.8,1a1.66,1.66,0,0,0,.6-.14l0,.64a2.48,2.48,0,0,1-.77.1,1.56,1.56,0,0,1,0-3.11,2.31,2.31,0,0,1,.75.1Z"/><path class="cls-1" d="M55.46,29.69h.78v.74h-.78Zm0,1.28h.78v3h-.78Z"/><path class="cls-1" d="M59.43,33.77a2,2,0,0,1-1,.24,1.41,1.41,0,0,1-1.55-1.54,1.39,1.39,0,0,1,1.38-1.57c1.1,0,1.41.76,1.41,1.8h-2a.77.77,0,0,0,.85.74,2,2,0,0,0,1-.3v.63Zm-.52-1.61c0-.37-.19-.69-.62-.69a.66.66,0,0,0-.69.69Z"/><path class="cls-1" d="M60.26,31H61v.4h0a1.13,1.13,0,0,1,1-.47c.7,0,1,.5,1,1.17v1.87h-.77V32.35c0-.36,0-.85-.51-.85s-.68.61-.68,1v1.45h-.77V31Z"/><path class="cls-1" d="M65.71,31.61a1.18,1.18,0,0,0-.52-.11c-.48,0-.79.38-.79.94s.26,1,.81,1a1.6,1.6,0,0,0,.59-.14l0,.64a2.44,2.44,0,0,1-.77.1,1.56,1.56,0,0,1,0-3.11,2.31,2.31,0,0,1,.75.1Z"/><path class="cls-1" d="M68.73,33.77a2,2,0,0,1-1,.24,1.41,1.41,0,0,1-1.55-1.54,1.39,1.39,0,0,1,1.38-1.57c1.1,0,1.41.76,1.41,1.8h-2a.77.77,0,0,0,.85.74,2,2,0,0,0,1-.3v.63Zm-.52-1.61c0-.37-.19-.69-.63-.69a.66.66,0,0,0-.68.69Z"/><rect class="cls-2" x="12.7" y="6.9" width="1.43" height="5.69"/><rect class="cls-2" x="16.18" y="8.25" width="1.15" height="5.69"/><rect class="cls-2" x="14.53" y="7.57" width="1.31" height="5.69"/><rect class="cls-2" x="10.69" y="6.22" width="1.53" height="5.69"/><rect class="cls-2" x="3.65" y="3.33" width="0.68" height="5.69"/><rect class="cls-2" x="17.6" y="8.93" width="0.97" height="5.69"/><rect class="cls-2" x="2.18" y="2.14" width="0.36" height="5.69"/><rect class="cls-2" x="0.44" y="-0.1" width="0.2" height="5.69"/><rect class="cls-2" x="8.69" y="5.54" width="1.47" height="5.69"/><rect class="cls-2" x="5.21" y="4.16" width="0.97" height="5.69"/><rect class="cls-2" x="6.85" y="4.85" width="1.23" height="5.69"/><rect class="cls-2" x="19.66" y="10.28" width="0.5" height="5.69"/><path class="cls-2" d="M20.22,11v5.68c0-.08.18,0,.18,0V11Z"/><rect class="cls-2" x="18.77" y="9.6" width="0.75" height="5.69"/><path class="cls-2" d="M.44,16.69a1.3,1.3,0,0,0,.22.68,3,3,0,0,0,.62.69,7.48,7.48,0,0,0,.9.65c.36.23.77.45,1.2.67s1,.46,1.46.68,1.11.46,1.67.67,1.27.46,1.87.67l2,.67c.6.2,1.3.42,2,.68s1.24.43,1.87.67,1.13.44,1.68.67,1,.44,1.45.67.84.45,1.21.67a8.14,8.14,0,0,1,.92.67,3.33,3.33,0,0,1,.6.68,1.25,1.25,0,0,1,.21.67V21.76a1.25,1.25,0,0,0-.21-.67,3.29,3.29,0,0,0-.6-.67,7.07,7.07,0,0,0-.92-.67c-.37-.23-.77-.46-1.21-.68s-.95-.45-1.45-.67-1.11-.46-1.68-.67-1.26-.47-1.87-.67-1.44-.48-2-.68-1.3-.41-2-.67S7.14,15.28,6.51,15s-1.13-.44-1.67-.67-1-.44-1.46-.68A12.21,12.21,0,0,1,2.18,13a7.48,7.48,0,0,1-.9-.65,3,3,0,0,1-.62-.69A1.3,1.3,0,0,1,.44,11Z"/><path class="cls-1" d="M20.4,27.45a1.25,1.25,0,0,1-.21.67,3.32,3.32,0,0,1-.63.7,7,7,0,0,1-.9.65,13.18,13.18,0,0,1-1.2.67c-.46.23-.95.46-1.45.67s-1.11.46-1.68.68l-1.87.67-2,.67-2,.67c-.6.21-1.24.43-1.87.67s-1.13.44-1.67.67-1,.45-1.46.68-.84.44-1.2.67a8.32,8.32,0,0,0-.93.67,3.22,3.22,0,0,0-.59.67,1.3,1.3,0,0,0-.22.68V32.52a1.27,1.27,0,0,1,.22-.67,3,3,0,0,1,.59-.67,6.59,6.59,0,0,1,.93-.68c.36-.23.77-.45,1.2-.67s1-.46,1.46-.67S6,28.7,6.51,28.48s1.27-.46,1.87-.67l2-.67,2-.67c.6-.21,1.24-.43,1.87-.67s1.13-.44,1.68-.67,1-.45,1.45-.68a11.15,11.15,0,0,0,1.2-.67,6.75,6.75,0,0,0,.9-.65,3.09,3.09,0,0,0,.63-.7,1.25,1.25,0,0,0,.21-.67Z"/><path class="cls-1" d="M20.4,16.69a1.28,1.28,0,0,1-.21.68,3.29,3.29,0,0,1-.63.69,6.16,6.16,0,0,1-.9.65,13.18,13.18,0,0,1-1.2.67c-.46.24-.95.46-1.45.68s-1.11.46-1.68.67-1.26.46-1.87.67l-2,.67c-.6.2-1.3.42-2,.68s-1.24.43-1.87.67-1.13.44-1.67.67-1,.44-1.46.67-.84.45-1.2.67a8.32,8.32,0,0,0-.93.67,3.26,3.26,0,0,0-.59.68,1.27,1.27,0,0,0-.22.67V21.76a1.27,1.27,0,0,1,.22-.67,3.22,3.22,0,0,1,.59-.67,6.58,6.58,0,0,1,.93-.67c.36-.23.77-.46,1.2-.68s1-.45,1.46-.67,1.11-.46,1.67-.67,1.27-.47,1.87-.67,1.44-.48,2-.68,1.3-.41,2-.67,1.24-.43,1.87-.67,1.13-.44,1.68-.67,1-.44,1.45-.68a11.15,11.15,0,0,0,1.2-.67,6.75,6.75,0,0,0,.9-.65,3.29,3.29,0,0,0,.63-.69A1.28,1.28,0,0,0,20.4,11Z"/><rect class="cls-1" x="6.71" y="6.9" width="1.43" height="5.69"/><rect class="cls-1" x="3.52" y="8.25" width="1.15" height="5.69"/><rect class="cls-1" x="5" y="7.57" width="1.31" height="5.69"/><rect class="cls-1" x="8.62" y="6.22" width="1.54" height="5.69"/><rect class="cls-1" x="16.51" y="3.33" width="0.68" height="5.69"/><rect class="cls-1" x="2.28" y="8.93" width="0.97" height="5.69"/><rect class="cls-1" x="18.3" y="2.14" width="0.36" height="5.69"/><rect class="cls-1" x="20.2" y="-0.1" width="0.2" height="5.69"/><rect class="cls-1" x="10.69" y="5.54" width="1.47" height="5.69"/><rect class="cls-1" x="14.67" y="4.16" width="0.97" height="5.69"/><rect class="cls-1" x="12.76" y="4.85" width="1.23" height="5.69"/><rect class="cls-1" x="0.69" y="10.28" width="0.5" height="5.69"/><path class="cls-1" d="M.62,11v5.68c0-.08-.18,0-.18,0V11Z"/><rect class="cls-1" x="1.32" y="9.6" width="0.75" height="5.69"/></svg>