<svg id="レイヤー_1" data-name="レイヤー 1" xmlns="http://www.w3.org/2000/svg" viewBox="0 0 81 29"><defs><style>.cls-1{opacity:0.25;isolation:isolate;}.cls-2{fill:#0a50a1;}.cls-3{fill:#f00031;}.cls-4{fill:#3a58a1;}</style></defs><title>logo-PDBj</title><g id="layer1-0"><path id="path6" class="cls-1" d="M21.81,6.85a5.17,5.17,0,0,1-.74,2.8A5.57,5.57,0,0,1,19,11.54a10.71,10.71,0,0,1-3.1,1.09A21.23,21.23,0,0,1,12,13H10.22v5.38a1.64,1.64,0,0,0,.21.84,1.46,1.46,0,0,0,.79.56,6.08,6.08,0,0,0,1,.23c.46.08.85.14,1.17.17v1H1.68v-1L2.85,20a4.33,4.33,0,0,0,1-.17,1.52,1.52,0,0,0,.79-.54,1.72,1.72,0,0,0,.18-.86V5a1.61,1.61,0,0,0-.18-.81,1.37,1.37,0,0,0-.79-.57,6.51,6.51,0,0,0-1.14-.3l-1-.17v-1H13.53a12.79,12.79,0,0,1,6.22,1.18,3.88,3.88,0,0,1,2.06,3.61ZM16,7.52a4.5,4.5,0,0,0-1-3.18,4.74,4.74,0,0,0-3.5-1H10.22v8.34h.64a6.15,6.15,0,0,0,3.8-1A3.74,3.74,0,0,0,16,7.52Z"/><path id="path8" class="cls-1" d="M42.76,4a9.29,9.29,0,0,1,3.18,3.05,8.53,8.53,0,0,1,1.21,4.68A8,8,0,0,1,46.07,16a9,9,0,0,1-2.87,2.95,13.52,13.52,0,0,1-4.13,1.71,20.63,20.63,0,0,1-4.84.55H23.4v-1c.33,0,.74,0,1.22-.08a4.09,4.09,0,0,0,1-.17,1.41,1.41,0,0,0,.76-.54,1.58,1.58,0,0,0,.22-.83V5a1.72,1.72,0,0,0-.2-.82,1.4,1.4,0,0,0-.77-.6,4.46,4.46,0,0,0-1.22-.31l-1-.12v-1H34.83a19.83,19.83,0,0,1,3.91.42,12.64,12.64,0,0,1,4,1.55Zm-3.09,13.7a7.2,7.2,0,0,0,1.08-2.57,15.22,15.22,0,0,0,.34-3.42,12.39,12.39,0,0,0-.45-3.46,7.61,7.61,0,0,0-1.33-2.67,5.84,5.84,0,0,0-2.19-1.7,6.87,6.87,0,0,0-3-.61L33,3.32l-1,0V17.85a2.48,2.48,0,0,0,.14.85,1.46,1.46,0,0,0,.5.64,2.37,2.37,0,0,0,.85.45,4.4,4.4,0,0,0,1.32.16,6.87,6.87,0,0,0,2.93-.57,4.84,4.84,0,0,0,2-1.65Z"/><path id="path10" class="cls-1" d="M68.21,12.43a5,5,0,0,1,1.57,1.49A3.66,3.66,0,0,1,70.39,16a4.24,4.24,0,0,1-.69,2.46,4.57,4.57,0,0,1-2,1.58,11.15,11.15,0,0,1-3.14.87,29.89,29.89,0,0,1-4.18.25H49.25v-1L50.44,20a4.08,4.08,0,0,0,1-.19,1.47,1.47,0,0,0,.77-.53,1.59,1.59,0,0,0,.21-.86V5a1.72,1.72,0,0,0-.17-.8,1.45,1.45,0,0,0-.81-.56,5.7,5.7,0,0,0-1.09-.3l-1.1-.19v-1H60.92q4.39,0,6.36,1.08a3.44,3.44,0,0,1,2,3.18A3.3,3.3,0,0,1,68.79,8a3.94,3.94,0,0,1-1.26,1.28,7.3,7.3,0,0,1-1.77.87,16.75,16.75,0,0,1-2.2.61v.27a13.45,13.45,0,0,1,2.45.46,9.27,9.27,0,0,1,2.2.91ZM63.37,6.66a3.12,3.12,0,0,0-1-2.47,4.46,4.46,0,0,0-3-.89l-.75,0-.8,0v7.08h.79a5.4,5.4,0,0,0,3.62-1A3.47,3.47,0,0,0,63.37,6.66Zm1,9.2a3.62,3.62,0,0,0-1.33-3,6,6,0,0,0-3.82-1.07l-.76,0-.71,0v6.94a1.45,1.45,0,0,0,.85.84,3.91,3.91,0,0,0,1.72.35,4.06,4.06,0,0,0,2.93-1.08,4,4,0,0,0,1.12-3Z"/><path id="path12" class="cls-1" d="M80,19.61a8,8,0,0,1-.53,2.79A7,7,0,0,1,78,24.83a7.76,7.76,0,0,1-2.61,1.72,9.28,9.28,0,0,1-3.49.62,5.32,5.32,0,0,1-2.83-.63,1.93,1.93,0,0,1-1-1.69,2.65,2.65,0,0,1,.1-.71,1.8,1.8,0,0,1,.42-.67,1.74,1.74,0,0,1,.75-.51,2.93,2.93,0,0,1,1.14-.2,2.37,2.37,0,0,1,1.93.8A9.68,9.68,0,0,1,73.79,26a1.93,1.93,0,0,0,.92-1.3A19.76,19.76,0,0,0,75,20.29V11a1.48,1.48,0,0,0-.22-.82,2.13,2.13,0,0,0-.63-.6,3.23,3.23,0,0,0-.92-.33,8.08,8.08,0,0,0-1.11-.19V8l7.67-.36.23.22V19.61ZM80.1,2.85a2.18,2.18,0,0,1-.89,1.74,3.42,3.42,0,0,1-4.2,0A2.16,2.16,0,0,1,75,1.1a3.4,3.4,0,0,1,4.21,0A2.17,2.17,0,0,1,80.1,2.85Z"/><path id="path14" class="cls-2" d="M19.65,6.91A5.06,5.06,0,0,1,18.9,9.7a5.73,5.73,0,0,1-2.06,1.9,11.08,11.08,0,0,1-3.11,1.08A20.3,20.3,0,0,1,9.81,13H8.06V18.4a1.68,1.68,0,0,0,.2.84,1.45,1.45,0,0,0,.8.57,7,7,0,0,0,1,.23c.46.08.85.13,1.17.16v1.05H-.49V20.2l1.18-.11a4.55,4.55,0,0,0,1-.17,1.66,1.66,0,0,0,.78-.54,1.64,1.64,0,0,0,.19-.86V5A1.67,1.67,0,0,0,2.5,4.2a1.4,1.4,0,0,0-.79-.57,7,7,0,0,0-1.14-.3L-.49,3.16V2.11H11.37A12.8,12.8,0,0,1,17.59,3.3a3.9,3.9,0,0,1,2.06,3.61Zm-5.86.66a4.44,4.44,0,0,0-1-3.17c-.65-.7-1.82-1-3.49-1H8.06V11.7h.63a6.13,6.13,0,0,0,3.8-1,3.69,3.69,0,0,0,1.3-3.12Z"/><path id="path16" class="cls-2" d="M40.6,4.08a9.32,9.32,0,0,1,3.18,3.06A8.62,8.62,0,0,1,45,11.82,7.94,7.94,0,0,1,43.9,16,8.89,8.89,0,0,1,41,19a13.2,13.2,0,0,1-4.12,1.7,20.69,20.69,0,0,1-4.84.56H21.24v-1c.33,0,.73,0,1.22-.09a4.14,4.14,0,0,0,1-.16,1.44,1.44,0,0,0,.77-.54,1.59,1.59,0,0,0,.21-.84V5a1.76,1.76,0,0,0-.2-.83,1.37,1.37,0,0,0-.76-.6,5.46,5.46,0,0,0-1.22-.31l-1-.11V2.11H32.66a19.92,19.92,0,0,1,3.92.42,13.13,13.13,0,0,1,4,1.55Zm-3.09,13.7a7.07,7.07,0,0,0,1.08-2.56,15.32,15.32,0,0,0,.34-3.43,12.44,12.44,0,0,0-.45-3.46,7.73,7.73,0,0,0-1.33-2.66A5.93,5.93,0,0,0,35,4a7,7,0,0,0-3-.6l-1.2,0-1,0V17.9a2.28,2.28,0,0,0,.14.86,1.49,1.49,0,0,0,.49.64,2.64,2.64,0,0,0,.85.45A4.82,4.82,0,0,0,32.6,20a7.09,7.09,0,0,0,2.93-.56,4.79,4.79,0,0,0,2-1.66Z"/><path id="path18" class="cls-2" d="M66.05,12.49A5,5,0,0,1,67.62,14a3.71,3.71,0,0,1,.61,2.11,4.32,4.32,0,0,1-.69,2.46,4.65,4.65,0,0,1-2,1.58,11.59,11.59,0,0,1-3.14.87,31.5,31.5,0,0,1-4.18.25H47.08V20.2l1.19-.12a4.77,4.77,0,0,0,1-.18,1.51,1.51,0,0,0,.77-.54,1.66,1.66,0,0,0,.2-.86V5a1.74,1.74,0,0,0-.16-.81,1.49,1.49,0,0,0-.81-.56,5.84,5.84,0,0,0-1.1-.29l-1.1-.19V2.11H58.75q4.41,0,6.36,1.08a3.45,3.45,0,0,1,2,3.19,3.3,3.3,0,0,1-.44,1.71,4,4,0,0,1-1.25,1.28,8.11,8.11,0,0,1-1.77.87,16.91,16.91,0,0,1-2.21.6v.27a13.3,13.3,0,0,1,2.45.46,9.18,9.18,0,0,1,2.21.92ZM61.2,6.71a3.12,3.12,0,0,0-1-2.47,4.49,4.49,0,0,0-3-.88c-.19,0-.44,0-.75,0l-.79,0V10.5h.79a5.41,5.41,0,0,0,3.62-1A3.47,3.47,0,0,0,61.2,6.71Zm1,9.2a3.68,3.68,0,0,0-1.33-3,6,6,0,0,0-3.83-1.06l-.76,0-.7,0v6.94a1.45,1.45,0,0,0,.85.84A3.88,3.88,0,0,0,58.2,20a4.07,4.07,0,0,0,2.92-1.07,4,4,0,0,0,1.13-3Z"/><path id="path20" class="cls-2" d="M77.86,19.66a7.76,7.76,0,0,1-.54,2.79,6.8,6.8,0,0,1-1.51,2.43,7.5,7.5,0,0,1-2.6,1.73,9.3,9.3,0,0,1-3.5.61,5.36,5.36,0,0,1-2.82-.62,1.93,1.93,0,0,1-1-1.7,2.28,2.28,0,0,1,.1-.7,1.79,1.79,0,0,1,.41-.68,1.86,1.86,0,0,1,.75-.5,3,3,0,0,1,1.15-.21,2.4,2.4,0,0,1,1.93.8A9.77,9.77,0,0,1,71.63,26a2,2,0,0,0,.92-1.31,20.3,20.3,0,0,0,.29-4.37V11.08a1.49,1.49,0,0,0-.23-.82,1.88,1.88,0,0,0-.62-.6,3.23,3.23,0,0,0-.92-.33A8.1,8.1,0,0,0,70,9.13v-1l7.68-.36.22.21V19.66ZM77.93,2.9a2.17,2.17,0,0,1-.88,1.75,3.27,3.27,0,0,1-2.1.71,3.3,3.3,0,0,1-2.11-.71,2.18,2.18,0,0,1,0-3.5,3.45,3.45,0,0,1,4.22,0A2.2,2.2,0,0,1,77.93,2.9Z"/><ellipse id="ellipse22" class="cls-3" cx="74.77" cy="3.12" rx="3.44" ry="2.84"/><path id="path24" class="cls-4" d="M2.74,24a1.07,1.07,0,0,1-.11.49.88.88,0,0,1-.3.36,1.35,1.35,0,0,1-.42.2,1.55,1.55,0,0,1-.48.07H1v1.08a.33.33,0,0,0,0,.15.18.18,0,0,0,.12.1l.16,0h.21v.18H0v-.18H.19a.4.4,0,0,0,.16,0,.2.2,0,0,0,.11-.09.38.38,0,0,0,0-.16V23.66a.78.78,0,0,0,0-.16.2.2,0,0,0-.12-.1l-.2,0-.17,0v-.18H1.62a1.3,1.3,0,0,1,.81.24.77.77,0,0,1,.31.64ZM2,24.64a.91.91,0,0,0,.11-.25,1,1,0,0,0,0-.23,1,1,0,0,0,0-.29A.68.68,0,0,0,2,23.61a.58.58,0,0,0-.23-.18,1,1,0,0,0-.36-.07H1v1.57h.25a1.08,1.08,0,0,0,.44-.08A.71.71,0,0,0,2,24.64Z"/><path id="path26" class="cls-4" d="M5,24.55a.44.44,0,0,1-.06.23.22.22,0,0,1-.2.1.33.33,0,0,1-.21-.07.23.23,0,0,1-.07-.17.31.31,0,0,1,0-.1s0-.06,0-.09a.5.5,0,0,0-.27.1.67.67,0,0,0-.27.28v1.43a.33.33,0,0,0,0,.15.24.24,0,0,0,.11.08l.16,0h.17v.17H3.08v-.17H3.2l.11,0a.16.16,0,0,0,.1-.08.26.26,0,0,0,0-.14V24.77a.42.42,0,0,0,0-.15.29.29,0,0,0-.1-.12.25.25,0,0,0-.12,0l-.14,0v-.17l.83-.06,0,0v.35h0a1.23,1.23,0,0,1,.34-.31.78.78,0,0,1,.36-.11.34.34,0,0,1,.25.11.36.36,0,0,1,.1.27Z"/><path id="path28" class="cls-4" d="M7.59,25.46a1.51,1.51,0,0,1-.08.51,1.36,1.36,0,0,1-.23.43,1.27,1.27,0,0,1-.4.3,1.4,1.4,0,0,1-.51.09,1.12,1.12,0,0,1-.45-.08,1.22,1.22,0,0,1-.38-.26A1.31,1.31,0,0,1,5.28,26a1.63,1.63,0,0,1-.09-.55,1.35,1.35,0,0,1,.33-.94,1.14,1.14,0,0,1,.89-.37,1.15,1.15,0,0,1,.85.35A1.29,1.29,0,0,1,7.59,25.46Zm-.52,0a1.78,1.78,0,0,0,0-.39,1.09,1.09,0,0,0-.11-.36.71.71,0,0,0-.2-.25.57.57,0,0,0-.32-.09.58.58,0,0,0-.33.09.75.75,0,0,0-.22.27,1.13,1.13,0,0,0-.11.34,2.53,2.53,0,0,0,0,.38,2.15,2.15,0,0,0,0,.45,1.09,1.09,0,0,0,.12.36.75.75,0,0,0,.21.25.57.57,0,0,0,.81-.21,1.64,1.64,0,0,0,.18-.84Z"/><path id="path30" class="cls-4" d="M9.49,26.61l-.31.11a1.28,1.28,0,0,1-.36,0,.56.56,0,0,1-.44-.15.73.73,0,0,1-.12-.45V24.49H7.81v-.24h.45v-.77h.46v.77h.72v.24H8.73v1.38a1.93,1.93,0,0,0,0,.26.48.48,0,0,0,0,.18.34.34,0,0,0,.12.12.69.69,0,0,0,.22,0h.19l.17,0v.19Z"/><path id="path32" class="cls-4" d="M11.91,26.14a1.25,1.25,0,0,1-.41.47,1.09,1.09,0,0,1-.6.18,1.24,1.24,0,0,1-.52-.11,1,1,0,0,1-.37-.29A1.19,1.19,0,0,1,9.8,26a1.7,1.7,0,0,1-.07-.51A1.53,1.53,0,0,1,9.8,25a1.44,1.44,0,0,1,.23-.42,1,1,0,0,1,.35-.28.93.93,0,0,1,.47-.11,1.22,1.22,0,0,1,.46.08.87.87,0,0,1,.32.24,1.09,1.09,0,0,1,.17.32,1.86,1.86,0,0,1,0,.42v.16H10.23a2.15,2.15,0,0,0,0,.45,1.6,1.6,0,0,0,.15.35.76.76,0,0,0,.63.32.71.71,0,0,0,.39-.11,1,1,0,0,0,.31-.38Zm-.56-.95c0-.09,0-.19,0-.3a.88.88,0,0,0-.08-.26.47.47,0,0,0-.15-.19.41.41,0,0,0-.25-.07.53.53,0,0,0-.44.22,1,1,0,0,0-.18.6Z"/><path id="path34" class="cls-4" d="M13.4,26.71H12.21v-.17h.12l.1,0a.18.18,0,0,0,.11-.08.26.26,0,0,0,0-.14V24.77a.23.23,0,0,0,0-.14.18.18,0,0,0-.1-.11.37.37,0,0,0-.14-.06l-.16,0v-.17l.88-.06,0,0v2a.32.32,0,0,0,0,.14.24.24,0,0,0,.11.09l.11,0,.11,0v.17Zm-.31-3.48a.38.38,0,0,1-.09.25.3.3,0,0,1-.46,0,.33.33,0,0,1-.09-.23.36.36,0,0,1,.09-.24.31.31,0,0,1,.23-.11A.33.33,0,0,1,13,23,.33.33,0,0,1,13.09,23.23Z"/><path id="path36" class="cls-4" d="M16.45,26.71H15.23v-.17h.13l.12,0a.16.16,0,0,0,.1-.08.2.2,0,0,0,0-.14V25a.55.55,0,0,0-.13-.4.39.39,0,0,0-.3-.14.61.61,0,0,0-.24,0,.93.93,0,0,0-.2.1.51.51,0,0,0-.13.12.9.9,0,0,0-.07.11v1.41a.26.26,0,0,0,0,.14.24.24,0,0,0,.11.09l.12,0h.13v.17H13.71v-.17h.12l.11,0a.16.16,0,0,0,.1-.08.26.26,0,0,0,0-.14V24.77a.41.41,0,0,0,0-.16.38.38,0,0,0-.11-.11l-.11,0-.14,0v-.17l.83-.06,0,0v.36h0l.15-.15a1,1,0,0,1,.17-.13.74.74,0,0,1,.22-.1.88.88,0,0,1,.29,0,.63.63,0,0,1,.53.22.94.94,0,0,1,.17.59v1.28a.29.29,0,0,0,0,.14.16.16,0,0,0,.1.08l.11,0h.12v.17Z"/><path id="path38" class="cls-4" d="M21.46,25a1.62,1.62,0,0,1-.18.79,1.51,1.51,0,0,1-.44.55,1.92,1.92,0,0,1-.62.32,2.44,2.44,0,0,1-.71.1H18v-.18h.19l.15,0a.22.22,0,0,0,.11-.1.24.24,0,0,0,0-.15V23.67a.33.33,0,0,0,0-.15.22.22,0,0,0-.12-.11l-.17-.05-.15,0v-.18h1.55a2.1,2.1,0,0,1,1.18.37,1.5,1.5,0,0,1,.49.59,1.86,1.86,0,0,1,.18.84Zm-.62,0a2.15,2.15,0,0,0-.09-.64,1.44,1.44,0,0,0-.28-.5,1.27,1.27,0,0,0-.43-.33,1.4,1.4,0,0,0-.56-.11h-.42V26.1a.36.36,0,0,0,.13.32.76.76,0,0,0,.41.08,1.25,1.25,0,0,0,.56-.11,1,1,0,0,0,.39-.31,1.29,1.29,0,0,0,.22-.49,2.41,2.41,0,0,0,.07-.64Z"/><path id="path40" class="cls-4" d="M24.17,26.67l-.21.07-.2,0a.48.48,0,0,1-.31-.09.4.4,0,0,1-.15-.26h0a1.1,1.1,0,0,1-.35.27,1,1,0,0,1-.44.09A.61.61,0,0,1,22,26.6a.57.57,0,0,1-.18-.44.93.93,0,0,1,0-.25A.72.72,0,0,1,22,25.7a.59.59,0,0,1,.17-.13.82.82,0,0,1,.19-.09,4.07,4.07,0,0,1,.46-.16l.46-.18v-.25s0-.06,0-.12a.49.49,0,0,0-.06-.17.31.31,0,0,0-.14-.16.37.37,0,0,0-.25-.07.78.78,0,0,0-.22,0,.36.36,0,0,0-.13.09.42.42,0,0,0,0,.14.55.55,0,0,1,0,.18.21.21,0,0,1-.07.16.33.33,0,0,1-.23.07A.2.2,0,0,1,22,25a.36.36,0,0,1-.06-.2.4.4,0,0,1,.08-.22.91.91,0,0,1,.21-.18,1,1,0,0,1,.28-.12.84.84,0,0,1,.31-.05l.36,0a.64.64,0,0,1,.29.13.54.54,0,0,1,.19.25,1.12,1.12,0,0,1,.07.41c0,.24,0,.45,0,.63v.6a.35.35,0,0,0,0,.16.29.29,0,0,0,.1.09.21.21,0,0,0,.12,0h.17v.17Zm-.88-1.32-.37.12a1.4,1.4,0,0,0-.3.15.71.71,0,0,0-.19.2.51.51,0,0,0-.08.28.42.42,0,0,0,.11.31.41.41,0,0,0,.28.09.55.55,0,0,0,.31-.08,1.15,1.15,0,0,0,.23-.21Z"/><path id="path42" class="cls-4" d="M26,26.61l-.31.11a1.19,1.19,0,0,1-.36,0,.53.53,0,0,1-.43-.15.67.67,0,0,1-.13-.45V24.49h-.44v-.24h.45v-.77h.46v.77h.71v.24h-.71v1.38a1.93,1.93,0,0,0,0,.26.48.48,0,0,0,.06.18.23.23,0,0,0,.12.12.58.58,0,0,0,.21,0h.19l.17,0v.19Z"/><path id="path44" class="cls-4" d="M28.53,26.67l-.21.07-.2,0a.48.48,0,0,1-.31-.09.4.4,0,0,1-.15-.26h0a1.1,1.1,0,0,1-.35.27,1,1,0,0,1-.44.09.61.61,0,0,1-.46-.17.57.57,0,0,1-.18-.44.66.66,0,0,1,0-.25.72.72,0,0,1,.12-.21.59.59,0,0,1,.17-.13l.19-.09.45-.16.47-.18v-.25s0-.06,0-.12a.35.35,0,0,0-.06-.17.36.36,0,0,0-.14-.16.37.37,0,0,0-.25-.07.66.66,0,0,0-.21,0,.33.33,0,0,0-.14.09.42.42,0,0,0,0,.14.55.55,0,0,1,0,.18.21.21,0,0,1-.07.16.32.32,0,0,1-.22.07.21.21,0,0,1-.19-.09.36.36,0,0,1-.06-.2.4.4,0,0,1,.08-.22.91.91,0,0,1,.21-.18,1,1,0,0,1,.28-.12.84.84,0,0,1,.31-.05l.36,0a.64.64,0,0,1,.29.13.54.54,0,0,1,.19.25.94.94,0,0,1,.07.41c0,.24,0,.45,0,.63v.6a.35.35,0,0,0,0,.16.29.29,0,0,0,.1.09.21.21,0,0,0,.12,0h.17v.17Zm-.88-1.32-.37.12a1.4,1.4,0,0,0-.3.15,1,1,0,0,0-.2.2.61.61,0,0,0-.07.28.42.42,0,0,0,.11.31.43.43,0,0,0,.28.09.55.55,0,0,0,.31-.08,1.15,1.15,0,0,0,.23-.21Z"/><path id="path46" class="cls-4" d="M32.61,25.05a1,1,0,0,1,.25.28.76.76,0,0,1,.11.41.9.9,0,0,1-.11.44,1,1,0,0,1-.28.3,1.19,1.19,0,0,1-.38.17,1.59,1.59,0,0,1-.43.06H30.09v-.18l.17,0a.46.46,0,0,0,.16,0,.2.2,0,0,0,.11-.09.33.33,0,0,0,0-.15V23.67a.4.4,0,0,0,0-.15.25.25,0,0,0-.12-.1.43.43,0,0,0-.17-.06l-.15,0v-.18h1.65a2.1,2.1,0,0,1,.36,0,1.4,1.4,0,0,1,.34.13.91.91,0,0,1,.24.24.72.72,0,0,1,.09.37.84.84,0,0,1-.06.33,1,1,0,0,1-.19.26,1.6,1.6,0,0,1-.59.27v0l.34.08a1.19,1.19,0,0,1,.34.16ZM32,24.52a.7.7,0,0,0,.13-.24,1.26,1.26,0,0,0,0-.3.61.61,0,0,0-.16-.46.66.66,0,0,0-.5-.17h-.41v1.36h.32a1.23,1.23,0,0,0,.35-.05.6.6,0,0,0,.24-.16Zm.35,1.13a.7.7,0,0,0-.21-.52.88.88,0,0,0-.61-.2h-.44v1.25a.25.25,0,0,0,.13.23.64.64,0,0,0,.36.08.74.74,0,0,0,.57-.21.89.89,0,0,0,.2-.64Z"/><path id="path48" class="cls-4" d="M35.71,26.67l-.21.07-.2,0a.5.5,0,0,1-.31-.09.4.4,0,0,1-.15-.26h0a1,1,0,0,1-.35.27,1,1,0,0,1-.44.09.61.61,0,0,1-.46-.17.57.57,0,0,1-.17-.44,1,1,0,0,1,0-.25.57.57,0,0,1,.13-.21.53.53,0,0,1,.16-.13l.19-.09.46-.16.46-.18v-.25s0-.06,0-.12a.34.34,0,0,0-.05-.17.44.44,0,0,0-.14-.16.4.4,0,0,0-.26-.07.66.66,0,0,0-.21,0,.42.42,0,0,0-.14.09,1.15,1.15,0,0,0,0,.14.57.57,0,0,1,0,.18A.23.23,0,0,1,34,25a.32.32,0,0,1-.22.07.21.21,0,0,1-.19-.09.36.36,0,0,1-.06-.2.35.35,0,0,1,.09-.22.63.63,0,0,1,.21-.18,1.18,1.18,0,0,1,.58-.17l.37,0a.65.65,0,0,1,.28.13.48.48,0,0,1,.19.25.94.94,0,0,1,.07.41c0,.24,0,.45,0,.63v.6a.35.35,0,0,0,0,.16.25.25,0,0,0,.11.09.16.16,0,0,0,.11,0h.17v.17Zm-.88-1.32-.37.12a1.59,1.59,0,0,0-.29.15.76.76,0,0,0-.2.2.51.51,0,0,0-.08.28.42.42,0,0,0,.11.31.45.45,0,0,0,.28.09.53.53,0,0,0,.31-.08.93.93,0,0,0,.23-.21Z"/><path id="path50" class="cls-4" d="M38.7,26.71H37.48v-.17h.13l.11,0a.15.15,0,0,0,.11-.08.26.26,0,0,0,0-.14V25a.55.55,0,0,0-.13-.4.39.39,0,0,0-.3-.14.69.69,0,0,0-.25,0,.85.85,0,0,0-.19.1.51.51,0,0,0-.13.12l-.08.11v1.41a.26.26,0,0,0,0,.14.2.2,0,0,0,.11.09l.11,0h.14v.17H36v-.17h.12l.1,0a.15.15,0,0,0,.11-.08.26.26,0,0,0,0-.14V24.77a.41.41,0,0,0,0-.16.38.38,0,0,0-.11-.11l-.11,0-.14,0v-.17l.83-.06,0,0v.36h0l.15-.15a1,1,0,0,1,.17-.13.64.64,0,0,1,.22-.1.85.85,0,0,1,.29,0,.61.61,0,0,1,.52.22.89.89,0,0,1,.18.59v1.28a.29.29,0,0,0,0,.14.16.16,0,0,0,.1.08l.11,0h.12v.17Z"/><path id="path52" class="cls-4" d="M41.61,26.71h-.73l-.42-.61L40,25.47l-.21.2v.58a.33.33,0,0,0,0,.15.2.2,0,0,0,.11.09l.12,0h.13v.17H39v-.17h.12l.11,0a.16.16,0,0,0,.1-.08.26.26,0,0,0,0-.14V23.43a.47.47,0,0,0,0-.17.36.36,0,0,0-.11-.13.43.43,0,0,0-.16-.05l-.18,0v-.17l.92-.06,0,0v2.62l.42-.42c.15-.15.28-.28.38-.4a.15.15,0,0,0,0-.06.09.09,0,0,0,0-.06s0-.08-.11-.1a.78.78,0,0,0-.21,0v-.17h1.08v.17a1.79,1.79,0,0,0-.37.15,1.52,1.52,0,0,0-.25.17,1.17,1.17,0,0,0-.16.16l-.31.29c.13.17.29.37.46.61l.37.5a.74.74,0,0,0,.2.2.55.55,0,0,0,.25.05v.17Z"/><path id="path54" class="cls-4" d="M45.34,23.33l-.18,0-.18,0a.19.19,0,0,0-.12.09.41.41,0,0,0,0,.16v2.11a.91.91,0,0,1-.07.35.89.89,0,0,1-.19.33,1,1,0,0,1-.35.27,1.16,1.16,0,0,1-.47.09.92.92,0,0,1-.66-.23.79.79,0,0,1-.26-.62.53.53,0,0,1,.09-.3.29.29,0,0,1,.26-.13.32.32,0,0,1,.24.09.29.29,0,0,1,.1.22.47.47,0,0,1,0,.16.46.46,0,0,1-.07.14l-.09.14c0,.05,0,.1-.07.14a.5.5,0,0,0,.17.15.61.61,0,0,0,.3.06.56.56,0,0,0,.3-.08.6.6,0,0,0,.18-.23,1.18,1.18,0,0,0,.07-.32,2.81,2.81,0,0,0,0-.43V23.67a.32.32,0,0,0,0-.14.26.26,0,0,0-.12-.11.47.47,0,0,0-.19-.06l-.19,0v-.18h1.57v.18Z"/><path id="path56" class="cls-4" d="M48,26.67l-.21.07-.2,0a.55.55,0,0,1-.32-.09.44.44,0,0,1-.14-.26h0a1.1,1.1,0,0,1-.35.27,1,1,0,0,1-.45.09.6.6,0,0,1-.45-.17.57.57,0,0,1-.18-.44.93.93,0,0,1,0-.25.72.72,0,0,1,.12-.21.59.59,0,0,1,.17-.13.82.82,0,0,1,.19-.09,4.46,4.46,0,0,1,.45-.16l.47-.18v-.25s0-.06,0-.12a.84.84,0,0,0,0-.17.46.46,0,0,0-.15-.16.37.37,0,0,0-.25-.07.78.78,0,0,0-.22,0,.36.36,0,0,0-.13.09.42.42,0,0,0,0,.14.55.55,0,0,1,0,.18.19.19,0,0,1-.08.16A.28.28,0,0,1,46,25a.21.21,0,0,1-.19-.09.36.36,0,0,1-.06-.2.4.4,0,0,1,.08-.22.91.91,0,0,1,.21-.18,1,1,0,0,1,.28-.12.84.84,0,0,1,.31-.05l.37,0a.65.65,0,0,1,.28.13.54.54,0,0,1,.19.25,1.12,1.12,0,0,1,.07.41c0,.24,0,.45,0,.63v.6a.35.35,0,0,0,0,.16.29.29,0,0,0,.1.09.21.21,0,0,0,.12,0H48v.17Zm-.88-1.32-.37.12a1.4,1.4,0,0,0-.3.15.71.71,0,0,0-.19.2.51.51,0,0,0-.08.28.42.42,0,0,0,.11.31.45.45,0,0,0,.28.09.53.53,0,0,0,.31-.08.93.93,0,0,0,.23-.21Z"/><path id="path58" class="cls-4" d="M50.49,24.54a1.27,1.27,0,0,1,.24.41,1.69,1.69,0,0,1,.08.53,1.51,1.51,0,0,1-.1.53,1.49,1.49,0,0,1-.26.42,1.31,1.31,0,0,1-.37.26,1,1,0,0,1-.44.1,1.11,1.11,0,0,1-.6-.17h0v.73a.24.24,0,0,0,0,.15.18.18,0,0,0,.1.09l.17,0,.18,0v.17H48.13v-.17l.15,0,.13,0a.2.2,0,0,0,.11-.09.33.33,0,0,0,0-.15V24.76a.23.23,0,0,0,0-.14.29.29,0,0,0-.1-.12.34.34,0,0,0-.12,0l-.16,0v-.17L49,24.2l0,0v.28h0a.89.89,0,0,1,.32-.25.77.77,0,0,1,.38-.1.93.93,0,0,1,.42.09,1.09,1.09,0,0,1,.33.27Zm-.4,1.77a1.5,1.5,0,0,0,.15-.36,2.19,2.19,0,0,0,0-.46,1.69,1.69,0,0,0,0-.38.81.81,0,0,0-.12-.33.66.66,0,0,0-.23-.24.58.58,0,0,0-.33-.09.51.51,0,0,0-.31.08.87.87,0,0,0-.23.2v1.46s0,.09.07.14a1.36,1.36,0,0,0,.12.12l.17.11a.69.69,0,0,0,.22,0,.54.54,0,0,0,.27-.07A.63.63,0,0,0,50.09,26.31Z"/><path id="path60" class="cls-4" d="M53.5,26.67l-.21.07-.2,0a.53.53,0,0,1-.32-.09.44.44,0,0,1-.14-.26h0a1.1,1.1,0,0,1-.35.27,1,1,0,0,1-.44.09.61.61,0,0,1-.46-.17.57.57,0,0,1-.18-.44.93.93,0,0,1,0-.25.72.72,0,0,1,.12-.21.59.59,0,0,1,.17-.13l.19-.09.45-.16.47-.18v-.25s0-.06,0-.12a.51.51,0,0,0-.07-.17.34.34,0,0,0-.13-.16.42.42,0,0,0-.26-.07.66.66,0,0,0-.21,0,.33.33,0,0,0-.14.09.42.42,0,0,0,0,.14.55.55,0,0,1,0,.18.19.19,0,0,1-.08.16.28.28,0,0,1-.21.07.21.21,0,0,1-.19-.09.36.36,0,0,1-.06-.2.4.4,0,0,1,.08-.22.79.79,0,0,1,.22-.18,1.18,1.18,0,0,1,.58-.17l.36,0a.64.64,0,0,1,.29.13.54.54,0,0,1,.19.25.94.94,0,0,1,.07.41c0,.24,0,.45,0,.63v.6a.35.35,0,0,0,0,.16.29.29,0,0,0,.1.09.21.21,0,0,0,.12,0h.17v.17Zm-.88-1.32-.37.12a1.4,1.4,0,0,0-.3.15,1,1,0,0,0-.2.2.61.61,0,0,0-.07.28.42.42,0,0,0,.11.31.45.45,0,0,0,.28.09.53.53,0,0,0,.31-.08,1.15,1.15,0,0,0,.23-.21Z"/><path id="path62" class="cls-4" d="M56.49,26.71H55.26v-.17h.13l.12,0a.15.15,0,0,0,.11-.08.26.26,0,0,0,0-.14V25a.6.6,0,0,0-.12-.4.41.41,0,0,0-.3-.14.69.69,0,0,0-.25,0,.85.85,0,0,0-.19.1.87.87,0,0,0-.14.12l-.07.11v1.41a.2.2,0,0,0,0,.14.2.2,0,0,0,.11.09l.11,0H55v.17H53.75v-.17h.12l.1,0a.18.18,0,0,0,.11-.08.26.26,0,0,0,0-.14V24.77a.41.41,0,0,0,0-.16A.38.38,0,0,0,54,24.5l-.11,0-.14,0v-.17l.83-.06,0,0v.36h0l.16-.15a1,1,0,0,1,.17-.13.64.64,0,0,1,.22-.1.82.82,0,0,1,.28,0,.65.65,0,0,1,.54.22.94.94,0,0,1,.17.59v1.28a.29.29,0,0,0,0,.14.16.16,0,0,0,.1.08l.11,0h.12v.17Z"/></g></svg>