<?xml version="1.0" encoding="utf-8"?>
<!-- Generator: Adobe Illustrator 24.2.1, SVG Export Plug-In . SVG Version: 6.00 Build 0)  -->
<svg version="1.1" id="レイヤー_1" xmlns="http://www.w3.org/2000/svg" xmlns:xlink="http://www.w3.org/1999/xlink" x="0px"
	 y="0px" viewBox="0 0 283.5 56.7" style="enable-background:new 0 0 283.5 56.7;" xml:space="preserve">
<style type="text/css">
	.st0{fill:#AAABAB;}
	.st1{fill:url(#SVGID_1_);}
	.st2{fill:url(#SVGID_2_);}
	.st3{fill:url(#SVGID_3_);}
	.st4{fill:url(#SVGID_4_);}
	.st5{fill:url(#SVGID_5_);}
	.st6{fill:url(#SVGID_6_);}
	.st7{fill:url(#SVGID_7_);}
	.st8{fill:url(#SVGID_8_);}
	.st9{fill:url(#SVGID_9_);}
	.st10{fill:url(#SVGID_10_);}
	.st11{fill:url(#SVGID_11_);}
	.st12{fill:url(#SVGID_12_);}
	.st13{fill:url(#SVGID_13_);}
	.st14{fill:url(#SVGID_14_);}
	.st15{fill:none;stroke:#004896;stroke-width:0.7174;}
	.st16{fill:#004896;}
</style>
<g>
	<g>
		<path class="st0" d="M35.8,12.9c5.5,3,9.3,8.8,9.3,15.5c0,9.7-7.9,17.6-17.6,17.6H3.7c-1,0-1.1,0.4-0.3,1l11,7.5
			c0.8,0.6,1.2,0.2,1-0.7L14.8,52h12.7C40.4,52,51,41.4,51,28.4c0-5.9-2.2-11.4-5.9-15.5H35.8z"/>
	</g>
	<g>
		<path class="st0" d="M51.6,9.8l-11-7.5c-0.8-0.5-1.2-0.2-1,0.7l0.6,1.9H27.5c-13,0-23.5,10.5-23.5,23.5c0,5.9,2.2,11.4,5.9,15.5
			h9.3c-5.5-3-9.3-8.8-9.3-15.5c0-9.7,7.9-17.6,17.6-17.6h23.8C52.2,10.8,52.4,10.4,51.6,9.8z"/>
	</g>
	<g>
		
			<radialGradient id="SVGID_1_" cx="178.9202" cy="268.5172" r="10.5303" gradientTransform="matrix(1.578 0 0 1.5771 -254.7337 -394.7103)" gradientUnits="userSpaceOnUse">
			<stop  offset="0.1" style="stop-color:#FFFFFF"/>
			<stop  offset="1" style="stop-color:#004896"/>
		</radialGradient>
		<path class="st1" d="M13.8,35.7c0.3,0.5,0.6,1,0.9,1.5h25.6c0.3-0.5,0.6-1,0.9-1.5H13.8z"/>
		
			<radialGradient id="SVGID_2_" cx="178.9214" cy="268.5218" r="10.5265" gradientTransform="matrix(1.578 0 0 1.5771 -254.7337 -394.7103)" gradientUnits="userSpaceOnUse">
			<stop  offset="0.1" style="stop-color:#FFFFFF"/>
			<stop  offset="1" style="stop-color:#004896"/>
		</radialGradient>
		<path class="st2" d="M12.8,33.4c0.2,0.5,0.4,1,0.6,1.5h28.2c0.2-0.5,0.4-1,0.6-1.5H12.8z"/>
		
			<radialGradient id="SVGID_3_" cx="178.9212" cy="268.5282" r="10.5216" gradientTransform="matrix(1.578 0 0 1.5771 -254.7337 -394.7103)" gradientUnits="userSpaceOnUse">
			<stop  offset="0.1" style="stop-color:#FFFFFF"/>
			<stop  offset="1" style="stop-color:#004896"/>
		</radialGradient>
		<path class="st3" d="M35.4,41.7c0.7-0.4,1.5-1,2.1-1.5H17.4c0.7,0.6,1.4,1.1,2.1,1.5H35.4z"/>
		
			<radialGradient id="SVGID_4_" cx="178.9211" cy="268.5193" r="10.5287" gradientTransform="matrix(1.578 0 0 1.5771 -254.7337 -394.7103)" gradientUnits="userSpaceOnUse">
			<stop  offset="0.1" style="stop-color:#FFFFFF"/>
			<stop  offset="1" style="stop-color:#004896"/>
		</radialGradient>
		<path class="st4" d="M15.3,37.9c0.4,0.5,0.9,1,1.3,1.5l21.8,0c0.5-0.5,0.9-1,1.3-1.5H15.3z"/>
		
			<radialGradient id="SVGID_5_" cx="178.9209" cy="268.5238" r="10.5268" gradientTransform="matrix(1.578 0 0 1.5771 -254.7337 -394.7103)" gradientUnits="userSpaceOnUse">
			<stop  offset="0.1" style="stop-color:#FFFFFF"/>
			<stop  offset="1" style="stop-color:#004896"/>
		</radialGradient>
		<path class="st5" d="M34,14.4c-2-0.9-4.2-1.4-6.5-1.4c-2.3,0-4.5,0.5-6.5,1.4H34z"/>
		
			<radialGradient id="SVGID_6_" cx="178.9211" cy="268.5199" r="10.5241" gradientTransform="matrix(1.578 0 0 1.5771 -254.7337 -394.7103)" gradientUnits="userSpaceOnUse">
			<stop  offset="0.1" style="stop-color:#FFFFFF"/>
			<stop  offset="1" style="stop-color:#004896"/>
		</radialGradient>
		<path class="st6" d="M15.3,18.9h24.5c-0.4-0.5-0.9-1-1.3-1.5H16.6C16.1,17.9,15.7,18.4,15.3,18.9z"/>
		
			<radialGradient id="SVGID_7_" cx="178.9217" cy="268.5233" r="10.5247" gradientTransform="matrix(1.578 0 0 1.5771 -254.7337 -394.7103)" gradientUnits="userSpaceOnUse">
			<stop  offset="0.1" style="stop-color:#FFFFFF"/>
			<stop  offset="1" style="stop-color:#004896"/>
		</radialGradient>
		<path class="st7" d="M12.2,31.1c0.1,0.5,0.2,1,0.3,1.5h29.8c0.1-0.5,0.3-1,0.3-1.5H12.2z"/>
		
			<radialGradient id="SVGID_8_" cx="178.9212" cy="268.5228" r="10.5256" gradientTransform="matrix(1.578 0 0 1.5771 -254.7337 -394.7103)" gradientUnits="userSpaceOnUse">
			<stop  offset="0.1" style="stop-color:#FFFFFF"/>
			<stop  offset="1" style="stop-color:#004896"/>
		</radialGradient>
		<path class="st8" d="M19.6,15.1c-0.7,0.4-1.5,1-2.1,1.5h20.1c-0.7-0.6-1.4-1.1-2.1-1.5H19.6z"/>
		
			<radialGradient id="SVGID_9_" cx="178.9202" cy="268.5224" r="10.5266" gradientTransform="matrix(1.578 0 0 1.5771 -254.7337 -394.7103)" gradientUnits="userSpaceOnUse">
			<stop  offset="0.1" style="stop-color:#FFFFFF"/>
			<stop  offset="1" style="stop-color:#004896"/>
		</radialGradient>
		<path class="st9" d="M14.7,19.7c-0.3,0.5-0.6,1-0.9,1.5h27.4c-0.3-0.5-0.6-1-0.9-1.5H14.7z"/>
		
			<radialGradient id="SVGID_10_" cx="178.921" cy="268.523" r="10.5266" gradientTransform="matrix(1.578 0 0 1.5771 -254.7337 -394.7103)" gradientUnits="userSpaceOnUse">
			<stop  offset="0.1" style="stop-color:#FFFFFF"/>
			<stop  offset="1" style="stop-color:#004896"/>
		</radialGradient>
		<path class="st10" d="M12,28.8c0,0.5,0,1,0.1,1.5h30.8c0.1-0.5,0.1-1,0.1-1.5H12z"/>
		
			<radialGradient id="SVGID_11_" cx="178.9209" cy="268.5217" r="10.5272" gradientTransform="matrix(1.578 0 0 1.5771 -254.7337 -394.7103)" gradientUnits="userSpaceOnUse">
			<stop  offset="0.1" style="stop-color:#FFFFFF"/>
			<stop  offset="1" style="stop-color:#004896"/>
		</radialGradient>
		<path class="st11" d="M21,42.5c2,0.9,4.2,1.4,6.5,1.4c2.3,0,4.5-0.5,6.5-1.4H21z"/>
		
			<radialGradient id="SVGID_12_" cx="178.921" cy="268.5223" r="10.5265" gradientTransform="matrix(1.578 0 0 1.5771 -254.7337 -394.7103)" gradientUnits="userSpaceOnUse">
			<stop  offset="0.1" style="stop-color:#FFFFFF"/>
			<stop  offset="1" style="stop-color:#004896"/>
		</radialGradient>
		<path class="st12" d="M12.1,26.5c-0.1,0.5-0.1,1-0.1,1.5h31c0-0.5-0.1-1-0.1-1.5H12.1z"/>
		
			<radialGradient id="SVGID_13_" cx="178.9217" cy="268.5223" r="10.5252" gradientTransform="matrix(1.578 0 0 1.5771 -254.7337 -394.7103)" gradientUnits="userSpaceOnUse">
			<stop  offset="0.1" style="stop-color:#FFFFFF"/>
			<stop  offset="1" style="stop-color:#004896"/>
		</radialGradient>
		<path class="st13" d="M12.6,24.3c-0.1,0.5-0.3,1-0.3,1.5h30.5c-0.1-0.5-0.2-1-0.3-1.5H12.6z"/>
		
			<radialGradient id="SVGID_14_" cx="178.9214" cy="268.5233" r="10.5256" gradientTransform="matrix(1.578 0 0 1.5771 -254.7337 -394.7103)" gradientUnits="userSpaceOnUse">
			<stop  offset="0.1" style="stop-color:#FFFFFF"/>
			<stop  offset="1" style="stop-color:#004896"/>
		</radialGradient>
		<path class="st14" d="M13.4,22c-0.2,0.5-0.4,1-0.6,1.5h29.4c-0.2-0.5-0.4-1-0.6-1.5H13.4z"/>
	</g>
</g>
<g>
	<line class="st15" x1="56.8" y1="42.9" x2="273.8" y2="42.9"/>
	<g>
		<path class="st16" d="M57.9,47.1h0.3c1.2,0,2.6,0,2.6,0.9c0,0.9-1.3,0.8-2.5,0.8h-0.4V47.1z M59.6,49.5c1.5,0,2.1-0.7,2.1-1.6
			c0-0.5-0.4-1.6-2.4-1.6h-2.5v5.5h1.1v-2.2h0.5l2.8,2.2h1.4L59.6,49.5z"/>
		<path class="st16" d="M63.4,49.4c0.2-0.8,0.8-1,1.3-1c0.5,0,1.2,0.2,1.3,1H63.4z M67,50.1v-0.2c0-1.2-0.6-2.3-2.3-2.3
			c-1.4,0-2.3,0.9-2.3,2.2c0,1.1,0.6,2.1,2.4,2.1c1.5,0,2-0.9,2.2-1.3h-1.1c-0.2,0.3-0.5,0.6-1.1,0.6c-1,0-1.3-0.7-1.3-1.1H67z"/>
		<path class="st16" d="M68.9,50.6c0,0.6,0.7,0.7,1.1,0.7c0.5,0,1-0.1,1-0.5c0-0.3-0.2-0.4-1.2-0.6c-1.2-0.2-1.8-0.3-1.8-1.2
			c0-1.1,1.3-1.3,1.9-1.3c0.6,0,2,0.1,2.1,1.4h-1c-0.1-0.6-0.7-0.7-1.1-0.7c-0.6,0-0.9,0.2-0.9,0.5c0,0.3,0.1,0.4,1.1,0.5
			c1.3,0.2,2.1,0.3,2.1,1.2c0,1-0.9,1.4-2.1,1.4c-0.8,0-2.1-0.2-2.1-1.4H68.9z"/>
		<path class="st16" d="M73.7,49.4c0.2-0.8,0.8-1,1.3-1c0.5,0,1.2,0.2,1.3,1H73.7z M77.3,50.1v-0.2c0-1.2-0.6-2.3-2.3-2.3
			c-1.4,0-2.3,0.9-2.3,2.2c0,1.1,0.6,2.1,2.4,2.1c1.5,0,2-0.9,2.2-1.3h-1.1C76,51,75.7,51.2,75,51.2c-1,0-1.3-0.7-1.3-1.1H77.3z"/>
		<path class="st16" d="M81.4,50.2c0,0.9-0.9,1.1-1.4,1.1c-0.3,0-0.8-0.1-0.8-0.6c0-0.3,0.2-0.5,0.9-0.6c0.7-0.1,1-0.1,1.3-0.2V50.2
			z M82.4,49c0-0.5-0.1-1.3-2.1-1.3c-1.1,0-1.9,0.3-2,1.4h1c0-0.4,0.4-0.7,1-0.7c0.6,0,1.1,0.1,1.1,0.6c0,0.3-0.2,0.4-1.6,0.5
			c-0.6,0.1-1.7,0.2-1.7,1.3c0,0.8,0.6,1.3,1.6,1.3c1.1,0,1.6-0.4,1.8-0.6c0,0.2,0.1,0.5,0.8,0.5c0.3,0,0.5-0.1,0.7-0.1v-0.7
			c-0.1,0-0.2,0-0.3,0c-0.1,0-0.2,0-0.2-0.2V49z"/>
		<path class="st16" d="M83.8,47.8h1v0.8h0c0.3-0.4,0.7-0.9,1.4-0.9c0.2,0,0.3,0,0.4,0v1c-0.3-0.1-0.5-0.1-0.6-0.1
			c-0.5,0-1.2,0.3-1.2,1.2v1.9h-1V47.8z"/>
		<path class="st16" d="M90.3,49.2c-0.1-0.4-0.5-0.8-1.1-0.8c-0.9,0-1.3,0.7-1.3,1.3c0,0.7,0.4,1.3,1.2,1.3c0.8,0,1-0.3,1.2-0.9h1
			C91.1,52,89.5,52,89.3,52c-1.7,0-2.4-1-2.4-2.1c0-1.3,0.9-2.1,2.4-2.1c0.6,0,1.9,0.2,2.1,1.6H90.3z"/>
		<path class="st16" d="M92.1,46.4h1v2.1h0c0.3-0.4,0.8-0.7,1.5-0.7c0.8,0,1.6,0.3,1.6,1.4v2.7h-1v-2.4c0-0.4-0.1-0.9-1-0.9
			c-0.5,0-1.2,0.3-1.2,1.2v2.1h-1V46.4z"/>
		<path class="st16" d="M102.5,51.1c-1.2,0-1.9-0.8-1.9-2c0-1.2,0.7-2,1.9-2c1.2,0,1.9,0.8,1.9,2C104.4,50.3,103.7,51.1,102.5,51.1z
			 M102.5,52c2.2,0,3-1.3,3-2.8c0-1.5-0.9-2.8-3-2.8c-2.2,0-3,1.3-3,2.8C99.5,50.7,100.3,52,102.5,52z"/>
		<path class="st16" d="M106.5,47.8h1v0.8h0c0.3-0.4,0.7-0.9,1.4-0.9c0.2,0,0.3,0,0.4,0v1c-0.3-0.1-0.5-0.1-0.6-0.1
			c-0.5,0-1.2,0.3-1.2,1.2v1.9h-1V47.8z"/>
		<path class="st16" d="M110.5,49.7c0-0.7,0.6-1.2,1.3-1.2c0.5,0,1.4,0.2,1.4,1.2c0,0.7-0.5,1.2-1.3,1.2
			C110.9,51,110.5,50.3,110.5,49.7z M113.2,47.8v0.6h0c-0.2-0.4-0.8-0.7-1.6-0.7c-1.5,0-2.1,1-2.1,2c0,1.5,1.1,2,2.1,2
			c0.6,0,1.1-0.2,1.6-0.6h0v0.5c0,0.5-0.2,1.2-1.3,1.2c-0.6,0-1.1-0.1-1.2-0.6h-1c0.1,1,1.1,1.3,2.2,1.3c1.7,0,2.3-0.8,2.3-1.8v-3.9
			H113.2z"/>
		<path class="st16" d="M118.5,50.2c0,0.9-0.9,1.1-1.4,1.1c-0.3,0-0.8-0.1-0.8-0.6c0-0.3,0.2-0.5,0.9-0.6c0.7-0.1,1-0.1,1.3-0.2
			V50.2z M119.4,49c0-0.5-0.1-1.3-2.1-1.3c-1.1,0-1.9,0.3-2,1.4h1c0-0.4,0.4-0.7,1-0.7c0.6,0,1.1,0.1,1.1,0.6c0,0.3-0.2,0.4-1.6,0.5
			c-0.6,0.1-1.7,0.2-1.7,1.3c0,0.8,0.6,1.3,1.6,1.3c1.1,0,1.6-0.4,1.8-0.6c0,0.2,0.1,0.5,0.7,0.5c0.3,0,0.5-0.1,0.7-0.1v-0.7
			c-0.1,0-0.2,0-0.3,0c-0.1,0-0.2,0-0.2-0.2V49z"/>
		<path class="st16" d="M120.6,47.8h1v0.6h0c0.3-0.4,0.8-0.7,1.5-0.7c0.8,0,1.6,0.3,1.6,1.4v2.7h-1v-2.4c0-0.4-0.1-0.9-1-0.9
			c-0.5,0-1.2,0.3-1.2,1.2v2.1h-1V47.8z"/>
		<path class="st16" d="M125.8,47.2h1v-0.8h-1V47.2z M125.8,51.8h1v-4h-1V51.8z"/>
		<path class="st16" d="M127.6,51.1l2.6-2.4h-2.4v-0.8h3.9v0.7L129,51h2.7v0.8h-4.1V51.1z"/>
		<path class="st16" d="M135.6,50.2c0,0.9-0.9,1.1-1.4,1.1c-0.3,0-0.8-0.1-0.8-0.6c0-0.3,0.2-0.5,0.9-0.6c0.7-0.1,1-0.1,1.3-0.2
			V50.2z M136.6,49c0-0.5-0.1-1.3-2.1-1.3c-1.1,0-1.9,0.3-2,1.4h1c0-0.4,0.4-0.7,1-0.7c0.6,0,1.1,0.1,1.1,0.6c0,0.3-0.2,0.4-1.6,0.5
			c-0.6,0.1-1.7,0.2-1.7,1.3c0,0.8,0.6,1.3,1.6,1.3c1.1,0,1.6-0.4,1.8-0.6c0,0.2,0.1,0.5,0.8,0.5c0.3,0,0.5-0.1,0.7-0.1v-0.7
			c-0.1,0-0.2,0-0.3,0c-0.1,0-0.2,0-0.2-0.2V49z"/>
		<path class="st16" d="M138.1,48.6h-0.8v-0.8h0.8v-1.2h1v1.2h1v0.8h-1v1.8c0,0.5,0,0.7,0.4,0.7c0.2,0,0.5,0,0.7,0v0.8
			c-0.3,0-0.5,0.1-0.8,0.1c-1.2,0-1.3-0.5-1.3-1.2V48.6z"/>
		<path class="st16" d="M141.2,47.8h1v4h-1V47.8z M141.2,46.4h1v0.8h-1V46.4z"/>
		<path class="st16" d="M144,49.8c0-0.7,0.4-1.3,1.3-1.3c1,0,1.3,0.7,1.3,1.3c0,0.7-0.4,1.3-1.3,1.3C144.4,51.2,144,50.5,144,49.8z
			 M143,49.8c0,1.1,0.7,2.1,2.4,2.1c1.7,0,2.4-1,2.4-2.1c0-1.1-0.7-2.1-2.4-2.1C143.6,47.7,143,48.7,143,49.8z"/>
		<path class="st16" d="M148.2,47.8h1v0.6h0c0.3-0.4,0.8-0.7,1.5-0.7c0.8,0,1.6,0.3,1.6,1.4v2.7h-1v-2.4c0-0.4-0.1-0.9-1-0.9
			c-0.5,0-1.2,0.3-1.2,1.2v2.1h-1V47.8z"/>
		<path class="st16" d="M156.9,49.8c0-0.7,0.4-1.3,1.3-1.3c1,0,1.3,0.7,1.3,1.3c0,0.7-0.4,1.3-1.3,1.3
			C157.3,51.2,156.9,50.5,156.9,49.8z M155.9,49.8c0,1.1,0.7,2.1,2.4,2.1c1.7,0,2.4-1,2.4-2.1c0-1.1-0.7-2.1-2.4-2.1
			C156.5,47.7,155.9,48.7,155.9,49.8z"/>
		<path class="st16" d="M161.5,48.6h-0.8v-0.8h0.8v-0.5c0-0.4,0.1-1,1.1-1c0.4,0,0.7,0,0.9,0v0.8c-0.1,0-0.3,0-0.5,0
			c-0.5,0-0.5,0.1-0.5,0.5v0.3h1v0.8h-1v3.2h-1V48.6z"/>
		<path class="st16" d="M167.3,46.4h1.1v5.4h-1.1V46.4z"/>
		<path class="st16" d="M169.6,47.8h1v0.6h0c0.3-0.4,0.8-0.7,1.5-0.7c0.8,0,1.6,0.3,1.6,1.4v2.7h-1v-2.4c0-0.4-0.1-0.9-1-0.9
			c-0.5,0-1.2,0.3-1.2,1.2v2.1h-1V47.8z"/>
		<path class="st16" d="M175.3,48.6h-0.8v-0.8h0.8v-0.5c0-0.4,0.1-1,1.1-1c0.4,0,0.7,0,0.9,0v0.8c-0.1,0-0.3,0-0.5,0
			c-0.5,0-0.5,0.1-0.5,0.5v0.3h1v0.8h-1v3.2h-1V48.6z"/>
		<path class="st16" d="M180,51.2c1,0,1.3-0.7,1.3-1.3c0-0.7-0.4-1.3-1.3-1.3c-1,0-1.3,0.7-1.3,1.3C178.7,50.5,179.1,51.2,180,51.2z
			 M180,47.7c1.7,0,2.4,1,2.4,2.1c0,1.1-0.7,2.1-2.4,2.1c-1.7,0-2.4-1-2.4-2.1C177.7,48.7,178.3,47.7,180,47.7z"/>
		<path class="st16" d="M183.2,47.8h1v0.8h0c0.3-0.4,0.7-0.9,1.4-0.9c0.2,0,0.3,0,0.4,0v1c-0.3-0.1-0.5-0.1-0.6-0.1
			c-0.5,0-1.2,0.3-1.2,1.2v1.9h-1V47.8z"/>
		<path class="st16" d="M189.9,49.4c0-0.4-0.1-0.9-0.9-0.9c-0.3,0-1,0.2-1,1.1v2.2h-1v-4h1v0.6h0c0.3-0.4,0.8-0.7,1.5-0.7
			c0.4,0,1.1,0.1,1.4,0.7c0.2-0.4,0.8-0.7,1.6-0.7c0.6,0,1.5,0.2,1.5,1.4v2.7h-1v-2.4c0-0.4,0-0.9-0.9-0.9c-0.3,0-1,0.2-1,1.1v2.2
			h-1V49.4z"/>
		<path class="st16" d="M198.1,50.2c0,0.9-0.9,1.1-1.4,1.1c-0.3,0-0.8-0.1-0.8-0.6c0-0.3,0.2-0.5,0.9-0.6c0.7-0.1,1-0.1,1.3-0.2
			V50.2z M199.1,49c0-0.5-0.1-1.3-2.1-1.3c-1.1,0-1.9,0.3-2,1.4h1c0-0.4,0.4-0.7,1.1-0.7c0.6,0,1.1,0.1,1.1,0.6
			c0,0.3-0.2,0.4-1.6,0.5c-0.6,0.1-1.7,0.2-1.7,1.3c0,0.8,0.6,1.3,1.6,1.3c1.1,0,1.6-0.4,1.8-0.6c0,0.2,0.1,0.5,0.8,0.5
			c0.3,0,0.5-0.1,0.7-0.1v-0.7c-0.1,0-0.2,0-0.3,0c-0.1,0-0.2,0-0.2-0.2V49z"/>
		<path class="st16" d="M200.7,48.6h-0.8v-0.8h0.8v-1.2h1v1.2h1v0.8h-1v1.8c0,0.5,0,0.7,0.4,0.7c0.2,0,0.5,0,0.7,0v0.8
			c-0.3,0-0.5,0.1-0.8,0.1c-1.2,0-1.3-0.5-1.3-1.2V48.6z"/>
		<path class="st16" d="M203.8,47.8h1v4h-1V47.8z M203.8,46.4h1v0.8h-1V46.4z"/>
		<path class="st16" d="M206.8,49.8c0-0.7,0.4-1.3,1.3-1.3c1,0,1.3,0.7,1.3,1.3c0,0.7-0.4,1.3-1.3,1.3
			C207.2,51.2,206.8,50.5,206.8,49.8z M205.8,49.8c0,1.1,0.7,2.1,2.4,2.1c1.7,0,2.4-1,2.4-2.1c0-1.1-0.7-2.1-2.4-2.1
			C206.4,47.7,205.8,48.7,205.8,49.8z"/>
		<path class="st16" d="M211.1,47.8h1v0.6h0c0.3-0.4,0.8-0.7,1.5-0.7c0.8,0,1.6,0.3,1.6,1.4v2.7h-1v-2.4c0-0.4-0.1-0.9-1-0.9
			c-0.5,0-1.2,0.3-1.2,1.2v2.1h-1V47.8z"/>
		<path class="st16" d="M222.3,50.2c0,0.9-0.9,1.1-1.4,1.1c-0.3,0-0.8-0.1-0.8-0.6c0-0.3,0.2-0.5,0.9-0.6c0.7-0.1,1-0.1,1.3-0.2
			V50.2z M223.3,49c0-0.5-0.1-1.3-2.1-1.3c-1.1,0-1.9,0.3-2,1.4h1c0-0.4,0.4-0.7,1-0.7c0.6,0,1.1,0.1,1.1,0.6c0,0.3-0.2,0.4-1.6,0.5
			c-0.6,0.1-1.7,0.2-1.7,1.3c0,0.8,0.6,1.3,1.6,1.3c1.1,0,1.6-0.4,1.8-0.6c0,0.2,0.1,0.5,0.8,0.5c0.3,0,0.5-0.1,0.7-0.1v-0.7
			c-0.1,0-0.2,0-0.3,0c-0.1,0-0.2,0-0.2-0.2V49z"/>
		<path class="st16" d="M224.6,47.8h1v0.6h0c0.3-0.4,0.8-0.7,1.5-0.7c0.8,0,1.6,0.3,1.6,1.4v2.7h-1v-2.4c0-0.4-0.1-0.9-1-0.9
			c-0.5,0-1.2,0.3-1.2,1.2v2.1h-1V47.8z"/>
		<path class="st16" d="M230.4,49.8c0-0.7,0.4-1.3,1.3-1.3c0.9,0,1.3,0.7,1.3,1.3c0,0.7-0.4,1.3-1.3,1.3
			C230.8,51.2,230.4,50.5,230.4,49.8z M234,46.4h-1v2h0c-0.3-0.5-0.9-0.7-1.5-0.7c-1.5,0-2.1,1.1-2.1,2.1c0,1,0.6,2.1,2.1,2.1
			c0.8,0,1.4-0.5,1.5-0.7h0v0.5h1V46.4z"/>
		<path class="st16" d="M240,46.3c0.8,0,2.4,0.2,2.5,1.7h-1.2c0-0.4-0.4-0.9-1.3-0.9c-0.7,0-1.2,0.2-1.2,0.7c0,1.3,3.8,0.1,3.8,2.4
			c0,1.4-1.4,1.7-2.5,1.7c-1.9,0-2.6-0.8-2.6-1.9h1.2c0,0.7,0.6,1,1.5,1c0.7,0,1.3-0.2,1.3-0.8c0-1.3-3.8-0.2-3.8-2.4
			C237.8,46.8,238.8,46.3,240,46.3z"/>
		<path class="st16" d="M243.4,47.8h1.1l1.2,2.9l1.2-2.9h1.1l-2.1,4.7c-0.3,0.7-0.5,0.8-1.4,0.8c-0.2,0-0.4,0-0.6,0v-0.8
			c0.1,0,0.3,0,0.5,0c0.3,0,0.5-0.1,0.6-0.3l0.2-0.5L243.4,47.8z"/>
		<path class="st16" d="M249.3,50.6c0,0.6,0.7,0.7,1.1,0.7c0.5,0,1-0.1,1-0.5c0-0.3-0.2-0.4-1.2-0.6c-1.2-0.2-1.8-0.3-1.8-1.2
			c0-1.1,1.3-1.3,1.9-1.3c0.6,0,2,0.1,2.1,1.4h-1c-0.1-0.6-0.7-0.7-1.1-0.7c-0.6,0-0.9,0.2-0.9,0.5c0,0.3,0.1,0.4,1.1,0.5
			c1.3,0.2,2.1,0.3,2.1,1.2c0,1-0.9,1.4-2.1,1.4c-0.8,0-2.1-0.2-2.1-1.4H249.3z"/>
		<path class="st16" d="M253.7,50.7c0,0.8,0.1,1.2,1.3,1.2c0.3,0,0.5,0,0.8-0.1v-0.8c-0.2,0-0.5,0-0.7,0c-0.3,0-0.4-0.2-0.4-0.7
			v-1.8h1v-0.8h-1v-1.2h-1v1.2h-0.8v0.8h0.8V50.7z"/>
		<path class="st16" d="M257.4,49.4c0.2-0.8,0.8-1,1.3-1c0.5,0,1.2,0.2,1.3,1H257.4z M261,50.1v-0.2c0-1.2-0.6-2.3-2.3-2.3
			c-1.4,0-2.3,0.9-2.3,2.2c0,1.1,0.6,2.1,2.4,2.1c1.5,0,2-0.9,2.2-1.3h-1.1c-0.2,0.3-0.5,0.6-1.1,0.6c-1,0-1.3-0.7-1.3-1.1H261z"/>
		<path class="st16" d="M265,49.4c0-0.4,0-0.9-0.9-0.9c-0.3,0-1,0.2-1,1.1v2.2h-1v-4h1v0.6h0c0.3-0.4,0.8-0.7,1.5-0.7
			c0.5,0,1.1,0.1,1.4,0.7c0.2-0.4,0.8-0.7,1.6-0.7c0.6,0,1.5,0.2,1.5,1.4v2.7h-1v-2.4c0-0.4-0.1-0.9-0.9-0.9c-0.3,0-1,0.2-1,1.1v2.2
			h-1V49.4z"/>
		<path class="st16" d="M270.8,50.6c0,0.6,0.7,0.7,1.1,0.7c0.5,0,1-0.1,1-0.5c0-0.3-0.2-0.4-1.2-0.6c-1.2-0.2-1.8-0.3-1.8-1.2
			c0-1.1,1.3-1.3,1.9-1.3c0.6,0,2,0.1,2.1,1.4h-1c-0.1-0.6-0.7-0.7-1.1-0.7c-0.6,0-0.9,0.2-0.9,0.5c0,0.3,0.1,0.4,1.1,0.5
			c1.3,0.2,2.1,0.3,2.1,1.2c0,1-0.9,1.4-2.1,1.4c-0.8,0-2.1-0.2-2.1-1.4H270.8z"/>
	</g>
	<g>
		<path d="M73.5,31.2h-6.4v-1.3h6.4V31.2z M59.2,22.8l-1.9-0.2c0,0,0.3,4.1-0.7,6.4l1.9,0.8C59.4,26.9,59.2,22.8,59.2,22.8z
			 M76.5,27.2v-1.7h-5.3v-1.3h4.3v-1.5h-4.3v-1.2H76v-1.5h-4.8v-1.1h-2.1v1.1h-4.8v1.5h4.8v1.2h-4.2v1.5h4.2v1.3h-5
			c-0.2-1.3-1-3-1-3l-1.4,0.6v-4.3h-2.1v19.9h2.1V23.5c0.2,0.7,0.7,2.1,0.9,3.4l1.3-0.6v0.8H76.5z M75.6,35.9v-7.7H64.9v10.5h2.1
			v-3.3h6.4v0.5c0,0.6-0.3,0.7-2.3,0.7l0.9,2.1C74.3,38.6,75.6,38.2,75.6,35.9z M73.5,34h-6.4v-1.4h6.4V34z"/>
		<path d="M85.7,26c-0.2,0.7-0.6,1.9-0.9,2.6h-1.5c-0.3-1-0.6-1.9-0.8-2.6H85.7z M88.8,30.6v-1.9h-2c0.4-1,0.7-2.1,0.9-2.6h1.1v-1.7
			H85v-2h3.2v-1.7H85v-1.8h-2.1v1.8h-3.3v1.7h3.3v2h-4.1V26h1.5c0.2,0.5,0.6,1.6,1,2.6h-2.2v1.9H83v2.3h-3.4v1.9H83v3.9h2.1v-3.9
			h3.2v-1.9h-3.2v-2.3H88.8z M98.7,36.8c-1.1-0.8-1.8-1.5-2.3-2.3c2-3.1,1.9-7.6,1.9-7.6h-6.7v-5.3H96V22c0,1.6,0.1,1.7-2.7,1.7
			l0.7,2.1c4-0.2,4.1-0.4,4.1-5v-1.1h-8.8v19h2.2v-9.9H92c0.1,0.9,0.6,3.5,2.1,5.7c-0.6,0.8-1.5,1.6-2.5,2.2l1.3,2
			c0.9-0.8,1.7-1.7,2.3-2.6c0.5,0.7,1.3,1.9,2.1,2.6L98.7,36.8z M96,28.8c0,0-0.1,1.8-0.9,3.8c-0.7-1.5-1-2.9-1.1-3.8H96z"/>
		<path d="M102.3,30.4v-3.3h3.3v3.3H102.3z"/>
		<path d="M116.6,24.3c-1.3-0.9-3.5-2-5.2-2.6l1.3-1.8c1.8,0.6,3.8,1.6,5.3,2.5L116.6,24.3z M114.2,29.2c-1.5-0.9-3.6-2-5.2-2.6
			l1.3-1.9c1.7,0.6,3.8,1.6,5.3,2.5L114.2,29.2z M110.8,37.9l-1.2-2.7c8.5-0.8,13.6-4.6,16.4-10.4l1.5,2.1
			C123.9,33.2,119.2,36.3,110.8,37.9z"/>
		<path d="M144,37.3c-1.8-2.1-4.2-4.1-6.4-5.7c-2,2.3-4.6,4.3-8,6.1l-2.1-1.9c6.4-2.7,11.3-8.2,12.9-12.8c-2.8,0-7.2,0-10.2,0.2
			v-2.4c3.2,0.1,8.6,0.2,11.9,0l1.4,1.2c-1.2,2.9-2.6,5.5-4.5,8c2.3,1.5,4.8,3.4,7.1,5.5L144,37.3z"/>
		<path d="M149.9,22.7v-2.2c3.1,0.1,9.4,0.1,12.9,0v2.3C159.4,22.6,153.1,22.6,149.9,22.7z M158.4,28.1c-0.1,4.9-1.6,8.2-6.2,10.5
			l-2.2-1.8c4.6-1.7,6.1-4.9,6-8.6c-3.5,0-6.9,0-9,0.1V26c4.3,0.2,14.1,0.1,18.9,0v2.3C164,28.2,161.3,28.2,158.4,28.1z"/>
		<path d="M182.8,37.5c-0.3-0.8-0.7-1.6-1.1-2.5c-4.8,0.7-11.4,1.4-15.6,2.1l-0.4-2.8c0.7,0,1.6,0,2.6,0c2.1-4.9,3.9-9.8,5.1-14.6
			l2.9,0.8c-1.6,3.8-3.6,9.3-5.5,13.7c3.4-0.2,7.3-0.7,10-1c-1-1.8-2.2-3.6-3.3-5l2.3-0.8c1.9,2.4,3.9,5.5,5.5,8.6L182.8,37.5z"/>
		<path d="M203.2,27.3h-2.5v-5.5h2.5V27.3z M196,22v-2h-7.9v2h2.6c-0.8,4.8-3.2,7.6-3.2,7.6l1.2,2.5c0,0,0.5-0.8,1-1.7v7.5h2.1v-1.9
			h3.8v-9.9h-3.8c0.5-1.2,0.8-2.6,1-4H196z M207.5,29.3v-2h-2.1v-5.5h1.5v-2h-10.2v2h1.8v5.5h-2.2v2h2.3c0,3.1-0.8,5.7-3.1,7.7
			l1.8,1.6c2.6-2.7,3.5-5.8,3.5-9.3h2.5v9.5h2.2v-9.5H207.5z M193.5,33.9h-1.8V28h1.8V33.9z"/>
		<path d="M227,23.8v-1.4h-14.7v2.1h-2.2v-4h8.3v-1.6h2.5v1.6h8.3v3.4H227z M212.6,27.5l-1.4-1.8c2.5-0.3,4.4-1.2,5-3.2l2,0.8
			C217.2,25.7,215,27,212.6,27.5z M225.4,27H223c-1.9,0-2.5-0.9-2.5-2.2v-1.7h2.2v1.2c0,0.7,0.1,0.8,1,0.8h1c0.9,0,1-0.2,1.2-1.3
			l2.3,1.1C227.5,26.9,226.5,27,225.4,27z M226.5,37.9h-2.7c0,0-2.3,0-2-2l0.8-5.1h-3.7c-0.7,4.4-3.5,6.7-7.8,7.8l-1.3-2.1
			c3.9-0.9,6.5-2.8,6.8-5.8h-4.8V29h5.1c0-0.7,0-2.5,0-2.5h2.2c0,0,0,1.8,0,2.5h6l-1.1,6.3c-0.1,0.7,0.7,0.6,0.7,0.6h0.9
			c1.3,0,1.6-0.1,1.7-3.8l2.3,1.3C229.2,37.7,228.1,37.9,226.5,37.9z"/>
		<path d="M247.9,24.3c-0.4,0.6-1.1,1.5-1.3,1.8c-0.2,0-0.4,0-0.4,0c-0.2-1.9-0.3-3.5-0.3-3.5S246.9,23.4,247.9,24.3z M251.8,35.6
			l-1.5-1.7c-0.8,2.9-1.2,2.4-1.6,1.9c-0.2-0.3-0.4-0.5-0.5-0.8c0.9-0.8,1.7-1.9,2.3-2.8l-1.5-1.1c-0.4,0.7-0.9,1.4-1.4,2
			c-0.2-0.7-0.5-1.7-0.6-2.4h4.4v-1.9H249l0.6-0.6c0,0-0.4-0.4-0.8-0.7c0.3,0,0.8-0.2,1.1-0.2c0.1,0.6,0.2,1.1,0.2,1.1l1.5-0.4
			c0,0-0.5-2.1-0.8-3.2l-1.3,0.3c0,0.2,0.2,0.6,0.2,1c-0.4,0.1-0.9,0.1-1.4,0.1c1.6-1.6,2.9-3.6,2.9-3.6l-1.6-1.1
			c0,0-0.3,0.9-0.9,1.7c-0.2-0.2-0.4-0.5-0.6-0.7c0.6-0.7,1-1.7,1.4-2.8l-1.7-0.6c-0.3,1-0.5,1.7-0.8,2.3c-0.2-0.2-0.3-0.3-0.5-0.5
			l-0.6,1c-0.1-1-0.1-2.1-0.2-3h-2.1c0.2,2.6,0.3,5.9,0.6,8.7c-0.3-1.4-0.7-2.6-0.8-2.9l-1.3,0.4c0.1,0.2,0.2,0.6,0.2,0.8
			c-0.4,0.1-0.9,0.1-1.3,0.1c1.4-1.5,2.5-3.6,2.5-3.6l-1.5-1c0,0-0.4,0.9-0.8,1.6c-0.2-0.2-0.4-0.4-0.6-0.6c0.6-0.8,1.3-1.9,1.6-2.9
			l-1.7-0.7c-0.2,1-0.6,1.9-1,2.5c-0.2-0.2-0.3-0.2-0.5-0.4l-0.9,1.2c0.8,0.6,1.7,1.3,2.4,2c-0.3,0.5-1,1.3-1.5,1.8
			c-0.4,0-0.8,0-0.8,0l0.3,1c-0.5-0.5-1-1.4-1.6-2.6h1.2v-2h-1.6v-3.7h-2v3.7h-2.2v2h1.7c-0.3,1.5-1.1,4.2-2.2,6.1l1.3,2.2
			c0.8-2.2,1.2-4.3,1.5-5.8v11.6h2V26.4c0.6,2.2,1.1,3.4,1.1,3.4l1.2-2.1c1.3-0.1,2.7-0.2,3.8-0.4c0.1,0.4,0.2,1,0.2,1l1.3-0.5
			c0,0.3,0.1,0.8,0.1,1h-5.6v1.9h1.5c-0.5,4.2-2.5,5.9-2.5,5.9l1.6,1.7c0,0,1.3-1.5,2.3-4.7c0.8,0.7,1.7,1.7,1.7,1.7l1.2-1.7
			c0,0-1.2-1-2.5-1.7c0-0.4,0.2-0.8,0.2-1.2h2.5c0.2,1.2,0.6,2.7,1,3.8c-1.8,1.4-4.2,2.1-4.2,2.1l1.2,2c0,0,2-0.9,3.8-2.4
			c0.1,0.2,0.2,0.5,0.4,0.7C248.3,39.2,250.7,39.4,251.8,35.6z M248.2,28.8h-1.7c-0.1-0.2-0.1-0.8-0.2-1.1c0.4,0,0.9,0,1.6-0.1
			l-0.6,0.5C247.6,28.3,248,28.6,248.2,28.8z"/>
		<path d="M268.7,22.8H266v-1.3h2.7V22.8z M273.8,35.6v-1.7h-0.9v-5.5h-4.7v-1.1h5.5v-1.6h-2.9v-1.4h2v-1.5h-2v-1.3h2.4V20h-2.4
			v-1.2h-2.1V20H266v-1.2h-2.1V20h-2.5v1.5h2.5v1.3h-1.9v1.5h1.9v1.4h-3v1.2c-0.4-0.5-0.9-1.3-1.4-2.3h1.7v-2h-2v-3.7H257v3.7h-2.5
			v2h1.7c-0.2,1.4-1.1,4.2-2.3,6.1l1.3,2.2c0.9-2.1,1.4-4.3,1.8-5.8v11.6h2.1V26.3c0.6,1.9,1.1,3.4,1.1,3.4l1.3-2.2
			c0,0-0.1-0.1-0.3-0.3h5v1.1h-4.6v5.5h-0.9v1.7h0.9v3.1h2v-3.1h7.2V36c0,0.6-0.4,0.8-2.2,0.7l0.9,1.9c1.7-0.1,3.3-0.1,3.3-2.6v-0.4
			H273.8z M268.7,25.6H266v-1.4h2.7V25.6z M270.9,31.1h-2.7v-1.3h2.7V31.1z M266.2,31.1h-2.5v-1.3h2.5V31.1z M270.9,33.9h-2.7v-1.4
			h2.7V33.9z M266.2,33.9h-2.5v-1.4h2.5V33.9z"/>
	</g>
	<g>
		<path d="M66.8,15c-2.7-1.5-3.9-3.5-4.5-5.3c-0.6,2.2-1.9,4-4.7,5.4l-0.5-0.7c3.4-1.4,4.5-4.1,4.7-6h-4.5V7.7h4.5V4.9h0.7v2.7h4.4
			v0.7h-4.4l0,0.1c0.3,1.2,1.2,4.2,4.7,5.9L66.8,15z"/>
		<path d="M73.2,6.9c0,0-0.3-0.4-1-1.4l0.6-0.4c0.7,1,1,1.4,1,1.4L73.2,6.9z M70.4,6.9c0,0-0.2-0.4-1-1.4l0.6-0.4
			c0.9,1.1,1,1.4,1,1.4L70.4,6.9z M77.4,9.3V7.8h-8.1v1.5h-0.7V7.1h6.6c0.3-0.3,0.9-1.1,1.3-2l0.7,0.3c-0.4,0.7-0.8,1.3-1.1,1.7h2
			v2.2H77.4z M74,12.3v1.5c0,0.9-0.5,1.2-2.2,1.2l-0.3-0.7c1.7,0,1.8-0.1,1.8-0.8v-1.2h-4.8v-0.7h4.8v-1h0.5c0.4-0.2,1-0.6,1.4-1
			h-4.9V9.1h6v0.7c-0.9,0.8-1.8,1.3-2.3,1.6v0.4h4.2v0.7H74z"/>
		<path d="M86.2,10.7H83V7.9h3.2V10.7z M89.5,11.4v-0.7h-2.6V7.9H89V7.3h-2.1V4.9h-0.7v2.3H83V4.9h-0.7v2.3h-2.1v0.7h2.1v2.7h-2.6
			v0.7H89.5z M89.3,14.5c-1.1-0.8-1.9-1.7-2.6-2.6l-0.6,0.4c0.9,1.1,1.6,1.9,2.7,2.8L89.3,14.5z M83.1,12.2l-0.6-0.3
			c-0.5,0.9-1.4,1.8-2.5,2.6l0.5,0.6C81.6,14.2,82.5,13.2,83.1,12.2z"/>
		<path d="M97.8,12.2h-3.9V10h3.9V12.2z M99,8.1V7.4h-6.3v0.7H99z M100.4,13.7V5.4h-9v9.6h0.7v-9h7.6v7.5c0,0.4-0.1,0.7-1.8,0.7
			l0.3,0.7C100.2,15.1,100.4,14.6,100.4,13.7z M98.5,12.9V9.3h-5.3v3.5H98.5z"/>
		<path d="M108.7,12.5V5.6h0.7v6.9H108.7z M109.5,15.1l-0.2-0.7c1.3,0,1.8,0.1,1.8-1.3v-8h0.7v8.1C111.7,15.1,111,15.1,109.5,15.1z
			 M107.4,12.2c-0.8-0.8-1.4-1.7-1.9-2.8v5.7h-0.7V9.6c-0.4,1.3-1.4,2.7-2.3,3.6l-0.4-0.7c1-0.8,2.1-2.4,2.6-3.8h-2.3V8h2.4V6.1
			c-0.8,0.1-1.6,0.1-2.1,0.1l-0.2-0.6c1.3,0,3.5-0.1,4.8-0.6l0.3,0.6c-0.6,0.2-1.3,0.4-2.1,0.5v2h2.2v0.7h-2.1
			c0.8,1.4,1.4,2.1,2.3,2.9L107.4,12.2z"/>
		<path d="M121.9,8.1h-3.1v-2h3.1V8.1z M122.6,13.9V5.4h-8.3v3.8c0,1.3-0.1,4.1-1,5.3l0.6,0.6c0.6-0.9,0.9-2.4,1-3.7h3.1v3.3h0.7
			v-3.3h3.1v2.5c0,0.4-0.1,0.5-1.6,0.5l0.3,0.7C122.3,15,122.6,14.6,122.6,13.9z M118,8.1h-3v-2h3V8.1z M121.9,10.7h-3.1v-2h3.1
			V10.7z M118,10.7H115c0-0.6,0-1.1,0-1.5V8.7h3V10.7z"/>
		<path d="M134.1,9.8c0,0-0.1-0.4-0.2-0.7c-0.6,0.1-1.2,0.2-2.1,0.2l-0.2-0.6c0.1,0,0.4,0,0.6,0c0.3-0.3,0.5-0.7,0.7-1
			c-0.4-0.4-0.7-0.7-1.3-1.1l0.3-0.4c0.1,0.1,0.3,0.2,0.4,0.4c0.3-0.4,0.6-1,0.7-1.6l0.5,0.3c-0.3,0.7-0.6,1.3-0.9,1.6
			c0.1,0.1,0.3,0.3,0.5,0.5c0.2-0.3,0.4-0.7,0.5-1l0.4,0.3c-0.4,0.8-0.8,1.5-1.3,2.1c0.3,0,0.7-0.1,1-0.1c0-0.2-0.1-0.4-0.2-0.5
			l0.5-0.2c0.2,0.9,0.4,1.6,0.4,1.6L134.1,9.8z M130.3,9.8c0,0-0.1-0.4-0.2-0.7c-0.5,0.1-1.1,0.2-2.1,0.3l-0.2-0.6
			c0.1,0,0.4,0,0.6,0c0.3-0.3,0.5-0.7,0.7-1c-0.3-0.3-0.9-0.8-1.4-1.1l0.3-0.4c0.1,0.1,0.3,0.2,0.4,0.4c0.3-0.4,0.5-1,0.7-1.6
			l0.5,0.3c-0.3,0.7-0.6,1.3-0.8,1.6c0.1,0.1,0.4,0.3,0.5,0.5c0.2-0.3,0.4-0.6,0.5-1l0.4,0.3c-0.4,0.6-0.7,1.4-1.3,2.1
			c0.3,0,0.6-0.1,1-0.1c0-0.2-0.1-0.4-0.2-0.5l0.5-0.2c0.2,0.9,0.4,1.6,0.4,1.6L130.3,9.8z M127.8,10.3c-0.4-0.8-0.6-1.3-0.8-2.1
			v6.8h-0.7V8.6c-0.4,1.6-0.7,2.6-1.2,3.7l-0.5-0.7c0.6-0.9,1.2-2.6,1.6-4H125V7h1.3V4.9h0.7V7h1v0.6H127c0.4,0.9,0.8,1.5,1.1,2
			L127.8,10.3z M132.4,14c-0.1-0.1-0.2-0.3-0.2-0.5c-0.8,0.7-1.8,1.3-2.2,1.5l-0.4-0.5c0.3-0.2,1.5-0.8,2.4-1.5
			c-0.2-0.5-0.4-1.2-0.6-2.2h-1.5c0,0.4,0,0.6-0.1,0.9c0.7,0.5,1.3,1.1,1.3,1.1l-0.4,0.6c0,0-0.6-0.8-1.1-1.1
			c-0.4,1.6-1.3,2.5-1.3,2.5l-0.4-0.6c0,0,1.2-1.1,1.4-3.3h-1v-0.6h3c-0.2-1.3-0.3-3-0.4-5.2l0.6,0c0,2.1,0.2,3.6,0.4,5.2h1.4
			c-0.1-0.2-0.3-0.4-0.6-0.6l0.4-0.3c0.3,0.3,0.6,0.6,0.6,0.6l-0.4,0.3h1.2v0.6h-2.5c0.1,0.8,0.3,1.3,0.5,1.7c0.4-0.4,0.8-0.9,1-1.5
			l0.5,0.3c-0.4,0.7-0.8,1.2-1.3,1.7c0.1,0.1,0.2,0.3,0.2,0.4c0.6,1.1,0.9,1.2,1.3-0.9l0.5,0.7C134.1,15.6,133.2,15.4,132.4,14z"/>
		<path d="M144.9,6.9h-2.9V6h2.9V6.9z M145.6,13V5.3h-4.2V9h3.5v3.8c0,1.2,0.1,1.6-1.3,1.6l0.2,0.7C145.2,15.1,145.6,14.6,145.6,13z
			 M140.6,9V5.3h-4.2v9.8h0.7V9H140.6z M144,12.4v-0.6h-2.7c0.1-0.4,0.1-0.8,0.1-0.9h2.3v-0.6h-1.5c0.3-0.3,0.7-0.9,0.7-0.9
			l-0.6-0.3c0,0-0.3,0.6-0.7,1.1h-1.2c-0.4-0.7-0.7-1.1-0.7-1.1L139,9.5c0,0,0.4,0.4,0.7,0.8h-1.3v0.6h2.4c0,0.1,0,0.5-0.1,0.9h-2.6
			v0.6h2.4c-0.3,0.7-1.1,1.3-2.5,1.5l0.3,0.6c1.8-0.4,2.3-1.1,2.8-2.1c0.5,1,1.1,1.7,2.4,2l0.4-0.6c-1.1-0.2-1.8-0.8-2.1-1.5H144z
			 M139.9,6.9H137V6h2.9V6.9z M144.9,8.4h-2.9V7.4h2.9V8.4z M139.9,8.4H137V7.4h2.9V8.4z"/>
		<path d="M149.4,6.9c-0.9-0.8-1.9-1.3-1.9-1.3l0.4-0.6c0,0,0.9,0.5,1.9,1.4L149.4,6.9z M149,9.3c-0.7-0.6-1.9-1.2-1.9-1.2l0.3-0.6
			c0,0,1.1,0.7,1.9,1.3L149,9.3z M156.6,15.1c-0.2-0.4-0.5-0.9-0.8-1.3c-0.7,0.2-2.4,0.6-5.8,0.8l-0.2-0.7c0.3,0,1,0,1,0
			c0.9-1.5,1.4-2.5,1.7-3.5h-2.8V9.6h3.2V7.3h-2.7V6.6h2.7V4.9h0.7v1.7h2.9v0.7h-2.9v2.3h3.4v0.7h-3.8c-0.4,1.2-0.8,2.1-1.6,3.4
			c1.8-0.1,2.9-0.3,3.8-0.6c-0.4-0.7-0.7-1.2-1.1-1.7l0.6-0.3c0.7,1.2,1.3,2.2,2.1,3.5L156.6,15.1z M147.7,14.8l-0.6-0.5
			c1.4-1.7,2-3.9,2-3.9l0.5,0.5C149.6,10.8,149,13.2,147.7,14.8z"/>
		<path d="M168.1,14.9c-1.5-0.7-3.8-2.5-4.6-5.4c-0.4,2.1-1.9,4.2-4.7,5.6l-0.5-0.7c4-1.8,4.8-4.8,4.8-6.5V4.9h0.7v2.9
			c0,0.1,0,0.2,0,0.3c0.4,2.9,2.2,5,4.6,6.1L168.1,14.9z"/>
	</g>
</g>
</svg>
