<?xml version="1.0" encoding="utf-8"?>
<!-- Generator: Adobe Illustrator 16.0.3, SVG Export Plug-In . SVG Version: 6.00 Build 0)  -->
<!DOCTYPE svg PUBLIC "-//W3C//DTD SVG 1.1//EN" "http://www.w3.org/Graphics/SVG/1.1/DTD/svg11.dtd">
<svg version="1.1" id="レイヤー_1" xmlns="http://www.w3.org/2000/svg" xmlns:xlink="http://www.w3.org/1999/xlink" x="0px"
	 y="0px" width="51.023px" height="22.676px" viewBox="1.417 0 51.023 22.676" enable-background="new 1.417 0 51.023 22.676"
	 xml:space="preserve">
<g>
	
		<linearGradient id="lozenge_1_" gradientUnits="userSpaceOnUse" x1="37.1877" y1="21.0083" x2="37.1877" y2="-0.1411" gradientTransform="matrix(1 0 0 -1 -0.02 21.7715)">
		<stop  offset="0" style="stop-color:#D6322A"/>
		<stop  offset="1" style="stop-color:#B52426"/>
	</linearGradient>
	<path id="lozenge_2_" fill="url(#lozenge_1_)" d="M51.971,5.326c0,0-0.295-2.074-1.203-2.983c-1.146-1.2-2.435-1.205-3.023-1.276
		c-4.228-0.304-10.57-0.304-10.57-0.304h-0.01c0,0-6.345,0-10.569,0.304c-0.593,0.071-1.878,0.076-3.027,1.276
		c-0.906,0.909-1.199,2.983-1.199,2.983s-0.305,2.434-0.305,4.868v2.281c0,2.434,0.305,4.865,0.305,4.865s0.293,2.072,1.199,2.986
		c1.149,1.195,2.657,1.157,3.33,1.282c2.416,0.231,10.273,0.304,10.273,0.304s6.347-0.01,10.573-0.313
		c0.59-0.07,1.878-0.078,3.023-1.273c0.908-0.914,1.203-2.986,1.203-2.986s0.302-2.434,0.302-4.865v-2.281
		C52.272,7.76,51.971,5.326,51.971,5.326z"/>
	<path id="u_2_" fill="#040000" d="M20.504,17.879h-1.92v-1.113c-0.731,0.837-1.35,1.257-2.021,1.257
		c-0.593,0-1.003-0.278-1.207-0.78c-0.126-0.306-0.214-0.785-0.214-1.486V7.661h1.921v7.587c0,0.431,0,0.607,0,0.709
		c0.045,0.283,0.166,0.389,0.411,0.389c0.367,0,0.701-0.32,1.109-0.896V7.661h1.92L20.504,17.879L20.504,17.879z"/>
	<path id="o_2_" fill="#040000" d="M13.726,11.001c0-1.094-0.219-1.913-0.605-2.429c-0.514-0.698-1.316-0.985-2.125-0.985
		c-0.914,0-1.612,0.287-2.124,0.985c-0.395,0.516-0.605,1.347-0.605,2.436l-0.002,3.634c0,1.085,0.189,1.838,0.582,2.349
		c0.511,0.695,1.341,1.065,2.149,1.065c0.808,0,1.653-0.37,2.165-1.065c0.388-0.511,0.565-1.264,0.565-2.349V11.001z M11.803,14.844
		c0.104,1.013-0.212,1.513-0.809,1.513c-0.598,0-0.91-0.5-0.81-1.513V10.8c-0.102-1.015,0.212-1.487,0.81-1.487
		c0.597,0,0.911,0.473,0.811,1.487L11.803,14.844z"/>
	<path id="y_2_" fill="#040000" d="M6.139,12.315v5.563H4.116v-5.563c0,0-2.099-6.821-2.53-8.093h2.125L5.132,9.55l1.412-5.327
		h2.124L6.139,12.315z"/>
	<path id="e_1_" fill="#FFFFFF" d="M49.744,13.125v-2.068c0-1.081-0.214-1.87-0.598-2.382c-0.514-0.693-1.242-1.059-2.161-1.059
		c-0.935,0-1.662,0.365-2.193,1.059c-0.39,0.512-0.616,1.345-0.616,2.427v3.54c0,1.073,0.249,1.827,0.64,2.333
		c0.529,0.691,1.26,1.033,2.218,1.033s1.708-0.36,2.214-1.094c0.224-0.326,0.366-0.691,0.43-1.099
		c0.016-0.185,0.064-0.603,0.064-1.192v-0.285H47.82c0,0.734,0.003,1.172-0.015,1.271c-0.104,0.49-0.368,0.734-0.818,0.734
		c-0.629,0-0.894-0.469-0.889-1.403v-1.815H49.744z M46.098,10.491c0-0.946,0.26-1.204,0.872-1.204c0.608,0,0.85,0.28,0.85,1.217
		v1.104l-1.722,0.002V10.491z"/>
	<path id="b_1_" fill="#FFFFFF" d="M41.255,7.6c-0.675,0-1.345,0.415-1.938,1.144l0.002-4.419H37.5v13.554h1.818l0.006-1.019
		c0.61,0.757,1.277,1.147,1.931,1.147c0.729,0,1.262-0.389,1.506-1.141c0.121-0.43,0.203-1.09,0.203-2.023V10.8
		c0-0.959-0.125-1.613-0.245-2.021C42.475,8.021,41.983,7.6,41.255,7.6z M41.04,14.948c0,1.01-0.236,1.396-0.768,1.396
		c-0.302,0-0.648-0.155-0.956-0.461l0.002-6.136c0.308-0.303,0.652-0.461,0.954-0.461c0.53,0,0.768,0.298,0.768,1.308V14.948z"/>
	<path id="u_1_" fill="#FFFFFF" d="M35.982,17.879H34.06v-1.113c-0.728,0.837-1.348,1.257-2.019,1.257
		c-0.594,0-1.004-0.278-1.208-0.78c-0.125-0.306-0.214-0.785-0.214-1.486V7.763h1.922v7.485c0,0.431,0,0.607,0,0.709
		c0.046,0.283,0.166,0.389,0.411,0.389c0.365,0,0.7-0.32,1.106-0.896V7.763h1.922L35.982,17.879L35.982,17.879z"/>
	<polygon id="T" fill="#FFFFFF" points="28.699,17.879 26.677,17.879 26.677,6.246 24.55,6.246 24.55,4.325 30.925,4.324 
		30.925,6.246 28.699,6.246 	"/>
</g>
</svg>
