<svg version="1.1" xmlns="http://www.w3.org/2000/svg" xmlns:xlink="http://www.w3.org/1999/xlink" x="0px"
	 y="0px" width="400px" height="510px" viewBox="300 245 400 510" enable-background="new 300 245 400 510" xml:space="preserve">
     <style type="text/css">
        .st0{fill:#004098;}
    </style>
<g>
	<g>
		<path class="st0" d="M302.876,646.305h25.252c36.492,0,50.942,21.019,50.942,50.796c0,36.93-24.668,51.088-58.386,51.088
			h-17.808V646.305z M312.948,739.431h8.32c28.901,0,47.731-11.678,47.731-42.914c0-31.091-18.538-41.454-41.309-41.454h-14.742
			V739.431z"/>
		<path class="st0" d="M400.234,646.305h24.23c16.64,0,32.258,5.546,32.258,25.106c0,12.99-5.985,20.727-18.538,23.208v0.292
			c12.845,2.336,21.603,10.801,21.603,24.23c0,22.187-18.1,29.047-39.265,29.047h-20.289V646.305z M410.306,739.431h10.509
			c13.575,0,28.901-3.649,28.901-19.852c0-18.1-15.619-19.997-30.507-19.997h-8.904V739.431z M410.598,690.824h11.239
			c10.655,0,24.814-2.773,24.814-18.976c0-14.742-13.575-16.786-22.187-16.786h-13.867V690.824z"/>
		<path class="st0" d="M552.184,657.69c-6.422-3.357-15.618-4.379-22.771-4.379c-26.419,0-41.308,18.684-41.308,43.936
			c0,25.689,14.451,43.936,41.308,43.936c6.715,0,16.933-0.876,22.771-4.38l0.584,8.759c-5.547,3.356-16.932,4.379-23.354,4.379
			c-32.112,0-51.38-21.166-51.38-52.693c0-30.945,19.852-52.694,51.38-52.694c5.985,0,18.101,1.022,23.354,3.796L552.184,657.69z"/>
		<path class="st0" d="M578.748,646.305h10.072v93.126h40.869v8.758h-50.941V646.305z"/>
		<path class="st0" d="M641.657,735.197c5.984,3.795,12.991,5.985,22.479,5.985c12.554,0,22.917-6.423,22.917-20.873
			c0-19.998-46.709-22.479-46.709-49.191c0-16.348,14.305-26.565,32.258-26.565c4.963,0,12.991,0.729,19.998,3.357l-1.605,9.196
			c-4.525-2.482-11.678-3.795-18.538-3.795c-10.51,0-22.041,4.379-22.041,17.516c0,20.435,46.709,20.58,46.709,50.357
			c0,20.581-17.661,28.756-33.427,28.756c-9.925,0-17.661-2.044-23.063-4.379L641.657,735.197z"/>
	</g>
	<g>
		<g>
			<rect x="515.463" y="315.462" fill="#97BDC0" width="13.424" height="53.143"/>
			<rect x="547.98" y="328.11" fill="#97BDC0" width="10.762" height="53.149"/>
			<rect x="532.645" y="321.79" fill="#97BDC0" width="12.19" height="53.142"/>
			<polygon fill="#97BDC0" points="496.725,309.126 496.725,362.285 511.08,362.285 511.08,309.145 			"/>
			<rect x="430.945" y="282.142" fill="#97BDC0" width="6.365" height="53.15"/>
			<rect x="561.252" y="334.428" fill="#97BDC0" width="9.055" height="53.157"/>
			<rect x="417.238" y="271.03" fill="#97BDC0" width="3.405" height="53.139"/>
			<rect x="400.958" y="250.06" fill="#97BDC0" width="1.878" height="53.151"/>
			<rect x="477.981" y="302.789" fill="#97BDC0" width="13.713" height="53.16"/>
			<polygon fill="#97BDC0" points="445.462,289.833 445.462,342.982 454.515,342.982 454.515,289.842 			"/>
			<polygon fill="#97BDC0" points="460.799,296.347 460.799,349.498 472.331,349.498 472.331,296.339 			"/>
			<rect x="580.492" y="347.101" fill="#97BDC0" width="4.642" height="53.141"/>
			<path fill="#97BDC0" d="M585.77,353.854c0,0,0,53.952,0,53.143c0-0.794,1.702,0,1.702,0v-53.143H585.77z"/>
			<rect x="572.195" y="340.756" fill="#97BDC0" width="7.05" height="53.149"/>
		</g>
		<g>
			<g>
				<g>
					<path fill="#97BDC0" d="M400.958,406.997c0,2.093,0.701,4.18,2.011,6.282c1.343,2.176,3.345,4.358,5.846,6.505
						c2.364,2.04,5.177,4.073,8.37,6.07c3.385,2.121,7.182,4.233,11.246,6.273c4.27,2.147,8.842,4.249,13.574,6.282
						c5.104,2.184,10.382,4.295,15.655,6.282c5.919,2.237,11.838,4.341,17.494,6.274c6.91,2.371,13.431,4.492,19.064,6.283
						c5.616,1.809,12.138,3.912,19.054,6.283c5.65,1.934,11.555,4.036,17.484,6.283c5.277,1.995,10.555,4.098,15.658,6.272
						c4.732,2.042,9.314,4.136,13.574,6.302c4.08,2.031,7.857,4.144,11.263,6.273c3.289,2.068,6.205,4.163,8.619,6.282
						c2.378,2.077,4.286,4.19,5.587,6.283c1.303,2.095,2.015,4.197,2.015,6.281v-53.147c0-2.076-0.712-4.189-2.015-6.283
						c-1.301-2.103-3.209-4.189-5.587-6.274c-2.414-2.121-5.33-4.215-8.619-6.291c-3.405-2.122-7.183-4.217-11.263-6.283
						c-4.26-2.156-8.842-4.251-13.574-6.275c-5.104-2.181-10.381-4.294-15.658-6.291c-5.93-2.227-11.834-4.34-17.484-6.275
						c-6.916-2.369-13.438-4.472-19.054-6.281c-5.633-1.79-12.154-3.912-19.064-6.272c-5.656-1.943-11.575-4.047-17.494-6.292
						c-5.273-1.988-10.551-4.1-15.655-6.267c-4.732-2.04-9.304-4.135-13.574-6.291c-4.063-2.05-7.86-4.153-11.246-6.273
						c-3.192-1.996-6.006-4.036-8.37-6.06c-2.501-2.156-4.503-4.332-5.846-6.516c-1.31-2.094-2.011-4.188-2.011-6.283V406.997z"/>
					<path class="st0" d="M587.472,507.511c0,2.087-0.712,4.18-2.015,6.275c-1.357,2.183-3.353,4.349-5.847,6.516
						c-2.37,2.039-5.187,4.053-8.366,6.051c-3.398,2.138-7.183,4.24-11.256,6.291c-4.26,2.148-8.842,4.242-13.574,6.283
						c-5.104,2.183-10.381,4.285-15.648,6.283c-5.939,2.237-11.854,4.341-17.494,6.274c-6.926,2.369-13.438,4.472-19.054,6.281
						c-5.633,1.791-12.154,3.912-19.074,6.283c-5.646,1.925-11.559,4.036-17.484,6.274c-5.273,1.995-10.551,4.099-15.655,6.283
						c-4.732,2.041-9.304,4.125-13.574,6.281c-4.083,2.053-7.86,4.153-11.256,6.273c-3.289,2.086-6.211,4.172-8.626,6.301
						c-2.377,2.076-4.286,4.172-5.586,6.283c-1.304,2.086-2.005,4.188-2.005,6.275v-53.143c0-2.094,0.701-4.188,2.005-6.283
						c1.3-2.102,3.208-4.195,5.586-6.29c2.415-2.113,5.337-4.206,8.626-6.283c3.396-2.13,7.172-4.225,11.256-6.283
						c4.27-2.147,8.842-4.241,13.574-6.272c5.104-2.186,10.382-4.297,15.655-6.283c5.926-2.238,11.838-4.35,17.484-6.283
						c6.92-2.362,13.441-4.492,19.074-6.274c5.616-1.791,12.128-3.921,19.054-6.283c5.641-1.934,11.555-4.045,17.494-6.283
						c5.268-2.005,10.545-4.099,15.648-6.283c4.732-2.031,9.314-4.125,13.574-6.291c4.073-2.05,7.857-4.144,11.256-6.266
						c3.18-2.005,5.996-4.028,8.366-6.06c2.494-2.156,4.489-4.331,5.847-6.513c1.303-2.095,2.015-4.198,2.015-6.283V507.511z"/>
				</g>
			</g>
			<g>
				<g>
					<g>
						<path class="st0" d="M587.472,406.997c0,2.093-0.712,4.18-2.015,6.282c-1.357,2.176-3.353,4.358-5.847,6.505
							c-2.37,2.04-5.187,4.064-8.366,6.07c-3.398,2.121-7.183,4.233-11.256,6.273c-4.26,2.147-8.842,4.249-13.574,6.282
							c-5.104,2.184-10.381,4.295-15.648,6.282c-5.939,2.237-11.854,4.341-17.494,6.274c-6.926,2.371-13.438,4.492-19.054,6.283
							c-5.633,1.809-12.154,3.912-19.074,6.283c-5.646,1.934-11.559,4.036-17.484,6.283c-5.273,1.995-10.551,4.098-15.655,6.272
							c-4.732,2.042-9.304,4.136-13.574,6.302c-4.083,2.031-7.86,4.144-11.256,6.273c-3.289,2.068-6.211,4.163-8.626,6.282
							c-2.377,2.077-4.286,4.19-5.586,6.283c-1.304,2.095-2.005,4.197-2.005,6.281v-53.147c0-2.076,0.701-4.189,2.005-6.283
							c1.3-2.103,3.208-4.189,5.586-6.274c2.415-2.121,5.337-4.215,8.626-6.291c3.396-2.122,7.172-4.217,11.256-6.283
							c4.27-2.156,8.842-4.251,13.574-6.275c5.104-2.181,10.382-4.294,15.655-6.291c5.926-2.227,11.838-4.34,17.484-6.275
							c6.92-2.369,13.441-4.472,19.074-6.281c5.616-1.801,12.128-3.912,19.054-6.272c5.641-1.943,11.555-4.047,17.494-6.292
							c5.268-1.988,10.545-4.1,15.648-6.267c4.732-2.04,9.314-4.135,13.574-6.291c4.073-2.05,7.857-4.153,11.256-6.273
							c3.18-2.015,5.996-4.036,8.366-6.06c2.494-2.156,4.489-4.332,5.847-6.516c1.303-2.094,2.015-4.207,2.015-6.283V406.997z"/>
					</g>
				</g>
			</g>
			<g>
				<rect x="459.532" y="315.462" class="st0" width="13.421" height="53.143"/>
				<rect x="429.688" y="328.11" class="st0" width="10.757" height="53.149"/>
				<rect x="443.581" y="321.79" class="st0" width="12.2" height="53.142"/>
				<polygon class="st0" points="491.694,309.126 491.694,362.285 477.349,362.285 477.349,309.145 				"/>
				<rect x="551.119" y="282.142" class="st0" width="6.361" height="53.15"/>
				<rect x="418.109" y="334.428" class="st0" width="9.055" height="53.157"/>
				<rect x="567.793" y="271.03" class="st0" width="3.398" height="53.139"/>
				<rect x="585.582" y="250.06" class="st0" width="1.89" height="53.151"/>
				<rect x="496.725" y="302.789" class="st0" width="13.71" height="53.16"/>
				<polygon class="st0" points="542.956,289.833 542.956,342.982 533.911,342.982 533.911,289.842 				"/>
				<polygon class="st0" points="527.62,296.347 527.62,349.498 516.088,349.498 516.088,296.339 				"/>
				<rect x="403.282" y="347.101" class="st0" width="4.642" height="53.141"/>
				<path class="st0" d="M402.657,353.854c0,0,0,53.952,0,53.143c0-0.794-1.699,0-1.699,0v-53.143H402.657z"/>
				<rect x="409.181" y="340.756" class="st0" width="7.04" height="53.149"/>
			</g>
		</g>
	</g>
</g>
</svg>