<?xml version="1.0" encoding="utf-8"?>
<!-- Generator: Adobe Illustrator 16.0.0, SVG Export Plug-In . SVG Version: 6.00 Build 0)  -->
<!DOCTYPE svg PUBLIC "-//W3C//DTD SVG 1.1//EN" "http://www.w3.org/Graphics/SVG/1.1/DTD/svg11.dtd">
<svg version="1.1" id="レイヤー_1" xmlns="http://www.w3.org/2000/svg" xmlns:xlink="http://www.w3.org/1999/xlink" x="0px"
	 y="0px" width="150px" height="45px" viewBox="0 0 150 45" enable-background="new 0 0 150 45" xml:space="preserve">
<g>
	<g>
		<g>
			<path d="M45.36,21.033h8.668v9.696H45.36V21.033z M53.148,21.892h-6.918v7.991h6.918V21.892z M50.011,25.289h2.347v0.756h-2.347
				v2.145h2.697v0.802H46.67v-0.802h2.505v-2.145h-2.122v-0.756h2.122v-1.761h-2.302v-0.779h5.688v0.779h-2.551V25.289z
				 M51.342,27.998c-0.249-0.609-0.417-0.858-0.824-1.468l0.745-0.35c0.214,0.293,0.61,0.869,0.824,1.444L51.342,27.998z"/>
			<path d="M65.677,29.589v0.926h-9.424v-0.926h5.271c0.553-1.535,1.072-3.194,1.501-5.914l0.982,0.182
				c-0.203,1.082-0.632,3.452-1.546,5.732H65.677z M65.304,22.162v0.926h-8.657v-0.926h3.826V20.47h0.948v1.692H65.304z
				 M58.983,28.935c-0.113-1.715-0.542-3.577-0.97-4.888l0.88-0.236c0.756,2.145,0.981,4.142,1.083,4.977L58.983,28.935z"/>
			<path d="M77.291,29.86l-0.169,0.88h-5.046c-1.67,0-2.336-0.892-2.573-1.219c-0.417,0.52-0.768,0.926-1.399,1.501l-0.395-1.005
				c0.361-0.282,0.745-0.599,1.174-1.039v-3.171h-1.072v-0.902h1.918v3.499c0.124,0.508,0.396,0.948,1.084,1.23l-0.294-0.587
				c0.26-0.057,0.96-0.204,1.637-0.621h-1.399v-3.883h5.769v3.883h-1.187c0.734,0.519,1.378,0.665,1.626,0.711l-0.35,0.711
				c-0.678-0.191-1.389-0.576-1.896-0.993l0.293-0.429h-2.494l0.305,0.396c-0.79,0.608-1.524,0.835-1.727,0.902
				c0.304,0.09,0.768,0.136,1.038,0.136H77.291z M69.402,23.189c-0.339-0.598-0.757-1.219-1.467-1.941l0.587-0.587
				c0.576,0.52,1.117,1.186,1.568,1.907L69.402,23.189z M74.018,23.403h3.172v0.644h-7.088v-0.644h3.126v-0.541h-2.482v-1.829h2.482
				v-0.519h0.79v0.519h2.507v1.829h-2.507V23.403z M73.228,21.632h-1.704v0.644h1.704V21.632z M75.733,25.154h-4.198v0.529h4.198
				V25.154z M75.733,26.157h-4.198v0.565h4.198V26.157z M71.535,27.23v0.575h4.198V27.23H71.535z M75.745,22.275v-0.644h-1.728
				v0.644H75.745z"/>
			<path d="M81.265,31.011h-0.903v-5.789c-0.339,0.529-0.519,0.768-0.779,1.05l-0.406-0.994c1.276-1.568,1.739-3.51,1.942-4.785
				l0.913,0.169c-0.248,1.377-0.586,2.292-0.767,2.754V31.011z M87.054,26.294c0.588,1.15,1.175,2.438,1.638,4.424l-0.926,0.316
				c-0.068-0.339-0.102-0.52-0.237-1.084c-0.598,0.124-2.2,0.43-5.53,0.688l-0.135-0.903c0.226-0.011,0.405-0.022,0.925-0.056
				c0.835-2.698,0.937-2.991,1.253-4.413h-2.032v-0.869h6.716v0.869h-3.713c-0.361,1.456-0.791,2.901-1.276,4.345
				c1.231-0.102,2.653-0.281,3.557-0.463c-0.396-1.196-0.734-1.918-1.027-2.483L87.054,26.294z M88.408,21.135v0.892h-6.061v-0.892
				H88.408z"/>
			<path d="M92.428,25.074v-0.835h6.162v0.768c-1.061,0.993-2.201,1.604-2.573,1.794v0.271h4.244v0.869h-4.244v2.178
				c0,0.418-0.158,0.903-0.881,0.903h-1.839l-0.17-0.971l1.659,0.011c0.305,0,0.316-0.112,0.316-0.338v-1.783h-4.312v-0.869h4.312
				v-0.926h0.462c0.429-0.203,1.017-0.496,1.716-1.072H92.428z M97.619,22.399c0.339-0.7,0.531-1.196,0.745-1.862l0.925,0.327
				c-0.327,0.847-0.666,1.434-0.722,1.535h1.479v2.483h-0.869v-1.637h-7.28v1.637h-0.858v-2.483h1.479
				c-0.227-0.621-0.508-1.14-0.7-1.479l0.79-0.339c0.451,0.678,0.689,1.298,0.79,1.603l-0.529,0.215H97.619z M95.373,22.388
				c-0.237-0.609-0.44-1.061-0.778-1.603l0.823-0.339c0.384,0.621,0.609,1.175,0.768,1.637L95.373,22.388z"/>
			<path d="M105.713,24.217v6.253h-2.665v-4.098c-0.191,0.327-0.35,0.509-0.519,0.711l-0.395-1.027
				c1.15-1.354,1.309-3.396,1.343-4.221h-1.175v-0.869h3.556v0.869h-1.546c-0.022,0.474-0.102,1.344-0.372,2.382H105.713z
				 M103.849,29.622h1.096v-4.569h-1.096V29.622z M110.565,24.725h1.162v0.869h-1.162V31h-0.88v-5.406h-1.615v0.688
				c0,2.529-0.699,3.996-1.388,4.718l-0.778-0.666c1.026-1.186,1.298-2.494,1.298-4.108v-0.632h-1.072v-0.869h1.072v-2.89h-0.915
				v-0.869h5.294v0.869h-1.016V24.725z M108.07,21.835v2.89h1.615v-2.89H108.07z"/>
			<path d="M118.285,24.769c-0.022,0.589-0.056,0.894-0.101,1.254h2.854v3.646c0,0.258,0.034,0.305,0.282,0.305h0.587
				c0.124,0,0.283,0,0.339-0.249c0.045-0.248,0.068-1.084,0.068-1.366l0.824,0.203c-0.058,1.976-0.068,2.291-0.893,2.291h-1.242
				c-0.767,0-0.834-0.439-0.834-0.937v-3.014h-2.156c-0.192,0.87-0.688,3.082-3.905,4.154l-0.429-0.927
				c2.821-0.62,3.228-2.269,3.477-3.228h-2.913v-0.88h3.07c0.046-0.339,0.079-0.633,0.103-1.254H118.285z M122.868,21.485v2.032
				h-0.372c-0.102,1.263-0.316,1.41-0.914,1.41h-1.739c-0.835,0-0.869-0.384-0.869-0.823v-1.772h-1.41
				c-0.485,2.212-2.371,2.833-3.138,3.058l-0.305-0.868c0.857-0.192,2.155-0.599,2.607-2.189h-1.885v1.377h-0.869v-2.224h4.006
				v-0.971h0.858v0.971H122.868z M119.741,23.799c0,0.215,0,0.316,0.305,0.316h1.23c0.361,0,0.373-0.079,0.429-0.824l0.339,0.079
				v-1.038h-2.303V23.799z"/>
			<path d="M126.536,27.083c-0.011,0.508-0.056,2.675-0.813,3.883l-0.768-0.644c0.576-0.914,0.733-2.607,0.733-3.566v-3.781h3.624
				v4.108H126.536z M129.697,20.898v0.869h-4.526v-0.869H129.697z M128.467,23.821h-1.92v2.382h1.92V23.821z M130.995,25.198
				c0,3.726-1.072,5.146-1.524,5.745l-0.79-0.632c1.343-1.456,1.434-3.883,1.434-4.876v-4.143c1.186-0.033,2.473-0.26,3.725-0.813
				l0.52,0.836c-0.893,0.405-2.055,0.632-3.363,0.79v1.907h3.532v0.88h-1.196V31h-0.88v-6.106h-1.456V25.198z"/>
		</g>
		<g>
			<path d="M49.205,18.422c-0.809-0.419-1.498-1.083-1.806-2.249c-0.337,1.185-1.132,1.936-1.854,2.244l-0.241-0.395
				c0.948-0.419,1.681-1.339,1.82-2.461h-1.753v-0.4h1.777v-1.18h0.405v1.18h1.83v0.4H47.63c0.318,1.652,1.267,2.234,1.834,2.451
				L49.205,18.422z"/>
			<path d="M50.395,15.918v-0.356h2.629v0.327c-0.453,0.424-0.939,0.684-1.098,0.766v0.115h1.811v0.371h-1.811v0.929
				c0,0.179-0.067,0.386-0.375,0.386h-0.785l-0.072-0.414l0.708,0.004c0.13,0,0.135-0.048,0.135-0.144v-0.761h-1.84v-0.371h1.84
				v-0.395h0.198c0.183-0.087,0.434-0.212,0.732-0.458H50.395z M52.61,14.777c0.144-0.299,0.226-0.51,0.318-0.794l0.395,0.14
				c-0.14,0.361-0.284,0.611-0.309,0.655h0.631v1.06h-0.371v-0.698h-3.106v0.698h-0.366v-1.06h0.631
				c-0.096-0.265-0.216-0.487-0.298-0.631l0.337-0.144c0.193,0.289,0.294,0.554,0.337,0.684l-0.227,0.092H52.61z M51.651,14.772
				c-0.101-0.26-0.188-0.453-0.332-0.684l0.352-0.145c0.164,0.265,0.26,0.501,0.328,0.698L51.651,14.772z"/>
			<path d="M55.056,13.982h0.39v0.862h1.185v-0.862h0.395v0.862h0.886v0.385h-0.886v1.271h1.036v0.385h-4.051v-0.385h1.045v-1.271
				h-0.891v-0.385h0.891V13.982z M54.054,18.128c0.674-0.313,1.055-0.857,1.175-1.026l0.356,0.207
				c-0.409,0.516-0.631,0.771-1.238,1.157L54.054,18.128z M55.446,15.229v1.271h1.185v-1.271H55.446z M57.729,18.466
				c-0.496-0.361-0.853-0.689-1.189-1.146l0.318-0.222c0.27,0.337,0.727,0.78,1.17,1.017L57.729,18.466z"/>
			<path d="M58.538,14.15h3.694v3.868c0,0.327-0.145,0.429-0.448,0.429h-0.616L61.1,18.038l0.593,0.005c0.11,0,0.154,0,0.154-0.169
				v-3.352h-2.923v3.925h-0.385V14.15z M61.591,14.988v0.352h-2.408v-0.352H61.591z M59.381,17.57v-1.777h1.989v1.777H59.381z
				 M61.008,16.145h-1.266v1.083h1.266V16.145z"/>
			<path d="M64.543,17.041c-0.145-0.173-0.337-0.434-0.521-0.824v2.235h-0.375v-2.158c-0.192,0.443-0.414,0.809-0.809,1.281
				l-0.184-0.438c0.236-0.236,0.563-0.606,0.954-1.493h-0.905v-0.386h0.944v-0.693c-0.404,0.048-0.568,0.062-0.818,0.077
				l-0.078-0.371c0.535-0.024,1.325-0.096,1.893-0.313l0.159,0.347c-0.184,0.072-0.337,0.121-0.781,0.202v0.751h0.771v0.386h-0.766
				c0.105,0.216,0.298,0.587,0.712,1.044L64.543,17.041z M65.473,17.455h-0.395v-3.121h0.395V17.455z M66.604,18.032
				c0,0.092,0,0.419-0.404,0.419h-0.684l-0.086-0.429l0.622,0.015c0.134,0.005,0.159-0.024,0.159-0.154v-3.911h0.395V18.032z"/>
			<path d="M69.297,18.413H68.93v-1.45h-1.098c-0.077,0.742-0.279,1.127-0.52,1.469l-0.304-0.322
				c0.318-0.424,0.486-0.92,0.486-1.701v-2.225h3.338v3.876c0,0.371-0.231,0.396-0.371,0.396h-0.567l-0.049-0.4l0.467,0.004
				c0.105,0,0.131-0.019,0.131-0.14v-0.958h-1.146V18.413z M68.93,15.75h-1.064v0.539c0,0.169-0.004,0.222-0.004,0.309h1.068V15.75z
				 M68.93,14.56h-1.064v0.814h1.064V14.56z M70.443,15.374V14.56h-1.146v0.814H70.443z M70.443,16.597V15.75h-1.146v0.848H70.443z"
				/>
			<path d="M75.191,16.925c-0.222,0.438-0.434,0.646-0.598,0.804c0.193,0.342,0.328,0.342,0.352,0.342
				c0.141,0,0.231-0.419,0.271-0.597l0.288,0.24c-0.149,0.626-0.303,0.737-0.544,0.737c-0.288,0-0.457-0.149-0.641-0.491
				c-0.183,0.135-0.409,0.298-0.887,0.457l-0.148-0.337c0.414-0.116,0.641-0.265,0.882-0.442c-0.136-0.347-0.203-0.593-0.279-1.012
				h-0.791c0,0.102,0,0.149-0.004,0.304c0.283,0.14,0.476,0.26,0.723,0.487l-0.198,0.308c-0.071-0.077-0.256-0.289-0.549-0.458
				c-0.053,0.559-0.164,0.867-0.39,1.18l-0.266-0.279c0.318-0.429,0.327-0.833,0.347-1.542h-0.178v-0.284l-0.159,0.261
				c-0.101-0.188-0.14-0.309-0.202-0.506v2.351h-0.332v-2.109c-0.121,0.534-0.246,0.818-0.337,1.011l-0.188-0.472
				c0.27-0.481,0.424-1.05,0.506-1.599h-0.443v-0.371h0.463v-0.929h0.332v0.929h0.338v0.371H72.22V15.5
				c0.059,0.163,0.163,0.452,0.396,0.785h1.218c-0.063-0.491-0.12-1.358-0.12-2.307h0.352c0,0.308,0.005,1.392,0.125,2.307h0.646
				c-0.11-0.086-0.217-0.159-0.376-0.255l0.15-0.217c-0.15,0.015-0.203,0.02-0.439,0.034l-0.038-0.293h0.087
				c0.14-0.169,0.217-0.26,0.342-0.424c-0.202-0.284-0.376-0.438-0.463-0.51l0.184-0.231c0.048,0.043,0.063,0.053,0.086,0.077
				c0.131-0.188,0.207-0.337,0.285-0.501l0.265,0.12c-0.049,0.092-0.169,0.328-0.361,0.583c0.087,0.092,0.11,0.13,0.178,0.217
				c0.131-0.188,0.207-0.313,0.318-0.501l0.236,0.145c-0.241,0.409-0.719,0.997-0.728,1.007c0.322-0.02,0.361-0.02,0.515-0.039
				c-0.023-0.082-0.038-0.13-0.086-0.25l0.245-0.106c0.131,0.298,0.188,0.529,0.227,0.717l-0.26,0.125
				c-0.024-0.115-0.028-0.135-0.054-0.231c-0.135,0.024-0.207,0.034-0.476,0.058c0.158,0.096,0.211,0.13,0.38,0.265l-0.158,0.212
				h0.548v0.342h-1.194c0.087,0.462,0.184,0.732,0.192,0.761c0.126-0.135,0.266-0.285,0.443-0.617L75.191,16.925z M73.66,14.56
				c-0.26,0.396-0.593,0.843-0.775,1.07c0.222-0.01,0.24-0.015,0.447-0.029c-0.033-0.116-0.053-0.173-0.092-0.26l0.246-0.106
				c0.121,0.265,0.188,0.53,0.227,0.728l-0.27,0.105c-0.02-0.111-0.024-0.145-0.039-0.202c-0.274,0.038-0.491,0.052-0.925,0.086
				l-0.038-0.313h0.116c0.109-0.135,0.158-0.192,0.37-0.486c-0.174-0.207-0.261-0.313-0.491-0.52l0.192-0.241
				c0.063,0.048,0.082,0.058,0.11,0.086c0.174-0.211,0.279-0.433,0.319-0.51l0.269,0.111c-0.145,0.279-0.322,0.501-0.395,0.587
				c0.063,0.072,0.101,0.115,0.178,0.222c0.13-0.188,0.198-0.289,0.313-0.486L73.66,14.56z"/>
			<path d="M76.396,15.687v2.755h-0.357v-4.311h1.634v1.556H76.396z M77.315,14.767v-0.341h-0.92v0.341H77.315z M76.396,15.027
				v0.371h0.92v-0.371H76.396z M79.103,16.954v0.299h-0.944c0.227,0.356,0.534,0.52,0.775,0.626l-0.169,0.327
				c-0.414-0.202-0.688-0.462-0.886-0.857c-0.102,0.236-0.385,0.689-1.035,0.929l-0.188-0.328c0.588-0.154,0.813-0.496,0.905-0.698
				h-0.895v-0.299h0.991c0.019-0.096,0.044-0.212,0.048-0.39h-0.935V16.27h0.477c-0.023-0.068-0.101-0.261-0.164-0.396l0.353-0.063
				c0.067,0.15,0.115,0.313,0.154,0.458h0.587c0.049-0.145,0.082-0.27,0.126-0.448l0.356,0.044c-0.054,0.183-0.087,0.274-0.14,0.404
				h0.49v0.293h-0.968c-0.005,0.145-0.019,0.255-0.043,0.39H79.103z M78.101,15.687v-1.556h1.638v3.944
				c0,0.313-0.164,0.366-0.333,0.366h-0.438l-0.111-0.381l0.396,0.005c0.096,0,0.124-0.028,0.124-0.163v-2.216H78.101z
				 M79.376,14.767v-0.341h-0.929v0.341H79.376z M78.447,15.398h0.929v-0.371h-0.929V15.398z"/>
			<path d="M80.2,18.042c0.467-0.631,0.688-1.195,0.828-1.57l0.304,0.246c-0.246,0.679-0.53,1.218-0.877,1.7L80.2,18.042z
				 M80.923,16.125c-0.149-0.139-0.381-0.337-0.714-0.505l0.188-0.337c0.322,0.164,0.534,0.318,0.756,0.496L80.923,16.125z
				 M81.124,14.863c-0.284-0.27-0.621-0.467-0.736-0.53l0.207-0.328c0.135,0.073,0.486,0.261,0.766,0.501L81.124,14.863z
				 M83.402,16.761c0.496,0.578,0.78,1.271,0.881,1.513l-0.371,0.193c-0.052-0.131-0.081-0.193-0.178-0.4
				c-0.404,0.072-1.295,0.179-2.368,0.217l-0.059-0.385c0.197,0,0.231-0.005,0.313-0.005c0.184-0.366,0.453-0.935,0.621-1.551
				h-0.875v-0.371h1.261V15.07h-1.083v-0.366h1.083v-0.727h0.371v0.727h1.121v0.366h-1.121v0.901h1.276v0.371H82.68
				c-0.135,0.415-0.293,0.857-0.646,1.532c0.396-0.015,1.012-0.058,1.542-0.125c-0.126-0.236-0.256-0.458-0.486-0.785L83.402,16.761
				z"/>
			<path d="M86.821,14.502c0,1.643,0.612,2.856,1.845,3.55l-0.26,0.385c-0.978-0.573-1.565-1.469-1.796-2.615
				c-0.106,0.52-0.396,1.782-1.826,2.596l-0.26-0.385c0.453-0.236,0.987-0.597,1.411-1.401c0.304-0.568,0.462-1.411,0.462-2.047
				v-0.597h0.424V14.502z"/>
			<path d="M90.468,16.149c0.091-0.274,0.139-0.654,0.153-1.194l0.294,0.01c-0.004,0.173-0.019,0.905-0.16,1.348L90.468,16.149z
				 M91.445,18.452h-0.371v-4.479h0.371V18.452z M91.662,15.49c-0.024-0.087-0.087-0.352-0.193-0.598l0.266-0.111
				c0.11,0.241,0.173,0.467,0.207,0.579L91.662,15.49z M93.025,13.973h0.355v0.303h1.098v0.313h-1.098v0.323h1.012v0.289h-1.012
				v0.322h1.18v0.313H91.84v-0.313h1.186v-0.322h-0.983v-0.289h0.983v-0.323h-1.09v-0.313h1.09V13.973z M92.412,17.589v0.863h-0.351
				v-2.35h2.292v1.907c0,0.361-0.071,0.443-0.414,0.443h-0.457L93.41,18.09l0.467,0.005c0.121,0,0.125-0.058,0.125-0.164v-0.342
				H92.412z M94.002,16.4h-1.59v0.298h1.59V16.4z M94.002,16.992h-1.59V17.3h1.59V16.992z"/>
			<path d="M95.712,13.978h0.356v0.419h0.741v0.352h-0.741v0.505h0.853v0.356H96.65c-0.043,0.256-0.081,0.438-0.149,0.674h0.381
				v0.356h-0.813v0.563h0.741v0.356h-0.741v0.886h-0.356v-0.886H94.97v-0.356h0.742v-0.563h-0.809v-0.356h0.403
				c-0.038-0.241-0.11-0.505-0.164-0.674h-0.278v-0.356h0.848v-0.505H94.97v-0.352h0.742V13.978z M95.495,15.61
				c0.091,0.376,0.105,0.443,0.145,0.674h0.529c0.023-0.11,0.082-0.342,0.121-0.674H95.495z M98.756,16.202
				c-0.024,0.222-0.102,0.732-0.386,1.305c0.049,0.067,0.245,0.333,0.554,0.573l-0.207,0.366c-0.304-0.27-0.505-0.54-0.549-0.597
				c-0.028,0.053-0.227,0.356-0.486,0.583l-0.222-0.317c0.096-0.077,0.255-0.208,0.491-0.579c-0.153-0.255-0.304-0.544-0.467-1.073
				l0.313-0.106c0.148,0.429,0.259,0.646,0.346,0.81c0.058-0.145,0.198-0.482,0.27-0.964h-1.021v2.245h-0.352v-4.315h1.69
				c0,0.121-0.015,0.857-0.102,1.166c-0.059,0.193-0.153,0.293-0.39,0.293h-0.478l-0.058-0.37l0.409,0.004
				c0.222,0.005,0.228-0.091,0.271-0.732h-0.992v1.353h1.363V16.202z"/>
			<path d="M100.499,16.212c0,0.265-0.217,0.496-0.496,0.496s-0.496-0.227-0.496-0.496c0-0.279,0.227-0.496,0.496-0.496
				C100.277,15.716,100.499,15.942,100.499,16.212z"/>
			<path d="M102.517,16.352c-0.501-0.328-0.775-0.438-1.247-0.587l0.153-0.376c0.497,0.149,0.781,0.27,1.268,0.563L102.517,16.352z
				 M104.838,15.191c-0.593,2.051-1.531,2.663-3.261,2.947l-0.091-0.472c1.473-0.173,2.456-0.665,3.01-2.731L104.838,15.191z
				 M102.873,15.206c-0.554-0.342-0.964-0.472-1.271-0.568l0.154-0.361c0.342,0.091,0.731,0.207,1.295,0.53L102.873,15.206z"/>
			<path d="M108.561,18.201c-0.396-0.525-0.896-1.006-1.377-1.474c-0.434,0.539-1.026,1.117-1.783,1.488l-0.236-0.366
				c0.839-0.39,2.014-1.3,2.568-3.044h-2.346v-0.404h2.876c-0.207,0.954-0.517,1.507-0.843,2.003
				c0.962,0.848,1.444,1.401,1.482,1.449L108.561,18.201z"/>
			<path d="M111.416,16.096c-0.053,1.44-0.713,1.946-1.738,2.163l-0.164-0.39c0.91-0.188,1.445-0.496,1.483-1.758l0.005-0.149
				h-1.719v-0.405h3.573v0.405h-1.436L111.416,16.096z M112.505,14.314v0.405h-2.866v-0.405H112.505z"/>
			<path d="M115.621,15.875c0.544,0.824,0.818,1.368,1.107,2.153l-0.41,0.192c-0.048-0.159-0.086-0.26-0.153-0.438
				c-0.983,0.135-1.488,0.203-3.092,0.279l-0.039-0.452c0.164-0.005,0.188-0.005,0.391-0.005c0.043-0.12,0.529-1.507,0.953-3.405
				l0.452,0.082c-0.265,1.123-0.587,2.23-0.996,3.309c1.137-0.043,1.454-0.077,2.182-0.163c-0.284-0.612-0.448-0.901-0.747-1.368
				L115.621,15.875z"/>
			<path d="M118.529,15.552v2.668h-1.137v-1.748c-0.082,0.14-0.149,0.216-0.222,0.303l-0.169-0.438
				c0.492-0.578,0.559-1.45,0.573-1.801h-0.501v-0.371h1.518v0.371h-0.66c-0.009,0.202-0.043,0.573-0.158,1.016H118.529z
				 M117.734,17.859h0.468v-1.95h-0.468V17.859z M120.601,15.769h0.495v0.371h-0.495v2.307h-0.376V16.14h-0.688v0.294
				c0,1.079-0.299,1.705-0.593,2.013l-0.333-0.284c0.439-0.506,0.555-1.064,0.555-1.753v-0.27h-0.458v-0.371h0.458v-1.233h-0.391
				v-0.371h2.259v0.371h-0.433V15.769z M119.536,14.536v1.233h0.688v-1.233H119.536z"/>
			<path d="M123.364,15.788c-0.01,0.25-0.024,0.381-0.043,0.535h1.218v1.555c0,0.111,0.015,0.13,0.121,0.13h0.25
				c0.053,0,0.121,0,0.145-0.105c0.02-0.106,0.028-0.463,0.028-0.583l0.353,0.086c-0.024,0.843-0.029,0.978-0.381,0.978h-0.53
				c-0.327,0-0.356-0.188-0.356-0.4v-1.286h-0.919c-0.082,0.371-0.294,1.315-1.667,1.772l-0.183-0.395
				c1.204-0.265,1.377-0.968,1.483-1.377h-1.243v-0.375h1.311c0.019-0.145,0.033-0.271,0.043-0.535H123.364z M125.319,14.387v0.867
				h-0.158c-0.044,0.54-0.136,0.602-0.391,0.602h-0.741c-0.356,0-0.371-0.164-0.371-0.352v-0.756h-0.602
				c-0.207,0.944-1.012,1.208-1.34,1.305l-0.13-0.371c0.366-0.082,0.92-0.255,1.113-0.934h-0.805v0.587h-0.371v-0.949h1.71v-0.414
				h0.366v0.414H125.319z M123.986,15.374c0,0.091,0,0.135,0.13,0.135h0.523c0.155,0,0.16-0.034,0.185-0.352l0.144,0.034v-0.443
				h-0.981V15.374z"/>
			<path d="M129.519,16.925c-0.222,0.438-0.433,0.646-0.597,0.804c0.193,0.342,0.327,0.342,0.352,0.342
				c0.14,0,0.231-0.419,0.271-0.597l0.288,0.24c-0.149,0.626-0.303,0.737-0.544,0.737c-0.289,0-0.457-0.149-0.641-0.491
				c-0.183,0.135-0.41,0.298-0.887,0.457l-0.148-0.337c0.414-0.116,0.64-0.265,0.882-0.442c-0.136-0.347-0.203-0.593-0.28-1.012
				h-0.79c0,0.102,0,0.149-0.005,0.304c0.285,0.14,0.477,0.26,0.723,0.487l-0.197,0.308c-0.072-0.077-0.256-0.289-0.549-0.458
				c-0.053,0.559-0.164,0.867-0.391,1.18l-0.266-0.279c0.319-0.429,0.328-0.833,0.348-1.542h-0.178v-0.284l-0.159,0.261
				c-0.102-0.188-0.14-0.309-0.203-0.506v2.351h-0.331v-2.109c-0.121,0.534-0.246,0.818-0.337,1.011l-0.188-0.472
				c0.27-0.481,0.424-1.05,0.505-1.599h-0.442v-0.371h0.463v-0.929h0.331v0.929h0.338v0.371h-0.338V15.5
				c0.058,0.163,0.164,0.452,0.396,0.785h1.219c-0.063-0.491-0.121-1.358-0.121-2.307h0.352c0,0.308,0.005,1.392,0.125,2.307h0.646
				c-0.109-0.086-0.216-0.159-0.375-0.255l0.149-0.217c-0.149,0.015-0.203,0.02-0.438,0.034l-0.039-0.293h0.087
				c0.141-0.169,0.217-0.26,0.343-0.424c-0.202-0.284-0.376-0.438-0.463-0.51l0.184-0.231c0.048,0.043,0.063,0.053,0.086,0.077
				c0.13-0.188,0.207-0.337,0.285-0.501l0.265,0.12c-0.049,0.092-0.17,0.328-0.362,0.583c0.087,0.092,0.111,0.13,0.179,0.217
				c0.13-0.188,0.207-0.313,0.318-0.501l0.235,0.145c-0.24,0.409-0.718,0.997-0.727,1.007c0.322-0.02,0.36-0.02,0.515-0.039
				c-0.023-0.082-0.038-0.13-0.086-0.25l0.244-0.106c0.131,0.298,0.189,0.529,0.228,0.717l-0.26,0.125
				c-0.024-0.115-0.029-0.135-0.054-0.231c-0.135,0.024-0.207,0.034-0.477,0.058c0.159,0.096,0.212,0.13,0.381,0.265l-0.16,0.212
				h0.55v0.342h-1.194c0.086,0.462,0.184,0.732,0.192,0.761c0.126-0.135,0.265-0.285,0.443-0.617L129.519,16.925z M127.987,14.56
				c-0.26,0.396-0.592,0.843-0.775,1.07c0.222-0.01,0.241-0.015,0.448-0.029c-0.034-0.116-0.053-0.173-0.092-0.26l0.246-0.106
				c0.12,0.265,0.188,0.53,0.226,0.728l-0.27,0.105c-0.019-0.111-0.023-0.145-0.038-0.202c-0.274,0.038-0.492,0.052-0.925,0.086
				l-0.039-0.313h0.116c0.111-0.135,0.159-0.192,0.37-0.486c-0.173-0.207-0.259-0.313-0.49-0.52l0.192-0.241
				c0.062,0.048,0.082,0.058,0.11,0.086c0.173-0.211,0.279-0.433,0.318-0.51l0.27,0.111c-0.145,0.279-0.322,0.501-0.395,0.587
				c0.063,0.072,0.101,0.115,0.178,0.222c0.13-0.188,0.197-0.289,0.313-0.486L127.987,14.56z"/>
			<path d="M131.445,16.742c-0.188-0.318-0.265-0.515-0.342-0.713v2.413h-0.347v-2.384c-0.102,0.443-0.246,0.905-0.481,1.31
				l-0.159-0.5c0.227-0.309,0.467-0.809,0.616-1.584h-0.53v-0.362h0.555v-0.948h0.347v0.948h0.448v0.362h-0.448v0.164
				c0.053,0.154,0.192,0.516,0.534,0.939L131.445,16.742z M133.016,16.087h0.959v1.276h0.25v0.293h-0.25v0.438
				c0,0.222-0.059,0.347-0.371,0.347h-0.497l-0.038-0.361l0.434,0.005c0.13,0,0.135-0.043,0.135-0.164v-0.265h-1.546v0.785h-0.332
				v-0.785h-0.313v-0.293h0.313v-1.276h0.943v-0.294h-1.199V15.5h0.67v-0.357h-0.439v-0.27h0.439V14.56h-0.563v-0.293h0.563v-0.294
				h0.337v0.294h0.713v-0.294h0.342v0.294h0.554v0.293h-0.554v0.313h0.414v0.27h-0.414V15.5h0.66v0.293h-1.209V16.087z
				 M132.702,16.371h-0.611v0.342h0.611V16.371z M132.702,16.982h-0.611v0.381h0.611V16.982z M132.51,14.56v0.313h0.713V14.56
				H132.51z M132.51,15.143V15.5h0.713v-0.357H132.51z M133.637,16.713v-0.342h-0.621v0.342H133.637z M133.637,17.363v-0.381h-0.621
				v0.381H133.637z"/>
		</g>
	</g>
	<g>
		<path fill="#FFFFFF" d="M28.198,8.802c-7.028,0-12.726,6.133-12.726,13.698c0,7.564,5.698,13.698,12.726,13.698
			S40.923,30.064,40.923,22.5C40.923,14.935,35.226,8.802,28.198,8.802z"/>
		<g>
			<g>
				<path d="M28.198,8.802c-7.028,0-12.726,6.133-12.726,13.698c0,7.564,5.698,13.698,12.726,13.698S40.923,30.064,40.923,22.5
					C40.923,14.935,35.226,8.802,28.198,8.802z M28.198,33.383c-5.584,0-10.111-4.872-10.111-10.883
					c0-6.011,4.527-10.884,10.111-10.884s10.11,4.873,10.11,10.884C38.309,28.511,33.782,33.383,28.198,33.383z"/>
				<path fill="#FFFFFF" d="M21.299,32.433c-0.159-0.117-0.196-0.067-0.218-0.119c-0.024-0.076,0.254-0.302,0.259-0.299
					c0.015,0.012-0.052-0.039,0.264,0.196c0.183,0.135,0.213,0.08,0.227,0.12c0.026,0.074-0.261,0.303-0.264,0.302
					C21.559,32.625,21.585,32.648,21.299,32.433z"/>
				<path fill="#FFFFFF" d="M24.475,33.233c-0.073,0.187-0.186,0.079-0.202,0.069c-0.04-0.03-0.084,0.067-0.106,0.115l-0.412,0.903
					c-0.141,0.307-0.475,0.315-0.775,0.176c-0.431-0.2-0.367-0.491-0.338-0.58c0.134-0.391,0.694-0.182,0.441,0.177
					c-0.085,0.123-0.121,0.149-0.009,0.197c0.194,0.08,0.29-0.144,0.293-0.151l0.408-0.907c0.019-0.04,0.058-0.106,0.034-0.133
					c-0.046-0.043-0.214-0.026-0.106-0.213C23.757,32.795,24.514,33.134,24.475,33.233z"/>
				<path fill="#FFFFFF" d="M25.44,34.639c-0.008-0.001-0.03-0.019-0.005-0.059l0.178-0.262c0.033-0.048,0.066-0.083,0.073-0.011
					c0.03,0.17,0.062,0.354,0.062,0.354C25.753,34.719,25.636,34.681,25.44,34.639z M24.579,35.113c0,0.089,0.007,0.07,0.28,0.127
					c0.321,0.068,0.401,0.105,0.422,0.033c0.029-0.137-0.013-0.169-0.076-0.182c-0.095-0.021-0.052-0.091-0.043-0.104l0.083-0.12
					c0.026-0.043,0.08-0.028,0.08-0.028c0.334,0.076,0.458,0.079,0.472,0.159c0.007,0.037,0.01,0.074,0.01,0.074
					c0.035,0.236-0.134,0-0.155,0.262c-0.009,0.095,0.012,0.076,0.464,0.172c0.25,0.054,0.316,0.086,0.337,0.003
					c0.062-0.225-0.15-0.149-0.163-0.212c-0.121-0.756-0.132-0.813-0.132-0.813c-0.153-0.863-0.167-0.835-0.354-0.906
					c-0.19-0.08-0.195,0.064-0.204,0.186c-0.007,0.047,0.029,0.132-0.016,0.196l-0.661,0.976c-0.028,0.051-0.093,0.062-0.125,0.066
					C24.766,35.005,24.583,34.919,24.579,35.113z"/>
				<path fill="#FFFFFF" d="M28.31,34.18c0.131-0.012,0.229,0.045,0.229,0.287c0,0.281-0.063,0.359-0.229,0.346
					C28.307,34.813,28.31,34.18,28.31,34.18z M28.354,35.507c-0.044-0.019-0.044-0.04-0.044-0.097c0-0.177,0-0.462,0-0.462
					c0.006,0.003,0.779,0.053,0.767-0.488c-0.003-0.398-0.359-0.509-0.547-0.507c-0.339,0.002-0.476,0.027-0.574,0.03
					c-0.063,0-0.321-0.041-0.333,0.046c-0.042,0.238,0.122,0.139,0.179,0.15c0.042,0.018,0.03,0.104,0.03,0.142
					c0,0.53,0.002,0.521,0,1.08c0,0.087,0.005,0.095-0.036,0.108c-0.033,0.01-0.22-0.04-0.16,0.182
					c0.012,0.05,0.889,0.071,0.895-0.026C28.551,35.453,28.402,35.53,28.354,35.507z"/>
				<path fill="#FFFFFF" d="M30.269,34.855c-0.008,0.004-0.035-0.003-0.029-0.049l0.045-0.312c0.009-0.057,0.023-0.103,0.061-0.041
					c0.097,0.14,0.203,0.293,0.203,0.293C30.578,34.798,30.458,34.812,30.269,34.855z M29.709,35.647
					c0.039,0.079,0.037,0.06,0.301-0.004c0.312-0.073,0.397-0.074,0.386-0.148c-0.033-0.135-0.082-0.146-0.143-0.131
					c-0.092,0.021-0.084-0.062-0.082-0.076l0.022-0.142c0.005-0.051,0.058-0.06,0.058-0.06c0.326-0.072,0.437-0.122,0.483-0.056
					c0.021,0.029,0.04,0.063,0.04,0.063c0.131,0.198-0.118,0.056-0.025,0.301c0.032,0.09,0.043,0.064,0.481-0.04
					c0.242-0.059,0.316-0.056,0.298-0.14c-0.04-0.229-0.195-0.071-0.232-0.123c-0.426-0.63-0.459-0.676-0.459-0.676
					c-0.499-0.713-0.5-0.683-0.694-0.667c-0.202,0.008-0.146,0.141-0.102,0.253c0.014,0.046,0.082,0.105,0.069,0.184l-0.171,1.155
					c-0.003,0.059-0.056,0.096-0.082,0.114C29.829,35.47,29.631,35.472,29.709,35.647z"/>
				<path fill="#FFFFFF" d="M33.792,34.057c0.067,0.126,0.158,0.266,0.096,0.307c-0.021,0.014-0.124,0.011-0.124,0.011l-1.366-0.515
					c0,0-0.084-0.044-0.037,0.033c0,0,0.059,0.12,0.388,0.734c0.029,0.054,0.136-0.177,0.246,0.07
					c0.035,0.071-0.454,0.378-0.518,0.259c-0.109-0.203,0.035-0.16,0.099-0.229c0,0-0.058-0.106-0.594-1.105
					c-0.038-0.068-0.121-0.128-0.149-0.132c-0.022-0.005-0.089,0.123-0.183-0.084c-0.045-0.1,0.218-0.206,0.251-0.224
					c0.042-0.029,0.138,0.025,1.509,0.592c0,0-0.016-0.029-0.475-0.883c0,0-0.15,0.127-0.245-0.065
					c-0.046-0.085,0.443-0.327,0.479-0.261c0.1,0.188-0.056,0.229-0.056,0.229C33.78,34.035,33.792,34.057,33.792,34.057z"/>
				<path fill="#FFFFFF" d="M35.296,32.439c-0.168,0.104-0.136,0.157-0.193,0.158c-0.08-0.005-0.186-0.348-0.182-0.351
					c0.017-0.01-0.055,0.033,0.28-0.173c0.194-0.12,0.154-0.168,0.196-0.167c0.078,0.003,0.185,0.355,0.182,0.356
					C35.571,32.27,35.602,32.254,35.296,32.439z"/>
				<path fill="#FFFFFF" d="M19.299,29.013c0.111-0.077,0.232-0.18,0.285-0.115c0.019,0.022,0.037,0.132,0.037,0.132l-0.23,1.493
					c0,0-0.026,0.093,0.041,0.039c0,0,0.107-0.068,0.65-0.449c0.047-0.033-0.203-0.141,0.02-0.269
					c0.063-0.04,0.47,0.475,0.364,0.548c-0.179,0.127-0.167-0.03-0.248-0.097c0,0-0.095,0.066-0.977,0.686
					c-0.062,0.043-0.103,0.136-0.102,0.167c0,0.025,0.141,0.091-0.045,0.2c-0.09,0.054-0.25-0.225-0.275-0.261
					c-0.038-0.044-0.002-0.149,0.278-1.65c0,0-0.026,0.018-0.781,0.549c0,0,0.159,0.155-0.014,0.267
					c-0.075,0.053-0.417-0.464-0.358-0.506c0.165-0.116,0.239,0.051,0.239,0.051C19.28,29.026,19.299,29.013,19.299,29.013z"/>
				<path fill="#FFFFFF" d="M18.316,28.289c0.003,0.008,0.003,0.036-0.045,0.039l-0.327,0.011c-0.059,0.001-0.109-0.005-0.053-0.056
					c0.123-0.128,0.257-0.267,0.257-0.267C18.193,27.979,18.231,28.1,18.316,28.289z M19.237,28.725
					c0.073-0.055,0.053-0.051-0.064-0.313c-0.138-0.311-0.156-0.399-0.23-0.373c-0.131,0.059-0.132,0.112-0.105,0.173
					c0.041,0.092-0.044,0.1-0.06,0.1l-0.149,0.004c-0.052,0.004-0.073-0.05-0.073-0.05c-0.14-0.326-0.212-0.433-0.154-0.493
					c0.025-0.027,0.055-0.053,0.055-0.053c0.175-0.175,0.082,0.112,0.313-0.029c0.084-0.051,0.056-0.057-0.139-0.494
					c-0.108-0.242-0.12-0.319-0.203-0.285c-0.225,0.085-0.033,0.217-0.077,0.265c-0.558,0.562-0.598,0.605-0.598,0.605
					c-0.628,0.652-0.595,0.647-0.541,0.848c0.049,0.209,0.172,0.125,0.278,0.059c0.044-0.023,0.093-0.104,0.174-0.106l1.215-0.037
					c0.06-0.008,0.109,0.04,0.133,0.064C19.032,28.633,19.072,28.838,19.237,28.725z"/>
				<path fill="#FFFFFF" d="M16.586,27.052l-0.244-0.908c-0.001-0.002-0.089-0.188-0.103-0.201
					c-0.048-0.048,0.346-0.258,0.471-0.291c0.078-0.021,0.1,0.185,0.083,0.198c-0.26,0.198-0.221,0.286-0.174,0.438
					c0.005,0.02,0.032,0.019,0.082,0.005l1.136-0.306c0.036-0.01,0.105-0.029,0.109-0.083c0-0.045-0.093-0.092,0.111-0.186
					c0.088-0.041,0.328,0.805,0.22,0.84c-0.208,0.071-0.157-0.074-0.194-0.125c-0.031-0.035-0.089-0.011-0.126,0l-1.144,0.307
					c-0.053,0.016-0.067,0.016-0.06,0.046c0.037,0.157,0.046,0.248,0.371,0.29c0.079,0.004,0.101,0.186,0.026,0.206
					c-0.133,0.037-0.574,0.051-0.553-0.013C16.597,27.269,16.594,27.079,16.586,27.052z"/>
				<path fill="#FFFFFF" d="M16.046,24.605c0.207-0.038,0.166,0.102,0.185,0.16c0.008,0.02,0.059,0.023,0.125,0.015l1.111-0.153
					c0.071-0.011,0.16-0.021,0.163-0.063c0.005-0.054-0.077-0.197,0.144-0.203c0.087-0.002,0.226,0.894,0.124,0.916
					c-0.213,0.057-0.177-0.142-0.192-0.171c-0.022-0.035-0.067-0.023-0.164-0.01l-1.128,0.155c-0.045,0.008-0.106,0.01-0.114,0.04
					c-0.006,0.042,0.107,0.21-0.126,0.222C16.068,25.521,15.943,24.622,16.046,24.605z"/>
				<path fill="#FFFFFF" d="M16.018,23.485c-0.171-0.559,1.238-0.972,1.401-0.435C17.59,23.617,16.177,24.022,16.018,23.485z
					 M17.663,23.266c0.006-1.205-1.9-1.217-1.891,0.016C15.78,24.538,17.657,24.511,17.663,23.266z"/>
				<path fill="#FFFFFF" d="M17.478,20.46c0.135,0.014,0.294,0.016,0.291,0.1c0,0.029-0.059,0.125-0.059,0.125l-1.154,0.976
					c0,0-0.081,0.052,0.006,0.055c0,0,0.126,0.02,0.785,0.088c0.057,0.006-0.062-0.238,0.191-0.189
					c0.074,0.012,0.044,0.666-0.085,0.652c-0.218-0.022-0.105-0.133-0.123-0.235c0,0-0.115-0.013-1.188-0.124
					c-0.074-0.008-0.166,0.035-0.186,0.059c-0.017,0.019,0.047,0.161-0.167,0.122c-0.102-0.02-0.04-0.335-0.036-0.378
					c0-0.059,0.096-0.114,1.293-1.063c0,0-0.032-0.003-0.949-0.099c0,0,0.017,0.223-0.186,0.192c-0.092-0.01-0.01-0.624,0.062-0.617
					c0.201,0.021,0.147,0.195,0.147,0.195C17.455,20.458,17.478,20.46,17.478,20.46z"/>
				<path fill="#FFFFFF" d="M17.336,19.254c-0.003,0.009-0.023,0.029-0.06-0.003l-0.241-0.221c-0.043-0.041-0.075-0.08,0-0.077
					c0.177-0.005,0.37-0.011,0.37-0.011C17.465,18.946,17.407,19.06,17.336,19.254z M17.69,20.209
					c0.091,0.013,0.073,0.003,0.173-0.268c0.118-0.319,0.167-0.396,0.096-0.429c-0.135-0.05-0.173-0.012-0.196,0.051
					c-0.035,0.095-0.101,0.039-0.112,0.029l-0.11-0.103c-0.04-0.033-0.017-0.086-0.017-0.086c0.128-0.331,0.15-0.458,0.234-0.46
					c0.038-0.002,0.077,0,0.077,0c0.246-0.001-0.02,0.137,0.244,0.197c0.096,0.024,0.081,0,0.246-0.45
					c0.092-0.249,0.137-0.312,0.054-0.346c-0.22-0.097-0.175,0.132-0.241,0.135c-0.791,0.012-0.851,0.014-0.851,0.014
					c-0.905,0.029-0.878,0.048-0.979,0.229c-0.111,0.184,0.036,0.21,0.158,0.237c0.047,0.015,0.14-0.01,0.199,0.046l0.895,0.822
					c0.048,0.036,0.051,0.105,0.051,0.139C17.607,20.001,17.493,20.176,17.69,20.209z"/>
				<path fill="#FFFFFF" d="M17.325,16.426c0.191,0.086,0.041,0.196,0.048,0.236c0.011,0.046,0.073,0.071,0.073,0.071l1.038,0.467
					c0.053,0.023,0.153,0.053,0.162,0.035c0.187-0.399,0.149-0.331,0.135-0.385c-0.082-0.261-0.255-0.346-0.223-0.432
					c0.07-0.177,0.605,0.279,0.58,0.355c-0.023,0.109-0.089,0.134-0.117,0.197l-0.406,0.902c-0.021,0.047-0.057,0.091-0.111,0.077
					c-0.195-0.05-0.104-0.139-0.081-0.22c0.012-0.048-0.086-0.096-0.147-0.124l-1.004-0.452c0,0-0.083-0.041-0.112-0.019
					c-0.044,0.041-0.017,0.242-0.212,0.126C16.846,17.197,17.22,16.379,17.325,16.426z"/>
				<path fill="#FFFFFF" d="M19.25,13.427c0.174,0.119,0.046,0.188,0.02,0.244c-0.007,0.02,0.025,0.059,0.078,0.098l0.899,0.669
					c0.058,0.043,0.129,0.097,0.161,0.069c0.04-0.034,0.083-0.193,0.245-0.044c0.062,0.061-0.467,0.795-0.555,0.741
					c-0.191-0.11-0.027-0.225-0.017-0.257c0.008-0.04-0.032-0.063-0.11-0.122l-0.914-0.68c-0.037-0.028-0.082-0.068-0.108-0.052
					c-0.033,0.026-0.07,0.225-0.246,0.069C18.624,14.095,19.166,13.367,19.25,13.427z"/>
				<path fill="#FFFFFF" d="M21.901,12.779c0.092,0.093,0.208,0.193,0.157,0.255c-0.018,0.022-0.118,0.058-0.118,0.058l-1.435,0.036
					c0,0-0.091-0.009-0.029,0.046c0,0,0.083,0.092,0.532,0.549c0.039,0.04,0.095-0.22,0.253-0.027
					c0.049,0.054-0.361,0.535-0.45,0.446c-0.148-0.151,0.001-0.167,0.048-0.256c0,0-0.078-0.08-0.809-0.824
					c-0.051-0.052-0.144-0.076-0.173-0.069c-0.023,0.004-0.061,0.151-0.196-0.01c-0.065-0.078,0.168-0.28,0.196-0.311
					c0.035-0.044,0.14-0.029,1.591-0.016c0,0-0.022-0.022-0.647-0.659c0,0-0.119,0.18-0.251,0.033
					c-0.063-0.064,0.362-0.483,0.411-0.434c0.137,0.14-0.006,0.24-0.006,0.24C21.885,12.764,21.901,12.779,21.901,12.779z"/>
				<path fill="#FFFFFF" d="M22.916,12.437c0.111-0.047,0.119-0.153,0.072-0.264c-0.073-0.18-0.219-0.189-0.429-0.121
					c-0.334,0.107-0.573,0.032-0.739-0.301c-0.126-0.249-0.056-0.557,0.229-0.738c0.078-0.049,0.12-0.064,0.227-0.081
					c0.055-0.012,0.104-0.057,0.174-0.093c0.125-0.056,0.492,0.218,0.394,0.316c-0.077,0.076-0.259,0.095-0.403,0.031
					c-0.157-0.067-0.193-0.033-0.266,0.013c-0.041,0.027-0.062,0.125-0.011,0.251c0.068,0.184,0.313,0.15,0.449,0.083
					c0.265-0.133,0.511-0.099,0.689,0.15c0.242,0.337,0.126,0.69-0.223,0.916c-0.366,0.237-0.471,0.179-0.511,0.161
					c-0.106-0.043-0.422-0.382-0.348-0.433C22.42,12.191,22.491,12.626,22.916,12.437z"/>
				<path fill="#FFFFFF" d="M23.433,10.344l0.857-0.387c0.002-0.001,0.171-0.118,0.184-0.133c0.038-0.056,0.309,0.3,0.362,0.418
					c0.033,0.073-0.166,0.128-0.182,0.114c-0.238-0.225-0.318-0.172-0.46-0.103c-0.019,0.008-0.013,0.034,0.008,0.082l0.484,1.072
					c0.015,0.034,0.045,0.1,0.099,0.094c0.044-0.007,0.075-0.106,0.201,0.081c0.055,0.08-0.742,0.452-0.794,0.352
					c-0.103-0.194,0.048-0.167,0.092-0.211c0.031-0.037-0.003-0.091-0.019-0.125l-0.487-1.08c-0.022-0.049-0.026-0.064-0.055-0.051
					c-0.149,0.061-0.237,0.085-0.226,0.412c0.007,0.079-0.168,0.13-0.201,0.059c-0.057-0.126-0.141-0.559-0.076-0.547
					C23.219,10.39,23.406,10.355,23.433,10.344z"/>
				<path fill="#FFFFFF" d="M25.954,9.565c0.068,0.199-0.076,0.18-0.131,0.208c-0.017,0.012-0.015,0.062,0.005,0.125l0.32,1.075
					c0.021,0.069,0.046,0.154,0.087,0.151c0.053-0.004,0.182-0.105,0.223,0.111c0.014,0.086-0.85,0.359-0.888,0.261
					c-0.087-0.202,0.113-0.196,0.14-0.216c0.031-0.027,0.012-0.07-0.016-0.164l-0.326-1.091c-0.013-0.044-0.024-0.104-0.055-0.107
					c-0.042,0-0.19,0.138-0.238-0.091C25.052,9.727,25.922,9.467,25.954,9.565z"/>
				<path fill="#FFFFFF" d="M26.647,9.486l0.926-0.159c0.003,0,0.196-0.071,0.211-0.083c0.051-0.043,0.224,0.369,0.246,0.497
					c0.013,0.08-0.194,0.083-0.205,0.064c-0.174-0.277-0.265-0.247-0.42-0.214c-0.02,0.003-0.021,0.03-0.012,0.081l0.199,1.159
					c0.006,0.037,0.018,0.108,0.072,0.116c0.045,0.004,0.1-0.084,0.174,0.128c0.033,0.091-0.832,0.25-0.856,0.141
					c-0.051-0.213,0.088-0.149,0.141-0.182c0.04-0.027,0.02-0.089,0.014-0.125l-0.2-1.168c-0.01-0.054-0.009-0.069-0.04-0.063
					C26.736,9.7,26.646,9.7,26.575,10.02c-0.013,0.078-0.196,0.083-0.209,0.007C26.342,9.89,26.37,9.45,26.429,9.477
					C26.429,9.477,26.619,9.491,26.647,9.486z"/>
				<path fill="#FFFFFF" d="M28.833,10.511c-0.052,0.322,0.159,0.393,0.386,0.43c0.376,0.058,0.463-0.063,0.499-0.288
					c0,0,0.155-0.951,0.152-0.951c-0.072-0.022-0.287,0.007-0.229-0.194c0.027-0.095,0.702,0.013,0.695,0.109
					c-0.004,0.189-0.064,0.145-0.236,0.123c-0.005-0.001-0.156,0.97-0.156,0.97c-0.042,0.268-0.233,0.651-0.89,0.543
					c-0.714-0.115-0.738-0.46-0.682-0.807c0,0,0.149-0.931,0.153-0.959c0.005-0.032-0.258,0.045-0.158-0.183
					c0.038-0.085,0.853,0.034,0.829,0.132c-0.063,0.229-0.207,0.093-0.212,0.124C28.979,9.588,28.831,10.511,28.833,10.511z"/>
				<path fill="#FFFFFF" d="M31.093,9.706l0.875,0.34c0.003,0.001,0.205,0.039,0.224,0.037c0.067-0.011,0.003,0.431-0.043,0.552
					c-0.029,0.075-0.209-0.029-0.209-0.051c-0.006-0.327-0.1-0.348-0.25-0.4c-0.019-0.007-0.034,0.015-0.052,0.063l-0.426,1.097
					c-0.014,0.036-0.04,0.102,0.002,0.137c0.037,0.026,0.128-0.021,0.083,0.199c-0.018,0.095-0.842-0.212-0.807-0.319
					c0.065-0.209,0.152-0.083,0.215-0.083c0.048-0.003,0.063-0.065,0.076-0.1l0.429-1.105c0.02-0.051,0.027-0.063-0.002-0.075
					c-0.148-0.064-0.226-0.11-0.451,0.127c-0.051,0.061-0.211-0.029-0.183-0.102c0.049-0.129,0.299-0.493,0.336-0.438
					C30.91,9.585,31.065,9.695,31.093,9.706z"/>
				<path fill="#FFFFFF" d="M32.134,11.784c0.024-0.003,0.085-0.095,0.107-0.139c0.174-0.335,0.215-0.396,0.45-0.865
					c0.037-0.072,0.103-0.18,0.064-0.204c-0.027-0.017-0.182-0.013-0.066-0.223c0.044-0.067,0.159,0.038,0.979,0.448
					c0.123,0.063,0.16,0.011,0.236,0.07c0.1,0.075-0.072,0.476-0.172,0.45c-0.105-0.029-0.03-0.249-0.145-0.309
					c-0.059-0.031-0.253-0.132-0.371-0.193c-0.034-0.018-0.035,0.005-0.258,0.435c0,0,0.02,0.017,0.225,0.117
					c0.087,0.045,0.12-0.269,0.233-0.21c0.167,0.084,0.068,0.27-0.022,0.443c-0.086,0.167-0.198,0.388-0.343,0.297
					c-0.127-0.079,0.116-0.268,0.022-0.317c-0.107-0.056-0.223-0.116-0.223-0.116l-0.282,0.542c0.01,0.005,0.182,0.088,0.266,0.138
					c0.362,0.21,0.411-0.267,0.588-0.113c0.112,0.097-0.33,0.523-0.377,0.513c-0.099-0.023-0.064-0.07-0.195-0.138
					c-0.811-0.421-0.985-0.473-0.947-0.547C32.03,11.62,32.038,11.786,32.134,11.784z"/>
				<path fill="#FFFFFF" d="M36.027,12.677c0.511,0.281-0.21,1.56-0.702,1.288C34.807,13.678,35.537,12.402,36.027,12.677z
					 M35.001,13.98c0.836,0.868,2.21-0.452,1.344-1.331C35.462,11.756,34.137,13.084,35.001,13.98z"/>
				<path fill="#FFFFFF" d="M36.084,14.734c0.02,0.01,0.104-0.046,0.156-0.087c0.365-0.301,0.391-0.323,0.76-0.627
					c0.064-0.053,0.15-0.154,0.146-0.162c-0.013-0.03-0.173-0.115,0.039-0.234c0.052-0.032,0.018-0.033,0.718,0.798
					c0.051,0.063,0.121,0.061,0.17,0.125c0.044,0.072-0.021,0.174-0.131,0.294c-0.009,0.011-0.228,0.176-0.267,0.152
					c-0.179-0.099,0.182-0.269-0.024-0.518c-0.04-0.049,0.042,0.059-0.157-0.192c-0.031-0.037-0.124,0.023-0.176,0.067
					c-0.393,0.327-0.301,0.248-0.303,0.25c0,0,0.138,0.171,0.14,0.169c0.07-0.05,0.214-0.221,0.311-0.084
					c0.074,0.099-0.125,0.252-0.222,0.333c-0.129,0.107-0.325,0.276-0.41,0.188c-0.125-0.125,0.083-0.214,0.145-0.292l-0.144-0.166
					c0,0,0.04-0.033-0.345,0.285c-0.038,0.031-0.087,0.08-0.081,0.096c0.019,0.041,0.146,0.104,0.002,0.252
					c-0.067,0.073-0.639-0.598-0.551-0.686C36.011,14.555,36.035,14.707,36.084,14.734z"/>
				<path fill="#FFFFFF" d="M38.126,16.479c0.476-0.185,0.978-0.065,1.19,0.446c0.125,0.303,0.065,0.375,0.072,0.401
					c0.009,0.027,0.032,0.068,0.057,0.107c0.051,0.091-0.341,0.51-0.554,0.267c-0.105-0.112-0.114-0.199-0.038-0.259
					c0.102-0.077,0.245-0.205,0.166-0.375c-0.137-0.292-0.447-0.289-0.697-0.145c-0.385,0.223-0.417,0.606-0.351,0.689
					c0.049,0.073,0.074,0.141,0.158,0.109c0.145-0.057,0.094-0.052,0.13-0.101c0.044-0.065-0.105-0.141,0.024-0.22
					c0.128-0.075,0.269,0.157,0.336,0.322c0.07,0.168,0.102,0.432-0.016,0.472c-0.142,0.042-0.104-0.144-0.202-0.104
					c-0.184,0.076-0.308,0.062-0.346,0.062c-0.117-0.004-0.371-0.202-0.491-0.514C37.365,17.119,37.664,16.667,38.126,16.479z"/>
				<path fill="#FFFFFF" d="M38.374,18.92c0.019,0.016,0.128,0.001,0.176-0.01c0.367-0.09,0.439-0.098,0.947-0.23
					c0.079-0.02,0.204-0.041,0.196-0.086c-0.004-0.032-0.11-0.146,0.124-0.197c0.081-0.01,0.077,0.145,0.307,1.032
					c0.033,0.135,0.097,0.128,0.102,0.225c0.01,0.125-0.406,0.259-0.452,0.166c-0.048-0.099,0.168-0.186,0.137-0.313
					c-0.015-0.063-0.067-0.277-0.099-0.406c-0.009-0.037-0.026-0.023-0.497,0.091c0,0,0.001,0.026,0.06,0.246
					c0.023,0.096,0.282-0.086,0.312,0.037c0.047,0.182-0.158,0.229-0.349,0.274c-0.182,0.045-0.422,0.105-0.448-0.063
					c-0.024-0.147,0.278-0.088,0.253-0.191c-0.029-0.117-0.06-0.244-0.06-0.244l-0.594,0.145c0.002,0.012,0.053,0.194,0.071,0.291
					c0.079,0.411,0.472,0.135,0.472,0.369c0,0.148-0.612,0.096-0.634,0.053c-0.048-0.089,0.01-0.094-0.025-0.236
					c-0.216-0.888-0.292-1.054-0.21-1.074C38.43,18.735,38.31,18.85,38.374,18.92z"/>
				<path fill="#FFFFFF" d="M38.955,22.38c-0.135,0.011-0.292,0.037-0.304-0.046c-0.005-0.028,0.036-0.133,0.036-0.133l0.959-1.167
					c0,0,0.069-0.066-0.016-0.054c0,0-0.127,0.004-0.788,0.056c-0.057,0.004,0.104,0.223-0.153,0.22
					c-0.075,0.003-0.163-0.646-0.034-0.656c0.218-0.018,0.127,0.111,0.164,0.209c0,0,0.115-0.008,1.19-0.092
					c0.074-0.006,0.157-0.064,0.172-0.091c0.013-0.021-0.075-0.15,0.142-0.15c0.104,0.001,0.1,0.322,0.104,0.365
					c0.01,0.057-0.074,0.13-1.081,1.277c0,0,0.032-0.003,0.952-0.073c0,0-0.058-0.216,0.147-0.223
					c0.092-0.007,0.123,0.612,0.051,0.618c-0.201,0.015-0.18-0.165-0.18-0.165C38.979,22.379,38.955,22.38,38.955,22.38z"/>
				<path fill="#FFFFFF" d="M38.902,22.951c0.013,0.021,0.121,0.042,0.169,0.045c0.376,0.031,0.448,0.046,0.972,0.079
					c0.08,0.007,0.206,0.025,0.212-0.021c0.005-0.031-0.058-0.173,0.18-0.147c0.08,0.015,0.027,0.161-0.032,1.076
					c-0.011,0.138,0.052,0.151,0.026,0.244c-0.029,0.123-0.466,0.12-0.481,0.017c-0.015-0.107,0.218-0.123,0.229-0.254
					c0.005-0.065,0.023-0.283,0.034-0.416c0.003-0.036-0.018-0.03-0.5-0.069c0,0-0.008,0.025-0.021,0.253
					c-0.008,0.098,0.295,0.007,0.284,0.133c-0.012,0.188-0.222,0.167-0.417,0.151c-0.187-0.014-0.434-0.032-0.406-0.2
					c0.023-0.148,0.292,0.004,0.3-0.103c0.01-0.121,0.021-0.251,0.021-0.251l-0.609-0.049c-0.001,0.012-0.01,0.201-0.024,0.3
					c-0.054,0.414,0.406,0.275,0.333,0.498c-0.045,0.141-0.61-0.102-0.618-0.148c-0.018-0.101,0.039-0.086,0.05-0.233
					c0.074-0.91,0.054-1.092,0.137-1.085C39.013,22.793,38.862,22.864,38.902,22.951z"/>
				<path fill="#FFFFFF" d="M40.218,25.242l-0.213,0.915c-0.001,0.003-0.01,0.208-0.005,0.227c0.021,0.064-0.427,0.064-0.553,0.034
					c-0.079-0.019-0.001-0.21,0.021-0.214c0.323-0.053,0.331-0.148,0.361-0.304c0.004-0.02-0.02-0.031-0.07-0.043l-1.145-0.268
					c-0.037-0.008-0.106-0.024-0.135,0.022c-0.021,0.039,0.039,0.124-0.186,0.111c-0.097-0.007,0.091-0.864,0.203-0.845
					c0.216,0.035,0.103,0.14,0.113,0.201c0.01,0.047,0.073,0.052,0.11,0.06l1.154,0.271c0.054,0.012,0.067,0.019,0.074-0.013
					c0.042-0.156,0.076-0.24-0.19-0.429c-0.067-0.043-0.001-0.214,0.075-0.196c0.134,0.032,0.53,0.228,0.481,0.272
					C40.312,25.045,40.225,25.214,40.218,25.242z"/>
				<path fill="#FFFFFF" d="M39.419,27.798c-0.201-0.064-0.098-0.167-0.087-0.229c0.001-0.021-0.041-0.048-0.103-0.071l-1.051-0.392
					c-0.068-0.025-0.152-0.057-0.174-0.021c-0.029,0.045-0.025,0.209-0.223,0.11c-0.077-0.04,0.225-0.894,0.326-0.865
					c0.214,0.052,0.088,0.208,0.088,0.241c0.003,0.042,0.049,0.053,0.141,0.087l1.067,0.396c0.043,0.018,0.098,0.043,0.119,0.021
					c0.025-0.034,0.005-0.236,0.216-0.135C39.834,26.981,39.518,27.832,39.419,27.798z"/>
				<path fill="#FFFFFF" d="M38.504,27.82c0.267,0.143,0.743,0.606,0.42,1.199c-0.178,0.322-0.209,0.265-0.266,0.322
					c-0.013,0.013-0.041,0.09-0.047,0.116c-0.025,0.048-0.251,0.083-0.459-0.043c-0.066-0.034-0.109-0.103-0.103-0.17
					c0.01-0.2,0.074-0.273,0.226-0.228c0.134,0.037,0.302,0.002,0.364-0.167c0.092-0.25-0.065-0.467-0.358-0.578
					c-0.3-0.111-0.664-0.038-0.752,0.163c-0.044,0.104-0.07,0.246-0.036,0.342c0.061,0.169,0.071,0.182,0.009,0.27
					c-0.078,0.105-0.398-0.229-0.37-0.282c0.039-0.074,0-0.131,0.001-0.134c-0.001-0.113,0.009-0.283,0.115-0.486
					C37.565,27.527,38.228,27.672,38.504,27.82z"/>
				<path fill="#FFFFFF" d="M36.624,29.643c-0.088,0.083-0.059,0.186,0.023,0.273c0.13,0.145,0.271,0.104,0.445-0.034
					c0.277-0.217,0.527-0.226,0.797,0.03c0.204,0.189,0.243,0.503,0.039,0.771c-0.057,0.073-0.091,0.101-0.186,0.153
					c-0.047,0.03-0.079,0.089-0.131,0.146c-0.098,0.097-0.537-0.036-0.478-0.16c0.046-0.099,0.211-0.179,0.368-0.169
					c0.171,0.01,0.193-0.034,0.246-0.103c0.029-0.04,0.015-0.139-0.075-0.24c-0.127-0.148-0.346-0.033-0.451,0.076
					c-0.203,0.217-0.446,0.268-0.699,0.095c-0.343-0.233-0.355-0.606-0.104-0.938c0.262-0.346,0.38-0.328,0.424-0.325
					c0.114,0.005,0.528,0.215,0.476,0.287C37.175,29.704,36.958,29.319,36.624,29.643z"/>
			</g>
			<path fill="#424D99" d="M25.063,19.293c0,0,0.105-1.031-0.716-1.031c-0.715,0-0.673,0.884-0.673,0.884s0.105,5.176-0.021,5.156
				c-0.126-0.021-0.526-0.905-0.505-1.011c0.021-0.105,0.189-0.4,0.189-0.632c0-0.23-0.316-0.357-0.316-0.357
				s0.105-0.105,0.105-0.294c0-0.189-0.336-0.316-0.505-0.316s-0.463-0.252-0.631-0.505s-1.137-2.146-1.41-2.525
				c-0.273-0.379-0.61-0.442-0.968-0.126c-0.358,0.315-0.358,1.369-0.358,1.369v6.714c0,0,0.126,0.642,0.642,0.642
				c0.726,0,0.768-0.77,0.768-0.77v-5.577c0.21-0.041,0.653,0.99,0.632,1.179c-0.021,0.19-0.294,0.422-0.253,0.653
				c0.042,0.23,0.4,0.356,0.4,0.356s-0.168,0.169-0.105,0.359c0.063,0.189,0.421,0.272,0.568,0.272c0.147,0,0.421,0.211,0.547,0.4
				c0.126,0.188,1.305,2.61,1.6,2.883c0.294,0.273,0.568,0.253,0.799,0c0.232-0.253,0.295-1.052,0.295-1.052L25.063,19.293z
				 M22.579,22.787c-0.063,0.126-0.063,0.483-0.063,0.483s-0.379-0.21-0.505-0.273c-0.126-0.063-0.337-0.084-0.337-0.084
				s0.126-0.231,0.168-0.337c0.043-0.104,0.084-0.462,0.084-0.462s0.232,0.126,0.379,0.21c0.147,0.084,0.442,0.105,0.442,0.105
				S22.642,22.66,22.579,22.787z"/>
			<path fill="#424D99" d="M29.902,22.745c0,0,0.232-0.231,0.232-0.548c0-0.315-0.337-0.421-0.568-0.421s-0.568-0.211-0.61-0.483
				c-0.042-0.273-0.126-1.915-0.105-2.167c0.021-0.253-0.21-1.158-0.694-1.158c-0.337,0-0.737,0.695-0.737,1.074
				s0.021,2.21-0.104,2.378c-0.126,0.168-0.211,0.357-0.442,0.379c-0.232,0.021-0.695-0.042-0.737,0.399
				c-0.042,0.442,0.189,0.484,0.189,0.484s-0.168,0.295-0.168,0.568s0.315,0.379,0.463,0.4c0.147,0.021,0.499-0.039,0.631,0.188
				c0.231,0.4,0.189,0.843,0.189,1.242s-0.021,1.6,0.126,1.872c0.147,0.274,0.463,0.569,0.61,0.569c0.147,0,0.484-0.295,0.61-0.716
				c0.126-0.421,0.105-2.463,0.126-2.651c0.021-0.189,0.105-0.358,0.4-0.442s0.727-0.041,0.799-0.548
				C30.155,22.871,29.902,22.745,29.902,22.745z M28.43,23.102c-0.168,0.148-0.295,0.485-0.295,0.485s-0.252-0.422-0.4-0.59
				c-0.147-0.169-0.357-0.273-0.357-0.273s0.231-0.189,0.441-0.357c0.211-0.169,0.316-0.61,0.316-0.61s0.21,0.379,0.316,0.568
				c0.105,0.189,0.442,0.399,0.442,0.399S28.598,22.955,28.43,23.102z"/>
			<path fill="#424D99" d="M36.995,22.514c-0.4-0.042-1.347,0.063-1.347,0.063s-0.547,0.084-0.505,0.61s0.715,0.379,0.842,0.547
				c0.126,0.169,0.307,0.967-0.105,1.494c-0.526,0.675-1.305,0.863-1.958,0.337s-0.61-1.368-0.442-1.641
				c0.168-0.273,0.421-0.253,0.653-0.273c0.231-0.021,0.441-0.189,0.462-0.422c0.021-0.231-0.253-0.463-0.253-0.463
				s0.321-0.232,0.295-0.568c-0.021-0.273-0.463-0.399-0.59-0.399c-0.126,0-0.483-0.063-0.547-0.463
				c-0.063-0.4-0.126-1.052,0.463-1.473c0.589-0.422,1.355-0.323,1.768,0.168c0.547,0.652,0.358,1.305,0.484,1.452
				c0.126,0.146,0.336,0.399,0.779,0.294c0.441-0.105,0.61-0.525,0.547-0.926c-0.063-0.399-0.294-1.831-1.684-2.441
				c-1.389-0.61-2.935,0.157-3.472,1.031c-0.674,1.095-0.337,1.789-0.463,1.979s-0.189,0.4-0.61,0.4
				c-0.421,0-0.589,0.231-0.611,0.463c-0.024,0.272,0.273,0.505,0.273,0.505s-0.21,0.21-0.21,0.505s0.273,0.358,0.442,0.358
				s0.526-0.043,0.673,0.294s0.147,1.094,0.21,1.305s0.526,1.325,1.474,1.726c0.947,0.4,1.957,0.231,2.377,0.021
				c0.421-0.21,1.558-1.093,1.6-2.313S37.611,22.578,36.995,22.514z M32.933,23.146c-0.125,0.146-0.231,0.462-0.231,0.462
				s-0.294-0.462-0.4-0.589s-0.315-0.316-0.315-0.316s0.21-0.188,0.378-0.315c0.168-0.126,0.337-0.547,0.337-0.547
				s0.168,0.357,0.273,0.526c0.105,0.168,0.442,0.357,0.442,0.357S33.06,22.997,32.933,23.146z"/>
			<g>
				<path fill="#9F9D6C" d="M34.846,25.86C34.846,25.86,34.846,25.86,34.846,25.86c0.043-0.005,0.085-0.011,0.127-0.02
					c0.254-0.681,0.445-1.43,0.546-2.251l0,0c-0.037-0.009-0.072-0.021-0.107-0.035c0,0,0-0.002,0-0.002
					C35.31,24.398,35.111,25.166,34.846,25.86z"/>
				<path fill="#9F9D6C" d="M35.287,19.701L35.287,19.701c-0.041-0.018-0.083-0.033-0.125-0.046c0,0,0-0.001,0-0.001
					c0.208,0.778,0.329,1.643,0.329,2.603c0,0.126-0.002,0.249-0.006,0.371h0c0.02-0.009,0.039-0.016,0.057-0.022
					c0.003-0.001,0.005-0.001,0.009-0.003c0.017-0.006,0.032-0.011,0.046-0.014c0.003-0.11,0.005-0.22,0.005-0.332
					C35.601,21.317,35.484,20.469,35.287,19.701z"/>
				<path fill="#9F9D6C" d="M32.546,22.157L32.546,22.157c-0.034,0.058-0.071,0.113-0.109,0.159h0
					c-0.001,0.29-0.01,0.572-0.027,0.849c0.002,0.003,0.005,0.007,0.007,0.011c0.012,0.018,0.025,0.036,0.037,0.054
					c0.003,0.006,0.006,0.01,0.009,0.016c0.016,0.021,0.031,0.045,0.046,0.067c0.024-0.342,0.038-0.692,0.038-1.055
					C32.548,22.224,32.547,22.19,32.546,22.157z"/>
				<path fill="#9F9D6C" d="M28.026,22.066v1.345c0.063,0.101,0.108,0.176,0.108,0.176s0.001-0.002,0.002-0.005V21.76
					c-0.001-0.002-0.002-0.004-0.002-0.004S28.098,21.907,28.026,22.066z"/>
				<path fill="#9F9D6C" d="M22.259,22.298c-0.036-0.021-0.073-0.041-0.11-0.063c0,0.008,0,0.015,0,0.021
					c0,0.283,0.01,0.559,0.028,0.828c0.038,0.021,0.077,0.042,0.115,0.063C22.271,22.871,22.26,22.589,22.259,22.298z"/>
				<path fill="#9F9D6C" d="M23.698,20.691c-0.053,0.495-0.083,1.017-0.083,1.566c0,0.555,0.03,1.084,0.085,1.591
					C23.724,23.148,23.713,21.774,23.698,20.691z"/>
				<path fill="#9F9D6C" d="M32.463,30.603c-1.061,0.646-2.129,1.024-2.946,1.243c-0.019-0.042-0.073-0.09-0.15-0.138
					c0.693-0.339,1.59-0.854,2.481-1.585c0.848-0.694,1.776-1.66,2.497-2.938c-0.039-0.005-0.078-0.012-0.117-0.018h-0.001
					c-0.709,1.244-1.616,2.187-2.446,2.867c-0.916,0.752-1.838,1.274-2.534,1.609c-0.03-0.015-0.062-0.029-0.095-0.043
					c0.54-0.377,1.228-0.926,1.91-1.665c0.711-0.769,1.493-1.832,2.074-3.21c-0.031-0.022-0.061-0.046-0.09-0.071
					c-0.576,1.377-1.355,2.438-2.063,3.203c-0.704,0.763-1.412,1.321-1.956,1.694c-0.035-0.014-0.07-0.025-0.107-0.037
					c0.402-0.403,0.909-0.979,1.413-1.727c0.667-0.992,1.417-2.429,1.851-4.301c-0.008-0.018-0.016-0.034-0.022-0.051
					c0,0-0.001,0-0.001-0.002c-0.007-0.016-0.012-0.029-0.018-0.043c-0.001-0.002-0.002-0.003-0.003-0.006
					c-0.005-0.013-0.01-0.025-0.015-0.037c0-0.002,0-0.003-0.001-0.003c-0.005-0.013-0.01-0.025-0.014-0.036
					c-0.423,1.929-1.188,3.403-1.866,4.412c-0.518,0.771-1.039,1.354-1.443,1.756c-0.054-0.016-0.109-0.029-0.163-0.042
					c0.766-1.283,2.154-4.072,2.443-7.799c-0.037-0.006-0.073-0.017-0.108-0.031c-0.286,3.75-1.692,6.547-2.449,7.807
					c-0.046-0.008-0.091-0.016-0.135-0.021c0.414-1.405,1.207-4.463,1.388-7.787c-0.037,0.014-0.074,0.024-0.112,0.035
					c-0.186,3.313-0.979,6.358-1.388,7.742c-0.021-0.001-0.042-0.002-0.063-0.002h-0.079v-3.864c-0.033-0.008-0.07-0.027-0.11-0.053
					v3.917h-0.079c-0.02,0-0.041,0.001-0.063,0.002c-0.41-1.387-1.205-4.439-1.389-7.761c-0.037-0.013-0.076-0.028-0.113-0.047
					c0.178,3.335,0.975,6.408,1.39,7.817c-0.044,0.006-0.09,0.014-0.136,0.021c-0.845-1.407-2.501-4.729-2.501-9.156
					c0-4.42,1.651-7.466,2.497-8.736c0.048,0.009,0.094,0.016,0.14,0.021c-0.455,1.41-1.362,4.665-1.423,8.329
					c0.035-0.017,0.073-0.028,0.111-0.038c0.067-3.655,0.976-6.896,1.424-8.28c0.021,0,0.042,0.001,0.063,0.001h0.079v4.444
					c0.037-0.018,0.074-0.026,0.11-0.029v-4.416h0.079c0.02,0,0.041-0.001,0.063-0.001c0.445,1.378,1.349,4.599,1.422,8.235
					c0.037,0.006,0.074,0.016,0.111,0.026c-0.069-3.641-0.969-6.87-1.421-8.272c0.045-0.005,0.092-0.013,0.14-0.021
					c0.82,1.232,2.398,4.137,2.492,8.346l0,0c0.017-0.007,0.034-0.013,0.052-0.018c0,0,0,0,0.001,0
					c0.018-0.005,0.037-0.01,0.057-0.014l0,0c-0.099-4.178-1.652-7.077-2.485-8.339c0.055-0.013,0.111-0.027,0.167-0.043
					c0.403,0.356,0.92,0.88,1.435,1.587c0.737,1.013,1.578,2.569,1.968,4.71c0.025-0.052,0.053-0.105,0.083-0.159v-0.001
					c-0.405-2.091-1.236-3.617-1.965-4.619c-0.497-0.685-0.999-1.198-1.398-1.556c0.035-0.012,0.069-0.023,0.103-0.036
					c0.542,0.327,1.247,0.824,1.948,1.524c0.82,0.819,1.737,2.028,2.32,3.693c0.032-0.019,0.065-0.037,0.098-0.054
					c-0.591-1.676-1.516-2.895-2.344-3.721c-0.676-0.675-1.357-1.164-1.895-1.495c0.031-0.014,0.061-0.027,0.089-0.041
					c0.696,0.29,1.615,0.75,2.529,1.439c0.997,0.751,2.105,1.874,2.849,3.47c0.04-0.002,0.08-0.004,0.12-0.005
					c-0.752-1.639-1.887-2.789-2.905-3.556c-0.886-0.668-1.778-1.123-2.47-1.417c0.077-0.048,0.129-0.096,0.144-0.14
					c0.816,0.174,1.883,0.493,2.943,1.079c1.271,0.701,2.282,1.642,3.007,2.795c0.326,0.519,0.593,1.081,0.802,1.685
					c0.051,0.034,0.101,0.069,0.148,0.106c-0.822-2.473-2.464-3.888-3.908-4.685c-1.36-0.75-2.732-1.067-3.582-1.2
					c-0.542-0.137-0.852-0.354-0.852-0.354s-0.311,0.217-0.853,0.354c-0.849,0.133-2.221,0.45-3.581,1.2
					c-1.37,0.755-2.916,2.067-3.773,4.31c0.042-0.016,0.083-0.026,0.124-0.031c0.19-0.491,0.421-0.953,0.692-1.384
					c0.726-1.154,1.738-2.094,3.007-2.795c1.061-0.586,2.127-0.904,2.944-1.079c0.015,0.043,0.067,0.092,0.144,0.14
					c-0.692,0.294-1.583,0.749-2.469,1.417c-1.241,0.935-2.653,2.438-3.338,4.7c0.025,0.045,0.05,0.091,0.076,0.138
					c0.664-2.293,2.082-3.81,3.326-4.747c0.913-0.689,1.833-1.15,2.529-1.439c0.028,0.014,0.058,0.027,0.088,0.041
					c-0.538,0.331-1.218,0.819-1.895,1.495c-1.242,1.24-2.704,3.364-2.924,6.594c0.034,0.034,0.069,0.067,0.104,0.098
					c0.196-3.246,1.656-5.373,2.895-6.611c0.701-0.7,1.406-1.197,1.948-1.524c0.034,0.013,0.068,0.024,0.103,0.036
					c-0.4,0.358-0.9,0.872-1.397,1.556c-0.567,0.779-1.196,1.875-1.638,3.307c0.038-0.008,0.078-0.014,0.121-0.016
					c0.436-1.392,1.048-2.46,1.603-3.222c0.514-0.708,1.032-1.231,1.435-1.587c0.055,0.016,0.111,0.03,0.167,0.043
					c-0.768,1.163-2.144,3.712-2.436,7.369l0.042,3.241c0.363,3.491,1.667,6.1,2.4,7.329c-0.054,0.013-0.108,0.026-0.163,0.042
					c-0.404-0.401-0.926-0.985-1.443-1.756c-0.438-0.651-0.912-1.496-1.308-2.534c-0.036,0.013-0.072,0.021-0.109,0.024
					c0.4,1.055,0.883,1.914,1.328,2.576c0.504,0.748,1.011,1.323,1.413,1.727c-0.037,0.012-0.072,0.023-0.107,0.037
					c-0.543-0.373-1.251-0.932-1.956-1.694c-1.102-1.192-2.377-3.104-2.786-5.804c-0.039-0.046-0.084-0.091-0.131-0.132
					c0.388,2.808,1.705,4.787,2.839,6.014c0.683,0.739,1.371,1.288,1.91,1.665c-0.033,0.014-0.065,0.028-0.094,0.043
					c-0.697-0.336-1.619-0.857-2.535-1.609c-1.691-1.387-3.708-3.863-3.708-7.778c0-0.458,0.028-0.895,0.08-1.311
					c-0.033-0.025-0.063-0.038-0.09-0.033v2.829c0.43,3.112,2.164,5.163,3.65,6.381c0.892,0.73,1.789,1.246,2.482,1.585
					c-0.078,0.048-0.131,0.096-0.151,0.138c-0.817-0.219-1.884-0.598-2.946-1.243c-1.151-0.7-2.43-1.808-3.306-3.52
					c-0.027,0.024-0.057,0.047-0.09,0.067c0.888,1.726,2.179,2.842,3.343,3.55c1.51,0.917,3.035,1.301,3.842,1.451
					c0.38,0.129,0.593,0.277,0.593,0.277s0.212-0.148,0.592-0.277c0.808-0.15,2.333-0.534,3.843-1.451
					c1.198-0.729,2.532-1.889,3.42-3.702c-0.046,0.022-0.099,0.045-0.158,0.066C34.902,28.786,33.619,29.899,32.463,30.603z"/>
				<path fill="#9F9D6C" d="M19.213,22.257c0,0.354,0.015,0.695,0.041,1.024v-2.048C19.228,21.563,19.213,21.901,19.213,22.257z"/>
				<path fill="#9F9D6C" d="M33.802,20.001c-0.017,0.017-0.033,0.034-0.048,0.052c-0.016,0.018-0.031,0.035-0.045,0.053
					c0.098,0.521,0.162,1.078,0.185,1.67h0c0.042,0.011,0.08,0.018,0.111,0.021l0,0C33.982,21.157,33.911,20.559,33.802,20.001
					L33.802,20.001z"/>
				<path fill="#9F9D6C" d="M33.821,23.683L33.821,23.683c-0.06,0.508-0.15,0.989-0.265,1.444c0.017,0.03,0.035,0.06,0.055,0.09
					c0.008,0.014,0.016,0.026,0.025,0.04l0,0c0.131-0.499,0.234-1.029,0.299-1.592C33.896,23.669,33.859,23.675,33.821,23.683z"/>
				<path fill="#9F9D6C" d="M36.873,21.797c-0.014,0.002-0.028,0.003-0.042,0.003c0.005,0.151,0.008,0.303,0.008,0.457
					c0,0.084-0.002,0.165-0.004,0.247c0.04,0.001,0.077,0.003,0.11,0.006c0.002-0.084,0.004-0.167,0.004-0.253
					c0-0.159-0.003-0.315-0.009-0.47l0,0c-0.018,0.003-0.035,0.006-0.051,0.008C36.884,21.796,36.879,21.796,36.873,21.797z"/>
			</g>
		</g>
	</g>
</g>
</svg>
