<?xml version="1.0" encoding="utf-8"?>
<!-- Generator: Adobe Illustrator 16.0.0, SVG Export Plug-In . SVG Version: 6.00 Build 0)  -->
<!DOCTYPE svg PUBLIC "-//W3C//DTD SVG 1.1//EN" "http://www.w3.org/Graphics/SVG/1.1/DTD/svg11.dtd">
<svg version="1.1"
	 id="svg8" sodipodi:docname="default.svg" inkscape:version="0.92.2 (5c3e80d, 2017-08-06)" xmlns:rdf="http://www.w3.org/1999/02/22-rdf-syntax-ns#" xmlns:sodipodi="http://sodipodi.sourceforge.net/DTD/sodipodi-0.dtd" xmlns:inkscape="http://www.inkscape.org/namespaces/inkscape" xmlns:svg="http://www.w3.org/2000/svg" xmlns:cc="http://creativecommons.org/ns#" xmlns:dc="http://purl.org/dc/elements/1.1/"
	 xmlns="http://www.w3.org/2000/svg" xmlns:xlink="http://www.w3.org/1999/xlink" x="0px" y="0px" width="150px" height="45px"
	 viewBox="0 0 150 45" enable-background="new 0 0 150 45" xml:space="preserve">
<sodipodi:namedview  scale-x="0.7" id="base" units="mm" inkscape:window-y="-8" inkscape:window-x="-8" inkscape:window-height="1057" inkscape:window-width="1920" fit-margin-bottom="1" fit-margin-right="1" inkscape:current-layer="layer1" inkscape:document-units="mm" inkscape:pageshadow="2" inkscape:pageopacity="0.0" inkscape:window-maximized="1" inkscape:pagecheckerboard="false" pagecolor="#ffffff" inkscape:cy="58.787676" inkscape:cx="290.46852" showgrid="false" borderopacity="1.0" fit-margin-left="1" fit-margin-top="1" inkscape:zoom="2.8" bordercolor="#666666">
	</sodipodi:namedview>
<g id="layer1" transform="translate(-74.949214,-103.55767)" inkscape:groupmode="layer" inkscape:label="Layer 1">
	<g id="layer1-0" transform="matrix(0.26458333,0,0,0.26458333,65.612262,-151.5137)" inkscape:label="???? 1">
		<path id="path6" inkscape:connector-curvature="0" opacity="0.25" enable-background="new    " d="M246.77,1020.282
			c0,4.333-1.004,8.05-2.997,11.18c-2,3.115-4.747,5.64-8.253,7.589c-3.632,1.978-7.773,3.422-12.431,4.333
			c-4.658,0.915-9.884,1.373-15.694,1.373h-7.013v21.511c0,1.299,0.281,2.421,0.827,3.362c0.557,0.949,1.609,1.709,3.174,2.274
			c0.819,0.288,2.156,0.587,3.994,0.912c1.853,0.318,3.41,0.546,4.68,0.664v4.171h-46.86v-4.171
			c1.181-0.122,2.746-0.269,4.695-0.454c1.949-0.177,3.307-0.41,4.082-0.698c1.583-0.609,2.628-1.325,3.145-2.156
			c0.495-0.827,0.753-1.971,0.753-3.429v-54.072c0-1.255-0.236-2.336-0.723-3.252c-0.487-0.901-1.55-1.661-3.174-2.274
			c-1.141-0.443-2.65-0.834-4.544-1.181c-1.893-0.34-3.3-0.576-4.234-0.698v-4.167h47.432c11.099,0,19.4,1.576,24.892,4.732
			C244.02,1008.992,246.77,1013.808,246.77,1020.282L246.77,1020.282z M223.332,1022.943c0-5.699-1.31-9.936-3.92-12.715
			c-2.628-2.772-7.286-4.152-13.981-4.152h-5.053v33.381h2.565c6.651,0,11.708-1.344,15.185-4.038
			C221.597,1032.732,223.332,1028.565,223.332,1022.943z"/>
		<path id="path8" inkscape:connector-curvature="0" opacity="0.25" enable-background="new    " d="M330.591,1008.984
			c5.241,3.078,9.486,7.146,12.712,12.217c3.233,5.086,4.835,11.324,4.835,18.721c0,6.474-1.439,12.103-4.326,16.893
			c-2.886,4.795-6.71,8.722-11.479,11.8c-4.843,3.071-10.357,5.348-16.513,6.825c-6.164,1.476-12.616,2.211-19.355,2.211h-43.332
			v-4.171c1.299-0.037,2.923-0.155,4.879-0.332c1.949-0.185,3.248-0.391,3.901-0.642c1.458-0.524,2.484-1.247,3.045-2.178
			c0.568-0.93,0.86-2.045,0.86-3.337v-54.316c0-1.214-0.269-2.314-0.794-3.303c-0.52-0.993-1.543-1.794-3.075-2.399
			c-1.532-0.609-3.148-1.022-4.857-1.244c-1.709-0.221-3.03-0.376-3.96-0.458v-4.167h45.698c4.879,0,10.109,0.554,15.668,1.665
			C320.065,1003.876,325.424,1005.95,330.591,1008.984L330.591,1008.984z M318.226,1063.791c1.975-2.872,3.418-6.289,4.326-10.257
			c0.908-3.975,1.358-8.537,1.358-13.704c0-5.083-0.598-9.703-1.816-13.852c-1.203-4.156-2.979-7.707-5.319-10.648
			c-2.344-2.942-5.26-5.215-8.748-6.832c-3.484-1.617-7.445-2.421-11.881-2.421c-1.414,0-3.016,0.03-4.809,0.089
			c-1.794,0.059-3.134,0.111-4.019,0.151v57.959c0,1.292,0.192,2.429,0.576,3.418c0.384,0.989,1.041,1.845,1.971,2.569
			c0.923,0.768,2.06,1.358,3.418,1.786c1.344,0.421,3.108,0.635,5.285,0.635c4.555,0,8.474-0.753,11.737-2.274
			C313.568,1068.903,316.211,1066.692,318.226,1063.791L318.226,1063.791z"/>
		<path id="path10" inkscape:connector-curvature="0" opacity="0.25" enable-background="new    " d="M432.417,1042.616
			c2.576,1.569,4.673,3.551,6.282,5.961c1.617,2.395,2.421,5.212,2.421,8.438c0,3.875-0.923,7.157-2.753,9.84
			c-1.838,2.683-4.466,4.787-7.906,6.326c-3.632,1.646-7.817,2.809-12.564,3.48c-4.739,0.664-10.327,0.997-16.735,0.997h-44.616
			v-4.178c1.248-0.122,2.835-0.284,4.747-0.487c1.905-0.199,3.255-0.439,4.031-0.727c1.499-0.561,2.525-1.281,3.078-2.148
			c0.539-0.871,0.812-2.012,0.812-3.436v-54.006c0-1.296-0.218-2.37-0.672-3.219c-0.443-0.841-1.521-1.594-3.219-2.244
			c-1.262-0.487-2.731-0.878-4.392-1.181c-1.668-0.303-3.137-0.557-4.385-0.76v-4.174h46.676c11.745,0,20.226,1.436,25.442,4.315
			c5.201,2.879,7.81,7.131,7.81,12.756c0,2.598-0.591,4.872-1.757,6.836c-1.17,1.967-2.846,3.676-5.016,5.127
			c-1.986,1.347-4.337,2.502-7.083,3.466c-2.746,0.974-5.688,1.786-8.818,2.44v1.067c3.13,0.284,6.393,0.901,9.785,1.845
			c3.392,0.952,6.33,2.17,8.832,3.658V1042.616L432.417,1042.616z M413.032,1019.511c0-4.237-1.344-7.537-4.038-9.895
			c-2.68-2.362-6.71-3.54-12.084-3.54c-0.775,0-1.779,0.022-2.997,0.085c-1.24,0.063-2.303,0.114-3.189,0.151v28.324h3.152
			c6.54,0,11.375-1.358,14.491-4.082C411.475,1027.83,413.032,1024.147,413.032,1019.511z M417.203,1056.31
			c0-5.256-1.764-9.301-5.322-12.125c-3.543-2.831-8.637-4.248-15.288-4.248c-0.775,0-1.794,0.03-3.056,0.096
			c-1.27,0.052-2.215,0.103-2.813,0.144v27.745c0.362,1.325,1.491,2.443,3.388,3.374c1.89,0.915,4.193,1.388,6.887,1.388
			c4.791,0,8.703-1.443,11.7-4.311C415.704,1065.507,417.203,1061.484,417.203,1056.31L417.203,1056.31z"/>
		<path id="path12" inkscape:connector-curvature="0" opacity="0.25" enable-background="new    " d="M479.646,1071.31
			c0,3.672-0.709,7.393-2.126,11.169c-1.403,3.772-3.418,7.005-6.046,9.715c-2.864,2.938-6.341,5.234-10.416,6.898
			c-4.082,1.646-8.736,2.477-13.981,2.477c-4.879,0-8.644-0.834-11.294-2.514c-2.643-1.687-3.964-3.942-3.964-6.766
			c0-1.019,0.133-1.953,0.399-2.827c0.258-0.867,0.805-1.772,1.661-2.694c0.639-0.819,1.642-1.484,2.99-2.03
			c1.358-0.554,2.872-0.827,4.569-0.827c3.344,0,5.931,1.063,7.736,3.204c1.823,2.126,3.672,5.337,5.573,9.633
			c1.661-0.797,2.872-2.547,3.654-5.234c0.79-2.702,1.188-8.526,1.188-17.48v-37.072c0-1.248-0.31-2.347-0.915-3.289
			c-0.613-0.934-1.439-1.731-2.488-2.381c-0.775-0.48-2.001-0.919-3.684-1.325c-1.69-0.395-3.182-0.661-4.466-0.779v-4.178
			l30.701-1.439l0.915,0.849v46.894h-0.007V1071.31z M479.971,1004.256c0,2.739-1.181,5.06-3.543,6.98
			c-2.37,1.908-5.16,2.86-8.378,2.86c-3.278,0-6.097-0.949-8.452-2.86c-2.37-1.912-3.543-4.241-3.543-6.98
			c0-2.735,1.174-5.075,3.543-6.998c2.359-1.938,5.175-2.901,8.452-2.901c3.263,0,6.061,0.963,8.408,2.901
			C478.805,999.181,479.971,1001.521,479.971,1004.256z"/>
		<path id="path14" inkscape:connector-curvature="0" fill="#0A50A1" d="M238.111,1020.507c0,4.333-0.997,8.054-2.99,11.176
			c-2,3.115-4.754,5.647-8.253,7.589c-3.639,1.978-7.784,3.425-12.431,4.341c-4.658,0.908-9.892,1.366-15.694,1.366h-7.013v21.511
			c0,1.299,0.273,2.421,0.827,3.363c0.554,0.952,1.602,1.709,3.167,2.277c0.819,0.284,2.163,0.587,4.001,0.912
			c1.845,0.317,3.403,0.542,4.68,0.664v4.167h-46.868v-4.167c1.181-0.122,2.739-0.281,4.695-0.454
			c1.949-0.177,3.314-0.413,4.082-0.698c1.587-0.613,2.635-1.329,3.145-2.155c0.502-0.831,0.753-1.975,0.753-3.429v-54.072
			c0-1.255-0.236-2.336-0.723-3.241c-0.487-0.912-1.543-1.672-3.174-2.281c-1.129-0.443-2.65-0.834-4.532-1.174
			c-1.897-0.351-3.303-0.583-4.245-0.709v-4.171h47.432c11.106,0,19.407,1.58,24.895,4.739
			C235.365,1009.213,238.111,1014.033,238.111,1020.507L238.111,1020.507z M214.673,1023.165c0-5.699-1.307-9.936-3.927-12.712
			c-2.613-2.768-7.271-4.156-13.97-4.156h-5.046v33.385h2.547c6.658,0,11.719-1.347,15.192-4.034
			C212.938,1032.953,214.673,1028.79,214.673,1023.165L214.673,1023.165z"/>
		<path id="path16" inkscape:connector-curvature="0" fill="#0A50A1" d="M321.94,1009.206c5.241,3.078,9.478,7.149,12.704,12.232
			c3.233,5.071,4.842,11.305,4.842,18.709c0,6.474-1.439,12.103-4.333,16.901c-2.879,4.783-6.71,8.718-11.486,11.796
			c-4.843,3.078-10.349,5.344-16.499,6.821c-6.171,1.476-12.623,2.207-19.37,2.207h-43.324v-4.163
			c1.307-0.037,2.923-0.155,4.879-0.332c1.956-0.185,3.248-0.391,3.898-0.642c1.469-0.524,2.48-1.251,3.049-2.178
			c0.568-0.93,0.849-2.045,0.849-3.344V1012.9c0-1.218-0.258-2.314-0.775-3.303c-0.531-0.989-1.55-1.794-3.078-2.399
			c-1.528-0.602-3.152-1.019-4.857-1.244c-1.72-0.225-3.034-0.376-3.96-0.458v-4.174h45.694c4.883,0,10.102,0.565,15.672,1.672
			C311.413,1004.105,316.772,1006.175,321.94,1009.206L321.94,1009.206z M309.567,1064.009c1.986-2.864,3.425-6.282,4.326-10.25
			c0.908-3.975,1.366-8.541,1.366-13.708c0-5.082-0.605-9.696-1.823-13.852c-1.203-4.152-2.979-7.699-5.322-10.648
			c-2.333-2.942-5.249-5.223-8.733-6.828c-3.492-1.62-7.456-2.421-11.892-2.421c-1.41,0-3.012,0.03-4.806,0.085
			c-1.794,0.059-3.13,0.118-4.016,0.155v57.952c0,1.296,0.181,2.432,0.568,3.422c0.376,0.989,1.033,1.845,1.964,2.569
			c0.93,0.768,2.067,1.358,3.418,1.783c1.358,0.428,3.123,0.635,5.293,0.635c4.555,0,8.467-0.757,11.73-2.263
			C304.917,1069.121,307.552,1066.914,309.567,1064.009L309.567,1064.009z"/>
		<path id="path18" inkscape:connector-curvature="0" fill="#0A50A1" d="M423.758,1042.83c2.569,1.58,4.665,3.565,6.289,5.965
			c1.602,2.403,2.421,5.219,2.421,8.445c0,3.875-0.926,7.153-2.765,9.836c-1.834,2.683-4.477,4.791-7.899,6.323
			c-3.639,1.653-7.825,2.816-12.564,3.48c-4.736,0.668-10.327,0.993-16.746,0.993h-44.62v-4.167
			c1.266-0.122,2.849-0.284,4.758-0.487c1.908-0.199,3.252-0.45,4.019-0.727c1.506-0.561,2.532-1.281,3.078-2.156
			c0.554-0.871,0.83-2.015,0.83-3.432v-54.006c0-1.292-0.229-2.37-0.672-3.219c-0.45-0.842-1.521-1.595-3.241-2.24
			c-1.255-0.487-2.717-0.882-4.385-1.188c-1.661-0.299-3.123-0.557-4.392-0.757v-4.171h46.69c11.745,0,20.226,1.436,25.431,4.311
			c5.204,2.879,7.81,7.135,7.81,12.756c0,2.598-0.583,4.872-1.757,6.836c-1.163,1.964-2.842,3.676-5.02,5.138
			c-1.971,1.336-4.326,2.488-7.072,3.455c-2.746,0.978-5.684,1.79-8.829,2.429v1.078c3.145,0.288,6.415,0.893,9.803,1.849
			C418.31,1040.125,421.263,1041.339,423.758,1042.83L423.758,1042.83z M404.373,1019.732c0-4.237-1.344-7.533-4.031-9.899
			c-2.694-2.358-6.725-3.536-12.099-3.536c-0.768,0-1.764,0.026-3.004,0.089c-1.225,0.059-2.285,0.114-3.171,0.155v28.324h3.148
			c6.548,0,11.376-1.366,14.491-4.086C402.816,1028.059,404.373,1024.375,404.373,1019.732L404.373,1019.732z M408.544,1056.535
			c0-5.26-1.779-9.305-5.315-12.125c-3.551-2.835-8.652-4.248-15.303-4.248c-0.76,0-1.786,0.033-3.049,0.092
			c-1.277,0.059-2.207,0.111-2.813,0.148v27.749c0.362,1.314,1.499,2.451,3.388,3.366c1.89,0.923,4.193,1.388,6.895,1.388
			c4.795,0,8.696-1.439,11.686-4.304C407.045,1065.733,408.544,1061.709,408.544,1056.535L408.544,1056.535z"/>
		<path id="path20" inkscape:connector-curvature="0" fill="#0A50A1" d="M470.995,1071.542c0,3.665-0.709,7.386-2.126,11.161
			c-1.41,3.772-3.425,7.005-6.046,9.715c-2.872,2.938-6.341,5.234-10.416,6.898c-4.082,1.646-8.74,2.473-13.989,2.473
			c-4.879,0-8.644-0.834-11.294-2.514c-2.643-1.679-3.964-3.938-3.964-6.766c0-1.019,0.14-1.956,0.399-2.827
			c0.258-0.864,0.812-1.768,1.661-2.698c0.65-0.812,1.646-1.487,2.99-2.026c1.358-0.55,2.879-0.819,4.577-0.819
			c3.344,0,5.92,1.059,7.736,3.193c1.823,2.126,3.669,5.348,5.566,9.648c1.654-0.816,2.872-2.562,3.661-5.245
			c0.782-2.702,1.174-8.526,1.174-17.48v-37.072c0-1.244-0.303-2.336-0.908-3.277c-0.605-0.945-1.439-1.742-2.495-2.392
			c-0.768-0.48-1.993-0.923-3.676-1.321c-1.683-0.402-3.174-0.664-4.466-0.782v-4.174l30.709-1.44l0.904,0.838v46.908H470.995z
			 M471.305,1004.481c0,2.739-1.174,5.064-3.543,6.976c-2.355,1.912-5.145,2.864-8.378,2.864c-3.27,0-6.083-0.952-8.445-2.864
			c-2.362-1.912-3.536-4.237-3.536-6.976c0-2.739,1.174-5.075,3.536-7.002c2.362-1.93,5.175-2.897,8.445-2.897
			s6.075,0.967,8.423,2.897C470.146,999.406,471.305,1001.743,471.305,1004.481z"/>
		<ellipse id="ellipse22" fill="#F00031" cx="458.638" cy="1005.338" rx="13.745" ry="11.361"/>
		<path id="path24" inkscape:connector-curvature="0" fill="#3A58A1" d="M170.456,1089.019c0,0.746-0.148,1.403-0.443,1.967
			c-0.295,0.572-0.694,1.052-1.207,1.425c-0.506,0.369-1.067,0.646-1.676,0.819c-0.613,0.177-1.262,0.262-1.938,0.262h-1.606v4.315
			c0,0.233,0.041,0.439,0.114,0.609c0.081,0.181,0.236,0.321,0.472,0.413c0.125,0.044,0.332,0.081,0.635,0.129
			c0.299,0.041,0.572,0.063,0.827,0.07v0.72h-6.057v-0.72c0.155-0.015,0.388-0.037,0.687-0.07c0.306-0.037,0.513-0.078,0.631-0.129
			c0.199-0.089,0.347-0.218,0.432-0.38c0.092-0.17,0.133-0.376,0.133-0.642v-10.265c0-0.236-0.033-0.447-0.1-0.635
			c-0.07-0.185-0.233-0.321-0.491-0.417c-0.262-0.092-0.524-0.155-0.786-0.192c-0.258-0.03-0.48-0.063-0.668-0.07v-0.727h6.544
			c1.332,0,2.414,0.318,3.241,0.96C170.042,1087.099,170.456,1087.952,170.456,1089.019L170.456,1089.019z M167.399,1091.44
			c0.229-0.317,0.384-0.65,0.45-0.989c0.074-0.347,0.118-0.65,0.118-0.93c0-0.377-0.052-0.764-0.14-1.152
			c-0.089-0.395-0.251-0.742-0.465-1.037c-0.236-0.306-0.539-0.546-0.93-0.727c-0.376-0.17-0.856-0.255-1.425-0.255h-1.417v6.26
			h1.026c0.716,0,1.307-0.111,1.764-0.332C166.831,1092.053,167.178,1091.772,167.399,1091.44L167.399,1091.44z"/>
		<path id="path26" inkscape:connector-curvature="0" fill="#3A58A1" d="M179.41,1091.108c0,0.34-0.085,0.642-0.244,0.904
			c-0.173,0.266-0.428,0.399-0.775,0.399c-0.369,0-0.657-0.1-0.849-0.292c-0.199-0.196-0.295-0.421-0.295-0.664
			c0-0.144,0.007-0.284,0.03-0.399c0.022-0.125,0.052-0.247,0.074-0.369c-0.317,0-0.694,0.133-1.118,0.391
			c-0.417,0.266-0.779,0.631-1.078,1.115v5.758c0,0.236,0.048,0.421,0.137,0.568c0.089,0.148,0.236,0.258,0.424,0.328
			c0.17,0.063,0.376,0.118,0.642,0.151c0.262,0.037,0.495,0.063,0.687,0.07v0.679h-5.219v-0.679
			c0.151-0.015,0.306-0.026,0.469-0.041s0.31-0.037,0.428-0.074c0.185-0.063,0.325-0.173,0.417-0.321
			c0.085-0.148,0.133-0.347,0.133-0.579v-6.079c0-0.203-0.048-0.402-0.151-0.602c-0.089-0.203-0.229-0.365-0.399-0.484
			c-0.133-0.074-0.277-0.137-0.458-0.173c-0.17-0.033-0.354-0.063-0.557-0.081v-0.679l3.311-0.24l0.14,0.14v1.399h0.044
			c0.421-0.539,0.886-0.96,1.388-1.24c0.509-0.277,0.974-0.424,1.403-0.424c0.413,0,0.753,0.14,1.026,0.417
			C179.277,1090.281,179.41,1090.646,179.41,1091.108L179.41,1091.108z"/>
		<path id="path28" inkscape:connector-curvature="0" fill="#3A58A1" d="M189.87,1094.729c0,0.698-0.111,1.377-0.325,2.048
			c-0.229,0.675-0.539,1.248-0.945,1.709c-0.458,0.535-0.989,0.938-1.602,1.192c-0.602,0.266-1.284,0.395-2.034,0.395
			c-0.624,0-1.229-0.118-1.798-0.354c-0.561-0.24-1.063-0.583-1.506-1.037c-0.428-0.447-0.782-0.997-1.033-1.639
			c-0.258-0.653-0.384-1.373-0.384-2.17c0-1.55,0.443-2.813,1.344-3.794c0.893-0.982,2.074-1.476,3.529-1.476
			c1.373,0,2.514,0.472,3.41,1.403C189.42,1091.935,189.87,1093.175,189.87,1094.729z M187.788,1094.743
			c0-0.502-0.055-1.03-0.155-1.583c-0.096-0.568-0.244-1.034-0.443-1.425c-0.214-0.41-0.495-0.745-0.834-0.996
			c-0.347-0.247-0.768-0.377-1.262-0.377c-0.517,0-0.945,0.133-1.314,0.384c-0.354,0.258-0.65,0.605-0.871,1.048
			c-0.214,0.399-0.362,0.871-0.45,1.388c-0.081,0.517-0.126,1.033-0.126,1.513c0,0.642,0.052,1.24,0.148,1.786
			c0.103,0.546,0.262,1.033,0.495,1.462c0.229,0.424,0.509,0.76,0.856,1.004c0.34,0.244,0.76,0.362,1.262,0.362
			c0.834,0,1.476-0.402,1.971-1.207C187.545,1097.29,187.788,1096.164,187.788,1094.743L187.788,1094.743z"/>
		<path id="path30" inkscape:connector-curvature="0" fill="#3A58A1" d="M197.455,1099.317c-0.439,0.177-0.849,0.332-1.236,0.458
			c-0.391,0.118-0.864,0.173-1.432,0.173c-0.834,0-1.417-0.207-1.761-0.624c-0.336-0.421-0.506-1.008-0.506-1.772v-6.707h-1.772
			v-0.967h1.809v-3.086h1.827v3.086h2.875v0.967h-2.857v5.536c0,0.421,0.022,0.764,0.044,1.045c0.033,0.277,0.107,0.52,0.221,0.727
			c0.103,0.196,0.266,0.343,0.484,0.443c0.214,0.1,0.506,0.151,0.867,0.151c0.166,0,0.417-0.011,0.742-0.044
			c0.325-0.03,0.557-0.07,0.694-0.118V1099.317L197.455,1099.317z"/>
		<path id="path32" inkscape:connector-curvature="0" fill="#3A58A1" d="M207.158,1097.453c-0.413,0.79-0.967,1.414-1.657,1.879
			c-0.694,0.461-1.495,0.709-2.392,0.709c-0.786,0-1.487-0.148-2.082-0.428c-0.594-0.281-1.089-0.657-1.469-1.144
			c-0.388-0.48-0.683-1.048-0.864-1.69c-0.196-0.642-0.288-1.314-0.288-2.034c0-0.639,0.1-1.27,0.303-1.893
			c0.21-0.613,0.502-1.166,0.897-1.668c0.376-0.472,0.853-0.849,1.414-1.144c0.557-0.295,1.192-0.436,1.89-0.436
			c0.72,0,1.34,0.111,1.845,0.34c0.513,0.229,0.93,0.531,1.248,0.93c0.31,0.369,0.531,0.812,0.687,1.314
			c0.148,0.509,0.225,1.063,0.225,1.646v0.664h-6.503c0,0.65,0.059,1.248,0.185,1.779c0.126,0.539,0.325,1.004,0.591,1.41
			c0.266,0.399,0.598,0.701,1.026,0.926c0.421,0.225,0.923,0.343,1.506,0.343c0.598,0,1.107-0.144,1.543-0.421
			c0.436-0.288,0.849-0.786,1.255-1.506L207.158,1097.453z M204.907,1093.655c0-0.373-0.03-0.775-0.096-1.192
			c-0.059-0.424-0.162-0.779-0.295-1.067c-0.148-0.303-0.362-0.557-0.62-0.742c-0.266-0.196-0.598-0.295-1.011-0.295
			c-0.694,0-1.262,0.295-1.727,0.875c-0.458,0.579-0.709,1.384-0.746,2.421H204.907L204.907,1093.655z"/>
		<path id="path34" inkscape:connector-curvature="0" fill="#3A58A1" d="M213.108,1099.748h-4.769v-0.679
			c0.151-0.015,0.31-0.026,0.472-0.041c0.162-0.015,0.299-0.037,0.424-0.074c0.185-0.063,0.325-0.173,0.41-0.321
			c0.092-0.148,0.14-0.347,0.14-0.579v-6.079c0-0.21-0.055-0.402-0.148-0.579c-0.103-0.181-0.233-0.325-0.41-0.443
			c-0.125-0.085-0.31-0.144-0.55-0.207c-0.24-0.055-0.465-0.092-0.657-0.1v-0.69l3.503-0.24l0.148,0.14v8.065
			c0,0.233,0.041,0.428,0.129,0.583c0.089,0.155,0.225,0.269,0.417,0.339c0.151,0.059,0.288,0.111,0.428,0.148
			c0.137,0.037,0.292,0.063,0.461,0.078V1099.748L213.108,1099.748z M211.868,1085.793c0,0.388-0.126,0.72-0.369,1.008
			c-0.258,0.288-0.568,0.432-0.93,0.432c-0.34,0-0.635-0.137-0.893-0.41c-0.244-0.277-0.376-0.587-0.376-0.934
			c0-0.373,0.133-0.698,0.376-0.967c0.258-0.281,0.554-0.417,0.893-0.417c0.376,0,0.694,0.129,0.938,0.388
			C211.75,1085.154,211.868,1085.453,211.868,1085.793z"/>
		<path id="path36" inkscape:connector-curvature="0" fill="#3A58A1" d="M225.31,1099.748h-4.894v-0.679
			c0.159-0.015,0.332-0.026,0.524-0.041c0.192-0.015,0.347-0.037,0.472-0.074c0.192-0.063,0.34-0.162,0.428-0.321
			c0.096-0.148,0.148-0.347,0.148-0.579v-5.068c0-0.694-0.177-1.236-0.509-1.613c-0.332-0.38-0.731-0.565-1.211-0.565
			c-0.354,0-0.687,0.052-0.974,0.162c-0.295,0.107-0.561,0.244-0.79,0.402c-0.229,0.155-0.399,0.317-0.524,0.495
			c-0.133,0.17-0.236,0.317-0.288,0.421v5.662c0,0.229,0.044,0.413,0.14,0.561c0.103,0.148,0.236,0.258,0.428,0.332
			c0.148,0.074,0.303,0.118,0.472,0.155c0.162,0.037,0.347,0.059,0.517,0.067v0.686h-4.894v-0.686
			c0.155-0.007,0.31-0.022,0.472-0.037c0.162-0.015,0.303-0.037,0.428-0.074c0.185-0.066,0.325-0.162,0.406-0.325
			c0.096-0.148,0.14-0.34,0.14-0.576v-6.075c0-0.233-0.052-0.436-0.148-0.627c-0.1-0.185-0.233-0.34-0.41-0.465
			c-0.122-0.074-0.273-0.133-0.447-0.17c-0.177-0.037-0.365-0.059-0.565-0.074v-0.679l3.311-0.244l0.137,0.14v1.417h0.055
			c0.162-0.155,0.362-0.347,0.602-0.568c0.244-0.229,0.465-0.406,0.683-0.554c0.247-0.155,0.546-0.295,0.882-0.391
			c0.347-0.111,0.723-0.162,1.159-0.162c0.949,0,1.657,0.295,2.111,0.878c0.465,0.591,0.69,1.38,0.69,2.362v5.123
			c0,0.236,0.037,0.421,0.122,0.568c0.077,0.148,0.214,0.258,0.41,0.332c0.17,0.066,0.31,0.111,0.424,0.14
			c0.118,0.03,0.281,0.044,0.487,0.063v0.679H225.31z"/>
		<path id="path38" inkscape:connector-curvature="0" fill="#3A58A1" d="M245.334,1092.71c0,1.214-0.225,2.266-0.683,3.156
			c-0.458,0.89-1.052,1.62-1.779,2.189c-0.731,0.568-1.558,0.989-2.48,1.277c-0.915,0.281-1.864,0.417-2.842,0.417h-5.898v-0.72
			c0.192,0,0.45-0.022,0.768-0.052c0.314-0.041,0.524-0.081,0.624-0.133c0.203-0.081,0.347-0.214,0.439-0.384
			c0.089-0.17,0.133-0.376,0.133-0.613v-10.261c0-0.236-0.037-0.436-0.118-0.616c-0.077-0.185-0.233-0.325-0.454-0.432
			c-0.21-0.103-0.443-0.17-0.679-0.225c-0.251-0.041-0.458-0.078-0.624-0.085v-0.727h6.216c0.856,0,1.705,0.14,2.528,0.402
			c0.827,0.262,1.554,0.62,2.17,1.067c0.838,0.602,1.495,1.377,1.967,2.344C245.094,1090.274,245.334,1091.411,245.334,1092.71
			L245.334,1092.71z M242.879,1092.71c0-0.949-0.118-1.812-0.376-2.584c-0.251-0.768-0.627-1.439-1.115-2.011
			c-0.465-0.543-1.026-0.971-1.698-1.292c-0.675-0.31-1.428-0.469-2.244-0.469c-0.281,0-0.591,0-0.93,0.015
			c-0.347,0.011-0.605,0.022-0.775,0.03v10.91c0,0.605,0.177,1.026,0.539,1.262c0.354,0.229,0.893,0.34,1.639,0.34
			c0.842,0,1.594-0.148,2.229-0.447c0.635-0.303,1.152-0.716,1.543-1.255c0.406-0.557,0.723-1.207,0.901-1.938
			C242.791,1094.526,242.879,1093.677,242.879,1092.71L242.879,1092.71z"/>
		<path id="path40" inkscape:connector-curvature="0" fill="#3A58A1" d="M256.189,1099.564c-0.317,0.115-0.591,0.21-0.827,0.277
			c-0.247,0.07-0.517,0.107-0.812,0.107c-0.524,0-0.941-0.122-1.248-0.362c-0.317-0.247-0.509-0.605-0.605-1.067h-0.059
			c-0.428,0.48-0.893,0.841-1.395,1.1c-0.495,0.244-1.093,0.369-1.786,0.369c-0.746,0-1.344-0.225-1.823-0.683
			c-0.472-0.447-0.709-1.045-0.709-1.772c0-0.376,0.052-0.716,0.162-1.019c0.096-0.306,0.258-0.565,0.472-0.808
			c0.162-0.199,0.391-0.373,0.657-0.539c0.273-0.155,0.531-0.281,0.768-0.369c0.303-0.118,0.908-0.325,1.831-0.627
			c0.908-0.31,1.528-0.546,1.845-0.723v-0.982c0-0.081-0.018-0.251-0.059-0.495c-0.03-0.244-0.111-0.48-0.229-0.694
			c-0.133-0.251-0.317-0.465-0.561-0.642c-0.244-0.185-0.594-0.281-1.033-0.281c-0.303,0-0.587,0.059-0.849,0.155
			c-0.255,0.111-0.443,0.207-0.55,0.325c0,0.133,0.033,0.325,0.092,0.583c0.063,0.251,0.1,0.495,0.1,0.709
			c0,0.233-0.111,0.439-0.314,0.631c-0.221,0.196-0.502,0.288-0.886,0.288c-0.332,0-0.576-0.114-0.731-0.351
			c-0.162-0.236-0.244-0.502-0.244-0.797c0-0.303,0.111-0.598,0.325-0.886c0.221-0.281,0.509-0.524,0.845-0.738
			c0.299-0.199,0.664-0.347,1.089-0.48c0.424-0.133,0.845-0.192,1.248-0.192c0.565,0,1.056,0.037,1.469,0.111
			c0.421,0.07,0.797,0.24,1.129,0.495c0.34,0.244,0.594,0.579,0.771,1c0.181,0.424,0.273,0.963,0.273,1.642
			c0,0.945-0.011,1.794-0.026,2.525c-0.011,0.734-0.022,1.539-0.022,2.414c0,0.258,0.048,0.461,0.14,0.616
			c0.085,0.148,0.221,0.277,0.41,0.388c0.1,0.066,0.255,0.096,0.48,0.103c0.207,0,0.432,0.011,0.657,0.011v0.657l0,0H256.189z
			 M252.675,1094.293c-0.568,0.162-1.063,0.325-1.484,0.491c-0.428,0.162-0.819,0.362-1.181,0.605
			c-0.332,0.218-0.598,0.495-0.79,0.801c-0.199,0.31-0.295,0.683-0.295,1.107c0,0.557,0.148,0.956,0.428,1.222
			c0.295,0.262,0.657,0.384,1.107,0.384c0.472,0,0.89-0.107,1.248-0.336c0.362-0.233,0.664-0.506,0.915-0.819L252.675,1094.293z"/>
		<path id="path42" inkscape:connector-curvature="0" fill="#3A58A1" d="M263.335,1099.317c-0.443,0.177-0.856,0.332-1.248,0.458
			c-0.384,0.118-0.864,0.173-1.432,0.173c-0.827,0-1.417-0.207-1.75-0.624c-0.347-0.421-0.509-1.008-0.509-1.772v-6.707h-1.772
			v-0.967h1.816v-3.086h1.82v3.086h2.875v0.967h-2.857v5.536c0,0.421,0.015,0.764,0.044,1.045c0.03,0.277,0.103,0.52,0.221,0.727
			c0.103,0.196,0.266,0.343,0.487,0.443c0.207,0.1,0.502,0.151,0.864,0.151c0.17,0,0.413-0.011,0.746-0.044
			c0.325-0.03,0.554-0.07,0.687-0.118v0.731H263.335L263.335,1099.317z"/>
		<path id="path44" inkscape:connector-curvature="0" fill="#3A58A1" d="M273.632,1099.564c-0.317,0.115-0.591,0.21-0.834,0.277
			c-0.229,0.07-0.502,0.107-0.805,0.107c-0.524,0-0.945-0.122-1.248-0.362c-0.31-0.247-0.517-0.605-0.598-1.067h-0.059
			c-0.439,0.48-0.901,0.841-1.395,1.1c-0.495,0.244-1.1,0.369-1.794,0.369c-0.738,0-1.351-0.225-1.816-0.683
			c-0.48-0.447-0.723-1.045-0.723-1.772c0-0.376,0.052-0.716,0.162-1.019c0.107-0.306,0.262-0.565,0.476-0.808
			c0.17-0.199,0.388-0.373,0.661-0.539c0.281-0.155,0.535-0.281,0.771-0.369c0.295-0.118,0.908-0.325,1.82-0.627
			c0.915-0.31,1.528-0.546,1.849-0.723v-0.982c0-0.081-0.015-0.251-0.055-0.495c-0.03-0.244-0.103-0.48-0.233-0.694
			c-0.133-0.251-0.314-0.465-0.557-0.642c-0.244-0.185-0.587-0.281-1.033-0.281c-0.303,0-0.583,0.059-0.842,0.155
			c-0.266,0.111-0.45,0.207-0.561,0.325c0,0.133,0.037,0.325,0.103,0.583c0.059,0.251,0.096,0.495,0.096,0.709
			c0,0.233-0.111,0.439-0.317,0.631c-0.214,0.196-0.502,0.288-0.878,0.288c-0.34,0-0.591-0.114-0.738-0.351
			c-0.155-0.236-0.236-0.502-0.236-0.797c0-0.303,0.107-0.598,0.321-0.886c0.218-0.281,0.498-0.524,0.845-0.738
			c0.295-0.199,0.657-0.347,1.092-0.48c0.424-0.133,0.834-0.192,1.248-0.192c0.554,0,1.041,0.037,1.462,0.111
			c0.413,0.07,0.797,0.24,1.137,0.495c0.34,0.244,0.591,0.579,0.775,1c0.177,0.424,0.258,0.963,0.258,1.642
			c0,0.945-0.007,1.794-0.022,2.525c-0.015,0.734-0.015,1.539-0.015,2.414c0,0.258,0.044,0.461,0.133,0.616
			c0.081,0.148,0.221,0.277,0.413,0.388c0.092,0.066,0.258,0.096,0.472,0.103c0.214,0,0.436,0.011,0.664,0.011V1099.564
			L273.632,1099.564L273.632,1099.564z M270.126,1094.293c-0.576,0.162-1.07,0.325-1.499,0.491
			c-0.421,0.162-0.819,0.362-1.181,0.605c-0.332,0.218-0.591,0.495-0.79,0.801c-0.192,0.31-0.281,0.683-0.281,1.107
			c0,0.557,0.133,0.956,0.428,1.222c0.288,0.262,0.657,0.384,1.1,0.384c0.472,0,0.886-0.107,1.255-0.336
			c0.354-0.233,0.657-0.506,0.901-0.819L270.126,1094.293z"/>
		<path id="path46" inkscape:connector-curvature="0" fill="#3A58A1" d="M289.946,1093.112c0.413,0.281,0.76,0.65,1.033,1.1
			c0.266,0.458,0.406,1.011,0.406,1.661c0,0.668-0.148,1.236-0.421,1.724c-0.288,0.495-0.672,0.901-1.129,1.207
			c-0.443,0.314-0.945,0.55-1.513,0.705c-0.554,0.162-1.144,0.244-1.735,0.244h-6.718v-0.723c0.162-0.015,0.388-0.037,0.687-0.085
			c0.295-0.041,0.509-0.096,0.642-0.151c0.199-0.096,0.347-0.218,0.428-0.376c0.081-0.162,0.125-0.362,0.125-0.605v-10.224
			c0-0.229-0.037-0.428-0.111-0.598c-0.081-0.177-0.233-0.317-0.465-0.428c-0.199-0.096-0.421-0.177-0.683-0.229
			c-0.247-0.059-0.454-0.089-0.624-0.103v-0.72h6.599c0.506,0,0.997,0.048,1.462,0.151c0.465,0.096,0.908,0.281,1.336,0.528
			c0.391,0.247,0.723,0.561,0.974,0.956c0.251,0.399,0.376,0.886,0.376,1.465c0,0.498-0.081,0.945-0.266,1.333
			c-0.185,0.399-0.436,0.723-0.76,1.011c-0.314,0.262-0.668,0.495-1.07,0.675c-0.391,0.185-0.827,0.325-1.281,0.425v0.092
			c0.402,0.048,0.856,0.148,1.358,0.31C289.105,1092.61,289.555,1092.824,289.946,1093.112L289.946,1093.112z M287.51,1090.96
			c0.251-0.284,0.428-0.594,0.517-0.934c0.103-0.343,0.148-0.742,0.148-1.214c0-0.782-0.214-1.391-0.642-1.831
			c-0.421-0.45-1.107-0.675-2.023-0.675c-0.221,0-0.48,0-0.805,0.015s-0.605,0.022-0.819,0.033v5.452h1.27
			c0.546,0,1.019-0.07,1.41-0.207C286.957,1091.455,287.274,1091.248,287.51,1090.96L287.51,1090.96z M288.942,1095.489
			c0-0.845-0.288-1.532-0.856-2.071c-0.576-0.539-1.388-0.808-2.443-0.808c-0.428,0-0.797,0-1.092,0.015
			c-0.295,0.018-0.517,0.018-0.664,0.022v4.998c0,0.417,0.17,0.734,0.509,0.941c0.347,0.218,0.827,0.325,1.436,0.325
			c1.008,0,1.775-0.292,2.303-0.871C288.669,1097.46,288.942,1096.607,288.942,1095.489L288.942,1095.489z"/>
		<path id="path48" inkscape:connector-curvature="0" fill="#3A58A1" d="M302.37,1099.564c-0.317,0.115-0.591,0.21-0.827,0.277
			c-0.236,0.07-0.517,0.107-0.812,0.107c-0.524,0-0.938-0.122-1.255-0.362c-0.31-0.247-0.509-0.605-0.591-1.067h-0.066
			c-0.428,0.48-0.901,0.841-1.395,1.1c-0.495,0.244-1.085,0.369-1.779,0.369c-0.749,0-1.351-0.225-1.831-0.683
			c-0.472-0.447-0.709-1.045-0.709-1.772c0-0.376,0.052-0.716,0.155-1.019c0.103-0.306,0.266-0.565,0.487-0.808
			c0.162-0.199,0.376-0.373,0.657-0.539c0.266-0.155,0.524-0.281,0.76-0.369c0.303-0.118,0.908-0.325,1.831-0.627
			c0.908-0.31,1.528-0.546,1.845-0.723v-0.982c0-0.081-0.015-0.251-0.055-0.495c-0.037-0.244-0.118-0.48-0.229-0.694
			c-0.144-0.251-0.328-0.465-0.568-0.642c-0.24-0.185-0.587-0.281-1.022-0.281c-0.306,0-0.594,0.059-0.856,0.155
			c-0.262,0.111-0.439,0.207-0.55,0.325c0,0.133,0.033,0.325,0.092,0.583c0.063,0.251,0.096,0.495,0.096,0.709
			c0,0.233-0.103,0.439-0.314,0.631c-0.214,0.196-0.506,0.288-0.882,0.288c-0.332,0-0.576-0.114-0.731-0.351
			c-0.162-0.236-0.24-0.502-0.24-0.797c0-0.303,0.107-0.598,0.325-0.886c0.214-0.281,0.502-0.524,0.842-0.738
			c0.306-0.199,0.668-0.347,1.096-0.48c0.421-0.133,0.842-0.192,1.24-0.192c0.568,0,1.056,0.037,1.476,0.111
			c0.413,0.07,0.782,0.24,1.122,0.495c0.347,0.244,0.598,0.579,0.775,1c0.177,0.424,0.273,0.963,0.273,1.642
			c0,0.945-0.007,1.794-0.03,2.525c-0.007,0.734-0.015,1.539-0.015,2.414c0,0.258,0.044,0.461,0.125,0.616
			c0.096,0.148,0.236,0.277,0.421,0.388c0.103,0.066,0.251,0.096,0.469,0.103c0.218,0,0.439,0.011,0.664,0.011v0.657l0,0H302.37z
			 M298.856,1094.293c-0.561,0.162-1.056,0.325-1.484,0.491c-0.421,0.162-0.819,0.362-1.181,0.605
			c-0.332,0.218-0.598,0.495-0.794,0.801c-0.192,0.31-0.292,0.683-0.292,1.107c0,0.557,0.148,0.956,0.436,1.222
			c0.295,0.262,0.657,0.384,1.1,0.384c0.48,0,0.893-0.107,1.248-0.336c0.365-0.233,0.672-0.506,0.915-0.819L298.856,1094.293z"/>
		<path id="path50" inkscape:connector-curvature="0" fill="#3A58A1" d="M314.329,1099.748h-4.898v-0.679
			c0.162-0.015,0.328-0.026,0.524-0.041c0.188-0.015,0.351-0.037,0.472-0.074c0.192-0.063,0.332-0.162,0.428-0.321
			c0.089-0.148,0.137-0.347,0.137-0.579v-5.068c0-0.694-0.162-1.236-0.495-1.613c-0.332-0.38-0.738-0.565-1.214-0.565
			c-0.354,0-0.679,0.052-0.982,0.162c-0.295,0.107-0.557,0.244-0.783,0.402c-0.225,0.155-0.402,0.317-0.52,0.495
			c-0.137,0.17-0.236,0.317-0.295,0.421v5.662c0,0.229,0.052,0.413,0.148,0.561c0.089,0.148,0.236,0.258,0.428,0.332
			c0.148,0.074,0.303,0.118,0.465,0.155c0.17,0.037,0.34,0.059,0.531,0.067v0.686h-4.902v-0.686c0.148-0.007,0.31-0.022,0.472-0.037
			c0.162-0.015,0.303-0.037,0.421-0.074c0.192-0.066,0.325-0.162,0.413-0.325c0.096-0.148,0.133-0.34,0.133-0.576v-6.075
			c0-0.233-0.044-0.436-0.14-0.627c-0.096-0.185-0.229-0.34-0.406-0.465c-0.125-0.074-0.281-0.133-0.45-0.17
			c-0.177-0.037-0.365-0.059-0.568-0.074v-0.679l3.314-0.244l0.14,0.14v1.417h0.052c0.155-0.155,0.362-0.347,0.605-0.568
			c0.236-0.229,0.465-0.406,0.679-0.554c0.244-0.155,0.539-0.295,0.878-0.391c0.347-0.111,0.731-0.162,1.166-0.162
			c0.945,0,1.654,0.295,2.108,0.878c0.458,0.591,0.69,1.38,0.69,2.362v5.123c0,0.236,0.041,0.421,0.122,0.568
			c0.078,0.148,0.218,0.258,0.41,0.332c0.162,0.066,0.303,0.111,0.428,0.14c0.118,0.03,0.273,0.044,0.487,0.063V1099.748
			L314.329,1099.748z"/>
		<path id="path52" inkscape:connector-curvature="0" fill="#3A58A1" d="M325.985,1099.748h-2.92
			c-0.517-0.757-1.081-1.569-1.683-2.436c-0.602-0.86-1.214-1.705-1.86-2.525l-0.842,0.782v2.34c0,0.232,0.048,0.439,0.129,0.594
			c0.096,0.155,0.236,0.266,0.436,0.339c0.162,0.067,0.325,0.118,0.472,0.155c0.151,0.03,0.332,0.059,0.524,0.067v0.679h-4.898
			v-0.679c0.159-0.015,0.314-0.022,0.484-0.044c0.162-0.015,0.299-0.044,0.41-0.067c0.188-0.066,0.328-0.177,0.417-0.325
			c0.096-0.148,0.14-0.347,0.14-0.583v-11.438c0-0.244-0.059-0.476-0.155-0.694c-0.111-0.214-0.251-0.376-0.413-0.495
			c-0.148-0.107-0.369-0.177-0.672-0.207c-0.295-0.033-0.539-0.055-0.723-0.07v-0.683l3.713-0.24l0.14,0.148v10.486
			c0.517-0.513,1.085-1.07,1.683-1.676c0.605-0.594,1.115-1.122,1.528-1.594c0.052-0.059,0.111-0.14,0.177-0.24
			c0.059-0.1,0.096-0.177,0.096-0.24c0-0.177-0.148-0.317-0.439-0.399c-0.292-0.089-0.565-0.155-0.838-0.188v-0.679h4.329v0.679
			c-0.565,0.162-1.056,0.369-1.484,0.62c-0.428,0.24-0.753,0.461-0.989,0.664c-0.155,0.129-0.388,0.339-0.672,0.642
			c-0.292,0.303-0.705,0.687-1.233,1.174c0.539,0.672,1.163,1.476,1.842,2.421c0.683,0.938,1.177,1.617,1.495,2.037
			c0.295,0.391,0.561,0.65,0.79,0.768c0.233,0.118,0.572,0.196,1.015,0.222V1099.748L325.985,1099.748z"/>
		<path id="path54" inkscape:connector-curvature="0" fill="#3A58A1" d="M340.904,1086.228c-0.196,0.015-0.436,0.033-0.716,0.081
			c-0.295,0.044-0.531,0.096-0.731,0.162c-0.244,0.081-0.391,0.214-0.484,0.399c-0.078,0.192-0.122,0.391-0.122,0.616v8.449
			c0,0.443-0.081,0.915-0.266,1.406c-0.17,0.495-0.436,0.938-0.782,1.325c-0.391,0.458-0.856,0.812-1.403,1.063
			c-0.539,0.258-1.163,0.38-1.868,0.38c-1.089,0-1.971-0.306-2.65-0.919c-0.672-0.613-1.019-1.44-1.019-2.477
			c0-0.454,0.118-0.856,0.354-1.214c0.236-0.347,0.579-0.524,1.037-0.524c0.402,0,0.727,0.118,0.971,0.339
			c0.24,0.225,0.373,0.524,0.373,0.897c0,0.218-0.048,0.436-0.14,0.653c-0.078,0.214-0.173,0.399-0.284,0.568
			c-0.103,0.155-0.221,0.34-0.351,0.55c-0.122,0.207-0.214,0.395-0.269,0.565c0.14,0.225,0.362,0.417,0.657,0.587
			c0.303,0.17,0.701,0.258,1.203,0.258c0.491,0,0.886-0.118,1.196-0.343c0.317-0.222,0.546-0.524,0.709-0.901
			c0.148-0.347,0.244-0.782,0.31-1.284c0.059-0.517,0.096-1.085,0.096-1.713v-7.566c0-0.229-0.041-0.428-0.118-0.591
			c-0.078-0.148-0.229-0.292-0.465-0.413c-0.214-0.111-0.465-0.192-0.775-0.251c-0.317-0.052-0.568-0.089-0.768-0.103v-0.723h6.297
			v0.723H340.904L340.904,1086.228z"/>
		<path id="path56" inkscape:connector-curvature="0" fill="#3A58A1" d="M351.452,1099.564c-0.317,0.115-0.598,0.21-0.827,0.277
			c-0.236,0.07-0.517,0.107-0.812,0.107c-0.517,0-0.93-0.122-1.255-0.362c-0.31-0.247-0.509-0.605-0.591-1.067h-0.066
			c-0.436,0.48-0.893,0.841-1.395,1.1c-0.487,0.244-1.085,0.369-1.794,0.369c-0.731,0-1.329-0.225-1.816-0.683
			c-0.472-0.447-0.716-1.045-0.716-1.772c0-0.376,0.059-0.716,0.162-1.019c0.103-0.306,0.273-0.565,0.48-0.808
			c0.17-0.199,0.384-0.373,0.664-0.539c0.266-0.155,0.524-0.281,0.768-0.369c0.295-0.118,0.901-0.325,1.816-0.627
			c0.923-0.31,1.535-0.546,1.853-0.723v-0.982c0-0.081-0.022-0.251-0.052-0.495c-0.037-0.244-0.118-0.48-0.229-0.694
			c-0.14-0.251-0.325-0.465-0.568-0.642c-0.244-0.185-0.591-0.281-1.033-0.281c-0.295,0-0.583,0.059-0.849,0.155
			c-0.266,0.111-0.45,0.207-0.546,0.325c0,0.133,0.03,0.325,0.092,0.583c0.063,0.251,0.096,0.495,0.096,0.709
			c0,0.233-0.103,0.439-0.317,0.631c-0.207,0.196-0.506,0.288-0.871,0.288c-0.34,0-0.583-0.114-0.742-0.351
			c-0.159-0.236-0.233-0.502-0.233-0.797c0-0.303,0.1-0.598,0.325-0.886c0.214-0.281,0.491-0.524,0.834-0.738
			c0.306-0.199,0.672-0.347,1.096-0.48c0.428-0.133,0.842-0.192,1.244-0.192c0.565,0,1.052,0.037,1.473,0.111
			c0.41,0.07,0.79,0.24,1.129,0.495c0.336,0.244,0.591,0.579,0.768,1c0.177,0.424,0.266,0.963,0.266,1.642
			c0,0.945,0,1.794-0.018,2.525c-0.018,0.734-0.022,1.539-0.022,2.414c0,0.258,0.052,0.461,0.133,0.616
			c0.096,0.148,0.236,0.277,0.421,0.388c0.1,0.066,0.251,0.096,0.472,0.103c0.214,0,0.436,0.011,0.661,0.011V1099.564
			L351.452,1099.564L351.452,1099.564z M347.939,1094.293c-0.561,0.162-1.056,0.325-1.476,0.491
			c-0.436,0.162-0.827,0.362-1.203,0.605c-0.325,0.218-0.587,0.495-0.779,0.801c-0.196,0.31-0.292,0.683-0.292,1.107
			c0,0.557,0.144,0.956,0.436,1.222c0.295,0.262,0.657,0.384,1.1,0.384c0.476,0,0.893-0.107,1.248-0.336
			c0.362-0.233,0.672-0.506,0.908-0.819L347.939,1094.293z"/>
		<path id="path58" inkscape:connector-curvature="0" fill="#3A58A1" d="M361.521,1091.049c0.399,0.461,0.709,1.011,0.923,1.631
			c0.214,0.62,0.325,1.321,0.325,2.119c0,0.79-0.133,1.499-0.391,2.148c-0.258,0.642-0.605,1.192-1.033,1.65
			c-0.45,0.465-0.945,0.819-1.491,1.067c-0.546,0.251-1.137,0.376-1.75,0.376c-0.598,0-1.085-0.078-1.469-0.207
			c-0.384-0.14-0.687-0.295-0.93-0.473h-0.081v2.949c0,0.236,0.044,0.432,0.14,0.594c0.089,0.162,0.229,0.273,0.421,0.347
			c0.162,0.063,0.384,0.115,0.687,0.177c0.288,0.055,0.531,0.089,0.723,0.092v0.683h-5.536v-0.683
			c0.207-0.011,0.406-0.03,0.598-0.052c0.199-0.015,0.376-0.055,0.531-0.103c0.207-0.059,0.347-0.177,0.428-0.343
			c0.081-0.166,0.118-0.365,0.118-0.591v-10.49c0-0.199-0.044-0.395-0.14-0.576c-0.103-0.188-0.244-0.343-0.406-0.458
			c-0.118-0.081-0.288-0.14-0.502-0.184c-0.221-0.044-0.428-0.074-0.627-0.081v-0.679l3.403-0.251l0.14,0.125v1.144l0.089,0.022
			c0.34-0.399,0.768-0.738,1.284-1.004c0.517-0.273,1.026-0.399,1.543-0.399c0.605,0,1.174,0.125,1.683,0.384
			C360.709,1090.251,361.152,1090.606,361.521,1091.049L361.521,1091.049z M359.897,1098.132c0.266-0.41,0.465-0.897,0.591-1.447
			c0.133-0.55,0.192-1.159,0.192-1.834c0-0.495-0.052-1.004-0.162-1.513c-0.103-0.517-0.273-0.971-0.502-1.344
			c-0.229-0.391-0.524-0.709-0.893-0.945c-0.369-0.251-0.805-0.362-1.329-0.362c-0.495,0-0.915,0.103-1.255,0.325
			c-0.354,0.214-0.65,0.48-0.915,0.782v5.846c0.066,0.185,0.162,0.369,0.295,0.561c0.14,0.192,0.295,0.365,0.458,0.502
			c0.207,0.17,0.436,0.303,0.672,0.413c0.244,0.103,0.539,0.155,0.886,0.155c0.384,0,0.738-0.103,1.092-0.295
			C359.373,1098.774,359.654,1098.497,359.897,1098.132z"/>
		<path id="path60" inkscape:connector-curvature="0" fill="#3A58A1" d="M373.539,1099.564c-0.31,0.115-0.598,0.21-0.819,0.277
			c-0.244,0.07-0.517,0.107-0.819,0.107c-0.524,0-0.945-0.122-1.255-0.362c-0.303-0.247-0.509-0.605-0.591-1.067h-0.066
			c-0.424,0.48-0.901,0.841-1.388,1.1c-0.495,0.244-1.093,0.369-1.79,0.369c-0.738,0-1.347-0.225-1.82-0.683
			c-0.487-0.447-0.712-1.045-0.712-1.772c0-0.376,0.048-0.716,0.151-1.019c0.111-0.306,0.266-0.565,0.487-0.808
			c0.162-0.199,0.376-0.373,0.657-0.539c0.277-0.155,0.531-0.281,0.768-0.369c0.303-0.118,0.904-0.325,1.816-0.627
			c0.915-0.31,1.539-0.546,1.864-0.723v-0.982c0-0.081-0.033-0.251-0.055-0.495c-0.044-0.244-0.118-0.48-0.244-0.694
			c-0.133-0.251-0.317-0.465-0.554-0.642c-0.247-0.185-0.591-0.281-1.033-0.281c-0.31,0-0.583,0.059-0.849,0.155
			c-0.266,0.111-0.45,0.207-0.561,0.325c0,0.133,0.037,0.325,0.103,0.583c0.066,0.251,0.089,0.495,0.089,0.709
			c0,0.233-0.096,0.439-0.314,0.631c-0.21,0.196-0.498,0.288-0.871,0.288c-0.343,0-0.583-0.114-0.742-0.351
			c-0.162-0.236-0.236-0.502-0.236-0.797c0-0.303,0.111-0.598,0.325-0.886c0.214-0.281,0.498-0.524,0.845-0.738
			c0.306-0.199,0.661-0.347,1.092-0.48c0.424-0.133,0.845-0.192,1.248-0.192c0.554,0,1.045,0.037,1.458,0.111
			c0.413,0.07,0.797,0.24,1.133,0.495c0.347,0.244,0.602,0.579,0.775,1c0.181,0.424,0.262,0.963,0.262,1.642
			c0,0.945-0.004,1.794-0.018,2.525c-0.015,0.734-0.015,1.539-0.015,2.414c0,0.258,0.041,0.461,0.133,0.616
			c0.089,0.148,0.221,0.277,0.413,0.388c0.103,0.066,0.258,0.096,0.472,0.103c0.221,0,0.436,0.011,0.664,0.011v0.657l0,0H373.539z
			 M370.033,1094.293c-0.568,0.162-1.056,0.325-1.491,0.491c-0.421,0.162-0.827,0.362-1.189,0.605
			c-0.332,0.218-0.591,0.495-0.79,0.801c-0.185,0.31-0.288,0.683-0.288,1.107c0,0.557,0.155,0.956,0.436,1.222
			c0.295,0.262,0.657,0.384,1.107,0.384c0.472,0,0.878-0.107,1.248-0.336c0.354-0.233,0.657-0.506,0.908-0.819L370.033,1094.293z"/>
		<path id="path62" inkscape:connector-curvature="0" fill="#3A58A1" d="M385.498,1099.748h-4.894v-0.679
			c0.155-0.015,0.328-0.026,0.517-0.041c0.192-0.015,0.354-0.037,0.472-0.074c0.192-0.063,0.347-0.162,0.436-0.321
			c0.096-0.148,0.133-0.347,0.133-0.579v-5.068c0-0.694-0.155-1.236-0.487-1.613c-0.332-0.38-0.746-0.565-1.218-0.565
			c-0.362,0-0.686,0.052-0.982,0.162c-0.288,0.107-0.554,0.244-0.782,0.402c-0.218,0.155-0.399,0.317-0.531,0.495
			c-0.129,0.17-0.221,0.317-0.281,0.421v5.662c0,0.229,0.041,0.413,0.144,0.561c0.089,0.148,0.24,0.258,0.436,0.332
			c0.137,0.074,0.292,0.118,0.465,0.155c0.166,0.037,0.336,0.059,0.517,0.067v0.686h-4.898v-0.686
			c0.151-0.007,0.306-0.022,0.472-0.037c0.159-0.015,0.31-0.037,0.421-0.074c0.188-0.066,0.325-0.162,0.421-0.325
			c0.085-0.148,0.133-0.34,0.133-0.576v-6.075c0-0.233-0.048-0.436-0.144-0.627c-0.1-0.185-0.236-0.34-0.41-0.465
			c-0.133-0.074-0.277-0.133-0.458-0.17c-0.166-0.037-0.351-0.059-0.554-0.074v-0.679l3.314-0.244l0.14,0.14v1.417h0.041
			c0.166-0.155,0.365-0.347,0.609-0.568c0.24-0.229,0.469-0.406,0.683-0.554c0.251-0.155,0.539-0.295,0.886-0.391
			c0.34-0.111,0.727-0.162,1.148-0.162c0.956,0,1.654,0.295,2.126,0.878c0.454,0.591,0.683,1.38,0.683,2.362v5.123
			c0,0.236,0.041,0.421,0.118,0.568c0.081,0.148,0.221,0.258,0.413,0.332c0.166,0.066,0.306,0.111,0.424,0.14
			c0.122,0.03,0.284,0.044,0.483,0.063v0.675h0.004V1099.748z"/>
	</g>
</g>
</svg>
