<?xml version="1.0" ?><svg height="512" id="Layer_1" version="1.1" viewBox="0 0 512 512" width="512" xml:space="preserve" xmlns="http://www.w3.org/2000/svg" xmlns:cc="http://creativecommons.org/ns#" xmlns:dc="http://purl.org/dc/elements/1.1/" xmlns:inkscape="http://www.inkscape.org/namespaces/inkscape" xmlns:rdf="http://www.w3.org/1999/02/22-rdf-syntax-ns#" xmlns:sodipodi="http://sodipodi.sourceforge.net/DTD/sodipodi-0.dtd" xmlns:svg="http://www.w3.org/2000/svg"><defs id="defs12"/><g id="g2995"><rect height="512" id="rect2987" rx="64" ry="64" style="fill:#00abf1;fill-opacity:1;fill-rule:nonzero;stroke:none" width="512" x="0" y="5.6843419e-014"/><path d="m 354.94415,355.98152 h -98.7021 c -13.7217,0 -25.3908,-4.8011 -34.9742,-14.4425 -9.6274,-9.6541 -14.3894,-21.3184 -14.3894,-35.1091 v -35.1232 h 140.6368 c 12.6877,0 23.6094,-4.56452 32.6836,-13.61992 9.0694,-9.12435 13.6245,-20.03815 13.6245,-32.73985 0,-12.74087 -4.5551,-23.639 -13.6559,-32.73984 -9.0992,-9.07421 -20.0523,-13.62463 -32.7931,-13.62463 h -140.4975 v -72.56389 c 0,-13.734317 -4.8951,-25.491137 -14.6243,-35.287697 -9.6806,-9.80755 -21.392,-14.73091 -34.9978,-14.73091 -13.9882,0 -25.8923,4.84659 -35.5744,14.44258 -9.7167,9.62734 -14.5696,21.48915 -14.5696,35.615197 v 200.40506 c 0,41.2202 14.5696,76.4311 43.7226,105.6563 29.1766,29.28 64.3515,43.8809 105.4699,43.8809 h 98.6724 c 13.7029,0 25.4629,-4.9203 35.2406,-14.7325 9.7889,-9.7684 14.673,-21.5472 14.673,-35.2688 0,-13.7203 -4.8841,-25.4851 -14.673,-35.2925 -9.7793,-9.7872 -21.5627,-14.7247 -35.2721,-14.7247 z" id="Twitter_3_" style="fill:#ffffff"/></g></svg>