<?xml version="1.0" encoding="utf-8"?>
<!-- Generator: Adobe Illustrator 16.0.0, SVG Export Plug-In . SVG Version: 6.00 Build 0)  -->
<!DOCTYPE svg PUBLIC "-//W3C//DTD SVG 1.1//EN" "http://www.w3.org/Graphics/SVG/1.1/DTD/svg11.dtd">
<svg version="1.1" id="レイヤー_1" xmlns="http://www.w3.org/2000/svg" xmlns:xlink="http://www.w3.org/1999/xlink" x="0px"
	 y="0px" width="150px" height="150px" viewBox="222.64 345.945 150 150" enable-background="new 222.64 345.945 150 150"
	 xml:space="preserve">
<path fill="#C4651A" d="M363.86,364.377H231.42v89.71H363.86V364.377L363.86,364.377z M353.7,443.631
	c0,0.164-0.134,0.298-0.299,0.298H241.877c-0.165-0.004-0.299-0.134-0.299-0.298v-68.797c0-0.163,0.134-0.3,0.299-0.3h111.524
	c0.165,0,0.297,0.137,0.297,0.3v68.797H353.7z"/>
<path fill="#C4651A" d="M223.29,461.866v5.343c0,5.682,4.619,10.304,10.302,10.304h128.094c5.684,0,10.304-4.622,10.304-10.304
	v-5.343H223.29L223.29,461.866z M309.648,469.314c0,0.934-0.76,1.695-1.694,1.695h-20.628c-0.938,0-1.694-0.762-1.694-1.695v-1.588
	h24.017V469.314L309.648,469.314z"/>
<g>
	<polygon fill="#C4651A" stroke="#C4651A" stroke-miterlimit="10" points="264.191,422.188 261.823,419.265 281.138,403.604 
		296.555,415.021 313.055,395.096 331.053,405.621 329.152,408.868 313.911,399.957 297.178,420.162 281.245,408.366 	"/>
	<g>
		<path fill="#C4651A" stroke="#C4651A" stroke-width="3" stroke-miterlimit="10" d="M263.008,416.646
			c2.684,0,4.859,2.176,4.859,4.861c0,2.68-2.176,4.86-4.859,4.86c-2.685,0-4.86-2.181-4.86-4.86
			C258.148,418.822,260.323,416.646,263.008,416.646z"/>
		<path fill="#C4651A" stroke="#C4651A" stroke-width="3" stroke-miterlimit="10" d="M263.012,428.252
			c-3.719,0-6.744-3.022-6.744-6.745c0-3.715,3.025-6.742,6.744-6.742c3.71,0,6.73,3.021,6.73,6.742
			C269.742,425.23,266.722,428.252,263.012,428.252z M263.012,418.533c-1.646,0-2.979,1.335-2.979,2.978
			c0,1.636,1.339,2.979,2.979,2.979c1.642,0,2.979-1.342,2.979-2.979C265.99,419.865,264.651,418.533,263.012,418.533z"/>
	</g>
	<g>
		<path fill="#C4651A" stroke="#C4651A" stroke-width="3" stroke-miterlimit="10" d="M280.089,402.567
			c2.682,0,4.855,2.172,4.855,4.856c0,2.681-2.174,4.853-4.855,4.853s-4.855-2.172-4.855-4.853
			C275.235,404.739,277.407,402.567,280.089,402.567z"/>
		<path fill="#C4651A" stroke="#C4651A" stroke-width="3" stroke-miterlimit="10" d="M280.084,414.168
			c-3.713,0-6.73-3.022-6.73-6.741c0-3.72,3.018-6.742,6.73-6.742c3.724,0,6.741,3.022,6.741,6.742
			C286.825,411.146,283.808,414.168,280.084,414.168z M280.084,404.443c-1.637,0-2.975,1.343-2.975,2.979
			c0,1.644,1.342,2.975,2.975,2.975c1.644,0,2.978-1.334,2.978-2.975C283.062,405.786,281.728,404.443,280.084,404.443z"/>
	</g>
	<g>
		<circle fill="#C4651A" stroke="#C4651A" stroke-width="3" stroke-miterlimit="10" cx="296.555" cy="417.774" r="4.856"/>
		<path fill="#C4651A" stroke="#C4651A" stroke-width="3" stroke-miterlimit="10" d="M296.555,424.508
			c-3.719,0-6.734-3.02-6.734-6.729c0-3.72,3.016-6.741,6.734-6.741c3.714,0,6.732,3.021,6.732,6.741
			C303.287,421.489,300.269,424.508,296.555,424.508z M296.555,414.792c-1.647,0-2.979,1.34-2.979,2.981
			c0,1.64,1.338,2.976,2.979,2.976c1.643,0,2.969-1.336,2.969-2.976C299.524,416.132,298.2,414.792,296.555,414.792z"/>
	</g>
	<g>
		<path fill="#C4651A" stroke="#C4651A" stroke-width="3" stroke-miterlimit="10" d="M318.663,398.207
			c0,2.683-2.165,4.86-4.861,4.86c-2.67,0-4.849-2.178-4.849-4.86c0-2.686,2.179-4.861,4.849-4.861
			C316.498,393.346,318.663,395.521,318.663,398.207z"/>
		<path fill="#C4651A" stroke="#C4651A" stroke-width="3" stroke-miterlimit="10" d="M313.802,404.947
			c-3.726,0-6.727-3.025-6.727-6.74s3.009-6.74,6.727-6.74c3.72,0,6.745,3.025,6.745,6.74S317.522,404.947,313.802,404.947z
			 M313.802,395.227c-1.634,0-2.978,1.339-2.978,2.98c0,1.642,1.344,2.981,2.978,2.981c1.65,0,2.984-1.339,2.984-2.981
			C316.786,396.564,315.448,395.227,313.802,395.227z"/>
	</g>
	<g>
		<path fill="#C4651A" stroke="#C4651A" stroke-width="3" stroke-miterlimit="10" d="M330.094,403.067
			c2.686,0,4.861,2.176,4.861,4.86c0,2.683-2.176,4.857-4.861,4.857c-2.687,0-4.859-2.175-4.859-4.857
			C325.235,405.243,327.407,403.067,330.094,403.067z"/>
		<path fill="#C4651A" stroke="#C4651A" stroke-width="3" stroke-miterlimit="10" d="M330.094,414.667
			c-3.709,0-6.726-3.021-6.726-6.74c0-3.721,3.017-6.74,6.726-6.74c3.727,0,6.732,3.019,6.732,6.74
			C336.826,411.646,333.821,414.667,330.094,414.667z M330.094,404.947c-1.645,0-2.98,1.338-2.98,2.981
			c0,1.642,1.334,2.974,2.98,2.974c1.643,0,2.985-1.336,2.985-2.978C333.079,406.281,331.737,404.947,330.094,404.947z"/>
	</g>
	
		<rect x="253.345" y="387.317" fill="#C4651A" stroke="#C4651A" stroke-width="3" stroke-miterlimit="10" width="19.322" height="6.239"/>
	
		<rect x="322.602" y="424.899" fill="#C4651A" stroke="#C4651A" stroke-width="3" stroke-miterlimit="10" width="19.333" height="6.249"/>
</g>
</svg>
