<svg version="1.1" xmlns="http://www.w3.org/2000/svg" xmlns:xlink="http://www.w3.org/1999/xlink" x="0px"
	 y="0px" width="150px" height="45px" viewBox="0 0 150 45" enable-background="new 0 0 150 45" xml:space="preserve">
    <style type="text/css">
        .st0{fill:#004098;}
    </style>

<g>
	<g>
		<path class="st0" d="M61.38,11.18h3.378c4.881,0,6.815,2.812,6.815,6.794c0,4.939-3.3,6.836-7.811,6.836H61.38V11.18z
			 M62.728,23.638h1.113c3.867,0,6.386-1.563,6.386-5.741c0-4.159-2.48-5.546-5.526-5.546h-1.973V23.638L62.728,23.638z"/>
		<path class="st0" d="M74.409,11.18h3.242c2.226,0,4.314,0.743,4.314,3.358c0,1.738-0.801,2.773-2.479,3.105v0.039
			c1.718,0.313,2.891,1.445,2.891,3.242c0,2.968-2.423,3.887-5.254,3.887h-2.713V11.18z M75.755,23.638h1.406
			c1.816,0,3.866-0.488,3.866-2.655c0-2.422-2.089-2.675-4.08-2.675h-1.192V23.638L75.755,23.638z M75.795,17.135h1.503
			c1.427,0,3.319-0.37,3.319-2.538c0-1.972-1.816-2.246-2.967-2.246h-1.855V17.135z"/>
		<path class="st0" d="M94.737,12.702c-0.857-0.449-2.089-0.585-3.044-0.585c-3.535,0-5.527,2.499-5.527,5.878
			c0,3.436,1.933,5.877,5.527,5.877c0.897,0,2.264-0.118,3.044-0.586l0.08,1.173c-0.742,0.447-2.267,0.585-3.124,0.585
			c-4.297,0-6.874-2.832-6.874-7.049c0-4.139,2.655-7.05,6.874-7.05c0.8,0,2.421,0.137,3.124,0.508L94.737,12.702z"/>
		<path class="st0" d="M98.295,11.18h1.349v12.458h5.466v1.173h-6.814V11.18z"/>
		<path class="st0" d="M106.714,23.072c0.8,0.507,1.737,0.8,3.008,0.8c1.678,0,3.064-0.86,3.064-2.792
			c0-2.675-6.249-3.008-6.249-6.581c0-2.187,1.914-3.554,4.315-3.554c0.664,0,1.739,0.097,2.676,0.449l-0.215,1.23
			c-0.605-0.332-1.563-0.508-2.479-0.508c-1.407,0-2.949,0.585-2.949,2.344c0,2.733,6.249,2.752,6.249,6.736
			c0,2.751-2.363,3.847-4.472,3.847c-1.328,0-2.363-0.273-3.086-0.585L106.714,23.072z"/>
	</g>
	<g>
		<path class="st0" d="M61.845,26.996h1.017c1.14,0,2.146,0.383,2.146,1.858c0,1.474-1.006,1.859-2.146,1.859h-1.017V26.996z
			 M62.591,30.127h0.415c0.623,0,1.225-0.464,1.225-1.272c0-0.81-0.602-1.273-1.225-1.273h-0.415V30.127L62.591,30.127z"/>
		<path class="st0" d="M65.751,28.112c0.277-0.126,0.65-0.205,0.953-0.205c0.836,0,1.182,0.345,1.182,1.154v0.352
			c0,0.276,0.005,0.485,0.01,0.688c0.006,0.205,0.017,0.398,0.033,0.612h-0.628c-0.027-0.145-0.027-0.326-0.033-0.412h-0.011
			c-0.165,0.305-0.521,0.475-0.846,0.475c-0.484,0-0.958-0.293-0.958-0.815c0-0.408,0.198-0.649,0.469-0.783
			c0.271-0.132,0.623-0.157,0.921-0.157h0.395c0-0.444-0.198-0.592-0.618-0.592c-0.303,0-0.607,0.117-0.847,0.298L65.751,28.112z
			 M66.587,30.255c0.218,0,0.389-0.096,0.5-0.246c0.117-0.155,0.149-0.35,0.149-0.563h-0.31c-0.318,0-0.793,0.052-0.793,0.475
			C66.134,30.153,66.332,30.255,66.587,30.255z"/>
		<path class="st0" d="M68.827,28.492h-0.528V27.97h0.528v-0.548l0.713-0.229v0.777h0.634v0.522H69.54v1.278
			c0,0.233,0.064,0.453,0.335,0.453c0.128,0,0.25-0.027,0.325-0.075l0.021,0.565c-0.149,0.041-0.314,0.063-0.527,0.063
			c-0.559,0-0.868-0.345-0.868-0.889V28.492L68.827,28.492z"/>
		<path class="st0" d="M70.788,28.112c0.276-0.126,0.649-0.205,0.953-0.205c0.836,0,1.182,0.345,1.182,1.154v0.352
			c0,0.276,0.005,0.485,0.012,0.688c0.004,0.205,0.016,0.398,0.032,0.612h-0.628c-0.027-0.145-0.027-0.326-0.032-0.412h-0.011
			c-0.165,0.305-0.522,0.475-0.847,0.475c-0.484,0-0.958-0.293-0.958-0.815c0-0.408,0.197-0.649,0.468-0.783
			c0.271-0.132,0.623-0.157,0.921-0.157h0.394c0-0.444-0.197-0.592-0.618-0.592c-0.303,0-0.607,0.117-0.847,0.298L70.788,28.112z
			 M71.623,30.255c0.219,0,0.389-0.096,0.501-0.246c0.117-0.155,0.149-0.35,0.149-0.563h-0.309c-0.319,0-0.793,0.052-0.793,0.475
			C71.171,30.153,71.368,30.255,71.623,30.255z"/>
		<path class="st0" d="M73.627,26.718h0.714v1.604h0.011c0.197-0.261,0.446-0.414,0.82-0.414c0.841,0,1.15,0.669,1.15,1.426
			c0,0.751-0.31,1.443-1.15,1.443c-0.304,0-0.634-0.105-0.842-0.399h-0.01v0.337h-0.692L73.627,26.718L73.627,26.718z
			 M74.975,30.224c0.469,0,0.602-0.513,0.602-0.891c0-0.367-0.128-0.874-0.591-0.874c-0.458,0-0.639,0.49-0.639,0.874
			C74.347,29.722,74.501,30.224,74.975,30.224z"/>
		<path class="st0" d="M77.007,28.112c0.277-0.126,0.649-0.205,0.953-0.205c0.837,0,1.182,0.345,1.182,1.154v0.352
			c0,0.276,0.007,0.485,0.011,0.688c0.007,0.205,0.018,0.398,0.032,0.612h-0.629c-0.024-0.145-0.024-0.326-0.031-0.412h-0.011
			c-0.165,0.305-0.521,0.475-0.847,0.475c-0.484,0-0.958-0.293-0.958-0.815c0-0.408,0.196-0.649,0.469-0.783
			c0.271-0.132,0.622-0.157,0.921-0.157h0.394c0-0.444-0.196-0.592-0.617-0.592c-0.303,0-0.607,0.117-0.847,0.298L77.007,28.112z
			 M77.843,30.255c0.218,0,0.389-0.096,0.501-0.246c0.117-0.155,0.148-0.35,0.148-0.563h-0.309c-0.319,0-0.793,0.052-0.793,0.475
			C77.39,30.153,77.587,30.255,77.843,30.255z"/>
		<path class="st0" d="M81.478,28.546c-0.219-0.076-0.379-0.117-0.639-0.117c-0.193,0-0.422,0.069-0.422,0.303
			c0,0.436,1.241,0.161,1.241,1.149c0,0.639-0.57,0.896-1.15,0.896c-0.271,0-0.549-0.048-0.81-0.116l0.043-0.587
			c0.224,0.11,0.459,0.182,0.703,0.182c0.18,0,0.468-0.071,0.468-0.335c0-0.539-1.239-0.171-1.239-1.161
			c0-0.591,0.516-0.852,1.074-0.852c0.336,0,0.555,0.052,0.779,0.101L81.478,28.546z"/>
		<path class="st0" d="M84.413,30.559c-0.262,0.145-0.56,0.218-0.942,0.218c-0.905,0-1.434-0.521-1.434-1.422
			c0-0.794,0.422-1.447,1.273-1.447c1.018,0,1.304,0.696,1.304,1.654h-1.896c0.032,0.442,0.342,0.693,0.783,0.693
			c0.347,0,0.645-0.128,0.911-0.276V30.559L84.413,30.559z M83.934,29.072c-0.021-0.346-0.182-0.644-0.58-0.644
			c-0.4,0-0.603,0.276-0.635,0.644H83.934z"/>
		<path class="st0" d="M89.428,30.66c-0.271,0.063-0.565,0.116-0.847,0.116c-1.204,0-2.04-0.602-2.04-1.859
			c0-1.271,0.778-1.985,2.04-1.985c0.245,0,0.568,0.048,0.841,0.153l-0.053,0.628c-0.282-0.159-0.538-0.194-0.805-0.194
			c-0.766,0-1.245,0.585-1.245,1.347c0,0.755,0.468,1.326,1.262,1.326c0.292,0,0.64-0.064,0.814-0.155L89.428,30.66z"/>
		<path class="st0" d="M92.113,30.559c-0.26,0.145-0.559,0.218-0.942,0.218c-0.904,0-1.433-0.521-1.433-1.422
			c0-0.794,0.421-1.447,1.273-1.447c1.018,0,1.305,0.696,1.305,1.654h-1.896c0.031,0.442,0.34,0.693,0.782,0.693
			c0.346,0,0.646-0.128,0.91-0.276V30.559L92.113,30.559z M91.635,29.072c-0.021-0.346-0.181-0.644-0.58-0.644
			c-0.4,0-0.603,0.276-0.634,0.644H91.635z"/>
		<path class="st0" d="M92.878,27.97h0.675v0.373h0.012c0.224-0.314,0.527-0.436,0.899-0.436c0.65,0,0.933,0.455,0.933,1.074
			v1.732h-0.714v-1.467c0-0.333-0.006-0.788-0.462-0.788c-0.518,0-0.629,0.562-0.629,0.911v1.344h-0.714V27.97L92.878,27.97z"/>
		<path class="st0" d="M96.369,28.492h-0.528V27.97h0.528v-0.548l0.713-0.229v0.777h0.634v0.522h-0.634v1.278
			c0,0.233,0.063,0.453,0.335,0.453c0.128,0,0.25-0.027,0.326-0.075l0.02,0.565c-0.148,0.041-0.313,0.063-0.526,0.063
			c-0.559,0-0.867-0.345-0.867-0.889V28.492L96.369,28.492z"/>
		<path class="st0" d="M100.406,30.559c-0.261,0.145-0.559,0.218-0.941,0.218c-0.906,0-1.433-0.521-1.433-1.422
			c0-0.794,0.419-1.447,1.271-1.447c1.019,0,1.305,0.696,1.305,1.654h-1.896c0.032,0.442,0.342,0.693,0.783,0.693
			c0.346,0,0.644-0.128,0.91-0.276V30.559L100.406,30.559z M99.928,29.072c-0.021-0.346-0.182-0.644-0.581-0.644
			s-0.602,0.276-0.634,0.644H99.928z"/>
		<path class="st0" d="M101.186,27.97h0.634v0.623h0.012c0.03-0.255,0.324-0.686,0.75-0.686c0.069,0,0.145,0,0.219,0.018v0.722
			c-0.063-0.038-0.192-0.06-0.319-0.06c-0.58,0-0.58,0.725-0.58,1.121v1.006h-0.715V27.97L101.186,27.97z"/>
		<path class="st0" d="M62.042,34.025h-0.527v-0.521h0.527v-0.383c0-0.548,0.309-0.934,0.874-0.934
			c0.181,0,0.383,0.028,0.522,0.061l-0.059,0.591c-0.064-0.038-0.155-0.097-0.31-0.097c-0.24,0-0.313,0.207-0.313,0.421v0.341h0.623
			v0.521h-0.623v2.221h-0.714V34.025L62.042,34.025z"/>
		<path class="st0" d="M65.111,33.44c0.814,0,1.438,0.547,1.438,1.455c0,0.787-0.528,1.415-1.438,1.415
			c-0.905,0-1.433-0.628-1.433-1.415C63.678,33.987,64.302,33.44,65.111,33.44z M65.111,35.758c0.548,0,0.692-0.491,0.692-0.949
			c0-0.42-0.224-0.813-0.692-0.813c-0.464,0-0.687,0.404-0.687,0.813C64.425,35.264,64.568,35.758,65.111,35.758z"/>
		<path class="st0" d="M67.126,33.504h0.634v0.623h0.011c0.032-0.255,0.325-0.687,0.75-0.687c0.07,0,0.144,0,0.218,0.021v0.72
			c-0.064-0.038-0.191-0.06-0.319-0.06c-0.581,0-0.581,0.725-0.581,1.119v1.006h-0.713V33.504L67.126,33.504z"/>
		<path class="st0" d="M70.729,32.53h0.746v3.131h1.443v0.585h-2.188V32.53z"/>
		<path class="st0" d="M73.346,32.321h0.713v0.682h-0.713V32.321z M73.346,33.504h0.713v2.742h-0.713V33.504z"/>
		<path class="st0" d="M75.073,34.025h-0.527v-0.521h0.527v-0.383c0-0.548,0.309-0.934,0.873-0.934
			c0.182,0,0.382,0.028,0.522,0.061l-0.06,0.591c-0.063-0.038-0.154-0.097-0.309-0.097c-0.24,0-0.314,0.207-0.314,0.421v0.341h0.623
			v0.521h-0.623v2.221h-0.713V34.025L75.073,34.025z"/>
		<path class="st0" d="M79.084,36.093c-0.261,0.143-0.56,0.218-0.941,0.218c-0.906,0-1.434-0.521-1.434-1.422
			c0-0.794,0.421-1.448,1.273-1.448c1.018,0,1.304,0.697,1.304,1.657h-1.896c0.031,0.44,0.341,0.692,0.782,0.692
			c0.348,0,0.646-0.129,0.911-0.277V36.093z M78.604,34.606c-0.021-0.346-0.181-0.644-0.58-0.644s-0.603,0.274-0.634,0.644H78.604z"
			/>
		<path class="st0" d="M83.391,33.212c-0.233-0.102-0.495-0.161-0.757-0.161c-0.255,0-0.585,0.112-0.585,0.518
			c0,0.645,1.63,0.373,1.63,1.618c0,0.815-0.645,1.124-1.396,1.124c-0.405,0-0.586-0.054-0.953-0.145l0.069-0.671
			c0.255,0.14,0.548,0.23,0.842,0.23c0.281,0,0.66-0.143,0.66-0.48c0-0.708-1.631-0.413-1.631-1.646
			c0-0.829,0.646-1.133,1.301-1.133c0.319,0,0.617,0.043,0.889,0.134L83.391,33.212z"/>
		<path class="st0" d="M86.071,34.095c-0.128-0.057-0.267-0.1-0.484-0.1c-0.442,0-0.726,0.35-0.726,0.867
			c0,0.506,0.241,0.896,0.741,0.896c0.202,0,0.426-0.075,0.549-0.129l0.032,0.593c-0.209,0.063-0.422,0.089-0.715,0.089
			c-0.899,0-1.352-0.612-1.352-1.448c0-0.793,0.468-1.422,1.326-1.422c0.287,0,0.495,0.031,0.691,0.091L86.071,34.095z"/>
		<path class="st0" d="M86.675,32.321h0.713v0.682h-0.713V32.321z M86.675,33.504h0.713v2.742h-0.713V33.504z"/>
		<path class="st0" d="M90.339,36.093c-0.261,0.143-0.559,0.218-0.941,0.218c-0.905,0-1.433-0.521-1.433-1.422
			c0-0.794,0.421-1.448,1.272-1.448c1.018,0,1.305,0.697,1.305,1.657h-1.896c0.033,0.44,0.342,0.692,0.783,0.692
			c0.347,0,0.645-0.129,0.91-0.277V36.093L90.339,36.093z M89.86,34.606c-0.021-0.346-0.181-0.644-0.58-0.644
			s-0.602,0.274-0.635,0.644H89.86z"/>
		<path class="st0" d="M91.104,33.504h0.675v0.373h0.012c0.225-0.313,0.528-0.437,0.9-0.437c0.649,0,0.932,0.458,0.932,1.077
			v1.729h-0.713v-1.465c0-0.335-0.006-0.786-0.464-0.786c-0.516,0-0.628,0.559-0.628,0.909v1.342h-0.714V33.504L91.104,33.504z"/>
		<path class="st0" d="M96.139,34.095c-0.128-0.057-0.268-0.1-0.484-0.1c-0.442,0-0.725,0.35-0.725,0.867
			c0,0.506,0.239,0.896,0.74,0.896c0.201,0,0.427-0.075,0.549-0.129l0.032,0.593c-0.208,0.063-0.422,0.089-0.714,0.089
			c-0.901,0-1.354-0.612-1.354-1.448c0-0.793,0.469-1.422,1.326-1.422c0.288,0,0.495,0.031,0.692,0.091L96.139,34.095z"/>
		<path class="st0" d="M98.925,36.093c-0.261,0.143-0.56,0.218-0.941,0.218c-0.906,0-1.434-0.521-1.434-1.422
			c0-0.794,0.421-1.448,1.273-1.448c1.017,0,1.305,0.697,1.305,1.657h-1.896c0.031,0.44,0.341,0.692,0.783,0.692
			c0.346,0,0.645-0.129,0.91-0.277V36.093L98.925,36.093z M98.446,34.606c-0.021-0.346-0.181-0.644-0.58-0.644
			s-0.604,0.274-0.635,0.644H98.446z"/>
	</g>
	<g>
		<g>
			<rect x="47.184" y="11.276" fill="#97BDC0" width="1.325" height="5.251"/>
			<rect x="50.396" y="12.526" fill="#97BDC0" width="1.063" height="5.252"/>
			<rect x="48.88" y="11.901" fill="#97BDC0" width="1.206" height="5.252"/>
			<rect x="45.331" y="10.651" fill="#97BDC0" width="1.417" height="5.251"/>
			<rect x="38.83" y="7.983" fill="#97BDC0" width="0.628" height="5.253"/>
			<rect x="51.707" y="13.151" fill="#97BDC0" width="0.896" height="5.251"/>
			<rect x="37.475" y="6.885" fill="#97BDC0" width="0.337" height="5.251"/>
			<rect x="35.866" y="4.813" fill="#97BDC0" width="0.187" height="5.252"/>
			<rect x="43.479" y="10.026" fill="#97BDC0" width="1.355" height="5.251"/>
			<rect x="40.266" y="8.744" fill="#97BDC0" width="0.894" height="5.251"/>
			<rect x="41.781" y="9.387" fill="#97BDC0" width="1.139" height="5.252"/>
			<rect x="53.609" y="14.402" fill="#97BDC0" width="0.459" height="5.252"/>
			<path fill="#97BDC0" d="M54.131,15.07c0,0,0,5.332,0,5.252c0-0.079,0.167,0,0.167,0V15.07H54.131z"/>
			<rect x="52.789" y="13.776" fill="#97BDC0" width="0.697" height="5.252"/>
		</g>
		<g>
			<g>
				<g>
					<path fill="#97BDC0" d="M35.866,20.322c0,0.207,0.07,0.413,0.199,0.622c0.134,0.214,0.331,0.43,0.578,0.643
						c0.235,0.202,0.513,0.402,0.828,0.6c0.334,0.209,0.709,0.417,1.11,0.62c0.423,0.213,0.876,0.419,1.343,0.62
						c0.504,0.216,1.026,0.425,1.546,0.621c0.586,0.221,1.171,0.43,1.729,0.62c0.684,0.234,1.328,0.444,1.883,0.619
						c0.555,0.181,1.2,0.388,1.883,0.625c0.559,0.189,1.142,0.397,1.729,0.619c0.521,0.198,1.042,0.405,1.546,0.621
						c0.468,0.199,0.92,0.408,1.343,0.62c0.402,0.204,0.776,0.411,1.112,0.621c0.325,0.203,0.612,0.412,0.852,0.619
						c0.236,0.207,0.423,0.414,0.552,0.623c0.129,0.208,0.199,0.415,0.199,0.62v-5.252c0-0.205-0.069-0.414-0.199-0.619
						c-0.128-0.209-0.316-0.416-0.552-0.621c-0.24-0.212-0.527-0.417-0.852-0.622c-0.335-0.211-0.709-0.417-1.112-0.621
						c-0.422-0.213-0.875-0.42-1.343-0.62c-0.504-0.217-1.026-0.425-1.546-0.622c-0.586-0.221-1.17-0.429-1.729-0.62
						c-0.684-0.234-1.328-0.443-1.883-0.622c-0.556-0.177-1.2-0.386-1.883-0.62c-0.558-0.191-1.144-0.399-1.729-0.622
						c-0.52-0.196-1.042-0.404-1.546-0.62c-0.467-0.202-0.92-0.408-1.343-0.621c-0.401-0.202-0.776-0.411-1.11-0.621
						c-0.315-0.197-0.593-0.396-0.828-0.599c-0.247-0.213-0.444-0.428-0.578-0.644c-0.129-0.206-0.199-0.413-0.199-0.62V20.322z"/>
					<path class="st0" d="M54.298,30.255c0,0.207-0.07,0.412-0.199,0.619c-0.133,0.216-0.33,0.433-0.578,0.645
						c-0.233,0.201-0.512,0.401-0.827,0.6c-0.335,0.209-0.71,0.417-1.112,0.619c-0.421,0.212-0.874,0.421-1.342,0.62
						c-0.504,0.218-1.025,0.425-1.546,0.623c-0.586,0.22-1.17,0.429-1.729,0.619c-0.684,0.235-1.328,0.444-1.883,0.621
						c-0.556,0.179-1.199,0.385-1.884,0.621c-0.557,0.192-1.142,0.399-1.728,0.62c-0.521,0.196-1.042,0.405-1.546,0.621
						c-0.467,0.202-0.92,0.407-1.343,0.621c-0.402,0.201-0.776,0.41-1.111,0.621c-0.325,0.205-0.613,0.412-0.853,0.62
						c-0.235,0.206-0.423,0.414-0.552,0.621c-0.128,0.207-0.198,0.416-0.198,0.621v-5.252c0-0.206,0.07-0.414,0.198-0.621
						c0.129-0.207,0.317-0.414,0.552-0.619c0.239-0.213,0.527-0.418,0.853-0.623c0.335-0.21,0.709-0.419,1.111-0.621
						c0.423-0.212,0.876-0.419,1.343-0.62c0.504-0.216,1.026-0.425,1.546-0.621c0.586-0.222,1.171-0.429,1.728-0.621
						c0.685-0.233,1.329-0.444,1.884-0.621c0.555-0.175,1.199-0.385,1.883-0.619c0.558-0.192,1.143-0.401,1.729-0.62
						c0.521-0.198,1.042-0.405,1.546-0.619c0.468-0.202,0.92-0.411,1.342-0.623c0.402-0.201,0.777-0.412,1.112-0.621
						c0.314-0.198,0.593-0.397,0.827-0.6c0.248-0.212,0.445-0.428,0.578-0.644c0.129-0.205,0.199-0.416,0.199-0.619V30.255z"/>
				</g>
			</g>
			<g>
				<g>
					<g>
						<path class="st0" d="M54.298,20.322c0,0.207-0.07,0.413-0.199,0.622c-0.133,0.214-0.33,0.43-0.578,0.643
							c-0.233,0.201-0.512,0.402-0.827,0.6c-0.335,0.209-0.71,0.417-1.112,0.62c-0.421,0.213-0.874,0.419-1.342,0.62
							c-0.504,0.216-1.025,0.425-1.546,0.621c-0.586,0.221-1.17,0.43-1.729,0.62c-0.684,0.234-1.328,0.444-1.883,0.619
							c-0.556,0.181-1.199,0.388-1.884,0.625c-0.557,0.189-1.142,0.397-1.728,0.619c-0.521,0.198-1.042,0.405-1.546,0.621
							c-0.467,0.199-0.92,0.408-1.343,0.62c-0.402,0.204-0.776,0.411-1.111,0.621c-0.325,0.203-0.613,0.412-0.853,0.619
							c-0.235,0.207-0.423,0.414-0.552,0.623c-0.128,0.207-0.198,0.415-0.198,0.62v-5.252c0-0.205,0.07-0.414,0.198-0.619
							c0.129-0.209,0.317-0.416,0.552-0.621c0.239-0.212,0.527-0.417,0.853-0.622c0.335-0.211,0.709-0.417,1.111-0.621
							c0.423-0.213,0.876-0.42,1.343-0.621c0.504-0.216,1.026-0.424,1.546-0.621c0.586-0.221,1.171-0.429,1.728-0.62
							c0.685-0.234,1.329-0.443,1.884-0.622c0.555-0.177,1.199-0.386,1.883-0.621c0.558-0.191,1.143-0.399,1.729-0.621
							c0.521-0.196,1.042-0.404,1.546-0.62c0.468-0.202,0.92-0.408,1.342-0.621c0.402-0.202,0.777-0.411,1.112-0.621
							c0.314-0.198,0.593-0.396,0.827-0.599c0.248-0.213,0.445-0.428,0.578-0.644c0.129-0.206,0.199-0.414,0.199-0.62V20.322z"/>
					</g>
				</g>
			</g>
			<g>
				<rect x="41.657" y="11.276" class="st0" width="1.325" height="5.251"/>
				<rect x="38.706" y="12.526" class="st0" width="1.063" height="5.252"/>
				<rect x="40.079" y="11.901" class="st0" width="1.206" height="5.252"/>
				<rect x="43.416" y="10.651" class="st0" width="1.418" height="5.251"/>
				<rect x="50.707" y="7.983" class="st0" width="0.628" height="5.253"/>
				<rect x="37.563" y="13.151" class="st0" width="0.895" height="5.251"/>
				<rect x="52.354" y="6.885" class="st0" width="0.335" height="5.251"/>
				<rect x="54.112" y="4.813" class="st0" width="0.187" height="5.252"/>
				<rect x="45.331" y="10.026" class="st0" width="1.355" height="5.251"/>
				<rect x="49.005" y="8.744" class="st0" width="0.895" height="5.251"/>
				<rect x="47.244" y="9.387" class="st0" width="1.14" height="5.252"/>
				<rect x="36.096" y="14.402" class="st0" width="0.459" height="5.252"/>
				<path class="st0" d="M36.035,15.07c0,0,0,5.332,0,5.252c0-0.079-0.168,0-0.168,0V15.07H36.035z"/>
				<rect x="36.679" y="13.776" class="st0" width="0.697" height="5.252"/>
			</g>
		</g>
	</g>
</g>
</svg>
