<?xml version="1.0" encoding="utf-8"?>
<!-- Generator: Adobe Illustrator 16.0.0, SVG Export Plug-In . SVG Version: 6.00 Build 0)  -->
<!DOCTYPE svg PUBLIC "-//W3C//DTD SVG 1.1//EN" "http://www.w3.org/Graphics/SVG/1.1/DTD/svg11.dtd">
<svg version="1.1" id="レイヤー_1" xmlns="http://www.w3.org/2000/svg" xmlns:xlink="http://www.w3.org/1999/xlink" x="0px"
	 y="0px" width="150px" height="45px" viewBox="0 0 150 45" enable-background="new 0 0 150 45" xml:space="preserve">
<path fill="#040000" d="M66.646,31.9V16.489h1.189v1.209l0.341,0.341l0.153-0.287c0.508-0.96,1.573-1.392,3.357-1.392
	c3.804,0,4.088,2.154,4.088,5.44c0,4.2-0.916,5.414-4.088,5.414c-1.261,0-2.787-0.147-3.357-1.3l-0.066-0.135h-0.389l-0.044,0.241
	V31.9H66.646z M71.218,17.253c-3.387,0-3.387,1.621-3.387,4.566c0,2.742,0.236,4.546,3.387,4.546c2.877,0,3.3-1.021,3.3-4.546
	c0-3.401-0.27-4.587-3.3-4.587V17.253z M83.957,27.22c-3.932,0-4.676-0.858-4.676-5.415c0-4.556,0.749-5.444,4.676-5.444
	c3.93,0,4.677,0.864,4.677,5.44C88.634,26.374,87.9,27.22,83.957,27.22z M83.957,17.237c-3.175,0-3.429,0.691-3.429,4.567
	c0,3.875,0.254,4.547,3.429,4.547c3.177,0,3.426-0.686,3.426-4.547c0-3.86-0.244-4.572-3.426-4.572V17.237z M93.474,27.104v-6.671
	c-0.023-1.17,0.202-1.956,0.707-2.476c0.502-0.518,1.207-0.729,2.234-0.729c1.528,0,2.094,0.562,2.094,2.077v0.479h1.104v-0.538
	c0-1.994-0.876-2.876-2.843-2.876c-1.512,0-2.494,0.479-2.926,1.399l-0.146,0.312l-0.359-0.359l0.078-1.228h-1.133v10.608H93.474z
	 M108.899,24.228v-0.581h-1.102v0.581c0,1.04,0,2.119-1.804,2.119c-1.377,0-1.782-0.385-1.804-1.717v-7.271h4.284v-0.869h-4.276
	v-2.68h-1.188v2.68h-1.477v0.874h1.477v6.763c0,2.52,0.551,3.094,2.949,3.094C108.053,27.22,108.899,26.352,108.899,24.228z
	 M116.095,27.215c-2.581,0-3.98-0.479-3.98-3.119c0-2.771,1.261-3.24,4.087-3.24c1.918,0,3.111,0.34,3.248,0.931l0.04,0.186h0.54
	v-2.283c0-2.277-1.325-2.456-3.195-2.456c-0.988,0-2.112,0-2.722,0.62c-0.291,0.308-0.441,0.723-0.415,1.146v0.139h-1.253
	c0-2.341,1.313-2.773,3.895-2.773h0.542c1.617,0,2.84,0.149,3.562,0.879c0.521,0.527,0.774,1.357,0.766,2.536v7.324h-1.189v-1.012
	l-0.347-0.349l-0.148,0.297c-0.551,1.063-1.938,1.18-3.429,1.18V27.215z M116.393,21.729c-1.92,0-3.026,0.101-3.026,2.158
	c0,2.339,1.092,2.454,3.026,2.454c1.517,0,3.596,0,3.596-2.307c0-2.306-1.438-2.306-3.473-2.306H116.393z M126.992,27.104V8.101
	h-1.189v19.003H126.992z M24.961,32.203v2.854c0,0.751-0.48,0.959-1.142,0.959c-0.662,0-1.209-0.129-1.209-0.873v-0.551h0.432v0.426
	c0,0.48,0.082,0.596,0.681,0.596c0.384,0,0.792,0,0.792-0.479v-2.932H24.961z M27.646,35.964V35.69l0,0
	c-0.147,0.302-0.537,0.312-0.867,0.312c-0.59,0-1.002-0.109-1.002-0.797c0-0.686,0.374-0.824,1.025-0.824
	c0.26,0,0.773,0.024,0.826,0.264h0.023v-0.479c0-0.479-0.254-0.527-0.7-0.527c-0.312,0-0.691,0-0.686,0.359v0.092h-0.441v-0.058
	c0-0.678,0.479-0.719,1.056-0.714c0.662,0,1.146,0.065,1.141,0.867v1.794L27.646,35.964z M27.646,35.181
	c0-0.479-0.297-0.479-0.795-0.479c-0.499,0-0.662,0.028-0.662,0.479c0,0.481,0.206,0.529,0.662,0.529
	c0.455,0,0.767-0.048,0.767-0.533L27.646,35.181z M29.277,33.651L29.277,33.651c0.194-0.269,0.522-0.408,0.851-0.358
	c0.958,0,1.025,0.561,1.025,1.348c0,1.04-0.254,1.344-1.025,1.344c-0.303,0-0.697-0.035-0.851-0.342l0,0v1.439H28.88V33.34h0.397
	V33.651z M29.277,34.648c0,0.626,0.04,1.022,0.748,1.022c0.615,0,0.73-0.172,0.73-1.022c0-0.849-0.053-1.025-0.73-1.025
	C29.277,33.617,29.277,33.949,29.277,34.648z M33.752,35.964V35.69l0,0c-0.148,0.302-0.537,0.312-0.867,0.312
	c-0.591,0-1.003-0.109-1.003-0.797c0-0.686,0.375-0.824,1.026-0.824c0.26,0,0.772,0.024,0.826,0.264h0.023v-0.479
	c0-0.479-0.255-0.527-0.701-0.527c-0.312,0-0.691,0-0.687,0.359v0.092h-0.413v-0.058c0-0.678,0.48-0.719,1.057-0.714
	c0.662,0,1.146,0.065,1.141,0.867v1.794L33.752,35.964z M33.752,35.181c0-0.479-0.296-0.479-0.795-0.479s-0.662,0.028-0.662,0.479
	c0,0.481,0.206,0.529,0.662,0.529c0.455,0,0.791-0.048,0.791-0.533L33.752,35.181z M35.436,33.651L35.436,33.651
	c0.125-0.316,0.513-0.351,0.811-0.351c0.677,0,1.002,0.183,0.994,0.912v1.751h-0.385V34.18c0-0.48-0.186-0.563-0.632-0.563
	c-0.647,0-0.787,0.202-0.787,0.808v1.533h-0.403V33.34h0.398L35.436,33.651z M41.858,35.964V35.69l0,0
	c-0.147,0.302-0.537,0.312-0.867,0.312c-0.59,0-1.003-0.109-1.003-0.797c0-0.686,0.374-0.824,1.026-0.824
	c0.26,0,0.772,0.024,0.826,0.264h0.023v-0.479c0-0.479-0.254-0.527-0.7-0.527c-0.312,0-0.691,0-0.686,0.359v0.092h-0.413v-0.058
	c0-0.678,0.479-0.719,1.055-0.714c0.662,0,1.146,0.065,1.141,0.867v1.794L41.858,35.964z M41.858,35.181
	c0-0.479-0.296-0.479-0.795-0.479c-0.499,0-0.662,0.028-0.662,0.479c0,0.481,0.206,0.529,0.662,0.529s0.786-0.048,0.786-0.533
	L41.858,35.181z M43.538,35.964h-0.398v-3.761h0.398V35.964z M44.813,35.964h-0.398v-3.761h0.398V35.964z M46.065,32.634h-0.384
	v-0.436h0.384V32.634z M46.065,35.958h-0.384V33.34h0.384V35.958z M48.732,35.958V35.69l0,0c-0.149,0.302-0.538,0.312-0.869,0.312
	c-0.589,0-1.002-0.109-1.002-0.797c0-0.686,0.374-0.824,1.027-0.824c0.258,0,0.772,0.024,0.825,0.264h0.024v-0.479
	c0-0.479-0.254-0.527-0.7-0.527c-0.312,0-0.691,0-0.687,0.359v0.092h-0.412v-0.058c0-0.678,0.479-0.719,1.054-0.714
	c0.663,0,1.147,0.065,1.143,0.867v1.794L48.732,35.958z M48.732,35.177c0-0.479-0.298-0.479-0.796-0.479
	c-0.5,0-0.663,0.029-0.663,0.479c0,0.479,0.206,0.527,0.663,0.527c0.456,0,0.8-0.042,0.8-0.527H48.732z M50.416,33.647
	L50.416,33.647c0.125-0.316,0.513-0.351,0.811-0.351c0.675,0,1.002,0.182,0.992,0.912v1.749h-0.397V34.18
	c0-0.48-0.187-0.563-0.634-0.563c-0.646,0-0.787,0.202-0.787,0.808v1.533h-0.398V33.34h0.398L50.416,33.647z M55.313,35.005v0.145
	c0,0.743-0.479,0.839-1.119,0.839c-1.092,0-1.169-0.422-1.169-1.401c0-0.858,0.149-1.294,1.103-1.294
	c0.639,0,1.137,0.07,1.137,0.813v0.073h-0.398v-0.073c0-0.479-0.259-0.479-0.715-0.479c-0.7,0-0.715,0.239-0.715,1.084
	c0,0.743,0.03,0.959,0.802,0.959c0.479,0,0.675-0.057,0.675-0.533v-0.129L55.313,35.005z M58.287,35.158v0.101
	c0,0.696-0.538,0.733-1.123,0.733c-1.027,0-1.185-0.338-1.185-1.344c0-1.092,0.24-1.348,1.185-1.348
	c0.853,0,1.123,0.198,1.123,1.168v0.262h-1.918c0,0.83,0.062,0.96,0.771,0.96c0.542,0,0.715-0.034,0.715-0.408v-0.119L58.287,35.158
	z M57.875,34.405c0-0.748-0.111-0.792-0.71-0.792c-0.714,0-0.743,0.187-0.772,0.792H57.875z M62.225,33.34v0.321h-0.695v2.313
	h-0.398v-2.323h-0.403V33.34h0.403v-0.316c0-0.644,0.201-0.844,0.848-0.844h0.245v0.321h-0.245c-0.397,0-0.45,0.129-0.45,0.479v0.36
	H62.225z M63.836,33.313c0.959,0,1.171,0.233,1.171,1.347c0,1.112-0.192,1.343-1.171,1.343c-0.978,0-1.17-0.235-1.17-1.343
	c0-1.108,0.188-1.362,1.17-1.362V33.313z M63.836,35.681c0.706,0,0.758-0.11,0.758-1.021c0-0.91-0.048-1.025-0.758-1.025
	c-0.709,0-0.757,0.109-0.757,1.025s0.053,1.012,0.757,1.012V35.681z M66.144,33.34v0.327l0,0c0.154-0.262,0.447-0.403,0.748-0.366
	c0.354-0.052,0.682,0.194,0.736,0.547c0.009,0.065,0.009,0.132-0.002,0.197v0.19h-0.374V34.06c0-0.327-0.111-0.437-0.442-0.437
	c-0.48,0-0.652,0.236-0.643,0.7v1.641h-0.398V33.34H66.144z M70.12,35.975v-3.771h1.918c0.706,0,0.874,0.337,0.874,0.993
	c0,0.398-0.081,0.663-0.479,0.79l0,0c0.479,0.092,0.58,0.452,0.58,0.916c0,0.677-0.248,1.047-0.887,1.047L70.12,35.975z
	 M70.527,33.819h1.238c0.513,0,0.687-0.116,0.687-0.7c0-0.508-0.198-0.563-0.644-0.563h-1.281V33.819z M70.527,35.566h1.348
	c0.48,0,0.686-0.054,0.686-0.634c0-0.48-0.076-0.748-0.638-0.738h-1.396V35.566z M74.215,32.615h-0.397V32.18h0.397V32.615z
	 M74.215,35.94h-0.397V33.34h0.397V35.94z M76.188,33.277c0.958,0,1.171,0.236,1.171,1.35c0,1.111-0.193,1.341-1.171,1.341
	c-0.98,0-1.172-0.233-1.172-1.341c0-1.109,0.211-1.33,1.187-1.33L76.188,33.277z M76.188,35.646c0.705,0,0.756-0.11,0.756-1.02
	c0-0.913-0.046-1.027-0.756-1.027c-0.711,0-0.758,0.109-0.758,1.027c0,0.915,0.066,1.044,0.773,1.044L76.188,35.646z M80.245,33.993
	h-0.413v-0.076c0-0.266-0.2-0.266-0.617-0.266c-0.479,0-0.739,0-0.739,0.322c0,0.479,0.129,0.438,0.542,0.479
	c0.676,0.04,1.296-0.065,1.296,0.792c0,0.744-0.515,0.772-1.099,0.772c-0.585,0-1.17-0.028-1.17-0.618v-0.246h0.412v0.208
	c0,0.248,0.154,0.307,0.758,0.307c0.268,0,0.686,0.062,0.686-0.408s-0.207-0.403-0.686-0.432c-0.571-0.038-1.147,0-1.147-0.729
	c0-0.729,0.437-0.777,1.147-0.777c0.479,0,1.025,0,1.025,0.618L80.245,33.993z M83.242,34.986v0.143
	c0,0.743-0.479,0.839-1.116,0.839c-1.094,0-1.172-0.421-1.172-1.399c0-0.859,0.149-1.295,1.105-1.295
	c0.637,0,1.136,0.072,1.136,0.815v0.072h-0.398v-0.055c0-0.479-0.259-0.479-0.715-0.479c-0.7,0-0.713,0.239-0.713,1.084
	c0,0.743,0.027,0.959,0.801,0.959c0.478,0,0.675-0.057,0.675-0.533v-0.129L83.242,34.986z M84.391,32.615h-0.399V32.18h0.399V32.615
	z M84.391,35.94h-0.399V33.34h0.399V35.94z M87.498,35.144v0.115c0,0.696-0.537,0.733-1.122,0.733c-1.026,0-1.185-0.338-1.185-1.344
	c0-1.092,0.238-1.348,1.185-1.348c0.854,0,1.122,0.198,1.122,1.168v0.262h-1.919c0,0.83,0.063,0.96,0.772,0.96
	c0.542,0,0.715-0.034,0.715-0.408v-0.119L87.498,35.144z M87.084,34.391c0-0.748-0.108-0.791-0.708-0.791
	c-0.715,0-0.743,0.188-0.773,0.791H87.084z M88.707,33.628L88.707,33.628c0.125-0.315,0.513-0.351,0.811-0.351
	c0.676,0,1.003,0.183,0.993,0.911v1.752h-0.397V34.18c0-0.48-0.188-0.563-0.634-0.563c-0.647,0-0.788,0.202-0.788,0.808v1.533
	h-0.397V33.34h0.397L88.707,33.628z M93.604,34.986v0.143c0,0.743-0.48,0.839-1.118,0.839c-1.094,0-1.171-0.421-1.171-1.399
	c0-0.859,0.149-1.295,1.104-1.295c0.637,0,1.137,0.072,1.137,0.815v0.072h-0.4v-0.055c0-0.479-0.257-0.479-0.713-0.479
	c-0.7,0-0.715,0.239-0.715,1.084c0,0.743,0.028,0.959,0.801,0.959c0.48,0,0.678-0.057,0.678-0.533v-0.129L93.604,34.986z
	 M96.577,35.138v0.121c0,0.696-0.536,0.733-1.121,0.733c-1.027,0-1.185-0.338-1.185-1.344c0-1.092,0.24-1.348,1.185-1.348
	c0.854,0,1.121,0.198,1.121,1.168v0.262h-1.919c0,0.83,0.063,0.96,0.773,0.96c0.541,0,0.715-0.034,0.715-0.408v-0.119L96.577,35.138
	z M96.165,34.387c0-0.749-0.109-0.792-0.709-0.792c-0.716,0-0.744,0.187-0.773,0.792H96.165z M99.762,35.935h-0.427v-3.731h0.451
	L99.762,35.935z M101.063,33.623L101.063,33.623c0.125-0.316,0.513-0.35,0.81-0.35c0.678,0,1.003,0.182,0.994,0.911v1.75h-0.397
	V34.18c0-0.48-0.188-0.563-0.633-0.563c-0.648,0-0.787,0.202-0.787,0.808v1.533h-0.397V33.34h0.397L101.063,33.623z M104.963,33.301
	v0.322h-0.697v2.312h-0.397v-2.283h-0.404V33.34h0.404v-0.316c0-0.644,0.202-0.844,0.849-0.844h0.246v0.321h-0.246
	c-0.397,0-0.451,0.129-0.451,0.479v0.36L104.963,33.301z M106.573,33.273c0.96,0,1.172,0.234,1.172,1.347
	c0,1.114-0.192,1.344-1.172,1.344c-0.977,0-1.171-0.235-1.171-1.344c0-1.106,0.213-1.323,1.188-1.323L106.573,33.273z
	 M106.573,35.643c0.706,0,0.758-0.11,0.758-1.022c0-0.911-0.047-1.025-0.758-1.025c-0.709,0-0.758,0.108-0.758,1.025
	c0,0.916,0.067,1.051,0.775,1.051L106.573,35.643z M108.899,33.34v0.327l0,0c0.154-0.262,0.449-0.403,0.748-0.366
	c0.354-0.052,0.685,0.194,0.736,0.547c0.009,0.065,0.008,0.132-0.002,0.197v0.19h-0.374V34.06c0-0.327-0.112-0.437-0.442-0.437
	c-0.479,0-0.653,0.236-0.641,0.7v1.641h-0.399V33.34H108.899z M111.365,33.749L111.365,33.749c0.178-0.31,0.523-0.482,0.879-0.437
	c0.316,0,0.719,0.089,0.811,0.437c0.203-0.324,0.58-0.497,0.958-0.437c0.678,0,0.912,0.274,0.912,0.923v1.739h-0.398v-1.708
	c0-0.447-0.068-0.649-0.575-0.649s-0.801,0.16-0.801,0.73v1.616h-0.412v-1.77c0-0.35,0-0.577-0.587-0.577
	c-0.584,0-0.79,0.224-0.79,0.76v1.581h-0.4V33.34h0.4L111.365,33.749z M117.572,35.975V35.69l0,0
	c-0.147,0.302-0.539,0.312-0.868,0.312c-0.592,0-1.002-0.109-1.002-0.797c0-0.686,0.374-0.824,1.025-0.824
	c0.26,0,0.772,0.024,0.823,0.264h0.026v-0.479c0-0.479-0.254-0.527-0.7-0.527c-0.312,0-0.69,0-0.686,0.359v0.092h-0.414v-0.058
	c0-0.678,0.481-0.719,1.057-0.714c0.662,0,1.146,0.065,1.141,0.867v1.794L117.572,35.975z M117.572,35.192
	c0-0.48-0.297-0.48-0.797-0.48c-0.498,0-0.663,0.028-0.663,0.48c0,0.479,0.208,0.526,0.663,0.526s0.788-0.057,0.788-0.542
	L117.572,35.192z M120.249,33.661h-1.018v1.669c0,0.286,0.081,0.351,0.369,0.351c0.37,0,0.37-0.196,0.37-0.445v-0.196h0.373v0.196
	c0,0.521-0.214,0.767-0.758,0.767c-0.617,0-0.758-0.178-0.758-0.791v-1.56h-0.335V33.34h0.35v-0.646h0.396v0.646h1.02
	L120.249,33.661z M121.289,32.649h-0.397v-0.437h0.397V32.649z M121.289,35.975h-0.397V33.34h0.397V35.975z M123.261,33.313
	c0.96,0,1.169,0.233,1.169,1.347c0,1.112-0.191,1.343-1.169,1.343c-0.979,0-1.17-0.235-1.17-1.343c0-1.108,0.183-1.362,1.162-1.362
	L123.261,33.313z M123.261,35.681c0.704,0,0.759-0.11,0.759-1.021c0-0.91-0.049-1.025-0.759-1.025c-0.711,0-0.759,0.109-0.759,1.025
	s0.044,1.012,0.751,1.012L123.261,35.681z M125.636,33.661L125.636,33.661c0.125-0.315,0.513-0.349,0.811-0.349
	c0.675,0,1.003,0.183,0.991,0.91v1.752h-0.397V34.18c0-0.48-0.187-0.563-0.633-0.563c-0.646,0-0.787,0.202-0.787,0.808v1.533h-0.411
	V33.34h0.396L125.636,33.661z M30.716,7.918h-2.397v2.398h2.397V7.918z M33.594,7.918h-2.397v2.398h2.397V7.918z M39.35,7.918
	h-2.398v2.398h2.398V7.918z M42.228,7.918H39.83v2.398h2.398V7.918z M45.106,7.918h-2.399v2.398h2.399V7.918z M47.984,7.918h-2.399
	v2.398h2.399V7.918z M50.861,7.918h-2.398v2.398h2.398V7.918z M59.496,7.918h-2.398v2.398h2.398V7.918z M62.374,7.918h-2.399v2.398
	h2.399V7.918z M30.716,10.797h-2.397v2.397h2.397V10.797z M33.594,10.797h-2.397v2.397h2.397V10.797z M39.35,10.797h-2.398v2.397
	h2.398V10.797z M42.228,10.797H39.83v2.397h2.398V10.797z M50.861,10.797h-2.398v2.397h2.398V10.797z M59.496,10.797h-2.398v2.397
	h2.398V10.797z M62.374,10.797h-2.399v2.397h2.399V10.797z M30.716,13.674h-2.397v2.398h2.397V13.674z M33.594,13.674h-2.397v2.398
	h2.397V13.674z M39.35,13.674h-2.398v2.398h2.398V13.674z M42.228,13.674H39.83v2.398h2.398V13.674z M50.861,13.674h-2.398v2.398
	h2.398V13.674z M53.74,13.674h-2.398v2.398h2.398V13.674z M53.74,10.797h-2.398v2.397h2.398V10.797z M59.496,13.674h-2.398v2.398
	h2.398V13.674z M62.374,13.674h-2.399v2.398h2.399V13.674z M30.716,16.552h-2.397v2.398h2.397V16.552z M33.594,16.552h-2.397v2.398
	h2.397V16.552z M39.35,16.552h-2.398v2.398h2.398V16.552z M42.228,16.552H39.83v2.398h2.398V16.552z M45.106,16.552h-2.399v2.398
	h2.399V16.552z M47.984,16.552h-2.399v2.398h2.399V16.552z M50.861,16.552h-2.398v2.398h2.398V16.552z M59.496,16.552h-2.398v2.398
	h2.398V16.552z M62.374,16.552h-2.399v2.398h2.399V16.552z M30.716,19.43h-2.397v2.399h2.397V19.43z M33.594,19.43h-2.397v2.399
	h2.397V19.43z M39.35,19.43h-2.398v2.399h2.398V19.43z M42.228,19.43H39.83v2.399h2.398V19.43z M50.861,19.43h-2.398v2.399h2.398
	V19.43z M53.74,19.43h-2.398v2.399h2.398V19.43z M59.496,19.43h-2.398v2.399h2.398V19.43z M62.374,19.43h-2.399v2.399h2.399V19.43z
	 M30.716,25.186h-2.397v2.4h2.397V25.186z M33.594,25.186h-2.397v2.4h2.397V25.186z M30.716,22.309h-2.397v2.397h2.397V22.309z
	 M33.594,22.309h-2.397v2.397h2.397V22.309z M39.35,22.309h-2.398v2.397h2.398V22.309z M42.228,22.309H39.83v2.397h2.398V22.309z
	 M50.861,22.309h-2.398v2.397h2.398V22.309z M53.74,22.309h-2.398v2.397h2.398V22.309z M59.496,22.309h-2.398v2.397h2.398V22.309z
	 M62.374,22.309h-2.399v2.397h2.399V22.309z M24.961,28.064h-2.399v2.399h2.399V28.064z M27.838,28.064H25.44v2.399h2.397V28.064z
	 M30.716,28.064h-2.397v2.399h2.397V28.064z M39.35,25.186h-2.398v2.4h2.398V25.186z M42.228,25.186H39.83v2.4h2.398V25.186z
	 M45.106,25.186h-2.399v2.4h2.399V25.186z M47.984,25.186h-2.399v2.4h2.399V25.186z M50.861,25.186h-2.398v2.4h2.398V25.186z
	 M59.496,25.186h-2.398v2.4h2.398V25.186z M62.374,25.186h-2.399v2.4h2.399V25.186z"/>
</svg>
