<?xml version="1.0" encoding="utf-8"?>
<!-- Generator: Adobe Illustrator 16.0.0, SVG Export Plug-In . SVG Version: 6.00 Build 0)  -->
<!DOCTYPE svg PUBLIC "-//W3C//DTD SVG 1.1//EN" "http://www.w3.org/Graphics/SVG/1.1/DTD/svg11.dtd">
<svg version="1.1" id="レイヤー_1" xmlns="http://www.w3.org/2000/svg" xmlns:xlink="http://www.w3.org/1999/xlink" x="0px"
	 y="0px" width="150px" height="45px" viewBox="0 0 150 45" enable-background="new 0 0 150 45" xml:space="preserve">
<g>
	<g>
		<g>
			<linearGradient id="SVGID_1_" gradientUnits="userSpaceOnUse" x1="45.3706" y1="26.0977" x2="45.3706" y2="21.749">
				<stop  offset="0.309" style="stop-color:#FFFFFF"/>
				<stop  offset="0.5529" style="stop-color:#ADDDF7"/>
				<stop  offset="0.7688" style="stop-color:#42BFF0"/>
				<stop  offset="0.9226" style="stop-color:#00ADEB"/>
				<stop  offset="1" style="stop-color:#00A7EA"/>
			</linearGradient>
			<path opacity="0.18" fill="url(#SVGID_1_)" d="M42.947,22.105c0.258,0,0.613,0.019,0.89,0.097
				c0.516,0.158,0.593,0.731,0.613,2.453l0.022,1.443h1.536l0.043-1.66c0.04-1.542,0.298-2.057,0.693-2.195
				c0.336-0.119,0.712-0.138,1.028-0.138c0.218,0,0.337-0.042,0.337-0.159c0-0.159-0.179-0.197-0.456-0.197
				c-1.285,0-2.076,0.059-2.453,0.059c-0.178,0-1.107-0.059-2.136-0.059c-0.257,0-0.435,0.02-0.435,0.197
				C42.631,22.063,42.749,22.105,42.947,22.105z"/>
			<linearGradient id="SVGID_2_" gradientUnits="userSpaceOnUse" x1="54.8516" y1="26.0977" x2="54.8516" y2="21.5098">
				<stop  offset="0.309" style="stop-color:#FFFFFF"/>
				<stop  offset="0.5529" style="stop-color:#ADDDF7"/>
				<stop  offset="0.7688" style="stop-color:#42BFF0"/>
				<stop  offset="0.9226" style="stop-color:#00ADEB"/>
				<stop  offset="1" style="stop-color:#00A7EA"/>
			</linearGradient>
			<path opacity="0.18" fill="url(#SVGID_2_)" d="M55.581,26.098c0.259-0.271,0.446-0.463,0.52-0.531h0.099l-0.013,0.531h1.248
				l-0.068-3.974c0-0.436-0.078-0.614-0.256-0.614c-0.219,0-0.455,0.219-0.674,0.437c-0.924,0.879-2.55,2.527-4.168,4.152H55.581z"
				/>
		</g>
		<linearGradient id="SVGID_3_" gradientUnits="userSpaceOnUse" x1="100.8193" y1="26.0977" x2="100.8193" y2="21.4707">
			<stop  offset="0.309" style="stop-color:#FFFFFF"/>
			<stop  offset="0.5529" style="stop-color:#ADDDF7"/>
			<stop  offset="0.7688" style="stop-color:#42BFF0"/>
			<stop  offset="0.9226" style="stop-color:#00ADEB"/>
			<stop  offset="1" style="stop-color:#00A7EA"/>
		</linearGradient>
		<path opacity="0.18" fill="url(#SVGID_3_)" d="M97.242,26.098c1.216-2.324,3.536-3.479,5.4-3.479c1.759,0,2.828,0.197,3.619,1.106
			c0.336,0.377,0.594,0.949,0.673,1.307c0.06,0.316,0.099,0.395,0.258,0.395c0.137,0,0.177-0.137,0.177-0.297
			c0-0.236-0.237-1.957-0.435-2.629c-0.1-0.337-0.178-0.437-0.513-0.575c-0.792-0.315-2.296-0.454-3.563-0.454
			c-2.709,0-4.982,0.593-6.783,2.157c-0.852,0.746-1.427,1.594-1.806,2.471H97.242z"/>
		<linearGradient id="SVGID_4_" gradientUnits="userSpaceOnUse" x1="83.1611" y1="26.0977" x2="83.1611" y2="21.5693">
			<stop  offset="0.309" style="stop-color:#FFFFFF"/>
			<stop  offset="0.5529" style="stop-color:#ADDDF7"/>
			<stop  offset="0.7688" style="stop-color:#42BFF0"/>
			<stop  offset="0.9226" style="stop-color:#00ADEB"/>
			<stop  offset="1" style="stop-color:#00A7EA"/>
		</linearGradient>
		<path opacity="0.18" fill="url(#SVGID_4_)" d="M75.879,22.105c0.298,0,0.536,0.038,0.714,0.077
			c0.396,0.08,0.493,0.516,0.573,1.087c0.072,0.611,0.091,1.615,0.096,2.828h2.488c0.007-0.662,0.016-1.121,0.026-1.303
			c0.021-0.498,0.058-1.289,0.22-1.504c0.256-0.375,1.026-0.792,2.588-0.792c2.018,0,3.365,0.396,4.551,1.422
			c0.65,0.561,1.068,1.305,1.324,2.176h2.3c-0.397-0.902-0.925-1.643-1.469-2.193c-0.91-0.93-2.967-2.335-6.626-2.335
			c-0.712,0-1.522,0.06-2.273,0.119c-0.753,0.061-1.444,0.119-1.939,0.119c-0.217,0-0.653,0-1.127-0.021
			c-0.455,0-0.969-0.038-1.365-0.038c-0.257,0-0.395,0.059-0.395,0.197C75.564,22.044,75.642,22.105,75.879,22.105z"/>
		<linearGradient id="SVGID_5_" gradientUnits="userSpaceOnUse" x1="67.4937" y1="26.0977" x2="67.4937" y2="21.6885">
			<stop  offset="0.309" style="stop-color:#FFFFFF"/>
			<stop  offset="0.5529" style="stop-color:#ADDDF7"/>
			<stop  offset="0.7688" style="stop-color:#42BFF0"/>
			<stop  offset="0.9226" style="stop-color:#00ADEB"/>
			<stop  offset="1" style="stop-color:#00A7EA"/>
		</linearGradient>
		<path opacity="0.18" fill="url(#SVGID_5_)" d="M62.291,22.105c0.298,0,0.534,0.038,0.713,0.077
			c0.395,0.08,0.493,0.516,0.573,1.087c0.072,0.611,0.092,1.615,0.096,2.828h2.377v-1.383c0-1.305,0.06-1.641,0.692-1.899
			c0.534-0.217,0.989-0.238,1.443-0.238c0.891,0,2.394,0.475,2.394,2.532c0,0.307-0.025,0.643-0.088,0.988h2.518
			c0.002-0.033,0.003-0.066,0.003-0.098c0-2.117-1.642-4.312-5.28-4.312c-0.238,0-0.812,0.04-1.384,0.061
			c-0.595,0.038-1.188,0.059-1.485,0.059c-0.217,0-0.652,0-1.127-0.021c-0.455,0-0.969-0.038-1.365-0.038
			c-0.256,0-0.395,0.059-0.395,0.197C61.976,22.044,62.054,22.105,62.291,22.105z"/>
	</g>
	<g>
		<radialGradient id="SVGID_6_" cx="75" cy="24.7715" r="37.9853" gradientUnits="userSpaceOnUse">
			<stop  offset="0" style="stop-color:#00A7EA"/>
			<stop  offset="0.1357" style="stop-color:#00A1E1"/>
			<stop  offset="0.3808" style="stop-color:#008FC7"/>
			<stop  offset="0.7044" style="stop-color:#0071A1"/>
			<stop  offset="1" style="stop-color:#00537D"/>
		</radialGradient>
		<path fill="url(#SVGID_6_)" d="M127.994,24.771c0-4.809-23.25-8.717-52.109-8.796c18.574,0.078,33.485,2.602,33.485,5.705
			c0,3.15-15.389,5.705-34.37,5.705S40.63,24.83,40.63,21.68c0-3.104,14.911-5.627,33.484-5.705
			c-28.86,0.079-52.108,3.987-52.108,8.796c0,4.859,23.727,8.797,52.994,8.797C104.269,33.568,127.994,29.631,127.994,24.771z"/>
		<path fill="#00537D" d="M74.114,15.975c0.294-0.001,0.588-0.002,0.886-0.002C74.702,15.973,74.407,15.974,74.114,15.975z"/>
		<path fill="#00537D" d="M75,15.973c0.297,0,0.591,0.001,0.885,0.002C75.594,15.974,75.297,15.973,75,15.973z"/>
	</g>
	<g>
		<linearGradient id="SVGID_7_" gradientUnits="userSpaceOnUse" x1="50.9478" y1="21.3306" x2="50.9478" y2="5.8042">
			<stop  offset="0" style="stop-color:#00A7EA"/>
			<stop  offset="0.1663" style="stop-color:#008FC7"/>
			<stop  offset="0.3359" style="stop-color:#0079AB"/>
			<stop  offset="0.5058" style="stop-color:#006896"/>
			<stop  offset="0.674" style="stop-color:#005D88"/>
			<stop  offset="0.8397" style="stop-color:#005680"/>
			<stop  offset="1" style="stop-color:#00537D"/>
		</linearGradient>
		<path fill="url(#SVGID_7_)" d="M46.052,18.403c0.04,1.544,0.298,2.059,0.693,2.197c0.336,0.118,0.712,0.138,1.028,0.138
			c0.218,0,0.337,0.039,0.337,0.159c0,0.157-0.179,0.197-0.456,0.197c-1.285,0-2.076-0.059-2.453-0.059
			c-0.178,0-1.107,0.059-2.136,0.059c-0.257,0-0.435-0.02-0.435-0.197c0-0.12,0.118-0.159,0.316-0.159
			c0.258,0,0.613-0.02,0.89-0.099c0.516-0.158,0.593-0.733,0.613-2.452l0.179-11.711c0-0.394,0.059-0.672,0.257-0.672
			c0.218,0,0.395,0.256,0.731,0.613c0.237,0.258,3.243,3.48,6.132,6.349c1.345,1.345,4.015,4.194,4.352,4.511h0.099l-0.198-8.883
			c-0.02-1.205-0.198-1.58-0.672-1.778c-0.297-0.119-0.771-0.119-1.049-0.119c-0.237,0-0.316-0.059-0.316-0.178
			c0-0.159,0.219-0.179,0.515-0.179c1.028,0,1.978,0.06,2.394,0.06c0.217,0,0.969-0.06,1.938-0.06c0.258,0,0.455,0.02,0.455,0.179
			c0,0.119-0.117,0.178-0.355,0.178c-0.199,0-0.356,0-0.594,0.06c-0.554,0.158-0.711,0.572-0.732,1.683l-0.217,12.479
			c0,0.436-0.078,0.612-0.256,0.612c-0.219,0-0.455-0.217-0.674-0.434c-1.246-1.188-3.777-3.778-5.835-5.815
			c-2.155-2.138-4.352-4.609-4.707-4.985h-0.06L46.052,18.403z"/>
		<linearGradient id="SVGID_8_" gradientUnits="userSpaceOnUse" x1="67.3452" y1="21.1538" x2="67.3452" y2="6.1401">
			<stop  offset="0" style="stop-color:#00A7EA"/>
			<stop  offset="0.1663" style="stop-color:#008FC7"/>
			<stop  offset="0.3359" style="stop-color:#0079AB"/>
			<stop  offset="0.5058" style="stop-color:#006896"/>
			<stop  offset="0.674" style="stop-color:#005D88"/>
			<stop  offset="0.8397" style="stop-color:#005680"/>
			<stop  offset="1" style="stop-color:#00537D"/>
		</linearGradient>
		<path fill="url(#SVGID_8_)" d="M63.677,11.875c0-3.006,0-3.559-0.041-4.192c-0.039-0.672-0.196-0.989-0.85-1.127
			c-0.158-0.04-0.495-0.06-0.771-0.06c-0.218,0-0.336-0.039-0.336-0.178c0-0.14,0.139-0.179,0.436-0.179
			c1.047,0,2.294,0.06,2.689,0.06c0.969,0,1.74-0.06,2.413-0.06c3.581,0,4.213,1.919,4.213,2.968c0,1.62-0.93,2.591-2.018,3.461
			c1.624,0.554,3.6,1.958,3.6,4.272c0,2.117-1.642,4.313-5.28,4.313c-0.238,0-0.812-0.04-1.384-0.06
			c-0.595-0.04-1.188-0.059-1.485-0.059c-0.217,0-0.652,0-1.127,0.019c-0.455,0-0.969,0.04-1.365,0.04
			c-0.256,0-0.395-0.059-0.395-0.197c0-0.099,0.078-0.159,0.315-0.159c0.298,0,0.534-0.04,0.713-0.079
			c0.395-0.079,0.493-0.513,0.573-1.087c0.1-0.832,0.1-2.394,0.1-4.215V11.875z M66.05,12.213c0,0.157,0.06,0.196,0.138,0.217
			c0.179,0.039,0.475,0.059,0.931,0.059c0.652,0,1.088-0.079,1.424-0.376c0.516-0.414,0.813-1.125,0.813-2.097
			c0-1.325-0.773-3.064-2.475-3.064c-0.277,0-0.455,0-0.653,0.039c-0.138,0.04-0.177,0.118-0.177,0.336V12.213z M68.661,13.795
			c-0.416-0.297-0.871-0.434-1.643-0.475c-0.356-0.021-0.553-0.021-0.85-0.021c-0.08,0-0.119,0.039-0.119,0.14v4.688
			c0,1.305,0.06,1.642,0.692,1.898c0.534,0.218,0.989,0.237,1.443,0.237c0.891,0,2.394-0.475,2.394-2.533
			C70.579,16.506,70.165,14.843,68.661,13.795z"/>
		<linearGradient id="SVGID_9_" gradientUnits="userSpaceOnUse" x1="83.3574" y1="21.2729" x2="83.3574" y2="6.1401">
			<stop  offset="0" style="stop-color:#00A7EA"/>
			<stop  offset="0.1663" style="stop-color:#008FC7"/>
			<stop  offset="0.3359" style="stop-color:#0079AB"/>
			<stop  offset="0.5058" style="stop-color:#006896"/>
			<stop  offset="0.674" style="stop-color:#005D88"/>
			<stop  offset="0.8397" style="stop-color:#005680"/>
			<stop  offset="1" style="stop-color:#00537D"/>
		</linearGradient>
		<path fill="url(#SVGID_9_)" d="M77.263,11.875c0-3.006,0-3.559-0.037-4.192c-0.039-0.672-0.197-0.989-0.85-1.127
			c-0.159-0.04-0.497-0.06-0.771-0.06c-0.22,0-0.336-0.039-0.336-0.178c0-0.14,0.137-0.179,0.434-0.179
			c1.049,0,2.294,0.06,2.847,0.06c0.615,0,1.861-0.06,3.047-0.06c2.473,0,5.777,0,7.932,2.254c0.991,1.029,1.919,2.672,1.919,5.024
			c0,2.493-1.047,4.392-2.156,5.521c-0.91,0.929-2.967,2.334-6.626,2.334c-0.712,0-1.522-0.061-2.273-0.119
			c-0.753-0.06-1.444-0.118-1.939-0.118c-0.217,0-0.653,0-1.127,0.019c-0.455,0-0.969,0.04-1.365,0.04
			c-0.257,0-0.395-0.059-0.395-0.197c0-0.099,0.077-0.159,0.314-0.159c0.298,0,0.536-0.04,0.714-0.079
			c0.396-0.079,0.493-0.513,0.573-1.087c0.097-0.832,0.097-2.394,0.097-4.215V11.875z M79.736,14.052c0,2.097,0.021,3.62,0.04,3.996
			c0.021,0.494,0.058,1.285,0.22,1.503c0.256,0.375,1.026,0.791,2.588,0.791c2.018,0,3.365-0.396,4.551-1.423
			c1.267-1.09,1.663-2.889,1.663-4.928c0-2.511-1.051-4.132-1.9-4.943c-1.819-1.74-4.073-1.979-5.615-1.979
			c-0.396,0-1.13,0.059-1.286,0.138c-0.18,0.08-0.239,0.181-0.239,0.397c-0.021,0.671-0.021,2.392-0.021,3.955V14.052z"/>
		<linearGradient id="SVGID_10_" gradientUnits="userSpaceOnUse" x1="100.4961" y1="21.3726" x2="100.4961" y2="5.8647">
			<stop  offset="0" style="stop-color:#00A7EA"/>
			<stop  offset="0.1663" style="stop-color:#008FC7"/>
			<stop  offset="0.3359" style="stop-color:#0079AB"/>
			<stop  offset="0.5058" style="stop-color:#006896"/>
			<stop  offset="0.674" style="stop-color:#005D88"/>
			<stop  offset="0.8397" style="stop-color:#005680"/>
			<stop  offset="1" style="stop-color:#00537D"/>
		</linearGradient>
		<path fill="url(#SVGID_10_)" d="M96.075,19.214c-1.938-1.702-2.452-3.916-2.452-5.834c0-1.346,0.415-3.68,2.313-5.42
			c1.425-1.305,3.303-2.096,6.251-2.096c1.227,0,1.959,0.077,2.866,0.195c0.754,0.1,1.387,0.278,1.979,0.336
			c0.22,0.021,0.296,0.12,0.296,0.238c0,0.159-0.058,0.396-0.097,1.089c-0.04,0.652-0.021,1.741-0.06,2.137
			c-0.021,0.295-0.061,0.453-0.238,0.453c-0.159,0-0.197-0.158-0.197-0.435c-0.021-0.613-0.276-1.306-0.771-1.819
			c-0.653-0.691-2.196-1.227-4.017-1.227c-1.72,0-2.847,0.437-3.717,1.227c-1.444,1.326-1.82,3.204-1.82,5.122
			c0,4.708,3.58,7.044,6.23,7.044c1.759,0,2.828-0.198,3.619-1.109c0.336-0.376,0.594-0.949,0.673-1.306
			c0.06-0.316,0.099-0.395,0.258-0.395c0.137,0,0.177,0.137,0.177,0.296c0,0.237-0.237,1.959-0.435,2.631
			c-0.1,0.335-0.178,0.435-0.513,0.574c-0.792,0.316-2.296,0.456-3.563,0.456C100.149,21.373,97.876,20.777,96.075,19.214z"/>
	</g>
	<g>
		<path fill="#0086BF" d="M25.293,37.248c0.274,0.373,0.544,0.756,0.813,1.148h0.02c-0.029-0.408-0.044-0.828-0.044-1.254v-2.25
			h0.548v4.225h-0.544l-1.754-2.355c-0.303-0.41-0.573-0.793-0.811-1.148h-0.021c0.029,0.385,0.044,0.834,0.044,1.35v2.154h-0.545
			v-4.225h0.541L25.293,37.248z"/>
		<path fill="#0086BF" d="M29.551,38.787h-0.012c-0.043,0.049-0.098,0.1-0.161,0.148c-0.065,0.049-0.14,0.094-0.225,0.133
			c-0.084,0.041-0.176,0.072-0.277,0.094c-0.099,0.023-0.207,0.033-0.319,0.033c-0.154,0-0.295-0.02-0.424-0.063
			c-0.127-0.045-0.237-0.107-0.329-0.189c-0.093-0.084-0.165-0.186-0.216-0.305c-0.052-0.119-0.077-0.258-0.077-0.408
			c0-0.148,0.029-0.283,0.085-0.4c0.058-0.117,0.137-0.219,0.238-0.301c0.103-0.082,0.226-0.146,0.37-0.189
			c0.143-0.043,0.302-0.064,0.475-0.064c0.166,0.002,0.318,0.014,0.458,0.039c0.142,0.025,0.265,0.057,0.374,0.096h0.014v-0.209
			c0-0.082-0.006-0.154-0.017-0.219c-0.011-0.061-0.03-0.119-0.057-0.166c-0.059-0.102-0.15-0.186-0.277-0.25
			c-0.127-0.068-0.298-0.102-0.514-0.102c-0.161,0-0.311,0.014-0.453,0.043c-0.142,0.029-0.282,0.066-0.423,0.119v-0.41
			c0.054-0.027,0.117-0.049,0.189-0.072c0.072-0.021,0.147-0.041,0.229-0.057c0.079-0.016,0.164-0.027,0.253-0.037
			c0.091-0.006,0.179-0.012,0.269-0.012c0.319,0,0.583,0.053,0.786,0.162c0.203,0.107,0.351,0.248,0.439,0.426
			c0.033,0.066,0.058,0.143,0.071,0.223s0.021,0.17,0.021,0.266v2.002h-0.433L29.551,38.787z M29.524,37.801
			c-0.096-0.025-0.208-0.047-0.339-0.074c-0.13-0.021-0.274-0.035-0.433-0.037c-0.22,0-0.392,0.045-0.515,0.133
			c-0.125,0.09-0.188,0.225-0.188,0.408c0,0.094,0.016,0.174,0.048,0.244c0.03,0.068,0.073,0.127,0.128,0.172
			c0.054,0.043,0.118,0.078,0.192,0.1c0.074,0.023,0.154,0.035,0.238,0.035c0.11,0,0.214-0.016,0.309-0.047
			c0.096-0.029,0.181-0.066,0.254-0.109c0.075-0.041,0.139-0.084,0.19-0.125c0.051-0.043,0.09-0.076,0.114-0.1V37.801z"/>
		<path fill="#0086BF" d="M32.718,39.125c-0.044,0.016-0.112,0.031-0.204,0.047c-0.091,0.014-0.201,0.021-0.327,0.023
			c-0.167,0-0.312-0.018-0.435-0.055c-0.123-0.041-0.224-0.096-0.306-0.172c-0.081-0.068-0.141-0.16-0.182-0.262
			c-0.04-0.102-0.06-0.219-0.06-0.344v-1.824h-0.611v-0.422h0.611v-0.82h0.518v0.82h0.948v0.422h-0.948v1.748
			c0,0.07,0.01,0.135,0.03,0.193c0.021,0.059,0.056,0.109,0.101,0.152c0.046,0.043,0.104,0.078,0.176,0.102
			c0.071,0.025,0.157,0.037,0.257,0.037c0.069,0,0.143-0.004,0.219-0.018c0.078-0.01,0.147-0.023,0.213-0.041V39.125z"/>
		<path fill="#0086BF" d="M33.439,35.42v-0.545h0.518v0.545H33.439z M33.452,39.117v-3h0.518v3H33.452z"/>
		<path fill="#0086BF" d="M37.834,37.621c0,0.236-0.036,0.451-0.106,0.643c-0.071,0.197-0.173,0.361-0.302,0.5
			c-0.131,0.137-0.288,0.244-0.474,0.32c-0.184,0.074-0.393,0.111-0.621,0.111c-0.235,0-0.446-0.037-0.632-0.111
			c-0.188-0.076-0.345-0.184-0.476-0.32c-0.13-0.139-0.229-0.303-0.298-0.5c-0.069-0.191-0.104-0.406-0.104-0.643
			c0-0.238,0.035-0.453,0.106-0.648C35,36.779,35.1,36.613,35.23,36.475s0.289-0.246,0.475-0.322
			c0.186-0.074,0.395-0.113,0.624-0.113c0.231,0,0.442,0.039,0.63,0.113c0.188,0.076,0.345,0.184,0.475,0.322
			c0.129,0.139,0.229,0.305,0.297,0.498C37.8,37.168,37.834,37.383,37.834,37.621z M37.294,37.621c0-0.184-0.024-0.35-0.073-0.494
			c-0.047-0.145-0.114-0.268-0.199-0.367c-0.086-0.1-0.188-0.174-0.306-0.229c-0.119-0.051-0.247-0.074-0.387-0.074
			c-0.142,0-0.271,0.023-0.389,0.074c-0.118,0.055-0.219,0.129-0.306,0.229c-0.086,0.1-0.152,0.223-0.2,0.367
			s-0.071,0.311-0.071,0.494s0.023,0.348,0.071,0.492s0.115,0.266,0.202,0.363c0.086,0.1,0.189,0.174,0.308,0.227
			c0.118,0.051,0.246,0.078,0.387,0.078s0.269-0.027,0.386-0.078c0.117-0.053,0.219-0.127,0.305-0.227
			c0.085-0.098,0.152-0.219,0.199-0.363C37.27,37.969,37.294,37.805,37.294,37.621z"/>
		<path fill="#0086BF" d="M39.153,36.533h0.011c0.058-0.068,0.121-0.135,0.192-0.191c0.069-0.061,0.147-0.113,0.235-0.16
			c0.085-0.043,0.182-0.08,0.285-0.104c0.104-0.027,0.216-0.039,0.338-0.039c0.146,0,0.281,0.02,0.407,0.057
			c0.128,0.037,0.237,0.1,0.332,0.184c0.093,0.084,0.167,0.195,0.222,0.33c0.055,0.137,0.082,0.303,0.082,0.5v2.008H40.74v-1.93
			c0-0.258-0.053-0.447-0.159-0.559c-0.105-0.113-0.26-0.17-0.462-0.17c-0.178,0-0.352,0.049-0.519,0.143
			c-0.167,0.092-0.31,0.221-0.431,0.385v2.131h-0.517v-3h0.4L39.153,36.533z"/>
		<path fill="#0086BF" d="M44.116,38.787h-0.014c-0.042,0.049-0.095,0.1-0.16,0.148c-0.064,0.049-0.139,0.094-0.223,0.133
			c-0.085,0.041-0.178,0.072-0.278,0.094c-0.1,0.023-0.207,0.033-0.318,0.033c-0.155,0-0.296-0.02-0.425-0.063
			c-0.128-0.045-0.238-0.107-0.33-0.189c-0.092-0.084-0.164-0.186-0.216-0.305c-0.051-0.119-0.076-0.258-0.076-0.408
			c0-0.148,0.027-0.283,0.085-0.4s0.136-0.219,0.238-0.301s0.227-0.146,0.37-0.189c0.143-0.043,0.303-0.064,0.477-0.064
			c0.163,0.002,0.315,0.014,0.455,0.039c0.142,0.025,0.266,0.057,0.375,0.096h0.015v-0.209c0-0.082-0.007-0.154-0.018-0.219
			c-0.012-0.061-0.029-0.119-0.058-0.166c-0.057-0.102-0.149-0.186-0.276-0.25c-0.127-0.068-0.298-0.102-0.515-0.102
			c-0.16,0-0.312,0.014-0.452,0.043c-0.142,0.029-0.281,0.066-0.423,0.119v-0.41c0.053-0.027,0.116-0.049,0.188-0.072
			c0.073-0.021,0.149-0.041,0.229-0.057s0.164-0.027,0.253-0.037c0.089-0.006,0.179-0.012,0.269-0.012
			c0.319,0,0.582,0.053,0.785,0.162c0.204,0.107,0.352,0.248,0.439,0.426c0.034,0.066,0.058,0.143,0.072,0.223
			s0.021,0.17,0.021,0.266v2.002h-0.434L44.116,38.787z M44.091,37.801c-0.097-0.025-0.21-0.047-0.34-0.074
			c-0.131-0.021-0.274-0.035-0.433-0.037c-0.22,0-0.391,0.045-0.515,0.133c-0.124,0.09-0.186,0.225-0.186,0.408
			c0,0.094,0.015,0.174,0.045,0.244c0.031,0.068,0.075,0.127,0.129,0.172c0.054,0.043,0.119,0.078,0.192,0.1
			c0.074,0.023,0.153,0.035,0.237,0.035c0.111,0,0.215-0.016,0.31-0.047c0.096-0.029,0.18-0.066,0.254-0.109
			c0.075-0.041,0.139-0.084,0.19-0.125c0.052-0.043,0.09-0.076,0.115-0.1V37.801z"/>
		<path fill="#0086BF" d="M45.644,39.117v-4.572h0.518v4.572H45.644z"/>
		<path fill="#0086BF" d="M50.804,36.934c0.137,0.018,0.262,0.053,0.372,0.104s0.205,0.115,0.283,0.193
			c0.079,0.08,0.14,0.174,0.183,0.281c0.042,0.109,0.063,0.232,0.063,0.371c0,0.098-0.016,0.203-0.045,0.311
			c-0.032,0.107-0.083,0.213-0.154,0.316c-0.071,0.102-0.166,0.197-0.28,0.283c-0.116,0.086-0.26,0.156-0.432,0.211
			c-0.132,0.043-0.279,0.072-0.439,0.09c-0.16,0.016-0.354,0.023-0.578,0.023h-1.144v-4.225h1.104c0.102,0,0.193,0.002,0.275,0.006
			s0.158,0.006,0.228,0.014c0.068,0.006,0.134,0.014,0.193,0.023c0.06,0.008,0.115,0.02,0.168,0.033
			c0.139,0.035,0.265,0.084,0.378,0.146c0.114,0.063,0.21,0.137,0.289,0.223s0.142,0.186,0.185,0.295
			c0.041,0.107,0.063,0.229,0.063,0.355c0,0.104-0.012,0.201-0.037,0.297s-0.067,0.182-0.123,0.262
			c-0.058,0.082-0.131,0.15-0.223,0.215c-0.089,0.063-0.199,0.115-0.327,0.16V36.934z M50.004,36.721
			c0.107,0,0.201-0.004,0.278-0.014c0.078-0.01,0.148-0.023,0.21-0.045c0.167-0.051,0.289-0.133,0.365-0.244
			c0.077-0.109,0.116-0.244,0.116-0.395c0-0.156-0.04-0.283-0.12-0.383c-0.081-0.098-0.206-0.172-0.377-0.221
			c-0.086-0.023-0.184-0.039-0.294-0.049c-0.112-0.01-0.243-0.014-0.395-0.014h-0.611v1.363H50.004z M49.177,37.186v1.469h0.657
			c0.156,0,0.302-0.008,0.435-0.021c0.135-0.012,0.248-0.035,0.341-0.064c0.102-0.031,0.189-0.072,0.261-0.123
			c0.07-0.049,0.128-0.102,0.172-0.162c0.043-0.061,0.074-0.125,0.094-0.191c0.02-0.068,0.028-0.137,0.028-0.205
			c0-0.08-0.011-0.154-0.03-0.227c-0.02-0.07-0.054-0.133-0.099-0.189c-0.046-0.057-0.105-0.105-0.18-0.145
			c-0.075-0.043-0.168-0.076-0.279-0.1c-0.067-0.016-0.144-0.025-0.229-0.031c-0.084-0.008-0.192-0.01-0.318-0.01H49.177z"/>
		<path fill="#0086BF" d="M52.644,35.42v-0.545h0.518v0.545H52.644z M52.657,39.117v-3h0.518v3H52.657z"/>
		<path fill="#0086BF" d="M57.038,37.621c0,0.236-0.035,0.451-0.107,0.643c-0.07,0.197-0.171,0.361-0.302,0.5
			c-0.13,0.137-0.288,0.244-0.473,0.32c-0.185,0.074-0.392,0.111-0.62,0.111c-0.236,0-0.447-0.037-0.634-0.111
			c-0.186-0.076-0.343-0.184-0.475-0.32c-0.13-0.139-0.229-0.303-0.298-0.5c-0.069-0.191-0.104-0.406-0.104-0.643
			c0-0.238,0.035-0.453,0.106-0.648c0.07-0.193,0.171-0.359,0.303-0.498c0.13-0.139,0.288-0.246,0.474-0.322
			c0.186-0.074,0.394-0.113,0.623-0.113c0.234,0,0.444,0.039,0.631,0.113c0.188,0.076,0.346,0.184,0.475,0.322
			s0.228,0.305,0.298,0.498C57.005,37.168,57.038,37.383,57.038,37.621z M56.497,37.621c0-0.184-0.023-0.35-0.071-0.494
			s-0.116-0.268-0.2-0.367c-0.086-0.1-0.188-0.174-0.307-0.229c-0.117-0.051-0.247-0.074-0.387-0.074
			c-0.141,0-0.27,0.023-0.387,0.074c-0.117,0.055-0.221,0.129-0.306,0.229c-0.086,0.1-0.153,0.223-0.201,0.367
			s-0.071,0.311-0.071,0.494s0.023,0.348,0.071,0.492s0.115,0.266,0.202,0.363c0.086,0.1,0.189,0.174,0.307,0.227
			c0.119,0.051,0.248,0.078,0.389,0.078c0.14,0,0.267-0.027,0.386-0.078c0.116-0.053,0.218-0.127,0.304-0.227
			c0.084-0.098,0.152-0.219,0.2-0.363S56.497,37.805,56.497,37.621z"/>
		<path fill="#0086BF" d="M58.228,36.918c0,0.082,0.019,0.148,0.056,0.201c0.036,0.051,0.086,0.096,0.147,0.129
			c0.063,0.031,0.135,0.059,0.217,0.08s0.166,0.039,0.252,0.055c0.119,0.027,0.233,0.057,0.341,0.084
			c0.106,0.033,0.204,0.078,0.294,0.139c0.092,0.061,0.164,0.145,0.22,0.248c0.055,0.104,0.083,0.24,0.083,0.404
			c0,0.152-0.03,0.287-0.092,0.404c-0.064,0.117-0.151,0.215-0.266,0.293c-0.113,0.078-0.248,0.141-0.406,0.18
			c-0.158,0.043-0.332,0.061-0.522,0.061c-0.114,0-0.221-0.002-0.315-0.016c-0.094-0.012-0.178-0.025-0.25-0.045
			c-0.072-0.018-0.135-0.035-0.186-0.055s-0.094-0.037-0.127-0.055v-0.41c0.131,0.051,0.262,0.092,0.391,0.121
			c0.129,0.031,0.271,0.045,0.425,0.045c0.124,0,0.234-0.012,0.333-0.033c0.098-0.021,0.182-0.051,0.254-0.092
			c0.07-0.045,0.125-0.094,0.164-0.154c0.038-0.064,0.057-0.137,0.057-0.217c0-0.086-0.018-0.154-0.053-0.211
			c-0.035-0.053-0.082-0.096-0.141-0.133s-0.127-0.066-0.205-0.09c-0.076-0.021-0.159-0.043-0.244-0.063
			c-0.111-0.021-0.225-0.051-0.34-0.082c-0.113-0.031-0.219-0.076-0.313-0.133c-0.094-0.059-0.171-0.135-0.227-0.232
			c-0.059-0.098-0.089-0.225-0.089-0.377c0-0.16,0.03-0.293,0.091-0.41s0.142-0.213,0.243-0.289c0.104-0.076,0.223-0.133,0.358-0.17
			s0.279-0.057,0.43-0.057c0.177,0,0.34,0.016,0.49,0.047s0.286,0.072,0.41,0.121v0.416c-0.132-0.049-0.264-0.086-0.396-0.117
			c-0.134-0.031-0.272-0.049-0.413-0.049c-0.118,0-0.222,0.01-0.307,0.033c-0.084,0.023-0.153,0.055-0.209,0.098
			c-0.054,0.041-0.093,0.088-0.118,0.145C58.241,36.789,58.228,36.85,58.228,36.918z"/>
		<path fill="#0086BF" d="M61.984,36.039c0.153,0,0.302,0.016,0.442,0.045c0.139,0.031,0.26,0.074,0.359,0.127v0.41
			c-0.141-0.053-0.269-0.092-0.387-0.113c-0.119-0.027-0.238-0.039-0.36-0.039c-0.13,0-0.259,0.02-0.385,0.059
			c-0.128,0.041-0.239,0.107-0.341,0.199c-0.101,0.092-0.182,0.213-0.241,0.361c-0.063,0.152-0.093,0.338-0.093,0.561
			c0,0.162,0.023,0.313,0.068,0.449s0.113,0.256,0.204,0.355s0.202,0.18,0.339,0.234c0.136,0.055,0.293,0.084,0.47,0.084
			c0.13,0,0.261-0.014,0.392-0.039c0.131-0.027,0.261-0.064,0.385-0.113v0.406c-0.038,0.021-0.087,0.043-0.15,0.064
			c-0.061,0.021-0.127,0.039-0.201,0.057c-0.072,0.014-0.151,0.027-0.232,0.037c-0.084,0.01-0.166,0.012-0.248,0.012
			c-0.213,0-0.416-0.029-0.605-0.09c-0.191-0.061-0.357-0.154-0.5-0.281c-0.143-0.125-0.254-0.285-0.338-0.48
			c-0.082-0.193-0.123-0.422-0.123-0.689c0-0.195,0.021-0.373,0.064-0.531c0.045-0.158,0.104-0.299,0.179-0.418
			c0.076-0.119,0.165-0.221,0.267-0.307c0.101-0.084,0.209-0.15,0.323-0.205s0.233-0.094,0.356-0.119
			C61.749,36.051,61.868,36.039,61.984,36.039z"/>
		<path fill="#0086BF" d="M63.642,35.42v-0.545h0.518v0.545H63.642z M63.655,39.117v-3h0.518v3H63.655z"/>
		<path fill="#0086BF" d="M66.714,38.771c0.172,0,0.328-0.014,0.469-0.039c0.143-0.027,0.282-0.064,0.423-0.113v0.406
			c-0.113,0.053-0.253,0.096-0.421,0.125c-0.166,0.031-0.346,0.045-0.538,0.045c-0.226,0-0.44-0.025-0.64-0.082
			c-0.199-0.053-0.371-0.141-0.517-0.264c-0.146-0.123-0.261-0.281-0.344-0.477c-0.081-0.197-0.122-0.436-0.122-0.715
			c0-0.273,0.039-0.51,0.12-0.711c0.079-0.201,0.187-0.367,0.319-0.504c0.134-0.135,0.287-0.236,0.459-0.305
			c0.174-0.066,0.355-0.1,0.543-0.1c0.179,0,0.344,0.029,0.499,0.084c0.155,0.057,0.287,0.143,0.401,0.264
			c0.112,0.121,0.203,0.273,0.268,0.465c0.066,0.189,0.098,0.416,0.098,0.68c0,0.027,0,0.049,0,0.064c0,0.018,0,0.059-0.002,0.123
			h-2.191c0,0.193,0.031,0.355,0.092,0.488c0.062,0.133,0.146,0.242,0.251,0.324c0.104,0.084,0.229,0.145,0.374,0.182
			C66.396,38.752,66.55,38.771,66.714,38.771z M66.44,36.459c-0.12,0-0.229,0.021-0.332,0.066c-0.104,0.043-0.193,0.104-0.27,0.18
			c-0.078,0.076-0.14,0.166-0.186,0.266c-0.048,0.104-0.076,0.211-0.088,0.328h1.623c0-0.117-0.016-0.229-0.05-0.332
			c-0.032-0.102-0.08-0.189-0.144-0.264c-0.063-0.076-0.14-0.137-0.232-0.18S66.563,36.459,66.44,36.459z"/>
		<path fill="#0086BF" d="M69.111,36.533h0.013c0.057-0.068,0.119-0.135,0.189-0.191c0.07-0.061,0.15-0.113,0.236-0.16
			c0.088-0.043,0.182-0.08,0.287-0.104c0.103-0.027,0.215-0.039,0.338-0.039c0.145,0,0.279,0.02,0.406,0.057
			c0.129,0.037,0.238,0.1,0.33,0.184c0.096,0.084,0.169,0.195,0.225,0.33c0.053,0.137,0.081,0.303,0.081,0.5v2.008h-0.519v-1.93
			c0-0.258-0.052-0.447-0.158-0.559c-0.105-0.113-0.26-0.17-0.463-0.17c-0.178,0-0.35,0.049-0.518,0.143
			c-0.168,0.092-0.311,0.221-0.43,0.385v2.131h-0.519v-3h0.399L69.111,36.533z"/>
		<path fill="#0086BF" d="M73.582,36.039c0.153,0,0.3,0.016,0.438,0.045c0.141,0.031,0.261,0.074,0.362,0.127v0.41
			c-0.142-0.053-0.269-0.092-0.388-0.113c-0.119-0.027-0.24-0.039-0.359-0.039c-0.131,0-0.258,0.02-0.386,0.059
			c-0.128,0.041-0.239,0.107-0.339,0.199c-0.102,0.092-0.182,0.213-0.244,0.361c-0.061,0.152-0.092,0.338-0.092,0.561
			c0,0.162,0.023,0.313,0.068,0.449c0.047,0.137,0.113,0.256,0.203,0.355s0.204,0.18,0.34,0.234s0.293,0.084,0.471,0.084
			c0.13,0,0.26-0.014,0.391-0.039c0.133-0.027,0.261-0.064,0.385-0.113v0.406c-0.039,0.021-0.087,0.043-0.148,0.064
			s-0.129,0.039-0.202,0.057c-0.075,0.014-0.152,0.027-0.233,0.037c-0.084,0.01-0.166,0.012-0.248,0.012
			c-0.214,0-0.417-0.029-0.607-0.09c-0.189-0.061-0.355-0.154-0.498-0.281c-0.143-0.125-0.255-0.285-0.337-0.48
			c-0.082-0.193-0.124-0.422-0.124-0.689c0-0.195,0.021-0.373,0.064-0.531c0.044-0.158,0.105-0.299,0.18-0.418
			c0.076-0.119,0.164-0.221,0.266-0.307c0.1-0.084,0.207-0.15,0.323-0.205c0.114-0.055,0.233-0.094,0.355-0.119
			C73.346,36.051,73.465,36.039,73.582,36.039z"/>
		<path fill="#0086BF" d="M76.725,38.771c0.171,0,0.325-0.014,0.469-0.039c0.142-0.027,0.281-0.064,0.421-0.113v0.406
			c-0.112,0.053-0.254,0.096-0.421,0.125c-0.167,0.031-0.344,0.045-0.538,0.045c-0.226,0-0.438-0.025-0.638-0.082
			c-0.2-0.053-0.372-0.141-0.519-0.264c-0.145-0.123-0.26-0.281-0.342-0.477c-0.084-0.197-0.125-0.436-0.125-0.715
			c0-0.273,0.041-0.51,0.121-0.711s0.186-0.367,0.318-0.504c0.134-0.135,0.289-0.236,0.461-0.305c0.175-0.066,0.354-0.1,0.543-0.1
			c0.179,0,0.343,0.029,0.5,0.084c0.152,0.057,0.286,0.143,0.399,0.264s0.202,0.273,0.27,0.465c0.065,0.189,0.099,0.416,0.099,0.68
			c0,0.027,0,0.049,0,0.064c0,0.018-0.003,0.059-0.006,0.123H75.55c0,0.193,0.028,0.355,0.089,0.488
			c0.062,0.133,0.145,0.242,0.251,0.324c0.106,0.084,0.23,0.145,0.372,0.182C76.405,38.752,76.558,38.771,76.725,38.771z
			 M76.45,36.459c-0.118,0-0.23,0.021-0.332,0.066c-0.104,0.043-0.193,0.104-0.27,0.18c-0.078,0.076-0.138,0.166-0.188,0.266
			c-0.045,0.104-0.075,0.211-0.087,0.328h1.623c0-0.117-0.018-0.229-0.049-0.332c-0.033-0.102-0.08-0.189-0.145-0.264
			c-0.063-0.076-0.141-0.137-0.233-0.18S76.572,36.459,76.45,36.459z"/>
		<path fill="#0086BF" d="M83.678,36.986c0,0.248-0.033,0.479-0.098,0.697c-0.064,0.215-0.162,0.41-0.293,0.582
			c-0.13,0.174-0.293,0.324-0.486,0.451c-0.196,0.127-0.422,0.225-0.683,0.293c-0.148,0.041-0.313,0.068-0.486,0.086
			c-0.173,0.014-0.361,0.021-0.563,0.021h-1.013v-4.225h1.022c0.203,0,0.391,0.01,0.563,0.023c0.173,0.016,0.335,0.043,0.482,0.086
			c0.263,0.068,0.491,0.164,0.686,0.289c0.194,0.123,0.356,0.271,0.484,0.439c0.128,0.172,0.223,0.359,0.287,0.572
			C83.645,36.514,83.678,36.74,83.678,36.986z M83.135,36.986c0-0.406-0.095-0.734-0.283-0.988
			c-0.189-0.252-0.463-0.432-0.815-0.537c-0.136-0.041-0.288-0.066-0.453-0.082c-0.167-0.016-0.356-0.021-0.565-0.021h-0.416v3.297
			h0.416c0.209,0,0.398-0.008,0.565-0.021c0.165-0.014,0.317-0.043,0.453-0.082c0.353-0.105,0.626-0.291,0.815-0.555
			C83.04,37.734,83.135,37.398,83.135,36.986z"/>
		<path fill="#0086BF" d="M86.437,38.787h-0.013c-0.043,0.049-0.098,0.1-0.162,0.148s-0.14,0.094-0.223,0.133
			c-0.085,0.041-0.178,0.072-0.278,0.094c-0.101,0.023-0.207,0.033-0.32,0.033c-0.154,0-0.295-0.02-0.423-0.063
			c-0.128-0.045-0.237-0.107-0.33-0.189c-0.093-0.084-0.166-0.186-0.215-0.305c-0.054-0.119-0.078-0.258-0.078-0.408
			c0-0.148,0.031-0.283,0.085-0.4c0.058-0.117,0.137-0.219,0.24-0.301c0.102-0.082,0.227-0.146,0.367-0.189
			c0.145-0.043,0.304-0.064,0.477-0.064c0.166,0.002,0.318,0.014,0.457,0.039c0.141,0.025,0.265,0.057,0.375,0.096h0.015v-0.209
			c0-0.082-0.007-0.154-0.019-0.219c-0.009-0.061-0.029-0.119-0.057-0.166c-0.058-0.102-0.149-0.186-0.277-0.25
			c-0.125-0.068-0.298-0.102-0.514-0.102c-0.161,0-0.313,0.014-0.452,0.043c-0.144,0.029-0.282,0.066-0.423,0.119v-0.41
			c0.054-0.027,0.117-0.049,0.188-0.072c0.074-0.021,0.148-0.041,0.229-0.057c0.079-0.016,0.165-0.027,0.255-0.037
			c0.088-0.006,0.177-0.012,0.267-0.012c0.321,0,0.58,0.053,0.786,0.162c0.204,0.107,0.351,0.248,0.439,0.426
			c0.034,0.066,0.058,0.143,0.073,0.223c0.015,0.08,0.02,0.17,0.02,0.266v2.002h-0.432L86.437,38.787z M86.41,37.801
			c-0.097-0.025-0.21-0.047-0.341-0.074c-0.131-0.021-0.275-0.035-0.432-0.037c-0.221,0-0.393,0.045-0.516,0.133
			c-0.123,0.09-0.187,0.225-0.187,0.408c0,0.094,0.016,0.174,0.047,0.244c0.032,0.068,0.073,0.127,0.128,0.172
			c0.055,0.043,0.118,0.078,0.192,0.1c0.073,0.023,0.153,0.035,0.238,0.035c0.111,0,0.215-0.016,0.31-0.047
			c0.097-0.029,0.18-0.066,0.253-0.109c0.075-0.041,0.138-0.084,0.191-0.125c0.052-0.043,0.09-0.076,0.115-0.1V37.801z"/>
		<path fill="#0086BF" d="M89.602,39.125c-0.045,0.016-0.111,0.031-0.204,0.047c-0.091,0.014-0.199,0.021-0.327,0.023
			c-0.166,0-0.311-0.018-0.433-0.055c-0.123-0.041-0.225-0.096-0.307-0.172c-0.082-0.068-0.14-0.16-0.182-0.262
			c-0.04-0.102-0.061-0.219-0.061-0.344v-1.824h-0.61v-0.422h0.61v-0.82h0.518v0.82h0.949v0.422h-0.949v1.748
			c0,0.07,0.011,0.135,0.033,0.193c0.02,0.059,0.053,0.109,0.1,0.152c0.045,0.043,0.104,0.078,0.175,0.102
			c0.072,0.025,0.156,0.037,0.258,0.037c0.068,0,0.14-0.004,0.218-0.018c0.077-0.01,0.146-0.023,0.212-0.041V39.125z"/>
		<path fill="#0086BF" d="M92.16,38.787h-0.015c-0.04,0.049-0.094,0.1-0.16,0.148c-0.062,0.049-0.138,0.094-0.224,0.133
			c-0.083,0.041-0.176,0.072-0.276,0.094c-0.1,0.023-0.207,0.033-0.319,0.033c-0.154,0-0.297-0.02-0.424-0.063
			c-0.128-0.045-0.236-0.107-0.33-0.189c-0.093-0.084-0.166-0.186-0.215-0.305c-0.053-0.119-0.078-0.258-0.078-0.408
			c0-0.148,0.027-0.283,0.085-0.4s0.138-0.219,0.239-0.301c0.103-0.082,0.227-0.146,0.369-0.189
			c0.146-0.043,0.303-0.064,0.478-0.064c0.164,0.002,0.316,0.014,0.456,0.039s0.265,0.057,0.373,0.096h0.013v-0.209
			c0-0.082-0.004-0.154-0.016-0.219c-0.011-0.061-0.028-0.119-0.055-0.166c-0.059-0.102-0.151-0.186-0.278-0.25
			c-0.127-0.068-0.299-0.102-0.515-0.102c-0.16,0-0.311,0.014-0.452,0.043s-0.284,0.066-0.424,0.119v-0.41
			c0.055-0.027,0.117-0.049,0.191-0.072c0.07-0.021,0.147-0.041,0.228-0.057s0.164-0.027,0.254-0.037
			c0.089-0.006,0.177-0.012,0.268-0.012c0.319,0,0.584,0.053,0.784,0.162c0.204,0.107,0.352,0.248,0.44,0.426
			c0.033,0.066,0.058,0.143,0.073,0.223c0.013,0.08,0.021,0.17,0.021,0.266v2.002h-0.436L92.16,38.787z M92.132,37.801
			c-0.094-0.025-0.206-0.047-0.335-0.074c-0.133-0.021-0.277-0.035-0.436-0.037c-0.219,0-0.39,0.045-0.515,0.133
			c-0.125,0.09-0.187,0.225-0.187,0.408c0,0.094,0.017,0.174,0.047,0.244c0.03,0.068,0.075,0.127,0.128,0.172
			c0.054,0.043,0.118,0.078,0.193,0.1c0.072,0.023,0.152,0.035,0.236,0.035c0.111,0,0.216-0.016,0.31-0.047
			c0.097-0.029,0.181-0.066,0.254-0.109c0.075-0.041,0.138-0.084,0.193-0.125c0.049-0.043,0.088-0.076,0.11-0.1V37.801z"/>
		<path fill="#0086BF" d="M96.499,37.568c0,0.279-0.042,0.52-0.121,0.727c-0.08,0.203-0.186,0.373-0.316,0.506
			c-0.133,0.133-0.282,0.232-0.451,0.299c-0.17,0.064-0.343,0.096-0.522,0.096c-0.139,0-0.258-0.016-0.359-0.047
			c-0.104-0.035-0.191-0.072-0.265-0.117c-0.075-0.047-0.132-0.092-0.174-0.137c-0.045-0.047-0.074-0.086-0.093-0.109h-0.01
			l-0.111,0.332h-0.389v-4.572h0.518v1.854h0.008c0.113-0.113,0.247-0.203,0.399-0.266c0.15-0.063,0.322-0.094,0.518-0.094
			c0.089,0,0.187,0.01,0.288,0.029c0.103,0.018,0.207,0.049,0.308,0.1c0.102,0.043,0.198,0.104,0.293,0.18
			c0.092,0.078,0.174,0.17,0.247,0.283c0.071,0.111,0.127,0.246,0.17,0.402C96.478,37.186,96.499,37.365,96.499,37.568z
			 M95.957,37.605c0-0.238-0.03-0.43-0.087-0.58c-0.061-0.148-0.137-0.264-0.228-0.348c-0.094-0.084-0.192-0.139-0.297-0.17
			c-0.105-0.033-0.209-0.049-0.314-0.049c-0.158,0-0.311,0.031-0.451,0.096c-0.142,0.061-0.269,0.143-0.375,0.244v1.57
			c0.031,0.039,0.072,0.084,0.121,0.133c0.051,0.045,0.111,0.09,0.178,0.131c0.068,0.041,0.146,0.076,0.231,0.105
			c0.088,0.029,0.182,0.043,0.284,0.043c0.152,0,0.289-0.029,0.404-0.086c0.117-0.057,0.217-0.137,0.295-0.242
			s0.139-0.229,0.179-0.371C95.939,37.936,95.957,37.777,95.957,37.605z"/>
		<path fill="#0086BF" d="M99.174,38.787h-0.012c-0.044,0.049-0.098,0.1-0.162,0.148c-0.063,0.049-0.14,0.094-0.223,0.133
			c-0.086,0.041-0.178,0.072-0.277,0.094c-0.101,0.023-0.209,0.033-0.32,0.033c-0.156,0-0.297-0.02-0.423-0.063
			c-0.129-0.045-0.239-0.107-0.331-0.189c-0.093-0.084-0.165-0.186-0.216-0.305s-0.076-0.258-0.076-0.408
			c0-0.148,0.028-0.283,0.086-0.4c0.056-0.117,0.136-0.219,0.237-0.301s0.226-0.146,0.37-0.189s0.301-0.064,0.476-0.064
			c0.164,0.002,0.317,0.014,0.459,0.039c0.139,0.025,0.262,0.057,0.371,0.096h0.016v-0.209c0-0.082-0.008-0.154-0.019-0.219
			c-0.012-0.061-0.029-0.119-0.055-0.166c-0.058-0.102-0.151-0.186-0.279-0.25c-0.127-0.068-0.298-0.102-0.513-0.102
			c-0.162,0-0.312,0.014-0.453,0.043c-0.141,0.029-0.282,0.066-0.424,0.119v-0.41c0.055-0.027,0.118-0.049,0.19-0.072
			c0.071-0.021,0.147-0.041,0.228-0.057c0.079-0.016,0.165-0.027,0.254-0.037c0.09-0.006,0.178-0.012,0.268-0.012
			c0.32,0,0.584,0.053,0.786,0.162c0.204,0.107,0.35,0.248,0.438,0.426c0.036,0.066,0.059,0.143,0.074,0.223s0.02,0.17,0.02,0.266
			v2.002h-0.431L99.174,38.787z M99.148,37.801c-0.096-0.025-0.21-0.047-0.339-0.074c-0.133-0.021-0.277-0.035-0.434-0.037
			c-0.22,0-0.391,0.045-0.515,0.133c-0.127,0.09-0.187,0.225-0.187,0.408c0,0.094,0.016,0.174,0.046,0.244
			c0.031,0.068,0.074,0.127,0.128,0.172c0.055,0.043,0.118,0.078,0.194,0.1c0.073,0.023,0.153,0.035,0.237,0.035
			c0.109,0,0.214-0.016,0.309-0.047c0.096-0.029,0.182-0.066,0.254-0.109c0.073-0.041,0.137-0.084,0.191-0.125
			c0.051-0.043,0.088-0.076,0.114-0.1V37.801z"/>
		<path fill="#0086BF" d="M101.038,36.918c0,0.082,0.019,0.148,0.055,0.201c0.037,0.051,0.089,0.096,0.15,0.129
			c0.06,0.031,0.133,0.059,0.214,0.08c0.082,0.021,0.167,0.039,0.254,0.055c0.119,0.027,0.23,0.057,0.34,0.084
			c0.105,0.033,0.207,0.078,0.295,0.139c0.089,0.061,0.163,0.145,0.219,0.248c0.057,0.104,0.083,0.24,0.083,0.404
			c0,0.152-0.031,0.287-0.094,0.404c-0.062,0.117-0.15,0.215-0.264,0.293c-0.112,0.078-0.249,0.141-0.406,0.18
			c-0.16,0.043-0.332,0.061-0.521,0.061c-0.117,0-0.223-0.002-0.317-0.016c-0.095-0.012-0.179-0.025-0.251-0.045
			c-0.072-0.018-0.134-0.035-0.186-0.055c-0.05-0.02-0.093-0.037-0.127-0.055v-0.41c0.133,0.051,0.262,0.092,0.392,0.121
			c0.129,0.031,0.271,0.045,0.427,0.045c0.121,0,0.232-0.012,0.33-0.033c0.099-0.021,0.185-0.051,0.255-0.092
			c0.069-0.045,0.127-0.094,0.163-0.154c0.038-0.064,0.057-0.137,0.057-0.217c0-0.086-0.018-0.154-0.051-0.211
			c-0.035-0.053-0.082-0.096-0.141-0.133c-0.06-0.037-0.129-0.066-0.206-0.09c-0.079-0.021-0.158-0.043-0.244-0.063
			c-0.11-0.021-0.226-0.051-0.339-0.082c-0.115-0.031-0.219-0.076-0.313-0.133c-0.094-0.059-0.17-0.135-0.229-0.232
			c-0.057-0.098-0.086-0.225-0.086-0.377c0-0.16,0.029-0.293,0.09-0.41c0.06-0.117,0.142-0.213,0.243-0.289
			c0.103-0.076,0.223-0.133,0.357-0.17c0.138-0.037,0.279-0.057,0.432-0.057c0.175,0,0.338,0.016,0.488,0.047
			c0.152,0.031,0.287,0.072,0.41,0.121v0.416c-0.129-0.049-0.264-0.086-0.396-0.117c-0.134-0.031-0.271-0.049-0.412-0.049
			c-0.12,0-0.22,0.01-0.305,0.033c-0.087,0.023-0.155,0.055-0.21,0.098c-0.054,0.041-0.093,0.088-0.119,0.145
			C101.051,36.789,101.038,36.85,101.038,36.918z"/>
		<path fill="#0086BF" d="M104.939,38.771c0.172,0,0.326-0.014,0.47-0.039c0.142-0.027,0.282-0.064,0.422-0.113v0.406
			c-0.114,0.053-0.255,0.096-0.422,0.125c-0.166,0.031-0.346,0.045-0.538,0.045c-0.227,0-0.439-0.025-0.638-0.082
			c-0.2-0.053-0.373-0.141-0.52-0.264c-0.145-0.123-0.259-0.281-0.341-0.477c-0.082-0.197-0.125-0.436-0.125-0.715
			c0-0.273,0.042-0.51,0.12-0.711c0.08-0.201,0.188-0.367,0.319-0.504c0.134-0.135,0.287-0.236,0.46-0.305
			c0.175-0.066,0.354-0.1,0.544-0.1c0.178,0,0.342,0.029,0.5,0.084c0.152,0.057,0.285,0.143,0.4,0.264
			c0.111,0.121,0.201,0.273,0.268,0.465c0.065,0.189,0.098,0.416,0.098,0.68c0,0.027,0,0.049,0,0.064
			c0,0.018-0.002,0.059-0.004,0.123h-2.188c0,0.193,0.028,0.355,0.09,0.488c0.061,0.133,0.145,0.242,0.25,0.324
			c0.106,0.084,0.23,0.145,0.373,0.182C104.62,38.752,104.772,38.771,104.939,38.771z M104.665,36.459
			c-0.119,0-0.229,0.021-0.334,0.066c-0.102,0.043-0.191,0.104-0.267,0.18c-0.077,0.076-0.139,0.166-0.188,0.266
			c-0.045,0.104-0.074,0.211-0.086,0.328h1.622c0-0.117-0.018-0.229-0.047-0.332c-0.035-0.102-0.082-0.189-0.146-0.264
			c-0.063-0.076-0.141-0.137-0.233-0.18C104.893,36.48,104.787,36.459,104.665,36.459z"/>
		<path fill="#0086BF" d="M110.163,35.273c-0.25,0-0.483,0.037-0.699,0.109c-0.22,0.076-0.407,0.188-0.567,0.336
			s-0.287,0.332-0.38,0.553s-0.139,0.477-0.139,0.77c0,0.289,0.043,0.541,0.13,0.756c0.085,0.213,0.206,0.389,0.364,0.529
			c0.158,0.139,0.348,0.244,0.57,0.313c0.22,0.066,0.469,0.102,0.742,0.102c0.073,0,0.153-0.006,0.237-0.014
			c0.083-0.006,0.167-0.016,0.249-0.029c0.087-0.014,0.167-0.029,0.249-0.049c0.078-0.016,0.151-0.037,0.215-0.059v0.457
			c-0.131,0.047-0.285,0.084-0.457,0.109c-0.175,0.027-0.354,0.039-0.537,0.039c-0.37,0-0.7-0.047-0.987-0.145
			c-0.286-0.098-0.529-0.238-0.724-0.424c-0.194-0.182-0.341-0.404-0.441-0.67c-0.101-0.264-0.149-0.563-0.149-0.896
			c0-0.328,0.051-0.633,0.156-0.908c0.105-0.277,0.26-0.512,0.459-0.711c0.199-0.195,0.442-0.352,0.725-0.461
			c0.285-0.111,0.603-0.168,0.958-0.168c0.092,0,0.186,0.006,0.274,0.012c0.092,0.008,0.18,0.02,0.265,0.031
			c0.083,0.014,0.161,0.031,0.232,0.049c0.069,0.021,0.132,0.039,0.183,0.063v0.453c-0.135-0.041-0.283-0.078-0.442-0.105
			C110.488,35.285,110.326,35.273,110.163,35.273z"/>
		<path fill="#0086BF" d="M113.477,38.771c0.17,0,0.325-0.014,0.468-0.039c0.142-0.027,0.282-0.064,0.421-0.113v0.406
			c-0.112,0.053-0.253,0.096-0.419,0.125c-0.169,0.031-0.346,0.045-0.538,0.045c-0.227,0-0.44-0.025-0.64-0.082
			c-0.197-0.053-0.371-0.141-0.517-0.264s-0.262-0.281-0.343-0.477c-0.082-0.197-0.123-0.436-0.123-0.715
			c0-0.273,0.039-0.51,0.119-0.711s0.188-0.367,0.321-0.504c0.133-0.135,0.285-0.236,0.457-0.305c0.175-0.066,0.355-0.1,0.544-0.1
			c0.178,0,0.345,0.029,0.498,0.084c0.154,0.057,0.289,0.143,0.4,0.264c0.114,0.121,0.205,0.273,0.27,0.465
			c0.065,0.189,0.1,0.416,0.1,0.68c0,0.027,0,0.049,0,0.064c0,0.018-0.003,0.059-0.006,0.123H112.3c0,0.193,0.031,0.355,0.091,0.488
			c0.062,0.133,0.145,0.242,0.252,0.324c0.104,0.084,0.229,0.145,0.371,0.182C113.156,38.752,113.312,38.771,113.477,38.771z
			 M113.202,36.459c-0.119,0-0.231,0.021-0.332,0.066c-0.104,0.043-0.193,0.104-0.27,0.18c-0.078,0.076-0.139,0.166-0.185,0.266
			c-0.05,0.104-0.079,0.211-0.092,0.328h1.626c0-0.117-0.018-0.229-0.051-0.332c-0.029-0.102-0.079-0.189-0.142-0.264
			c-0.063-0.076-0.142-0.137-0.234-0.18C113.432,36.48,113.323,36.459,113.202,36.459z"/>
		<path fill="#0086BF" d="M115.873,36.533h0.01c0.06-0.068,0.122-0.135,0.192-0.191c0.072-0.061,0.148-0.113,0.236-0.16
			c0.087-0.043,0.183-0.08,0.286-0.104c0.102-0.027,0.216-0.039,0.339-0.039c0.146,0,0.278,0.02,0.405,0.057
			c0.128,0.037,0.237,0.1,0.332,0.184c0.093,0.084,0.167,0.195,0.222,0.33c0.055,0.137,0.082,0.303,0.082,0.5v2.008h-0.517v-1.93
			c0-0.258-0.053-0.447-0.159-0.559c-0.106-0.113-0.26-0.17-0.462-0.17c-0.18,0-0.351,0.049-0.52,0.143
			c-0.167,0.092-0.31,0.221-0.43,0.385v2.131h-0.518v-3h0.4L115.873,36.533z"/>
		<path fill="#0086BF" d="M120.653,39.125c-0.046,0.016-0.112,0.031-0.205,0.047c-0.091,0.014-0.198,0.021-0.327,0.023
			c-0.166,0-0.311-0.018-0.433-0.055c-0.123-0.041-0.225-0.096-0.306-0.172c-0.082-0.068-0.142-0.16-0.182-0.262
			c-0.041-0.102-0.063-0.219-0.063-0.344v-1.824h-0.61v-0.422h0.61v-0.82h0.518v0.82h0.949v0.422h-0.949v1.748
			c0,0.07,0.012,0.135,0.033,0.193c0.021,0.059,0.055,0.109,0.101,0.152c0.045,0.043,0.104,0.078,0.175,0.102
			c0.072,0.025,0.156,0.037,0.257,0.037c0.07,0,0.142-0.004,0.219-0.018c0.076-0.01,0.146-0.023,0.213-0.041V39.125z"/>
		<path fill="#0086BF" d="M122.861,38.771c0.171,0,0.327-0.014,0.469-0.039c0.141-0.027,0.282-0.064,0.423-0.113v0.406
			c-0.114,0.053-0.254,0.096-0.421,0.125c-0.169,0.031-0.347,0.045-0.537,0.045c-0.228,0-0.442-0.025-0.641-0.082
			c-0.2-0.053-0.372-0.141-0.517-0.264c-0.146-0.123-0.261-0.281-0.344-0.477c-0.081-0.197-0.122-0.436-0.122-0.715
			c0-0.273,0.039-0.51,0.119-0.711s0.187-0.367,0.321-0.504c0.132-0.135,0.284-0.236,0.458-0.305c0.173-0.066,0.354-0.1,0.543-0.1
			c0.177,0,0.344,0.029,0.499,0.084c0.153,0.057,0.287,0.143,0.399,0.264c0.113,0.121,0.203,0.273,0.271,0.465
			c0.065,0.189,0.098,0.416,0.098,0.68c0,0.027,0,0.049,0,0.064c0,0.018-0.002,0.059-0.004,0.123h-2.191
			c0,0.193,0.033,0.355,0.092,0.488c0.061,0.133,0.145,0.242,0.25,0.324c0.106,0.084,0.231,0.145,0.372,0.182
			C122.542,38.752,122.696,38.771,122.861,38.771z M122.587,36.459c-0.118,0-0.23,0.021-0.332,0.066
			c-0.104,0.043-0.192,0.104-0.269,0.18s-0.14,0.166-0.186,0.266c-0.049,0.104-0.079,0.211-0.09,0.328h1.626
			c0-0.117-0.02-0.229-0.051-0.332c-0.031-0.102-0.082-0.189-0.145-0.264c-0.063-0.076-0.141-0.137-0.231-0.18
			C122.816,36.48,122.708,36.459,122.587,36.459z"/>
		<path fill="#0086BF" d="M126.497,36.516h-0.041c-0.121,0-0.241,0.012-0.359,0.031c-0.118,0.021-0.23,0.055-0.332,0.098
			c-0.103,0.043-0.197,0.096-0.281,0.158s-0.152,0.139-0.207,0.225v2.09h-0.52v-3h0.402l0.1,0.477h0.01
			c0.052-0.078,0.115-0.148,0.188-0.217c0.075-0.066,0.158-0.125,0.254-0.176c0.093-0.051,0.195-0.09,0.305-0.119
			c0.113-0.029,0.229-0.043,0.353-0.043c0.021,0,0.043,0.002,0.068,0.002c0.022,0.002,0.043,0.004,0.061,0.004V36.516z"/>
	</g>
</g>
</svg>
