<?xml version="1.0" encoding="utf-8"?>
<!-- Generator: Adobe Illustrator 16.0.0, SVG Export Plug-In . SVG Version: 6.00 Build 0)  -->
<!DOCTYPE svg PUBLIC "-//W3C//DTD SVG 1.1//EN" "http://www.w3.org/Graphics/SVG/1.1/DTD/svg11.dtd">
<svg version="1.1" id="レイヤー_1" xmlns="http://www.w3.org/2000/svg" xmlns:xlink="http://www.w3.org/1999/xlink" x="0px"
	 y="0px" width="20px" height="20px" viewBox="0 0 20 20" enable-background="new 0 0 20 20" xml:space="preserve">
<g>
	<polygon fill="#C4641A" stroke="#C4641A" stroke-width="0.3" stroke-miterlimit="10" points="3.571,9.037 3.571,9.368 7.162,7.308 
		7.162,6.939 	"/>
	<polygon fill="#C4641A" stroke="#C4641A" stroke-width="0.3" stroke-miterlimit="10" points="3.571,13.301 3.571,13.601 
		7.162,12.363 7.162,12.009 	"/>
	<g>
		<polygon fill="#C4641A" stroke="#C4641A" stroke-width="0.3" stroke-miterlimit="10" points="3.94,18.729 3.94,5.69 7.162,2.81 
			7.174,1.491 2.76,5.501 2.76,19.647 7.191,19.647 7.191,18.729 		"/>
		<polygon fill="#C4641A" stroke="#C4641A" stroke-width="0.3" stroke-miterlimit="10" points="9.222,0.914 8.625,0.353 
			8.027,0.922 8.027,19.647 9.222,19.647 		"/>
		<polygon fill="#C4641A" stroke="#C4641A" stroke-width="0.3" stroke-miterlimit="10" points="11.773,19.647 11.773,2.292 
			10.082,1.301 10.082,2.216 10.707,2.631 10.707,18.719 10.244,18.719 10.244,19.647 		"/>
		<polygon fill="#C4641A" stroke="#C4641A" stroke-width="0.3" stroke-miterlimit="10" points="14.221,19.647 14.221,3.546 
			12.527,2.628 12.527,3.648 13.203,4.108 13.203,18.719 12.746,18.719 12.758,19.647 		"/>
		<polygon fill="#C4641A" stroke="#C4641A" stroke-width="0.3" stroke-miterlimit="10" points="15.141,4.045 15.141,5.089 
			16.189,5.723 16.189,18.729 15.141,18.729 15.137,19.647 17.24,19.647 17.24,5.224 		"/>
	</g>
</g>
</svg>
