<svg version="1.1" id="_x32_" xmlns="http://www.w3.org/2000/svg" xmlns:xlink="http://www.w3.org/1999/xlink" x="0px" y="0px" viewBox="0 0 512 512" xml:space="preserve">
     <style type="text/css">
        .st0{fill:#c60;}
    </style>

        <g>
            <path class="st0" d="M484.006,61.227H27.994v308.888h456.013V61.227z M449.026,334.108c0,0.566-0.46,1.027-1.026,1.027H64
                c-0.566-0.007-1.027-0.461-1.027-1.027V97.234c0-0.559,0.461-1.033,1.027-1.033h384c0.566,0,1.026,0.474,1.026,1.033V334.108z"></path>
            <path class="st0" d="M0,396.898v18.395c0,19.566,15.908,35.48,35.474,35.48h441.053c19.566,0,35.474-15.914,35.474-35.48v-18.395H0
                z M297.349,422.543c0,3.217-2.619,5.842-5.836,5.842h-71.026c-3.224,0-5.836-2.626-5.836-5.842v-5.467h82.698V422.543z"></path>
            <path class="st0" d="M331.809,266.964c-9.368-9.322-13.105-13.816-9.809-21.388c14.467-29.493,9.461-66.105-15.066-90.632
                c-30.842-30.849-80.868-30.849-111.71,0c-30.842,30.856-30.842,80.856,0,111.704c24.52,24.519,61.158,29.526,90.625,15.066
                c7.579-3.303,12.078,0.44,21.394,9.809c6.375,6.382,17.257,20.612,17.257,20.612c12.098,12.099,21.408,4.664,27.006-0.928
                c5.572-5.586,13.02-14.894,0.921-26.986C352.428,284.221,338.191,273.332,331.809,266.964z M283.421,243.135
                c-17.862,17.848-46.816,17.848-64.684,0c-17.848-17.856-17.848-46.822,0-64.671c17.869-17.855,46.822-17.855,64.684,0
                C301.276,196.312,301.276,225.279,283.421,243.135z"></path>
        </g>
</svg>	
